<svg id="Capa_1" data-name="Capa 1" xmlns="http://www.w3.org/2000/svg" viewBox="0 0 92.49 23.05"><defs><style>.cls-1{fill:#e1abca;}.cls-2,.cls-3{fill:#c22380;}.cls-2{fill-rule:evenodd;}</style></defs><title>Asomarte</title><path class="cls-1" d="M27.14,4.66l.49,1.84L28.28,9h0V3.24a2.88,2.88,0,0,0-1.45.38Z"/><path class="cls-1" d="M28.34,9h0l.8-1.4,1.62-2.82,0-.09a2.85,2.85,0,0,0-1.07-1.05l-.3,1.14-.75,2.82-.36,1.37V9h0V9h0Z"/><polygon class="cls-1" points="28.43 8.97 30.82 7.58 30.84 7.58 32.66 6.52 32.59 6.47 32.59 4.75 32.58 4.75 30.82 6.52 29.78 7.58 28.39 8.97 28.38 8.98 28.37 8.99 28.36 9 28.36 9 28.36 9.01 28.36 9 28.37 9 28.39 8.99 28.41 8.98 28.43 8.97"/><path class="cls-1" d="M30.82,9h3.29a2.87,2.87,0,0,0-.39-1.45l-1.06.28-1.84.49L28.47,9h2.35Z"/><polygon class="cls-1" points="28.34 9.01 28.35 9.01 28.35 9.01 28.34 9.01"/><path class="cls-1" d="M28.37,9h0l1.37.8,2.81,1.64.11.06a3,3,0,0,0,1-1.07l-1.15-.31-2.81-.77L28.49,9h-.12Z"/><polygon class="cls-1" points="28.35 9 28.35 9 28.35 9.01 28.36 9.01 28.35 9"/><polygon class="cls-1" points="29.78 10.44 28.39 9.04 28.38 9.03 28.38 9.02 28.37 9.01 28.36 9.02 28.36 9.02 28.36 9.03 28.37 9.04 29.78 11.51 29.8 11.54 30.84 13.37 30.87 13.31 32.59 13.31 32.59 13.29 30.86 11.54 29.78 10.44"/><polygon class="cls-1" points="28.36 9.01 28.35 9.01 28.35 9.01 28.34 9.02 28.34 9.03 28.34 9.02 28.34 9.02 28.36 9.02 28.36 9.01 28.36 9.01"/><polygon class="cls-1" points="28.33 9.01 28.33 9.01 28.32 8.97 28.32 9.04 28.33 9.01 28.33 9.01"/><path class="cls-1" d="M29,11.54l-.66-2.48V9h0v5.8a2.88,2.88,0,0,0,1.46-.39l-.28-1.07Z"/><path class="cls-1" d="M28.29,9h0l-.81,1.41-1.62,2.83-.06.1a2.93,2.93,0,0,0,1.07,1.08l.31-1.18.75-2.83.37-1.38h0V9h0Z"/><polygon class="cls-1" points="28.27 8.99 28.28 8.99 28.29 8.98 28.29 8.98 28.29 8.98 28.28 8.99 28.27 8.99 28.27 8.99 28.27 8.99"/><polygon class="cls-1" points="25.78 11.51 26.84 10.44 28.24 9.04 28.25 9.03 28.26 9.01 28.27 9.01 28.27 9.01 28.27 9.01 28.26 9 28.25 9.01 28.24 9.01 28.21 9.03 28.2 9.04 25.78 10.44 25.78 10.44 23.9 11.53 24.03 11.6 24.03 13.27 25.78 11.51"/><path class="cls-1" d="M28.23,9H22.51V9a2.87,2.87,0,0,0,.36,1.41l1-.28,1.88-.5L28.14,9h.1Z"/><polygon class="cls-1" points="28.27 9 28.29 8.99 28.27 8.99 28.27 9 28.27 9"/><path class="cls-1" d="M28.26,9h0l-1.36-.79L24.07,6.55,24,6.5a3,3,0,0,0-1.07,1l1.16.32,2.79.76L28.15,9h.1Z"/><polygon class="cls-1" points="28.29 9.01 28.28 9.01 28.28 9.01 28.29 9.01"/><polygon class="cls-1" points="28.25 8.99 28.26 8.99 28.26 8.99 28.27 8.99 28.27 8.99 28.27 8.99 28.26 8.98 28.26 8.97 26.86 6.53 26.84 6.5 25.8 4.66 25.75 4.75 24.07 4.75 25.79 6.5 26.86 7.58 28.23 8.97 28.24 8.98 28.25 8.99 28.25 8.99 28.25 8.99 28.25 8.99"/><path class="cls-2" d="M1.2,3.91A9.48,9.48,0,0,1,5,3C8.41,3,9.81,4.5,9.81,7.93V9.43c0,1.17,0,2.06,0,2.91s.06,1.7.13,2.6H7.45a15.24,15.24,0,0,1-.13-1.74h0a3.91,3.91,0,0,1-3.42,2A3.59,3.59,0,0,1,0,11.75,3.44,3.44,0,0,1,1.89,8.43,8.38,8.38,0,0,1,5.6,7.75H7.19c0-1.87-.79-2.51-2.49-2.51A5.6,5.6,0,0,0,1.29,6.51ZM4.57,13a2.41,2.41,0,0,0,2-1,4,4,0,0,0,.6-2.4H5.95c-1.29,0-3.2.23-3.2,2,0,1,.79,1.42,1.82,1.42"/><path class="cls-2" d="M18.08,5.74a6.73,6.73,0,0,0-2.58-.5c-.77,0-1.7.29-1.7,1.29,0,1.85,5,.68,5,4.88,0,2.71-2.3,3.79-4.64,3.79a12.25,12.25,0,0,1-3.26-.5l.17-2.49a6,6,0,0,0,2.83.77c.73,0,1.89-.29,1.89-1.42,0-2.28-5-.73-5-4.93C10.81,4.13,12.89,3,15.14,3a12.71,12.71,0,0,1,3.13.43Z"/><path class="cls-2" d="M38.31,3.3H41V4.93h0A3.84,3.84,0,0,1,44.32,3a3.21,3.21,0,0,1,3.26,2.06A3.76,3.76,0,0,1,51,3c2.73,0,3.5,2,3.5,4.56v7.35H51.67V8c0-1.08,0-2.62-1.65-2.62-1.91,0-2.15,2.4-2.15,3.91v5.65H45V8c0-1.08,0-2.62-1.65-2.62-1.91,0-2.15,2.4-2.15,3.91v5.65H38.31Z"/><path class="cls-2" d="M56.74,3.91A9.48,9.48,0,0,1,60.58,3C64,3,65.35,4.5,65.35,7.93V9.43c0,1.17,0,2.06,0,2.91s.07,1.7.13,2.6H63a14.44,14.44,0,0,1-.13-1.74h0a3.91,3.91,0,0,1-3.41,2,3.59,3.59,0,0,1-3.87-3.46,3.44,3.44,0,0,1,1.89-3.32,8.38,8.38,0,0,1,3.71-.68h1.59c0-1.87-.79-2.51-2.49-2.51a5.6,5.6,0,0,0-3.41,1.27ZM60.11,13a2.41,2.41,0,0,0,2-1,4,4,0,0,0,.6-2.4H61.48c-1.29,0-3.2.23-3.2,2,0,1,.79,1.42,1.83,1.42"/><path class="cls-2" d="M66.62,3.3h2.56V5.94h0c.13-1.08,1.31-2.91,3-2.91a3,3,0,0,1,.88.09V6.17a2.79,2.79,0,0,0-1.29-.25C69.5,5.92,69.5,9,69.5,10.67v4.27H66.62Z"/><path class="cls-2" d="M75.94,5.51H73.81V3.3h2.13V1l2.88-1V3.3h2.56V5.51H78.82v5.43c0,1,.26,1.92,1.35,1.92a2.48,2.48,0,0,0,1.31-.32l.09,2.4a7.23,7.23,0,0,1-2.13.27c-2.26,0-3.5-1.47-3.5-3.77Z"/><path class="cls-2" d="M91.67,14.28a7.31,7.31,0,0,1-3.8.92c-3.65,0-5.78-2.21-5.78-6C82.1,5.81,83.79,3,87.23,3c4.1,0,5.26,3,5.26,7H84.84A3,3,0,0,0,88,13a7.21,7.21,0,0,0,3.67-1.18ZM89.74,8C89.65,6.51,89,5.25,87.4,5.25S85,6.42,84.84,8Z"/><path class="cls-3" d="M25.6,13.56H23.78V11.74A3.16,3.16,0,0,1,22.26,9h0a3.17,3.17,0,0,1,1.52-2.71h0V4.51H25.6A3.16,3.16,0,0,1,28.31,3h0A3.17,3.17,0,0,1,31,4.51h1.82V6.33A3.17,3.17,0,0,1,34.36,9h0a3.17,3.17,0,0,1-1.52,2.71h0v1.82H31a3.16,3.16,0,0,1-2.71,1.52h0a3.16,3.16,0,0,1-2.71-1.52ZM24.28,6.62l-.13.07A2.67,2.67,0,0,0,22.75,9h0a2.67,2.67,0,0,0,1.39,2.34h0l.13.07v1.62h1.62l.07.13a2.66,2.66,0,0,0,2.35,1.4h0a2.66,2.66,0,0,0,2.34-1.4h0l.07-.13h1.62V11.45l.13-.07A2.67,2.67,0,0,0,33.86,9h0a2.67,2.67,0,0,0-1.39-2.35h0l-.13-.07V5H30.72l-.07-.13a2.67,2.67,0,0,0-2.34-1.39h0A2.67,2.67,0,0,0,26,4.87h0L25.89,5H24.28V6.62Z"/><path class="cls-2" d="M37,9a4.34,4.34,0,0,0-2.27-3.82V2.65H32.13a4.35,4.35,0,0,0-7.65,0H21.93V5.21a4.35,4.35,0,0,0,0,7.65v2.56h2.56a4.35,4.35,0,0,0,7.65,0h2.56V12.86A4.35,4.35,0,0,0,37,9M34.86,9a3.29,3.29,0,0,0-1.72-2.89V4.2H31.2a3.3,3.3,0,0,0-5.79,0H23.48V6.14a3.29,3.29,0,0,0,0,5.79v1.94h1.93a3.3,3.3,0,0,0,5.79,0h1.94V11.93A3.29,3.29,0,0,0,34.86,9"/><path class="cls-3" d="M40.34,23.05h-.22a.12.12,0,0,1-.13-.12V21.47a.75.75,0,0,1-.71.4c-.64,0-1-.51-1-1.51a1.81,1.81,0,0,1,.3-1.2.86.86,0,0,1,.69-.33.75.75,0,0,1,.69.44l.06-.28a.14.14,0,0,1,.16-.12h.13a.13.13,0,0,1,.13.12v3.95A.12.12,0,0,1,40.34,23.05Zm-.94-3.82a.44.44,0,0,0-.41.24,1.87,1.87,0,0,0-.15.88c0,.79.17,1.11.56,1.11s.61-.35.61-1.09S39.78,19.24,39.4,19.24Z"/><path class="cls-3" d="M43.37,21.84h-.14a.12.12,0,0,1-.12-.1L43,21.41a1.07,1.07,0,0,1-.9.46.69.69,0,0,1-.74-.78V19a.13.13,0,0,1,.13-.12h.23a.12.12,0,0,1,.13.12v2c0,.3.14.43.38.43.44,0,.75-.31.75-1V19a.13.13,0,0,1,.13-.12h.23a.13.13,0,0,1,.13.12v2.73A.13.13,0,0,1,43.37,21.84Z"/><path class="cls-3" d="M46.31,20.47H44.74c0,.62.24,1,.8,1a1.92,1.92,0,0,0,.59-.1.12.12,0,0,1,.16.08l.05.15a.12.12,0,0,1-.08.16,1.65,1.65,0,0,1-.72.13c-.85,0-1.32-.54-1.32-1.54s.46-1.5,1.12-1.5,1.09.35,1.09,1.51A.13.13,0,0,1,46.31,20.47Zm-1-1.25c-.2,0-.54.12-.62.85h1.19C45.92,19.66,45.76,19.22,45.35,19.22Zm.75-1.4L45,18.31a.11.11,0,0,1-.15,0l-.06-.11a.11.11,0,0,1,.06-.16l1-.64a.1.1,0,0,1,.16,0l.13.24A.12.12,0,0,1,46.1,17.82Z"/><path class="cls-3" d="M50.46,21.84h-.22a.13.13,0,0,1-.13-.12v-2c0-.33-.12-.46-.4-.46A.75.75,0,0,0,49,20v1.7a.13.13,0,0,1-.13.12h-.22a.13.13,0,0,1-.13-.12V17.59a.13.13,0,0,1,.13-.12h.22a.13.13,0,0,1,.13.12v1.66a1.08,1.08,0,0,1,.85-.42.72.72,0,0,1,.76.77v2.11A.13.13,0,0,1,50.46,21.84Z"/><path class="cls-3" d="M53.36,21.84h-.25a.12.12,0,0,1-.14-.11l-.05-.31a.94.94,0,0,1-.85.45.77.77,0,0,1-.79-.86.87.87,0,0,1,.89-.94l.72,0v-.16c0-.39-.1-.58-.56-.58a2.07,2.07,0,0,0-.59.1.12.12,0,0,1-.15-.09l0-.2a.11.11,0,0,1,.09-.15,3,3,0,0,1,.72-.11c.93,0,1,.6,1,1.09V21a2.49,2.49,0,0,0,0,.51l0,.19A.1.1,0,0,1,53.36,21.84Zm-.46-1.47-.41,0c-.4,0-.7.12-.7.62,0,.32.16.47.42.47a.7.7,0,0,0,.69-.62Z"/><path class="cls-3" d="M55.88,21.79a1.81,1.81,0,0,1-.56.07c-.72,0-1.2-.55-1.2-1.54s.51-1.5,1.2-1.5a1.38,1.38,0,0,1,.52.11c.08,0,.12.09.09.15l-.06.18a.1.1,0,0,1-.15.07,1.15,1.15,0,0,0-.42-.09c-.38,0-.65.4-.65,1.07s.24,1.09.71,1.09a1.75,1.75,0,0,0,.43-.05.12.12,0,0,1,.15.09l0,.19A.13.13,0,0,1,55.88,21.79Z"/><path class="cls-3" d="M58.43,20.47H56.86c0,.62.24,1,.8,1a1.91,1.91,0,0,0,.59-.1.12.12,0,0,1,.16.08l.06.15a.12.12,0,0,1-.08.16,1.65,1.65,0,0,1-.72.13c-.85,0-1.32-.54-1.32-1.54s.46-1.5,1.12-1.5,1.09.35,1.09,1.51A.13.13,0,0,1,58.43,20.47Zm-1-1.25c-.2,0-.54.12-.62.85H58C58,19.66,57.88,19.22,57.48,19.22Z"/><path class="cls-3" d="M60.77,19.3a.13.13,0,0,1-.18.11,1.4,1.4,0,0,0-.35-.07c-.18,0-.42.22-.42.76v1.61a.13.13,0,0,1-.13.12h-.23a.13.13,0,0,1-.13-.12V19a.13.13,0,0,1,.13-.12h.14a.12.12,0,0,1,.13.09l.09.33a.81.81,0,0,1,.69-.46c.2,0,.35.09.32.22Z"/><path class="cls-3" d="M64.43,20.47H62.85c0,.62.24,1,.8,1a1.91,1.91,0,0,0,.59-.1.12.12,0,0,1,.16.08l.06.15a.12.12,0,0,1-.08.16,1.65,1.65,0,0,1-.72.13c-.85,0-1.32-.54-1.32-1.54s.46-1.5,1.12-1.5,1.09.35,1.09,1.51A.13.13,0,0,1,64.43,20.47Zm-1-1.25c-.2,0-.54.12-.62.85H64C64,19.66,63.88,19.22,63.47,19.22Z"/><path class="cls-3" d="M67.29,21.84h-.23a.13.13,0,0,1-.13-.12v-2c0-.33-.11-.46-.38-.46a.74.74,0,0,0-.72.77v1.7a.13.13,0,0,1-.13.12h-.23a.13.13,0,0,1-.13-.12V19a.13.13,0,0,1,.13-.12h.14c.09,0,.12,0,.14.1l.07.3a1.06,1.06,0,0,1,.85-.43.72.72,0,0,1,.76.77v2.11A.13.13,0,0,1,67.29,21.84Z"/><path class="cls-3" d="M72.69,22.23a.13.13,0,0,1-.17.07,2.3,2.3,0,0,1-.89-.62,1.33,1.33,0,0,1-.72.18c-.92,0-1.41-.63-1.41-2.09s.49-2.11,1.41-2.11,1.4.67,1.4,2.11a2.77,2.77,0,0,1-.38,1.62,2.41,2.41,0,0,0,.78.44c.06,0,.09.09.06.17Zm-1.78-4.15c-.79,0-.86.88-.86,1.69,0,1.17.27,1.66.86,1.66s.86-.65.86-1.66S71.62,18.08,70.91,18.08Z"/><path class="cls-3" d="M75.12,21.84H75a.12.12,0,0,1-.12-.1l-.08-.32a1.07,1.07,0,0,1-.9.46.69.69,0,0,1-.73-.78V19a.12.12,0,0,1,.13-.12h.24a.13.13,0,0,1,.13.12v2c0,.3.14.43.38.43.44,0,.75-.31.75-1V19a.13.13,0,0,1,.13-.12h.23a.13.13,0,0,1,.13.12v2.73A.13.13,0,0,1,75.12,21.84Z"/><path class="cls-3" d="M78.07,20.47H76.49c0,.62.24,1,.8,1a1.92,1.92,0,0,0,.59-.1.12.12,0,0,1,.16.08l.06.15a.12.12,0,0,1-.08.16,1.64,1.64,0,0,1-.72.13c-.85,0-1.32-.54-1.32-1.54s.46-1.5,1.12-1.5,1.09.35,1.09,1.51A.13.13,0,0,1,78.07,20.47Zm-1-1.25c-.2,0-.54.12-.62.85h1.19C77.67,19.66,77.52,19.22,77.11,19.22Z"/><path class="cls-3" d="M80.41,19.3a.13.13,0,0,1-.18.11,1.38,1.38,0,0,0-.35-.07c-.18,0-.42.22-.42.76v1.61a.13.13,0,0,1-.13.12H79.1a.13.13,0,0,1-.13-.12V19a.13.13,0,0,1,.13-.12h.14a.13.13,0,0,1,.13.09l.09.33a.81.81,0,0,1,.69-.46c.2,0,.35.09.32.22Z"/><path class="cls-3" d="M82.83,20.47H81.25c0,.62.24,1,.8,1a1.91,1.91,0,0,0,.59-.1.12.12,0,0,1,.16.08l.06.15a.12.12,0,0,1-.08.16,1.64,1.64,0,0,1-.72.13c-.85,0-1.32-.54-1.32-1.54s.46-1.5,1.12-1.5S83,19.17,83,20.34A.13.13,0,0,1,82.83,20.47Zm-1-1.25c-.2,0-.54.12-.62.85h1.19C82.43,19.66,82.28,19.22,81.87,19.22Zm.75-1.4-1.08.49a.11.11,0,0,1-.16,0l-.06-.11a.11.11,0,0,1,.06-.16l1-.64a.1.1,0,0,1,.16,0l.13.24A.12.12,0,0,1,82.62,17.82Z"/><path class="cls-3" d="M84.81,21.82a1.34,1.34,0,0,1-.34,0c-.42,0-.62-.19-.62-.59v-2h-.34a.12.12,0,0,1-.12-.13V19a.13.13,0,0,1,.12-.13h.34v-.62a.13.13,0,0,1,.09-.14l.23-.08c.07,0,.16,0,.16.07v.77h.35a.13.13,0,0,1,.12.13v.14a.13.13,0,0,1-.12.13h-.35v2c0,.17.07.24.22.24l.19,0a.11.11,0,0,1,.13.1l0,.13A.13.13,0,0,1,84.81,21.82Z"/><path class="cls-3" d="M87.29,21.84H87a.12.12,0,0,1-.14-.11l0-.31a.94.94,0,0,1-.85.45.77.77,0,0,1-.79-.86.87.87,0,0,1,.9-.94l.72,0v-.16c0-.39-.1-.58-.56-.58a2.07,2.07,0,0,0-.59.1.12.12,0,0,1-.15-.09l0-.2a.12.12,0,0,1,.09-.15,3,3,0,0,1,.72-.11c.93,0,1,.6,1,1.09V21a2.49,2.49,0,0,0,0,.51l0,.19A.1.1,0,0,1,87.29,21.84Zm-.46-1.47-.41,0c-.4,0-.7.12-.7.62,0,.32.16.47.42.47a.7.7,0,0,0,.69-.62Z"/><path class="cls-3" d="M89.71,19.3a.13.13,0,0,1-.18.11,1.38,1.38,0,0,0-.35-.07c-.18,0-.42.22-.42.76v1.61a.13.13,0,0,1-.13.12H88.4a.13.13,0,0,1-.13-.12V19a.12.12,0,0,1,.13-.12h.14a.13.13,0,0,1,.13.09l.09.33a.81.81,0,0,1,.69-.46c.2,0,.35.09.32.22Z"/><path class="cls-3" d="M91.16,21.87c-.72,0-1.19-.57-1.19-1.52s.47-1.52,1.19-1.52,1.17.57,1.17,1.52S91.87,21.87,91.16,21.87Zm0-2.62c-.43,0-.66.36-.66,1.11s.23,1.11.66,1.11.66-.35.66-1.11S91.57,19.24,91.14,19.24Z"/></svg>