<svg id="Capa_1" data-name="Capa 1" xmlns="http://www.w3.org/2000/svg" viewBox="0 0 80.13 46.31"><defs><style>.cls-1{fill:#a59b94;}</style></defs><title>Fiprotur</title><path class="cls-1" d="M46.08,22.93A23,23,0,1,0,23,46.09H46.09V22.93Zm-23,15A14.87,14.87,0,1,1,37.92,23,14.87,14.87,0,0,1,23,37.92Z"/><path class="cls-1" d="M49.11,12.21h8.28v2.51H52v1.76h4.9v2.38H52v3.7H49.11Z"/><path class="cls-1" d="M59.15,12.21H62V22.57H59.15Z"/><path class="cls-1" d="M49.11,24h4.44c2.62,0,4.3,1.35,4.3,3.64v0c0,2.44-1.88,3.73-4.45,3.73H52v3H49.11Zm4.23,5.15c1,0,1.64-.53,1.64-1.35v0c0-.89-.62-1.36-1.66-1.36H52v2.74Z"/><path class="cls-1" d="M59.15,24H64a4.52,4.52,0,0,1,3.37,1.12,3.21,3.21,0,0,1,.92,2.41v0a3.27,3.27,0,0,1-2.13,3.18l2.47,3.61H65.36l-2.09-3.14H62v3.14H59.15Zm4.76,5c1,0,1.54-.47,1.54-1.23v0c0-.81-.6-1.23-1.56-1.23H62V29Z"/><path class="cls-1" d="M69,29.2v0a5.58,5.58,0,0,1,11.15,0v0A5.58,5.58,0,0,1,69,29.2Zm8.22,0v0a2.69,2.69,0,0,0-2.66-2.79,2.64,2.64,0,0,0-2.62,2.76v0A2.69,2.69,0,0,0,74.57,32,2.64,2.64,0,0,0,77.2,29.2Z"/><path class="cls-1" d="M52.21,38.28h-3.1V35.77h9.08v2.51H55.09v7.84H52.21Z"/><path class="cls-1" d="M59.15,41.58V35.77h2.91v5.75c0,1.5.75,2.2,1.91,2.2s1.91-.68,1.91-2.13V35.77h2.91V41.5c0,3.34-1.91,4.81-4.85,4.81S59.15,44.82,59.15,41.58Z"/><path class="cls-1" d="M69.83,35.77h4.89a4.51,4.51,0,0,1,3.37,1.12A3.2,3.2,0,0,1,79,39.3v0a3.27,3.27,0,0,1-2.13,3.18l2.47,3.61H76L74,43H72.7v3.14H69.83Zm4.76,5c1,0,1.54-.47,1.54-1.23v0c0-.82-.59-1.23-1.55-1.23H72.7v2.48Z"/></svg>