<svg id="Capa_1" data-name="Capa 1" xmlns="http://www.w3.org/2000/svg" viewBox="0 0 112.45 74.57"><defs><style>.cls-1{fill:#262425;}.cls-2{fill:#bdcf6a;}.cls-3{fill:#d8cd9a;}.cls-4{fill:#cb5248;}</style></defs><title>Mercadito</title><path class="cls-1" d="M28.43,73.32a2.4,2.4,0,0,1-2.19-2.46,2.47,2.47,0,0,1,2.61-2.53,2.45,2.45,0,0,1,2.61,2.5,2.41,2.41,0,0,1-1.88,2.45,1.22,1.22,0,0,0,1,.54,1.1,1.1,0,0,0,.61-.2l.33.66a1.7,1.7,0,0,1-1,.28A2.48,2.48,0,0,1,28.43,73.32Zm2-2.46a1.56,1.56,0,1,0-1.55,1.71A1.53,1.53,0,0,0,30.4,70.86Z" transform="translate(0 0)"/><path class="cls-1" d="M34.37,71.29V68.42h1v2.79c0,1,.34,1.34,1.16,1.34s1.11-.45,1.11-1.28V68.42h.94V71.2a1.9,1.9,0,0,1-2.07,2.16A1.88,1.88,0,0,1,34.37,71.29Z" transform="translate(0 0)"/><path class="cls-1" d="M41.81,68.42h3.06v.8H42.8v1.16h1.85v.76H42.8v1.34h2.13v.79H41.81Z" transform="translate(0 0)"/><path class="cls-1" d="M48,68.42h1.65c1.18,0,1.86.48,1.86,1.39a1.29,1.29,0,0,1-1.25,1.29h0a2.73,2.73,0,0,1,.61.7l1,1.46H50.77l-.94-1.39c-.4-.57-.52-.63-.78-.63H49v2H48Zm1.62,2.14c.61,0,.88-.24.88-.69s-.28-.68-.93-.68H49v1.38Z" transform="translate(0 0)"/><path class="cls-1" d="M54.63,68.42h3.06v.8H55.62v1.16h1.85v.76H55.62v1.34h2.13v.79H54.63Z" transform="translate(0 0)"/><path class="cls-1" d="M61.73,69.24H60.27v-.82H64.2v.82H62.74v4h-1Z" transform="translate(0 0)"/><path class="cls-1" d="M68,68.42h1l2,4.86H69.93l-.37-1H67.43l-.36,1h-1Zm1.26,3.13-.5-1.29c-.16-.43-.29-.87-.29-.87h0s-.14.46-.29.87l-.49,1.29Z" transform="translate(0 0)"/><path class="cls-1" d="M73.71,68.42h1L76.62,71a6.52,6.52,0,0,1,.52.83h0s0-.4,0-.77V68.42H78v4.86h-.91l-2.05-2.81a7.24,7.24,0,0,1-.47-.75h0s0,.34,0,.67v2.9h-.91Z" transform="translate(0 0)"/><path class="cls-1" d="M81,70.86a2.61,2.61,0,1,1,2.61,2.5A2.47,2.47,0,0,1,81,70.86Zm4.15,0a1.55,1.55,0,1,0-1.55,1.7A1.53,1.53,0,0,0,85.14,70.86Z" transform="translate(0 0)"/><path class="cls-1" d="M15.23,64.5c-2.09-4.19-1.2-9-3-13.17-1.2,1.94-1.51,4.19-2.55,6.28-.16.31.15.74,0,1a2.08,2.08,0,0,1-2.56,1.2,1.61,1.61,0,0,1-1.2-1.35c-.16-1.35-.46-3.11-1.35-3.45-.74-.28-.16,1.36-.43,2.09-.46,1.2,0,2.71-.15,3.91S1.41,62.56.7,61.79c-1.66-1.75.12-4.65.43-7,.43-3,.49-6,.92-9,.15-1.2,2.25-1.2,2.68-.43,1.66,2.25,1.82,5.08,2.71,7.79.15.15.46.58.59.46,2-2.86,2.12-8.86,6.46-7.82,1.94,5.57,1.75,11.57,3.6,17.24.25.77-.62,1.35-1.35,1.51A2.62,2.62,0,0,1,15.23,64.5Z" transform="translate(0 0)"/><path class="cls-1" d="M24.87,47.82a6.38,6.38,0,0,1,5.32,6.11c-.58,1.73-4.6,3.2-6,4.49-.14,0-.79.4-.58.76,1.26,2.19,3.56,1.22,5.57.18a1.89,1.89,0,0,1-.86,3.3c-1.62.26-3.38.69-5.1-.07-3.6-1.62-4.39-5.68-4.46-9.13S21.35,47.32,24.87,47.82ZM26.59,53c.79-1.8-2.19-2.73-3.63-2s-1.11,4.17-.25,4.24C24.4,55.23,26.05,54.76,26.59,53Z" transform="translate(0 0)"/><path class="cls-1" d="M31.44,47.21c1.8-1.61,4,.54,3.59,2.88,2.16-.36,2.7-3.41,5.25-2.7.9.36,2,.75,1.26,1.8-1.44,2-3.6,2.91-5.07,5.07-.5.72-.18,1.79-.54,2.51a2,2,0,0,0,.36,2.33,3,3,0,0,1-.36,3.6,2,2,0,0,1-3.06.18c-.54-.36-.57-.9-.54-1.62a51.66,51.66,0,0,0-.54-8.8C31.59,50.66,29.83,48.65,31.44,47.21Z" transform="translate(0 0)"/><path class="cls-1" d="M45.28,48.72c2-1.76,4.53-4.35,7.26-3.13.43.18.72.65.47,1.4-.75,2.19-2.77,2-4.49,3.31a6.29,6.29,0,0,0-2.8,4.31A5.64,5.64,0,0,0,46.47,58c.76,1.19,2,1.33,3.31,1.8,1.9.72,3.16-1.87,4.74-1.94s.57,2.15.22,2.73c-1.8,2.77-5.14,2.37-7.91,1.58-3.34-1-5.1-4.31-4.53-7.87A9.13,9.13,0,0,1,45.28,48.72Z" transform="translate(0 0)"/><path class="cls-1" d="M63.5,63.06c-2.55-.47-5.43-.32-6.86-2.73-1-1.29-.58-3.85.32-5,2.91-3.91,8-2.69,8.05-2.8.32-.51.54-2.12-.25-2.26-2.12-.47-3.45.5-5.36,1.15C58,51.88,57.64,49,58,48.65c2.59-1.76,7.94-2.77,9.56.61,1.44,3.06-.29,6.11-.54,9.45-.14,2.19-.36,7-2.34,5.64C64,64,64,63.06,63.5,63.06Zm1-8c-2.09.79-5.72.18-5.79,3.27,0,1.58,5,2.37,5.32,1.69C64.33,58.17,65.26,57,64.47,55Z" transform="translate(0 0)"/><path class="cls-1" d="M76.91,48.14c.86-.72.5-2.58,1-3.81.5-.86,1.55-1.58,2.41-1.22.36.18,1.19.72,1,1.4-2.08,5.68-1.9,11.9-.86,18,0,.32-.86.87-1.4.87-1.55.18-1.55-2.09-2.41-2.27-1.4,0-2.8.4-4.13-.5-1.76-1.19-4-2.41-4-5C68.61,51.06,74.14,50.37,76.91,48.14Zm-.54,9.67c-.32-2.09.36-4,.36-6-1.91,0-4.85,1-4.49,3.27C72.49,56.77,74.46,58.5,76.37,57.81Z" transform="translate(0 0)"/><path class="cls-1" d="M83.56,50.41a2.14,2.14,0,0,1,2.8-.79c.65.29,1.4,1.11.79,1.72-1.12,1.58-.47,3.16-.93,4.56-.61,1.73.47,3.31,0,5,0,.14-.18.47-.32.47-1.11.32-2.48.47-2.84-.65-.61-2-.14-4.24-.14-6.25A8.71,8.71,0,0,1,83.56,50.41Zm.75-6.65a2.47,2.47,0,0,1,3.23.32c.65,1-.32,2.59-1,2.95a2.26,2.26,0,0,1-2.77-.65C83.23,45.67,83.81,44.08,84.31,43.76Z" transform="translate(0 0)"/><path class="cls-1" d="M94.59,43.87c.18-1.73,2.44-1.73,3.81-.87a1.31,1.31,0,0,1,.18,1.22,17.78,17.78,0,0,0-1.4,7.33c1.94-.18,5.75-1.08,5.07,1.19-.54,1.76-3.77,1.51-5.68,1.51-.32,2.26.86,12.15.72,14.41A1.25,1.25,0,0,1,96,69.89c-.86,0-1.22-.25-1.51-1.15-.75-2.05-.54-12.47-1.58-14.38-1.37,1-4,1.91-4.64,0-.18-.5.36-1.22.9-1.58,1.36-.68,3.31-.5,4.17-1.55.68-.86.5-2.44.68-3.66S94.44,45.09,94.59,43.87Z" transform="translate(0 0)"/><path class="cls-1" d="M103.43,51.7c.58-2,1.87-3.05,2.3-4.06.86-1.94,3.38-1.37,4.74.15a8.54,8.54,0,0,1,1.76,3.52c.75,2.84-.58,5.25-2.48,7.26a3.48,3.48,0,0,1-3.63.32A6.3,6.3,0,0,1,103.43,51.7Zm4.74-1.36c-.79-.83-4.67,4.13-.9,5C109.86,55.91,110.12,52.46,108.17,50.34Z" transform="translate(0 0)"/><path class="cls-2" d="M85.88,7.94l-.15.15a31.87,31.87,0,0,0-5.21,8.16,7.58,7.58,0,0,0-.23.84c.19.29.38.5.58.53s.51-.19.84-.6a.52.52,0,0,1,.92.42,1.6,1.6,0,0,0,.12,1.24c.32.34,1.22.23,1.93.15l.26,0c2.35-3.09,4.86-9.39,4.95-14a.56.56,0,0,0-.55-.57.64.64,0,0,0-.57.55c0,.56-1.75,2.11-2.32,2.62C86.19,7.65,86,7.83,85.88,7.94Z" transform="translate(0 0)"/><path class="cls-2" d="M79.62,15.71a32.45,32.45,0,0,1,5.05-8c0-.32-.05-.65-.06-1,0-.14,0-.4-.06-.72-.08-.83-.29-3,0-3.56a.56.56,0,0,0-1-.57h0a37.44,37.44,0,0,0-4.08,13.52Z" transform="translate(0 0)"/><path class="cls-2" d="M87.08,25.41a15.05,15.05,0,0,1-2.6-3.1c-.69-1.24-.77-2-.62-2.24a.43.43,0,0,1,.22-.15c-.16,0-.32,0-.47,0A2.14,2.14,0,0,1,82,19.4a1.68,1.68,0,0,1-.43-.89,1.4,1.4,0,0,1-.86.14c-1.1-.18-1.71-1.64-2.18-2.92,0,0,0,.08,0,.13-.16,3.53-3.18,4.53-6.39,5.59-3.62,1.19-7.72,2.55-6.59,8.14,1,5,6.65,7.46,9,8.27a18.45,18.45,0,0,0,5.81,1h0c2.74,0,7.61-.68,9.52-5.26C91.43,29.75,89.22,27.54,87.08,25.41Z" transform="translate(0 0)"/><path class="cls-3" d="M27,18.24c0-.49,0-1-.05-1.46,0-1.28-.08-2.49-.2-3.46,0-.17,0-.49-.05-.89,0-1.1-.16-3.68-.7-4.24h0a.52.52,0,1,1,.74-.73,32.3,32.3,0,0,1,4.72,6.48A37.72,37.72,0,0,0,26.63.23h0a.5.5,0,0,0-.83.55c.42.63,0,3.09-.13,4.15-.06.37-.1.67-.12.84-.06.75-.16,1.52-.27,2.32-.07.56-.15,1.13-.21,1.71A31.1,31.1,0,0,0,27,18.24Z" transform="translate(0 0)"/><path class="cls-3" d="M28.34,21.46a3.06,3.06,0,0,1,3-2.35,6.05,6.05,0,0,1,2.24.51c-.65-1.05-1.28-2.13-1.87-3.18A49.63,49.63,0,0,0,27.61,10c.09.75.14,1.58.17,2.42,0,.36,0,.65,0,.81.12,1,.16,2.25.2,3.55C28.08,18.28,28.15,19.94,28.34,21.46Z" transform="translate(0 0)"/><path class="cls-3" d="M31.38,20.23c-.77,0-1.84.26-2.21,2.48-.58,3.54.17,10.27,3.1,13.73,1.91,2.26,4.42,2.69,7.41,1.28a5.13,5.13,0,0,0,2.72-3.28,8.91,8.91,0,0,0-.95-6.81C40.1,25.43,34.57,20.23,31.38,20.23Z" transform="translate(0 0)"/><path class="cls-3" d="M46.21,23.51c-1.58-2-5.94-2.71-9.31-3-.6,0-1.15-.08-1.69-.1a24.74,24.74,0,0,1,7.21,6.61,10,10,0,0,1,1.23,7,9.64,9.64,0,0,0,3.68-5.89A5.79,5.79,0,0,0,46.21,23.51Z" transform="translate(0 0)"/><path class="cls-3" d="M24.27,11.95c-.56-.43-1.15-.93-1.22-1.2h0a.5.5,0,0,0-1,.23,25.89,25.89,0,0,0,4.35,8.57A37.82,37.82,0,0,1,24.27,11.95Z" transform="translate(0 0)"/><path class="cls-3" d="M31.42,37.16c-2.63-3.1-3.77-8.77-3.51-13a17.64,17.64,0,0,0-3.43,7.1c-.64,3.19-.37,5.46.84,6.94s3.37,2.21,6.72,2.21h.06a7.82,7.82,0,0,0,3.23-.86A6.62,6.62,0,0,1,31.42,37.16Z" transform="translate(0 0)"/><path class="cls-4" d="M66,17.11a.57.57,0,0,1-.18.15l-.4.13A5.62,5.62,0,0,1,67.61,19a3.4,3.4,0,0,1,.59,3,.57.57,0,0,1-1,.18c-.67-1-2.49-1.34-3.7-1.58a8.79,8.79,0,0,0-1.4-.07c-.48,0-.91,0-1.29,0,.64,1.87-.29,4.58-1.25,5.89a.57.57,0,0,1-.44.24h0a.57.57,0,0,1-.43-.19,6.72,6.72,0,0,1-1-1.52,5.74,5.74,0,0,0-.89-1.38,6.18,6.18,0,0,0-4.49-2.24c-1.54,0-3.26.68-5.42,2.15a.57.57,0,0,1-.55.05.57.57,0,0,1-.34-.44,5.63,5.63,0,0,1,2.09-4.63l-.19,0a11.38,11.38,0,0,0-1.22-.24.5.5,0,0,1-.18-.07c-3.5,2.23-5.73,5.53-5.73,9.22,0,6.7,7.36,12.16,16.4,12.16S73.53,34,73.53,27.32C73.53,23,70.52,19.28,66,17.11Z" transform="translate(0 0)"/><path class="cls-4" d="M61.21,16.52h1l-.2-.08-.75-.27a12.68,12.68,0,0,0-6.2-.12,7.94,7.94,0,0,1-1.35.1l-1.21,0a5.75,5.75,0,0,0-1.62.19,14.68,14.68,0,0,0-2.54,1,7.92,7.92,0,0,0,1.34.23h.06A.57.57,0,1,1,50,18.7h0a4.68,4.68,0,0,0-2.8,3.2,9.92,9.92,0,0,1,5.1-1.72,7.26,7.26,0,0,1,5.32,2.59,6.67,6.67,0,0,1,1.08,1.65c.11.21.22.42.33.62.79-1.55,1.31-4,.12-4.93h0a.57.57,0,0,1,.69-.92,6.88,6.88,0,0,0,2.25.23,9.49,9.49,0,0,1,1.55.08,10.57,10.57,0,0,1,3.52,1.16,2.24,2.24,0,0,0-.44-1c-1-1.32-3.5-2-5.32-2h-.12a.63.63,0,0,1-.6-.56A.57.57,0,0,1,61.21,16.52ZM55.56,19c-1.37,0-2.49-.42-2.49-.94s1.11-.94,2.49-.94S58,17.49,58,18,56.93,19,55.56,19Z" transform="translate(0 0)"/></svg>