<svg id="Capa_1" data-name="Capa 1" xmlns="http://www.w3.org/2000/svg" viewBox="0 0 149.18 53.54"><defs><style>.cls-1{fill:#5ea6b8;}.cls-2{fill:#972884;}.cls-3{fill:#9ac04e;}.cls-4{fill:#c82835;}.cls-5{fill:#c31983;}.cls-6{fill:#e0a133;}.cls-7{fill:#487f89;}.cls-8{fill:#6a2b73;}.cls-9{fill:#7a9848;}.cls-10{fill:#9c292c;}.cls-11{fill:#9a246e;}.cls-12{fill:#d47f2f;}.cls-13{fill:#6d6e70;}</style></defs><title>Mexico</title><path class="cls-1" d="M149.12,23.54a14.15,14.15,0,0,0-.36-2.17,13.92,13.92,0,0,0-5.82-8.16,13.75,13.75,0,0,0-7.66-2.3,13.91,13.91,0,0,0-13,8.85c-.1.31-.21.6-.31.9a13.69,13.69,0,0,0-.62,3.54c0,.2,0,.39,0,.59a8.53,8.53,0,0,0,0,.93,8.42,8.42,0,0,0,.11,1.12,13.82,13.82,0,0,0,3.77,7.61,13.17,13.17,0,0,0,3.17,2.43,13.69,13.69,0,0,0,6.81,1.8,13.86,13.86,0,0,0,9.76-4l.12-.12a13,13,0,0,0,1.51-1.82,14,14,0,0,0,1.54-2.85,13.86,13.86,0,0,0,1-5.1c0-.43,0-.86-.06-1.27m-11.92,7.07A5.76,5.76,0,0,1,131,29.14a3.51,3.51,0,0,1-.3-.31,6.46,6.46,0,0,1-1.36-2.94,9.3,9.3,0,0,1-.08-1.07,5.46,5.46,0,0,1,.07-.91,6.12,6.12,0,0,1,2.31-4,5.81,5.81,0,0,1,3.57-1.24,5.75,5.75,0,0,1,1.34.15A6,6,0,0,1,140,21.19a6.15,6.15,0,0,1,1.16,3.62,6.24,6.24,0,0,1-1.9,4.49,6,6,0,0,1-2.11,1.31"/><polygon class="cls-2" points="97.17 32.88 97.17 11.82 91.5 11.82 91.5 11.82 88.91 11.82 88.92 38.32 97.17 38.32 97.17 32.88"/><path class="cls-3" d="M121,34.15c-.48-1.86-1-3.87-1-3.87l-.33.1a14.28,14.28,0,0,1-6,.69,6.63,6.63,0,0,1-3-1.14,8.41,8.41,0,0,1-1.46-1.37,6.21,6.21,0,0,1-1.06-3.66c0-3.39,2-5.58,5.51-6.17a14.2,14.2,0,0,1,6,.7l.33.11s1.18-6.07,1.47-7.37a17.84,17.84,0,0,0-7-1.21c-8.94,0-15,5.8-15,13.9,0,.06,0,.08,0,.08a16.87,16.87,0,0,0,.45,3.64c0,.07.32,1,.46,1.37h0a12.56,12.56,0,0,0,3.24,4.87h0l.66.56a16.48,16.48,0,0,0,10.25,3.48,14.35,14.35,0,0,0,7.37-1.37c-.16-.58-.52-1.9-.88-3.34"/><polygon class="cls-4" points="35.62 35.22 35.19 33.07 33.85 26.47 30.88 11.82 21.76 11.82 18.19 24.9 14.63 11.82 5.85 11.82 2.73 26.47 1.33 33.07 0.89 35.22 0.23 38.32 8.73 38.32 11.07 26.47 11.45 24.61 13.43 31.47 15.41 38.32 20.98 38.32 22.98 31.47 24.96 24.61 25.32 26.47 27.68 38.32 36.26 38.32 35.62 35.22"/><path class="cls-5" d="M51,26.61H63.29v-1c0-8-3.82-13.35-10.53-14.43A14.45,14.45,0,0,0,51,11l-.87,0h-.4a17.08,17.08,0,0,0-2.61.26c-6.23,1.2-10.52,6.19-10.52,13.8a14.15,14.15,0,0,0,3.11,9.37,13.21,13.21,0,0,0,8.07,4.41,18.53,18.53,0,0,0,3,.24c5.49,0,10.88-2.84,12.25-9H54.75a4.18,4.18,0,0,1-4,2.39h-.06c-2.36,0-4.05-.94-4.91-2.67a6.35,6.35,0,0,1-.37-1,8,8,0,0,1-.26-1.56c0-.22,0-.44,0-.67H51Zm4.19-5.4H45.23a4.81,4.81,0,0,1,3.57-4,5.67,5.67,0,0,1,1.5-.2,4.92,4.92,0,0,1,4.84,4.15"/><polygon class="cls-5" points="49.72 10.55 50.44 10.16 51.94 9.34 53.97 8.23 58.46 5.79 53.89 0 46.34 6.82 48.73 9.46 49.72 10.55"/><polygon class="cls-6" points="82.01 29.5 79.4 25.09 82.05 20.55 87.18 11.8 86.7 11.81 77.91 11.82 76.7 14.12 74.22 18.89 71.74 14.13 70.53 11.82 61.25 11.82 66.38 20.54 69.05 25.09 66.45 29.5 61.27 38.33 70.54 38.32 71.74 36.01 74.21 31.29 76.7 36 77.92 38.32 87.2 38.32 82.01 29.5"/><path class="cls-7" d="M131.66,19.92a5.81,5.81,0,0,1,3.57-1.24,5.75,5.75,0,0,1,1.34.15l1.09-.28A35.21,35.21,0,0,1,147,17.3a14.06,14.06,0,0,0-4-4.08,24.24,24.24,0,0,0-9.49,3,33.52,33.52,0,0,1-11.13,3.56c-.11.31-.21.6-.31.9a44.81,44.81,0,0,0,9.65-.76"/><path class="cls-7" d="M140,21.19a6.15,6.15,0,0,1,1.16,3.62q3.26-.45,7-1.12l.93-.15a14.15,14.15,0,0,0-.36-2.17,18.38,18.38,0,0,0-8.71-.19"/><path class="cls-7" d="M129.37,25.88a7.58,7.58,0,0,1-.09-1.07,5.46,5.46,0,0,1,.07-.91c-1.07.12-2.21.22-3.5.27-1.67,0-3.14.05-4.46,0,0,.2,0,.39,0,.59a8.53,8.53,0,0,0,0,.93,67.07,67.07,0,0,0,7.95.14"/><path class="cls-7" d="M145,34.7l.12-.12-4.31-1.2c-7.53-2.09-10.64-.33-15.55,1.09a13.17,13.17,0,0,0,3.17,2.43c3.15-.34,6.65-.85,10.53-1.54a42.37,42.37,0,0,1,6-.67"/><path class="cls-7" d="M131,29.14a3.51,3.51,0,0,1-.3-.31l-3.62-1a24.09,24.09,0,0,0-5.56-.94,13.7,13.7,0,0,0,1,3.4c.89-.14,1.81-.3,2.75-.48a45.43,45.43,0,0,1,5.77-.64"/><path class="cls-7" d="M137.19,30.61c3.37.89,6.51,1.65,9.48,2.15a14,14,0,0,0,1.54-2.85c-3-.13-5.93-.41-8.91-.61a6,6,0,0,1-2.11,1.31"/><polygon class="cls-8" points="93.79 32.89 91.5 11.82 88.91 11.82 88.92 38.32 97.17 38.32 97.17 32.88 93.79 32.89"/><path class="cls-9" d="M107,26.1c-.17-.83-.58-.56-2.44-.39-1.53.13-1.82-.16-1.82-.65s.32-.85,1.82-.63c1.84.25,2.26.42,2.44-.41s-1.11-.88-2.28-1.06c-3.78-.67-4,1.6-4,2.1s-.07,2.75,4,2.11c1.17-.19,2.43-.3,2.28-1.07"/><path class="cls-9" d="M105.2,21.39c1.53.85,2,1.27,2.5.45s-.2-1-1.76-1.76-1.89-.41-2-.23-.28.69,1.25,1.55"/><path class="cls-9" d="M106.94,18.71c.87.81,1.76,1.73,2.3,1.12s.1-.81-1.18-2.15c-1.07-1.12-1-1.56-.61-1.84s.91-.28,1.69,1c.93,1.59,1.06,2,1.83,1.65s0-1.41-.52-2.45c-1.8-3.38-3.84-2.16-4.26-1.84s-2.34,1.65.76,4.46"/><path class="cls-9" d="M113.16,17.7c1-.13.69-.76.37-2.43s-.82-1.68-1-1.66-.72.2-.48,1.9.19,2.33,1.15,2.19"/><path class="cls-9" d="M113.3,32.32c-.93-.23-.93.45-1.31,2.11s.07,1.87.29,1.93.75.06,1.2-1.57.76-2.22-.19-2.46"/><path class="cls-9" d="M110.69,31.6c-.74-.37-.79.09-1.78,1.54-.81,1.21-1.23,1.24-1.6.94s-.47-.74.61-1.73c1.3-1.18,1.69-1.39,1.15-2s-1.34.29-2.19,1c-2.79,2.37-1.18,3.92-.79,4.22s2.07,1.71,4.06-1.67c.56-1,1.24-2,.55-2.31"/><path class="cls-9" d="M107.87,28.5c-.37-.88-.92-.47-2.52.23s-1.51,1.17-1.41,1.38.37.63,2,0,2.29-.74,1.92-1.61"/><path class="cls-9" d="M115.76,17.59c.77,0,.6-.42.76-2,.12-1.36.44-1.56.88-1.48s.74.41.3,1.68c-.53,1.55-.76,1.89,0,2.18s1-.84,1.35-1.82c1.21-3.14-.83-3.73-1.29-3.8s-2.51-.52-2.6,3.13c0,1-.11,2.15.62,2.14"/><path class="cls-9" d="M117.78,32.06c-.72.3-.4.6.08,2.16.41,1.3.18,1.61-.26,1.7s-.84-.11-.92-1.46c-.11-1.62,0-2-.8-2s-.6,1.12-.58,2.16c.09,3.37,2.2,3.16,2.67,3.08s2.52-.43,1.19-3.84c-.38-1-.72-2-1.39-1.77"/><path class="cls-10" d="M18.23,31.57a5,5,0,0,0,5-5.06H21a2.77,2.77,0,1,1-5.53,0h-2.2a5,5,0,0,0,5,5.06"/><polygon class="cls-10" points="27.68 38.32 36.26 38.32 35.62 35.22 29.19 35.22 27.85 28.71 32.05 28.71 32.52 30.92 30.45 30.92 30.88 33.07 35.19 33.07 33.85 26.47 25.32 26.47 27.68 38.32"/><polygon class="cls-10" points="1.33 33.07 5.4 33.07 5.82 30.92 3.72 30.92 4.21 28.71 8.37 28.71 7.05 35.22 0.89 35.22 0.23 38.32 8.73 38.32 11.07 26.47 2.73 26.47 1.33 33.07"/><polygon class="cls-10" points="21.62 31.47 21.62 33.67 19.49 33.67 19.49 35.69 16.89 35.69 16.89 33.67 14.78 33.67 14.78 31.47 13.43 31.47 15.41 38.32 20.98 38.32 22.98 31.47 21.62 31.47"/><path class="cls-11" d="M53.22,7.48c1.89-2.27-1-4.67-1-4.67s.33.85-1.14,2.44a3.26,3.26,0,0,0-.73,2.23c-1.29-.66-1.55.91-1.57,2l1,1.1.71-.4a9.09,9.09,0,0,0,1.89-5.7,8.47,8.47,0,0,1-.39,4.88l2-1.1a1.74,1.74,0,0,0-.75-.75"/><path class="cls-11" d="M45.38,23.09a4.57,4.57,0,0,1-.1-1.88h0a4.81,4.81,0,0,1,3.57-4c3.37-1.33,1-3,1-3,4.09-.46,1.81-2.12,1.81-2.12a12.88,12.88,0,0,0,1.1-.92A15.31,15.31,0,0,0,51,11a26.33,26.33,0,0,1-3.52,3.61c-2.83,2.58-5.86,7.9-1.52,11.52-5.83-2.45-4.74-8.14,0-11.83A34.35,34.35,0,0,0,49.7,11a17.08,17.08,0,0,0-2.61.26,8.83,8.83,0,0,0-.36,1.17c-2.16-1.92-3.52,2.92-3.52,2.92C41,13,39.3,16.83,39.27,19.07c0,3.1,1.37,6.45,5.85,8.22,0-.22,0-.44,0-.67h3.71a6,6,0,0,1-3.44-3.52"/><path class="cls-11" d="M49.05,22.37a3,3,0,0,1,.15-1.15H47.35a2.73,2.73,0,0,0-.18,1.47c.28,2.13,2.1,3.3,3.78,3.93H52.4c-1.37-.79-3.23-2.21-3.35-4.25"/><path class="cls-11" d="M41.13,27.62c-3,.61-2.61,4.19-2.61,4.19a4.51,4.51,0,0,1,1.93-2.19,5.77,5.77,0,0,1,5.32.17,6.35,6.35,0,0,1-.37-1,4.72,4.72,0,0,0-4.27-1.22"/><path class="cls-11" d="M48.92,34.65a5.58,5.58,0,0,1-5,1.57c-1.61-.33-2.58-1.43-2.08-3.07A1.66,1.66,0,0,1,44.17,32c-.73.54-.69,2.24,1.13,2.34s2.3-2.32.53-3.33a4.11,4.11,0,0,0-6.15,3.42,13.21,13.21,0,0,0,8.07,4.41c4.35-1.39,6.25-7.23,7-8.78a4.18,4.18,0,0,1-4,2.39,13.43,13.43,0,0,1-1.81,2.18"/><path class="cls-12" d="M81.17,33.84l-2-4.85L82,29.5,79.4,25.09l2.65-4.54-2.91.52,2-4.85-4.22,3.09-.24-5.2-2.48,4.77-2.48-4.76-.24,5.19-4.23-3.09,2,4.85-2.93-.54,2.67,4.55-2.6,4.41L69.31,29l-2,4.85,4.23-3.09L71.74,36l2.47-4.73L76.7,36l.24-5.25Zm-8-4.71a4.31,4.31,0,0,1-2.91-5.32,4.23,4.23,0,0,1,3.25-3,4.44,4.44,0,0,0-1,1.75,4.34,4.34,0,0,0,2.91,5.34,4.26,4.26,0,0,0,2,.08,4.19,4.19,0,0,1-4.26,1.17"/><path class="cls-13" d="M3.19,46.6H.87V48H3.12v.82H.87v1.93H3.19v.82H0V45.78H3.19Z"/><path class="cls-13" d="M4.17,47.91H5v.34a1.38,1.38,0,0,1,1-.44,1.26,1.26,0,0,1,1,.4,1.64,1.64,0,0,1,.31,1.11v2.23H6.46v-2a1.33,1.33,0,0,0-.15-.74.61.61,0,0,0-.53-.21.65.65,0,0,0-.59.28,1.89,1.89,0,0,0-.17,1v1.76H4.17Z"/><path class="cls-13" d="M9.24,48.7v2.86H8.4V48.7H8v-.78H8.4V46.57h.84v1.34h.65v.78Z"/><path class="cls-13" d="M10.46,47.91h.84v.32a1.61,1.61,0,0,1,.41-.33,1,1,0,0,1,.43-.09,1.36,1.36,0,0,1,.69.22l-.38.77a.8.8,0,0,0-.47-.17q-.69,0-.69,1v1.89h-.84Z"/><path class="cls-13" d="M16,47.91h.85v3.64H16v-.38a1.61,1.61,0,0,1-2.37-.06,2,2,0,0,1-.49-1.39,2,2,0,0,1,.49-1.37,1.58,1.58,0,0,1,1.23-.55,1.55,1.55,0,0,1,1.14.52Zm-2,1.81a1.26,1.26,0,0,0,.28.85.92.92,0,0,0,.73.33,1,1,0,0,0,.76-.32,1.39,1.39,0,0,0,0-1.69,1,1,0,0,0-.75-.32.93.93,0,0,0-.72.33A1.21,1.21,0,0,0,14,49.72Z"/><path class="cls-13" d="M22.92,47.91h.85v3.64h-.85v-.38a1.61,1.61,0,0,1-2.37-.06,2,2,0,0,1-.49-1.39,2,2,0,0,1,.49-1.37,1.58,1.58,0,0,1,1.23-.55,1.55,1.55,0,0,1,1.14.52Zm-2,1.81a1.27,1.27,0,0,0,.28.85.92.92,0,0,0,.73.33,1,1,0,0,0,.76-.32,1.39,1.39,0,0,0,0-1.69,1,1,0,0,0-.75-.32.93.93,0,0,0-.73.33A1.21,1.21,0,0,0,20.92,49.72Z"/><path class="cls-13" d="M27.65,47.91l1,2.08,1-2.41,1,2.41.94-2.08h.94l-1.91,3.92-1-2.35-1,2.35-1.9-3.92Z"/><path class="cls-13" d="M33.57,47.91l1,2.08,1-2.41,1,2.41.94-2.08h.94l-1.91,3.92-1-2.35-1,2.35-1.9-3.92Z"/><path class="cls-13" d="M39.5,47.91l1,2.08,1-2.41,1,2.41.94-2.08h.94L42.5,51.83l-1-2.35-1,2.35-1.9-3.92Z"/><path class="cls-13" d="M44.7,51.13a.52.52,0,0,1,.88-.36.52.52,0,0,1,0,.74.49.49,0,0,1-.36.15.5.5,0,0,1-.37-.15A.51.51,0,0,1,44.7,51.13Z"/><path class="cls-13" d="M47.38,47.91l.94,2,.94-2h.95L48.32,51.8l-1.88-3.89Z"/><path class="cls-13" d="M50.65,46.39a.52.52,0,0,1,.16-.38.55.55,0,0,1,.77,0,.52.52,0,0,1,.16.39.53.53,0,0,1-.16.39.51.51,0,0,1-.39.16.55.55,0,0,1-.55-.55Zm1,1.52v3.64h-.84V47.91Z"/><path class="cls-13" d="M55.37,47.91h.85v3.64h-.85v-.38A1.62,1.62,0,0,1,53,51.11a2,2,0,0,1-.49-1.39A2,2,0,0,1,53,48.36a1.58,1.58,0,0,1,1.23-.55,1.55,1.55,0,0,1,1.14.52Zm-2,1.81a1.27,1.27,0,0,0,.28.85.92.92,0,0,0,.72.33,1,1,0,0,0,.76-.32,1.38,1.38,0,0,0,0-1.69,1,1,0,0,0-.75-.32.92.92,0,0,0-.72.33A1.22,1.22,0,0,0,53.38,49.72Z"/><path class="cls-13" d="M57.25,46.39a.53.53,0,0,1,.16-.38.55.55,0,0,1,.77,0,.52.52,0,0,1,.16.39.52.52,0,0,1-.16.39.51.51,0,0,1-.39.16.55.55,0,0,1-.55-.55Zm1,1.52v5.63h-.84V47.91Z"/><path class="cls-13" d="M62.6,49.93H60a1.1,1.1,0,0,0,.29.71.88.88,0,0,0,.66.26.86.86,0,0,0,.52-.15,2.11,2.11,0,0,0,.46-.55l.71.4a2.87,2.87,0,0,1-.35.48,1.89,1.89,0,0,1-.39.33,1.57,1.57,0,0,1-.45.19,2.18,2.18,0,0,1-.53.06,1.71,1.71,0,0,1-1.31-.52,2,2,0,0,1-.49-1.4,2,2,0,0,1,.48-1.4,1.65,1.65,0,0,1,1.28-.53,1.63,1.63,0,0,1,1.27.51,2,2,0,0,1,.46,1.41Zm-.86-.69a.81.81,0,0,0-.85-.67.85.85,0,0,0-.29,0,.83.83,0,0,0-.24.13.86.86,0,0,0-.19.21,1,1,0,0,0-.12.28Z"/><path class="cls-13" d="M63.52,47.91h.84v.34a1.75,1.75,0,0,1,.41-.34,1,1,0,0,1,.46-.09,1.12,1.12,0,0,1,1,.54,1.26,1.26,0,0,1,1.07-.54q1.23,0,1.23,1.49v2.25h-.85v-2a1.57,1.57,0,0,0-.13-.74.46.46,0,0,0-.43-.22.55.55,0,0,0-.51.26,1.7,1.7,0,0,0-.16.84v1.88H65.6v-2q0-1-.56-1a.56.56,0,0,0-.52.26,1.66,1.66,0,0,0-.16.84v1.88h-.84Z"/><path class="cls-13" d="M69.41,49.71A1.81,1.81,0,0,1,70,48.36a2,2,0,0,1,2.76,0,1.95,1.95,0,0,1,0,2.74,1.93,1.93,0,0,1-1.39.55A1.86,1.86,0,0,1,70,51.1,1.89,1.89,0,0,1,69.41,49.71Zm.86,0a1.23,1.23,0,0,0,.29.86,1.13,1.13,0,0,0,1.58,0,1.37,1.37,0,0,0,0-1.7,1.12,1.12,0,0,0-1.57,0A1.17,1.17,0,0,0,70.27,49.72Z"/><path class="cls-13" d="M76.3,48.53l-.7.37q-.17-.33-.41-.33a.28.28,0,0,0-.2.08.26.26,0,0,0-.08.2c0,.14.16.28.49.41a2.94,2.94,0,0,1,.9.53.91.91,0,0,1,.23.65,1.15,1.15,0,0,1-.39.88,1.4,1.4,0,0,1-2.21-.56l.72-.33a1.53,1.53,0,0,0,.23.33.53.53,0,0,0,.37.14q.43,0,.43-.39,0-.22-.33-.42L75.09,50l-.26-.12a1.58,1.58,0,0,1-.52-.36.89.89,0,0,1-.19-.59,1,1,0,0,1,.32-.79,1.14,1.14,0,0,1,.81-.31A1.1,1.1,0,0,1,76.3,48.53Z"/><path class="cls-13" d="M78.16,48.7v2.86h-.84V48.7H77v-.78h.36V46.57h.84v1.34h.65v.78Z"/><path class="cls-13" d="M79.27,49.71a1.81,1.81,0,0,1,.56-1.34,2,2,0,0,1,2.76,0,1.95,1.95,0,0,1,0,2.74,1.94,1.94,0,0,1-1.39.55,1.86,1.86,0,0,1-1.37-.56A1.89,1.89,0,0,1,79.27,49.71Zm.86,0a1.23,1.23,0,0,0,.29.86,1.13,1.13,0,0,0,1.58,0,1.37,1.37,0,0,0,0-1.7,1,1,0,0,0-.79-.32,1,1,0,0,0-.78.32A1.16,1.16,0,0,0,80.13,49.72Z"/><path class="cls-13" d="M86.73,45.24h.84v6.32h-.84v-.38a1.57,1.57,0,0,1-1.13.49,1.6,1.6,0,0,1-1.24-.55,2,2,0,0,1-.49-1.39,2,2,0,0,1,.49-1.36,1.57,1.57,0,0,1,2.37,0Zm-2,4.48a1.27,1.27,0,0,0,.28.85.92.92,0,0,0,.73.33,1,1,0,0,0,.76-.32,1.38,1.38,0,0,0,0-1.69,1,1,0,0,0-.75-.32.93.93,0,0,0-.72.33A1.22,1.22,0,0,0,84.73,49.72Z"/><path class="cls-13" d="M88.46,49.71A1.81,1.81,0,0,1,89,48.36a2,2,0,0,1,2.76,0,1.95,1.95,0,0,1,0,2.74,1.93,1.93,0,0,1-1.39.55A1.85,1.85,0,0,1,89,51.1,1.88,1.88,0,0,1,88.46,49.71Zm.86,0a1.23,1.23,0,0,0,.29.86,1.13,1.13,0,0,0,1.58,0,1.37,1.37,0,0,0,0-1.7,1,1,0,0,0-.79-.32,1,1,0,0,0-.78.32A1.17,1.17,0,0,0,89.32,49.72Z"/><path class="cls-13" d="M95.36,48.53l-.7.37q-.16-.33-.41-.33a.27.27,0,0,0-.2.08.26.26,0,0,0-.08.2c0,.14.16.28.49.41a2.92,2.92,0,0,1,.9.53.91.91,0,0,1,.23.65,1.15,1.15,0,0,1-.39.88A1.39,1.39,0,0,1,93,50.76l.72-.33a1.58,1.58,0,0,0,.23.33.53.53,0,0,0,.37.14q.43,0,.43-.39c0-.15-.11-.29-.33-.42L94.15,50l-.26-.12a1.59,1.59,0,0,1-.52-.36.89.89,0,0,1-.19-.59,1,1,0,0,1,.33-.79,1.14,1.14,0,0,1,.81-.31A1.1,1.1,0,0,1,95.36,48.53Z"/><path class="cls-13" d="M97.19,53.54h-.84V47.91h.84v.39a1.6,1.6,0,0,1,2.37.06,2,2,0,0,1,.49,1.39,2,2,0,0,1-.49,1.37,1.6,1.6,0,0,1-2.37,0Zm2-3.78a1.26,1.26,0,0,0-.28-.85.92.92,0,0,0-.73-.33,1,1,0,0,0-.75.32,1.22,1.22,0,0,0-.29.84,1.24,1.24,0,0,0,.29.85,1,1,0,0,0,.75.33.91.91,0,0,0,.72-.33A1.19,1.19,0,0,0,99.19,49.75Z"/><path class="cls-13" d="M100.77,49.71a1.81,1.81,0,0,1,.56-1.34,2,2,0,0,1,2.76,0,1.95,1.95,0,0,1,0,2.74,1.93,1.93,0,0,1-1.39.55,1.86,1.86,0,0,1-1.37-.56A1.89,1.89,0,0,1,100.77,49.71Zm.86,0a1.23,1.23,0,0,0,.29.86,1.13,1.13,0,0,0,1.58,0,1.37,1.37,0,0,0,0-1.7,1,1,0,0,0-.79-.32,1,1,0,0,0-.78.32A1.16,1.16,0,0,0,101.63,49.72Z"/><path class="cls-13" d="M105.55,47.91h.84v.32a1.6,1.6,0,0,1,.41-.33.94.94,0,0,1,.43-.09,1.36,1.36,0,0,1,.69.22l-.38.77a.8.8,0,0,0-.47-.17q-.69,0-.69,1v1.89h-.84Z"/><path class="cls-13" d="M108.53,47.91h.84v.34a1.75,1.75,0,0,1,.42-.34,1,1,0,0,1,.46-.09,1.12,1.12,0,0,1,1,.54,1.26,1.26,0,0,1,1.07-.54q1.23,0,1.23,1.49v2.25h-.84v-2a1.55,1.55,0,0,0-.13-.74.46.46,0,0,0-.43-.22.55.55,0,0,0-.51.26,1.68,1.68,0,0,0-.16.84v1.88h-.85v-2q0-1-.56-1a.56.56,0,0,0-.52.26,1.66,1.66,0,0,0-.16.84v1.88h-.84Z"/><path class="cls-13" d="M117.9,49.93h-2.61a1.11,1.11,0,0,0,.29.71.89.89,0,0,0,.66.26.86.86,0,0,0,.52-.15,2.17,2.17,0,0,0,.46-.55l.71.4a2.89,2.89,0,0,1-.35.48,1.87,1.87,0,0,1-.39.33,1.55,1.55,0,0,1-.45.19,2.18,2.18,0,0,1-.53.06,1.72,1.72,0,0,1-1.31-.52,2,2,0,0,1-.49-1.4,2,2,0,0,1,.48-1.4,1.82,1.82,0,0,1,2.55,0,2,2,0,0,1,.46,1.41Zm-.87-.69a.8.8,0,0,0-.85-.67.84.84,0,0,0-.29,0,.8.8,0,0,0-.24.13.87.87,0,0,0-.19.21,1,1,0,0,0-.12.28Z"/><path class="cls-13" d="M119.81,49.58l-1.31-1.67h1l.81,1.06.83-1.06h1l-1.35,1.67,1.56,2h-1l-1.07-1.36-1.1,1.36h-1Z"/><path class="cls-13" d="M122.83,46.39A.52.52,0,0,1,123,46a.55.55,0,0,1,.77,0,.52.52,0,0,1,.16.39.52.52,0,0,1-.16.39.51.51,0,0,1-.38.16.55.55,0,0,1-.55-.55Zm1,1.52v3.64H123V47.91Z"/><path class="cls-13" d="M127.7,48.07v1.12a2.09,2.09,0,0,0-.52-.48,1,1,0,0,0-.53-.13,1,1,0,0,0-.79.33,1.17,1.17,0,0,0-.32.83,1.2,1.2,0,0,0,.3.84,1,1,0,0,0,.78.33,1.07,1.07,0,0,0,.53-.13,2.08,2.08,0,0,0,.53-.49v1.11a2.21,2.21,0,0,1-1,.27,2,2,0,0,1-1.41-.55,1.82,1.82,0,0,1-.57-1.36,1.85,1.85,0,0,1,.57-1.38,2,2,0,0,1,1.42-.56A2.12,2.12,0,0,1,127.7,48.07Z"/><path class="cls-13" d="M128.34,49.71a1.81,1.81,0,0,1,.56-1.34,2,2,0,0,1,2.76,0,1.95,1.95,0,0,1,0,2.74,1.93,1.93,0,0,1-1.39.55,1.86,1.86,0,0,1-1.37-.56A1.89,1.89,0,0,1,128.34,49.71Zm.86,0a1.23,1.23,0,0,0,.29.86,1.13,1.13,0,0,0,1.58,0,1.37,1.37,0,0,0,0-1.7,1,1,0,0,0-.79-.32,1,1,0,0,0-.78.32A1.17,1.17,0,0,0,129.2,49.72Z"/><path class="cls-13" d="M133.25,51.13a.52.52,0,0,1,1,0,.51.51,0,0,1-.15.37.49.49,0,0,1-.37.15.5.5,0,0,1-.37-.15A.51.51,0,0,1,133.25,51.13Z"/><path class="cls-13" d="M138.31,48.07v1.12a2.07,2.07,0,0,0-.52-.48,1,1,0,0,0-.53-.13,1,1,0,0,0-.79.33,1.17,1.17,0,0,0-.31.83,1.2,1.2,0,0,0,.3.84,1,1,0,0,0,.78.33,1.08,1.08,0,0,0,.53-.13,2.08,2.08,0,0,0,.53-.49v1.11a2.21,2.21,0,0,1-1,.27,2,2,0,0,1-1.41-.55,1.83,1.83,0,0,1-.57-1.36,1.85,1.85,0,0,1,.58-1.38,2,2,0,0,1,1.41-.56A2.11,2.11,0,0,1,138.31,48.07Z"/><path class="cls-13" d="M139,49.71a1.81,1.81,0,0,1,.57-1.34,2,2,0,0,1,2.76,0,1.95,1.95,0,0,1,0,2.74,1.94,1.94,0,0,1-1.4.55,1.85,1.85,0,0,1-1.37-.56A1.89,1.89,0,0,1,139,49.71Zm.86,0a1.23,1.23,0,0,0,.29.86,1.13,1.13,0,0,0,1.58,0,1.37,1.37,0,0,0,0-1.7,1.12,1.12,0,0,0-1.57,0A1.17,1.17,0,0,0,139.82,49.72Z"/><path class="cls-13" d="M143.73,47.91h.84v.34a1.75,1.75,0,0,1,.42-.34,1,1,0,0,1,.46-.09,1.12,1.12,0,0,1,1,.54,1.26,1.26,0,0,1,1.07-.54q1.23,0,1.23,1.49v2.25h-.84v-2a1.55,1.55,0,0,0-.13-.74.46.46,0,0,0-.43-.22.55.55,0,0,0-.5.26,1.67,1.67,0,0,0-.16.84v1.88h-.85v-2q0-1-.56-1a.56.56,0,0,0-.52.26,1.65,1.65,0,0,0-.16.84v1.88h-.84Z"/></svg>