<?xml version="1.0" encoding="utf-8"?>
<!-- Generator: Adobe Illustrator 21.0.0, SVG Export Plug-In . SVG Version: 6.00 Build 0)  -->
<!DOCTYPE svg PUBLIC "-//W3C//DTD SVG 1.1//EN" "http://www.w3.org/Graphics/SVG/1.1/DTD/svg11.dtd">
<svg version="1.1" id="Capa_1" xmlns="http://www.w3.org/2000/svg" xmlns:xlink="http://www.w3.org/1999/xlink" x="0px" y="0px"
	 viewBox="0 0 162.5 50.1" style="enable-background:new 0 0 162.5 50.1;" xml:space="preserve">
<style type="text/css">
	.st0{fill:#A8CB4F;}
	.st1{fill:#626260;}
</style>
<g>
	<g>
		<g>
			<path class="st0" d="M60.3,19.9c0.4-0.1,0.8-0.1,1.2-0.1c1.5,0,2.9,0.6,3.9,1.6l6.5-6.5c-2.7-2.7-6.4-4.3-10.5-4.3
				c-1.2,0-2.3,0.1-3.4,0.4c-4.4,1-8,4-9.9,7.9c-0.9,1.8-1.4,3.8-1.5,5.9c-1.5,2-3.9,3.3-6.5,3.3c-4.5,0-8.1-3.6-8.1-8.1
				s3.6-8.1,8.1-8.1c2.2,0,4.3,0.9,5.7,2.4h0l8.5-8.5C50.8,2.2,45.8,0,40.2,0c-8.3,0-15.5,5.1-18.5,12.3c-2.1-1.1-4.4-1.7-6.9-1.7
				C6.6,10.6,0,17.2,0,25.4c0,8.2,6.6,14.8,14.8,14.8c4.7,0,8.9-2.2,11.6-5.6c3.6,3.4,8.5,5.6,13.9,5.6c4.3,0,8.3-1.4,11.6-3.7
				c2.6,2.3,6,3.7,9.8,3.7c4.1,0,7.8-1.7,10.5-4.3l-6.5-6.5c-1,1-2.4,1.6-3.9,1.6c-1.4,0-2.7-0.5-3.6-1.4c-1.2-1-1.9-2.5-1.9-4.2
				C56,22.7,57.9,20.5,60.3,19.9z M14.8,30.9c-3.1,0-5.6-2.5-5.6-5.6c0-3.1,2.5-5.6,5.6-5.6c3.1,0,5.6,2.5,5.6,5.6
				C20.4,28.5,17.9,30.9,14.8,30.9z"/>
			<g>
				<path class="st0" d="M85,5.1c1.3,0,2-1,2-2.1c0-1.1-0.7-2-2-2c-1.3,0-2,1-2,2.1C83,4.1,83.8,5.1,85,5.1z M85,1.5
					c0.9,0,1.3,0.7,1.3,1.5c0,0.8-0.4,1.5-1.3,1.5c-0.9,0-1.3-0.7-1.3-1.5C83.7,2.2,84.2,1.5,85,1.5z"/>
				<polygon class="st0" points="88.5,3.2 89.8,3.2 89.8,2.7 88.5,2.7 88.5,1.6 90,1.6 90,1 87.8,1 87.8,5 88.5,5 				"/>
				<rect x="90.8" y="1" class="st0" width="0.7" height="4"/>
				<path class="st0" d="M94.3,5.1c0.6,0,1-0.2,1.2-0.4l-0.3-0.5c-0.2,0.2-0.5,0.3-0.9,0.3c-0.9,0-1.3-0.7-1.3-1.5
					c0-0.8,0.4-1.5,1.3-1.5c0.4,0,0.6,0.1,0.9,0.2l0.3-0.5C95.2,1.1,94.9,1,94.4,1c-1.3,0-2,1-2,2C92.4,4.1,93,5.1,94.3,5.1z"/>
				<rect x="96.3" y="1" class="st0" width="0.7" height="4"/>
				<path class="st0" d="M98.7,2.5c0-0.2,0-0.4,0-0.5h0c0.1,0.1,0.2,0.3,0.4,0.6l1.7,2.5h0.6V1h-0.6v2.4c0,0.3,0,0.5,0,0.6h0
					c-0.1-0.1-0.2-0.3-0.4-0.6L98.7,1h-0.7v4h0.6V2.5z"/>
				<path class="st0" d="M103,4.2h1.7l0.3,0.8h0.7l-1.5-4h-0.6L102,5h0.7L103,4.2z M103.6,2.5c0.1-0.3,0.2-0.5,0.2-0.7h0
					c0,0.1,0.1,0.4,0.2,0.7l0.4,1.1h-1.3L103.6,2.5z"/>
				<path class="st0" d="M110.9,3c0-1.1-0.7-1.9-2.3-1.9h-1.1v4h1C110.2,5,110.9,4.1,110.9,3z M108.2,1.6h0.4c1.1,0,1.6,0.4,1.6,1.4
					c0,1-0.5,1.5-1.5,1.5h-0.4V1.6z"/>
				<polygon class="st0" points="113.9,4.4 112.3,4.4 112.3,3.2 113.6,3.2 113.6,2.7 112.3,2.7 112.3,1.6 113.8,1.6 113.8,1 
					111.7,1 111.7,5 113.9,5 				"/>
				<path class="st0" d="M85,12.2c0.6,0,1-0.2,1.2-0.4l-0.3-0.5c-0.2,0.2-0.5,0.3-0.9,0.3c-0.9,0-1.3-0.7-1.3-1.5
					c0-0.8,0.4-1.5,1.3-1.5c0.4,0,0.6,0.1,0.9,0.2l0.3-0.5c-0.3-0.2-0.6-0.3-1.2-0.3c-1.3,0-2,1-2,2C83,11.2,83.7,12.2,85,12.2z"/>
				<path class="st0" d="M88.6,12.2c1.3,0,2-1,2-2.1c0-1.1-0.7-2-2-2c-1.3,0-2,1-2,2.1C86.6,11.2,87.3,12.2,88.6,12.2z M88.6,8.6
					c0.9,0,1.3,0.7,1.3,1.5c0,0.8-0.4,1.5-1.3,1.5c-0.9,0-1.3-0.7-1.3-1.5C87.3,9.3,87.7,8.6,88.6,8.6z"/>
				<path class="st0" d="M91.4,12.1H92V9.6c0-0.2,0-0.4,0-0.5h0c0.1,0.1,0.2,0.3,0.4,0.6l1.7,2.5h0.6v-4H94v2.4c0,0.3,0,0.5,0,0.6h0
					c-0.1-0.1-0.2-0.3-0.4-0.6L92,8.2h-0.7V12.1z"/>
				<path class="st0" d="M97.5,12.2c0.7,0,1.2-0.2,1.5-0.4V10h-1.4v0.5h0.8v0.9c-0.2,0.1-0.5,0.2-0.8,0.2c-0.9,0-1.3-0.7-1.3-1.5
					c0-0.8,0.4-1.5,1.4-1.5c0.4,0,0.7,0.1,1,0.3l0.3-0.5c-0.3-0.2-0.7-0.4-1.3-0.4c-1.3,0-2.1,1-2.1,2
					C95.4,11.2,96.2,12.2,97.5,12.2z"/>
				<path class="st0" d="M102.8,12.1l-0.9-1.3c-0.2-0.3-0.3-0.5-0.4-0.5v0c0.5-0.1,1-0.4,1-1.1c0-0.7-0.5-1.1-1.4-1.1h-1.2v4h0.7
					v-1.7h0.1c0.2,0,0.3,0,0.7,0.6l0.8,1.1H102.8z M101.1,9.9h-0.5V8.7h0.5c0.5,0,0.8,0.2,0.8,0.6C101.8,9.7,101.6,9.9,101.1,9.9z"
					/>
				<polygon class="st0" points="105.6,8.7 105.6,8.2 103.5,8.2 103.5,12.1 105.7,12.1 105.7,11.6 104.1,11.6 104.1,10.3 
					105.4,10.3 105.4,9.8 104.1,9.8 104.1,8.7 				"/>
				<path class="st0" d="M107.4,11.7c-0.5,0-0.8-0.2-0.9-0.3l-0.3,0.5c0.2,0.1,0.6,0.4,1.2,0.4c0.8,0,1.4-0.5,1.4-1.1
					c0-0.7-0.5-1-1.1-1.3c-0.4-0.2-0.7-0.3-0.7-0.7c0-0.3,0.2-0.5,0.6-0.5c0.4,0,0.7,0.2,0.8,0.3l0.3-0.5c-0.1-0.1-0.5-0.3-1.1-0.3
					c-0.7,0-1.2,0.4-1.2,1.1c0,0.6,0.4,0.9,0.9,1.2c0.5,0.2,0.9,0.4,0.9,0.8C108.1,11.4,107.9,11.7,107.4,11.7z"/>
				<path class="st0" d="M113.3,10.1c0-1.1-0.7-2-2-2c-1.3,0-2,1-2,2.1c0,1.1,0.7,2,2,2C112.6,12.2,113.3,11.2,113.3,10.1z
					 M111.3,11.7c-0.9,0-1.3-0.7-1.3-1.5c0-0.8,0.4-1.5,1.3-1.5c0.9,0,1.3,0.7,1.3,1.5C112.6,11,112.2,11.7,111.3,11.7z"/>
				<path class="st0" d="M114.8,10.3c0.5,0.2,0.9,0.4,0.9,0.8c0,0.3-0.3,0.6-0.7,0.6c-0.5,0-0.8-0.2-0.9-0.3l-0.3,0.5
					c0.2,0.1,0.6,0.4,1.2,0.4c0.8,0,1.4-0.5,1.4-1.1c0-0.7-0.5-1-1.1-1.3c-0.4-0.2-0.7-0.3-0.7-0.7c0-0.3,0.2-0.5,0.6-0.5
					c0.4,0,0.7,0.2,0.8,0.3l0.3-0.5c-0.1-0.1-0.5-0.3-1.1-0.3c-0.7,0-1.2,0.4-1.2,1.1C113.9,9.8,114.3,10.1,114.8,10.3z"/>
				<polygon class="st0" points="119.2,12.1 119.9,12.1 119.9,10.6 121.2,8.2 120.5,8.2 119.6,10 119.6,10 118.6,8.2 117.9,8.2 
					119.2,10.6 				"/>
				<path class="st0" d="M85,19.3c0.6,0,1-0.2,1.2-0.4l-0.3-0.5c-0.2,0.2-0.5,0.3-0.9,0.3c-0.9,0-1.3-0.7-1.3-1.5
					c0-0.8,0.4-1.5,1.3-1.5c0.4,0,0.6,0.1,0.9,0.2l0.3-0.5c-0.3-0.2-0.6-0.3-1.2-0.3c-1.3,0-2,1-2,2C83,18.3,83.7,19.3,85,19.3z"/>
				<path class="st0" d="M88.6,15.2c-1.3,0-2,1-2,2.1c0,1.1,0.7,2,2,2c1.3,0,2-1,2-2.1C90.6,16.2,89.8,15.2,88.6,15.2z M88.6,18.8
					c-0.9,0-1.3-0.7-1.3-1.5c0-0.8,0.4-1.5,1.3-1.5c0.9,0,1.3,0.7,1.3,1.5C89.9,18.1,89.4,18.8,88.6,18.8z"/>
				<path class="st0" d="M94.6,15.3H94v2.4c0,0.3,0,0.5,0,0.6h0c-0.1-0.1-0.2-0.3-0.4-0.6L92,15.3h-0.7v4H92v-2.5c0-0.2,0-0.4,0-0.5
					h0c0.1,0.1,0.2,0.3,0.4,0.6l1.7,2.5h0.6V15.3z"/>
				<path class="st0" d="M97.1,18.5L97.1,18.5c0-0.1-0.1-0.4-0.2-0.7L96,15.3h-0.7l1.5,4h0.6l1.5-4h-0.7l-0.9,2.5
					C97.2,18.1,97.2,18.4,97.1,18.5z"/>
				<polygon class="st0" points="101.7,15.9 101.7,15.3 99.5,15.3 99.5,19.3 101.7,19.3 101.7,18.7 100.2,18.7 100.2,17.4 
					101.5,17.4 101.5,16.9 100.2,16.9 100.2,15.9 				"/>
				<path class="st0" d="M103.5,16.8l1.7,2.5h0.6v-4h-0.6v2.4c0,0.3,0,0.5,0,0.6h0c-0.1-0.1-0.2-0.3-0.4-0.6l-1.6-2.3h-0.7v4h0.6
					v-2.5c0-0.2,0-0.4,0-0.5h0C103.2,16.3,103.4,16.5,103.5,16.8z"/>
				<path class="st0" d="M108.6,15.8c0.4,0,0.6,0.1,0.9,0.2l0.3-0.5c-0.3-0.2-0.6-0.3-1.2-0.3c-1.3,0-2,1-2,2c0,1.1,0.7,2.1,2,2.1
					c0.6,0,1-0.2,1.2-0.4l-0.3-0.5c-0.2,0.2-0.5,0.3-0.9,0.3c-0.9,0-1.3-0.7-1.3-1.5C107.4,16.5,107.8,15.8,108.6,15.8z"/>
				<rect x="110.6" y="15.3" class="st0" width="0.7" height="4"/>
				<path class="st0" d="M114.1,19.3c1.3,0,2-1,2-2.1c0-1.1-0.7-2-2-2c-1.3,0-2,1-2,2.1C112.1,18.4,112.9,19.3,114.1,19.3z
					 M114.1,15.8c0.9,0,1.3,0.7,1.3,1.5c0,0.8-0.4,1.5-1.3,1.5c-0.9,0-1.3-0.7-1.3-1.5C112.8,16.5,113.3,15.8,114.1,15.8z"/>
				<path class="st0" d="M119.6,17.7c0,0.3,0,0.5,0,0.6h0c-0.1-0.1-0.2-0.3-0.4-0.6l-1.6-2.3h-0.7v4h0.6v-2.5c0-0.2,0-0.4,0-0.5h0
					c0.1,0.1,0.2,0.3,0.4,0.6l1.7,2.5h0.6v-4h-0.6V17.7z"/>
				<polygon class="st0" points="123.5,18.7 121.9,18.7 121.9,17.4 123.3,17.4 123.3,16.9 121.9,16.9 121.9,15.9 123.4,15.9 
					123.4,15.3 121.3,15.3 121.3,19.3 123.5,19.3 				"/>
				<path class="st0" d="M125.5,16.9c-0.4-0.2-0.7-0.3-0.7-0.7c0-0.3,0.2-0.5,0.6-0.5c0.4,0,0.7,0.2,0.8,0.3l0.3-0.5
					c-0.1-0.1-0.5-0.3-1.1-0.3c-0.7,0-1.2,0.4-1.2,1.1c0,0.6,0.4,0.9,0.9,1.2c0.5,0.2,0.9,0.4,0.9,0.8c0,0.3-0.3,0.6-0.7,0.6
					c-0.5,0-0.8-0.2-0.9-0.3l-0.3,0.5c0.2,0.1,0.6,0.4,1.2,0.4c0.8,0,1.4-0.5,1.4-1.1C126.6,17.4,126.1,17.2,125.5,16.9z"/>
				<path class="st0" d="M91.4,35.7c-0.8,0-1.3-0.3-1.8-1c2.3-0.5,3.5-2.6,3.5-4.7c0-2.5-1.7-4.8-4.8-4.8c-3.1,0-4.8,2.3-4.8,4.9
					c0,2.3,1.4,4.3,3.9,4.7c1.4,1.9,2.6,2.4,4,2.4c0.9,0,1.6-0.3,1.8-0.5l-0.6-1.3C92.3,35.5,91.9,35.7,91.4,35.7z M88.2,33.3
					c-1.9,0-2.7-1.5-2.7-3.3c0-1.7,0.9-3.2,2.8-3.2c1.9,0,2.7,1.5,2.7,3.3C90.9,31.8,90.1,33.3,88.2,33.3z"/>
				<path class="st0" d="M100.6,31.1c0,1.4-0.6,2.2-2,2.2c-1.5,0-2.1-0.7-2.1-2.3v-5.6h-2v5.7c0,2.4,1.3,3.8,4,3.8
					c2.6,0,3.8-1.4,3.8-4v-5.6h-1.8V31.1z"/>
				<polygon class="st0" points="106.7,30.7 109.7,30.7 109.7,29.1 106.7,29.1 106.7,27 110.2,27 110.2,25.4 104.7,25.4 104.7,34.7 
					110.2,34.7 110.2,33.1 106.7,33.1 				"/>
				<path class="st0" d="M116.6,30.6L116.6,30.6c1.1-0.2,2.2-1,2.2-2.5c0-1.8-1.3-2.7-3.5-2.7h-3.1v9.4h2v-3.9h0.1
					c0.4,0,0.6,0.1,1.3,1.2l1.7,2.7h2.2l-1.8-2.8C117.2,31.2,116.9,30.8,116.6,30.6z M115.3,29.5h-1.1v-2.6h1c1.1,0,1.6,0.4,1.6,1.3
					C116.8,29,116.3,29.5,115.3,29.5z"/>
				<polygon class="st0" points="124.3,24.7 126.3,22.8 123.9,22.8 122.7,24.7 				"/>
				<polygon class="st0" points="122.9,30.7 125.9,30.7 125.9,29.1 122.9,29.1 122.9,27 126.3,27 126.3,25.4 120.9,25.4 120.9,34.7 
					126.4,34.7 126.4,33.1 122.9,33.1 				"/>
				<polygon class="st0" points="134.6,25.4 127.4,25.4 127.4,27 130,27 130,34.7 132,34.7 132,27 134.6,27 				"/>
				<path class="st0" d="M138,25.4l-3.6,9.4h2L137,33h3.7l0.6,1.8h2.2l-3.7-9.4H138z M137.5,31.4l0.8-2.2c0.3-0.8,0.4-1.4,0.5-1.6h0
					c0.1,0.2,0.2,0.8,0.5,1.6l0.8,2.2H137.5z"/>
				<path class="st0" d="M149.3,30.6L149.3,30.6c1.1-0.2,2.2-1,2.2-2.5c0-1.8-1.3-2.7-3.5-2.7h-3.1v9.4h2v-3.9h0.1
					c0.4,0,0.6,0.1,1.3,1.2l1.7,2.7h2.2l-1.8-2.8C149.9,31.2,149.6,30.8,149.3,30.6z M148,29.5h-1.1v-2.6h1c1.1,0,1.6,0.4,1.6,1.3
					C149.5,29,149,29.5,148,29.5z"/>
				<path class="st0" d="M157.7,25.2c-3.1,0-4.8,2.3-4.8,4.9c0,2.5,1.7,4.8,4.9,4.8c3.1,0,4.8-2.4,4.8-4.9
					C162.5,27.5,160.8,25.2,157.7,25.2z M157.7,33.3c-1.9,0-2.7-1.5-2.7-3.3c0-1.7,0.9-3.2,2.8-3.2c1.9,0,2.7,1.5,2.7,3.3
					C160.4,31.8,159.6,33.3,157.7,33.3z"/>
			</g>
			<rect x="76.9" y="0" class="st0" width="1.2" height="40.2"/>
		</g>
	</g>
	<g>
		<g>
			<path class="st1" d="M0,46.3h1.7v0.4H0.5v0.8h1.1V48H0.5v1h1.2v0.4H0V46.3z"/>
			<path class="st1" d="M4.6,47.8l-1-1.5h0.6L5,47.4l0.6-1.1h0.6l-0.9,1.5l1,1.6H5.6l-0.7-1.2l-0.7,1.2H3.6L4.6,47.8z"/>
			<path class="st1" d="M8.2,46.3h0.9c0.7,0,1.2,0.3,1.2,1c0,0.7-0.5,1-1.2,1H8.8v1.2H8.2V46.3z M9.1,47.8c0.5,0,0.7-0.2,0.7-0.6
				c0-0.3-0.2-0.6-0.7-0.6H8.8v1.1H9.1z"/>
			<path class="st1" d="M12.4,46.3h1.7v0.4H13v0.8H14V48H13v1h1.2v0.4h-1.8V46.3z"/>
			<path class="st1" d="M16.4,46.3h1c0.7,0,1.1,0.3,1.1,0.9c0,0.5-0.4,0.8-0.8,0.8v0c0.1,0.1,0.2,0.2,0.4,0.4l0.7,1h-0.6l-0.6-0.9
				c-0.3-0.4-0.4-0.5-0.5-0.5h0v1.4h-0.5V46.3z M17.3,47.7c0.4,0,0.6-0.2,0.6-0.5c0-0.3-0.2-0.5-0.6-0.5h-0.4v1H17.3z"/>
			<path class="st1" d="M20.7,46.3h0.5v3.2h-0.5V46.3z"/>
			<path class="st1" d="M23.6,46.3h1.7v0.4h-1.2v0.8h1.1V48h-1.1v1h1.2v0.4h-1.8V46.3z"/>
			<path class="st1" d="M27.6,46.3h0.5l1.3,1.9c0.2,0.2,0.3,0.4,0.3,0.5h0c0-0.1,0-0.2,0-0.5v-1.9h0.5v3.2h-0.5l-1.4-2
				c-0.1-0.2-0.2-0.4-0.3-0.4h0c0,0,0,0.2,0,0.4v2h-0.5V46.3z"/>
			<path class="st1" d="M32.3,47.9c0-0.9,0.6-1.6,1.6-1.6c0.4,0,0.7,0.1,0.9,0.2l-0.3,0.4c-0.2-0.1-0.4-0.2-0.7-0.2
				c-0.7,0-1,0.5-1,1.2c0,0.6,0.3,1.2,1,1.2c0.3,0,0.6-0.1,0.7-0.3l0.2,0.4c-0.2,0.2-0.5,0.3-1,0.3C32.9,49.5,32.3,48.7,32.3,47.9z"
				/>
			<path class="st1" d="M37,46.3h0.5v3.2H37V46.3z"/>
			<path class="st1" d="M40.7,46.3h0.5l1.2,3.2h-0.6l-0.2-0.7h-1.3l-0.2,0.7h-0.5L40.7,46.3z M41.5,48.3l-0.3-0.9
				C41.1,47.2,41,47,41,46.9h0c0,0.1-0.1,0.3-0.2,0.5l-0.3,0.9H41.5z"/>
			<path class="st1" d="M44.2,49.2l0.2-0.4c0.1,0.1,0.3,0.3,0.7,0.3c0.4,0,0.6-0.2,0.6-0.4c0-0.3-0.3-0.4-0.7-0.6
				c-0.4-0.2-0.7-0.4-0.7-0.9c0-0.5,0.4-0.8,1-0.8c0.5,0,0.8,0.2,0.9,0.3l-0.2,0.4c-0.1-0.1-0.3-0.2-0.6-0.2c-0.3,0-0.5,0.1-0.5,0.4
				c0,0.3,0.3,0.4,0.6,0.5c0.4,0.2,0.9,0.4,0.9,1c0,0.5-0.4,0.9-1.1,0.9C44.7,49.5,44.3,49.3,44.2,49.2z"/>
			<path class="st1" d="M50.6,49.2l0.2-0.4c0.1,0.1,0.3,0.3,0.7,0.3c0.4,0,0.6-0.2,0.6-0.4c0-0.3-0.3-0.4-0.7-0.6
				c-0.4-0.2-0.7-0.4-0.7-0.9c0-0.5,0.4-0.8,1-0.8c0.5,0,0.8,0.2,0.9,0.3l-0.2,0.4c-0.1-0.1-0.3-0.2-0.6-0.2c-0.3,0-0.5,0.1-0.5,0.4
				c0,0.3,0.3,0.4,0.6,0.5c0.4,0.2,0.9,0.4,0.9,1c0,0.5-0.4,0.9-1.1,0.9C51,49.5,50.7,49.3,50.6,49.2z"/>
			<path class="st1" d="M54.8,46.3h0.5v3.2h-0.5V46.3z"/>
			<path class="st1" d="M57.7,46.3h0.5l1.3,1.9c0.2,0.2,0.3,0.4,0.3,0.5h0c0-0.1,0-0.2,0-0.5v-1.9h0.5v3.2h-0.5l-1.4-2
				c-0.1-0.2-0.2-0.4-0.3-0.4h0c0,0,0,0.2,0,0.4v2h-0.5V46.3z"/>
			<path class="st1" d="M65.1,46.3h0.5V49h1.2v0.4h-1.7V46.3z"/>
			<path class="st1" d="M69,46.3h0.5v3.2H69V46.3z M69.4,45.4h0.7L69.4,46H69L69.4,45.4z"/>
			<path class="st1" d="M72.1,46.3h0.5l0.7,2c0.1,0.2,0.1,0.4,0.2,0.6h0c0-0.1,0.1-0.3,0.2-0.6l0.7-2h0.5l0.4,3.2h-0.5l-0.2-1.8
				c0-0.2,0-0.4-0.1-0.5h0c0,0.1-0.1,0.2-0.1,0.4l-0.6,1.8h-0.5l-0.6-1.8c-0.1-0.2-0.1-0.4-0.1-0.4h0c0,0.1,0,0.2,0,0.5l-0.2,1.8
				h-0.5L72.1,46.3z"/>
			<path class="st1" d="M77.5,46.3H78v3.2h-0.5V46.3z"/>
			<path class="st1" d="M80.9,46.7h-0.9v-0.4h2.3v0.4h-0.9v2.7h-0.5V46.7z"/>
			<path class="st1" d="M84.4,46.3h1.7v0.4h-1.2v0.8h1.1V48h-1.1v1h1.2v0.4h-1.8V46.3z"/>
			<path class="st1" d="M88.4,49.6c0-0.2-0.2-0.2-0.2-0.5c0-0.2,0.1-0.3,0.3-0.3c0.2,0,0.4,0.2,0.4,0.5c0,0.3-0.1,0.6-0.3,0.9h-0.3
				C88.3,50,88.4,49.8,88.4,49.6z"/>
			<path class="st1" d="M93.5,46.3h1.7v0.4H94v0.8h1.1V48H94v1h1.2v0.4h-1.8V46.3z"/>
			<path class="st1" d="M97.4,46.3h0.5l1.3,1.9c0.2,0.2,0.3,0.4,0.3,0.5h0c0-0.1,0-0.2,0-0.5v-1.9h0.5v3.2h-0.5l-1.4-2
				c-0.1-0.2-0.2-0.4-0.3-0.4h0c0,0,0,0.2,0,0.4v2h-0.5V46.3z"/>
			<path class="st1" d="M104.8,46.3h0.5v1.3h1.6v-1.3h0.5v3.2H107V48h-1.6v1.4h-0.5V46.3z"/>
			<path class="st1" d="M110.7,46.3h0.5l1.2,3.2h-0.6l-0.2-0.7h-1.3l-0.2,0.7h-0.5L110.7,46.3z M111.4,48.3l-0.3-0.9
				c-0.1-0.3-0.1-0.4-0.2-0.5h0c0,0.1-0.1,0.3-0.2,0.5l-0.3,0.9H111.4z"/>
			<path class="st1" d="M114.1,47.9c0-0.9,0.6-1.6,1.6-1.6c0.4,0,0.7,0.1,0.9,0.2l-0.3,0.4c-0.2-0.1-0.4-0.2-0.7-0.2
				c-0.7,0-1,0.5-1,1.2c0,0.6,0.3,1.2,1,1.2c0.3,0,0.6-0.1,0.7-0.3l0.2,0.4c-0.2,0.2-0.5,0.3-1,0.3
				C114.6,49.5,114.1,48.7,114.1,47.9z"/>
			<path class="st1" d="M118.7,46.3h1.7v0.4h-1.2v0.8h1.1V48h-1.1v1h1.2v0.4h-1.8V46.3z"/>
			<path class="st1" d="M122.7,46.3h1c0.7,0,1.1,0.3,1.1,0.9c0,0.5-0.4,0.8-0.8,0.8v0c0.1,0.1,0.2,0.2,0.4,0.4l0.7,1h-0.6l-0.6-0.9
				c-0.3-0.4-0.4-0.5-0.5-0.5h0v1.4h-0.5V46.3z M123.6,47.7c0.4,0,0.6-0.2,0.6-0.5c0-0.3-0.2-0.5-0.6-0.5h-0.4v1H123.6z"/>
			<path class="st1" d="M129.4,46.3h0.5l1.3,1.9c0.2,0.2,0.3,0.4,0.3,0.5h0c0-0.1,0-0.2,0-0.5v-1.9h0.5v3.2h-0.5l-1.4-2
				c-0.1-0.2-0.2-0.4-0.3-0.4h0c0,0,0,0.2,0,0.4v2h-0.5V46.3z"/>
			<path class="st1" d="M134.4,46.3h1.7v0.4h-1.2v0.8h1.1V48h-1.1v1h1.2v0.4h-1.8V46.3z"/>
			<path class="st1" d="M138.1,47.9c0-0.9,0.6-1.6,1.7-1.6c0.4,0,0.8,0.1,1,0.3l-0.3,0.4c-0.2-0.2-0.5-0.2-0.8-0.2
				c-0.7,0-1.1,0.5-1.1,1.2c0,0.6,0.3,1.2,1.1,1.2c0.3,0,0.5-0.1,0.7-0.2v-0.7h-0.6v-0.4h1.2v1.5c-0.2,0.2-0.6,0.3-1.2,0.3
				C138.7,49.5,138.1,48.7,138.1,47.9z"/>
			<path class="st1" d="M143,47.9c0-0.9,0.6-1.6,1.6-1.6c1,0,1.6,0.8,1.6,1.6c0,0.9-0.6,1.7-1.6,1.7C143.6,49.5,143,48.7,143,47.9z
				 M145.6,47.9c0-0.6-0.3-1.2-1-1.2c-0.7,0-1,0.5-1,1.2c0,0.6,0.3,1.2,1,1.2C145.3,49.1,145.6,48.5,145.6,47.9z"/>
			<path class="st1" d="M148.1,47.9c0-0.9,0.6-1.6,1.6-1.6c0.4,0,0.7,0.1,0.9,0.2l-0.3,0.4c-0.2-0.1-0.4-0.2-0.7-0.2
				c-0.7,0-1,0.5-1,1.2c0,0.6,0.3,1.2,1,1.2c0.3,0,0.6-0.1,0.7-0.3l0.2,0.4c-0.2,0.2-0.5,0.3-1,0.3
				C148.7,49.5,148.1,48.7,148.1,47.9z"/>
			<path class="st1" d="M152.8,46.3h0.5v3.2h-0.5V46.3z"/>
			<path class="st1" d="M155.5,47.9c0-0.9,0.6-1.6,1.6-1.6c1,0,1.6,0.8,1.6,1.6c0,0.9-0.6,1.7-1.6,1.7S155.5,48.7,155.5,47.9z
				 M158.1,47.9c0-0.6-0.3-1.2-1-1.2c-0.7,0-1,0.5-1,1.2c0,0.6,0.3,1.2,1,1.2C157.8,49.1,158.1,48.5,158.1,47.9z"/>
			<path class="st1" d="M160.5,49.2l0.2-0.4c0.1,0.1,0.3,0.3,0.7,0.3c0.4,0,0.6-0.2,0.6-0.4c0-0.3-0.3-0.4-0.7-0.6
				c-0.4-0.2-0.7-0.4-0.7-0.9c0-0.5,0.4-0.8,1-0.8c0.5,0,0.8,0.2,0.9,0.3l-0.2,0.4c-0.1-0.1-0.3-0.2-0.6-0.2c-0.3,0-0.5,0.1-0.5,0.4
				c0,0.3,0.3,0.4,0.6,0.5c0.4,0.2,0.9,0.4,0.9,1c0,0.5-0.4,0.9-1.1,0.9C160.9,49.5,160.6,49.3,160.5,49.2z"/>
		</g>
	</g>
</g>
</svg>
