<svg id="Capa_1" data-name="Capa 1" xmlns="http://www.w3.org/2000/svg" viewBox="0 0 81.38 58.37"><defs><style>.cls-1{fill:#231f21;}.cls-2{fill:none;}.cls-3{fill:#92373b;}.cls-4{fill:#ebe73b;}.cls-5{fill:#f3b633;}.cls-6{fill:#a9a200;}.cls-7{fill:#c73f33;}.cls-8{fill:#743631;}.cls-9{fill:#d5752d;}.cls-10{fill:#935524;}.cls-11{fill:#d53541;}.cls-12{fill:#6f2a2c;}.cls-13{fill:#9a2c31;}.cls-14{fill:#8ebb37;}.cls-15{fill:#3dad4b;}.cls-16{fill:#36783b;}</style></defs><title>QCC</title><path class="cls-1" d="M13,55.75a.73.73,0,0,0-.27-.21.9.9,0,0,0-.37-.07.93.93,0,0,0-.71.31,1.08,1.08,0,0,0-.21.35,1.28,1.28,0,0,0-.07.44,1.26,1.26,0,0,0,.07.44,1.09,1.09,0,0,0,.21.35.91.91,0,0,0,.31.23.89.89,0,0,0,.38.08.82.82,0,0,0,.71-.37l.63.47a1.32,1.32,0,0,1-.55.45,1.71,1.71,0,0,1-.69.14,2.11,2.11,0,0,1-.74-.13,1.68,1.68,0,0,1-.58-.36,1.62,1.62,0,0,1-.38-.57,2.07,2.07,0,0,1,0-1.49,1.62,1.62,0,0,1,.38-.57,1.68,1.68,0,0,1,.58-.36,2.09,2.09,0,0,1,.74-.13l.3,0a1.6,1.6,0,0,1,.31.08,1.4,1.4,0,0,1,.29.15,1.21,1.21,0,0,1,.25.24Z"/><path class="cls-1" d="M14.09,54.87h2.33v.7H14.85v.64h1.48v.7H14.85v.7H16.5v.7H14.09Z"/><path class="cls-1" d="M17.11,54.87h1l1.46,2.38h0V54.87h.75v3.42h-1l-1.49-2.44h0v2.44h-.75Z"/><path class="cls-1" d="M21.71,55.53h-1v-.67h2.71v.67h-1v2.75h-.75Z"/><path class="cls-1" d="M23.82,54.87h1.32a2.31,2.31,0,0,1,.5.05,1.14,1.14,0,0,1,.41.17.83.83,0,0,1,.28.32,1.08,1.08,0,0,1,.1.5,1,1,0,0,1-.19.62.85.85,0,0,1-.55.32l.87,1.44h-.9l-.72-1.37h-.37v1.37h-.75Zm.75,1.42h.66a.66.66,0,0,0,.21,0,.36.36,0,0,0,.15-.11.42.42,0,0,0,0-.42.33.33,0,0,0-.14-.12.58.58,0,0,0-.19-.06h-.7Z"/><path class="cls-1" d="M26.77,56.58a1.94,1.94,0,0,1,.14-.74,1.62,1.62,0,0,1,.39-.57,1.68,1.68,0,0,1,.58-.36,2.24,2.24,0,0,1,1.48,0,1.68,1.68,0,0,1,.58.36,1.63,1.63,0,0,1,.39.57,2.09,2.09,0,0,1,0,1.49,1.63,1.63,0,0,1-.39.57,1.68,1.68,0,0,1-.58.36,2.24,2.24,0,0,1-1.48,0,1.68,1.68,0,0,1-.58-.36,1.62,1.62,0,0,1-.39-.57A1.94,1.94,0,0,1,26.77,56.58Zm.78,0a1.29,1.29,0,0,0,.07.44,1,1,0,0,0,.22.35,1,1,0,0,0,.34.23,1.21,1.21,0,0,0,.87,0,1,1,0,0,0,.34-.23,1,1,0,0,0,.22-.35,1.26,1.26,0,0,0,.07-.44,1.28,1.28,0,0,0-.07-.44,1,1,0,0,0-.22-.35,1,1,0,0,0-.34-.23,1.21,1.21,0,0,0-.87,0,1,1,0,0,0-.34.23,1,1,0,0,0-.22.35A1.3,1.3,0,0,0,27.55,56.58Z"/><path class="cls-1" d="M32.4,54.87h1.13a3.24,3.24,0,0,1,.78.09,1.78,1.78,0,0,1,.64.3,1.45,1.45,0,0,1,.44.53,1.8,1.8,0,0,1,.16.8,1.63,1.63,0,0,1-.16.73,1.58,1.58,0,0,1-.42.53,1.87,1.87,0,0,1-.61.33,2.36,2.36,0,0,1-.73.11H32.4Zm.75,2.73h.39a2,2,0,0,0,.48-.05,1,1,0,0,0,.39-.18.83.83,0,0,0,.26-.32,1.13,1.13,0,0,0,.09-.49,1,1,0,0,0-.09-.44.88.88,0,0,0-.25-.31,1.1,1.1,0,0,0-.37-.18,1.65,1.65,0,0,0-.45-.06h-.44Z"/><path class="cls-1" d="M36.1,54.87h2.32v.7H36.86v.64h1.48v.7H36.86v.7h1.66v.7H36.1Z"/><path class="cls-1" d="M42.79,55.75a.73.73,0,0,0-.27-.21.9.9,0,0,0-.37-.07.93.93,0,0,0-.39.08,1,1,0,0,0-.32.23,1.07,1.07,0,0,0-.21.35,1.25,1.25,0,0,0-.07.44,1.24,1.24,0,0,0,.07.44,1.09,1.09,0,0,0,.21.35.93.93,0,0,0,.31.23.89.89,0,0,0,.38.08.84.84,0,0,0,.41-.1.82.82,0,0,0,.3-.27l.63.47a1.33,1.33,0,0,1-.55.45,1.71,1.71,0,0,1-.69.14,2.1,2.1,0,0,1-.74-.13,1.68,1.68,0,0,1-.58-.36,1.63,1.63,0,0,1-.39-.57,2.09,2.09,0,0,1,0-1.49,1.63,1.63,0,0,1,.39-.57,1.68,1.68,0,0,1,.58-.36,2.08,2.08,0,0,1,.74-.13l.3,0a1.62,1.62,0,0,1,.31.08,1.36,1.36,0,0,1,.29.15,1.12,1.12,0,0,1,.25.24Z"/><path class="cls-1" d="M43.68,56.58a1.94,1.94,0,0,1,.14-.74,1.61,1.61,0,0,1,.38-.57,1.68,1.68,0,0,1,.58-.36,2.24,2.24,0,0,1,1.48,0,1.69,1.69,0,0,1,.59.36,1.63,1.63,0,0,1,.38.57,2.09,2.09,0,0,1,0,1.49,1.63,1.63,0,0,1-.38.57,1.69,1.69,0,0,1-.59.36,2.24,2.24,0,0,1-1.48,0,1.68,1.68,0,0,1-.58-.36,1.61,1.61,0,0,1-.38-.57A1.94,1.94,0,0,1,43.68,56.58Zm.78,0a1.28,1.28,0,0,0,.07.44,1,1,0,0,0,.22.35,1,1,0,0,0,.34.23,1.21,1.21,0,0,0,.87,0,1,1,0,0,0,.34-.23,1,1,0,0,0,.22-.35,1.26,1.26,0,0,0,.08-.44,1.28,1.28,0,0,0-.08-.44,1,1,0,0,0-.22-.35,1,1,0,0,0-.34-.23,1.21,1.21,0,0,0-.87,0,1,1,0,0,0-.34.23,1,1,0,0,0-.22.35A1.3,1.3,0,0,0,44.46,56.58Z"/><path class="cls-1" d="M47.88,54.87h1l1.46,2.38h0V54.87h.75v3.42h-1l-1.49-2.44h0v2.44h-.75Z"/><path class="cls-1" d="M54.92,58a2.76,2.76,0,0,1-.7.25,3.56,3.56,0,0,1-.74.08,2.1,2.1,0,0,1-.74-.13,1.7,1.7,0,0,1-.59-.36,1.64,1.64,0,0,1-.38-.57,2.09,2.09,0,0,1,0-1.49,1.64,1.64,0,0,1,.38-.57,1.7,1.7,0,0,1,.59-.36,2.08,2.08,0,0,1,.74-.13,2.77,2.77,0,0,1,.76.1,1.5,1.5,0,0,1,.61.34l-.53.58a1.08,1.08,0,0,0-.35-.24,1.23,1.23,0,0,0-.48-.08,1.11,1.11,0,0,0-.44.08,1,1,0,0,0-.34.23,1,1,0,0,0-.21.35,1.25,1.25,0,0,0-.08.44,1.24,1.24,0,0,0,.08.44,1,1,0,0,0,.55.58,1.13,1.13,0,0,0,.44.08,1.46,1.46,0,0,0,.43-.06,1.57,1.57,0,0,0,.29-.11V57h-.61v-.7h1.34Z"/><path class="cls-1" d="M55.58,54.87H56.9a2.3,2.3,0,0,1,.5.05,1.15,1.15,0,0,1,.41.17.83.83,0,0,1,.28.32,1.08,1.08,0,0,1,.1.5,1,1,0,0,1-.19.62.85.85,0,0,1-.55.32l.87,1.44h-.9l-.72-1.37h-.37v1.37h-.75Zm.75,1.42H57a.65.65,0,0,0,.21,0,.35.35,0,0,0,.15-.11.43.43,0,0,0,0-.42.34.34,0,0,0-.14-.12.58.58,0,0,0-.19-.06h-.7Z"/><path class="cls-1" d="M58.74,54.87h2.32v.7H59.5v.64H61v.7H59.5v.7h1.66v.7H58.74Z"/><path class="cls-1" d="M63.45,55.7a.52.52,0,0,0-.25-.17.9.9,0,0,0-.3-.06l-.17,0-.17.06a.36.36,0,0,0-.12.11.27.27,0,0,0,0,.16.27.27,0,0,0,.12.24,1.07,1.07,0,0,0,.29.14l.38.12a1.57,1.57,0,0,1,.38.16.94.94,0,0,1,.29.28.87.87,0,0,1,.12.48,1.11,1.11,0,0,1-.11.5,1,1,0,0,1-.29.35,1.25,1.25,0,0,1-.42.21,1.94,1.94,0,0,1-1.13,0,1.56,1.56,0,0,1-.53-.33l.54-.59a.79.79,0,0,0,.29.24.83.83,0,0,0,.37.08l.19,0,.17-.06a.38.38,0,0,0,.12-.11.27.27,0,0,0,0-.16.29.29,0,0,0-.12-.24,1.05,1.05,0,0,0-.3-.15l-.39-.13a1.79,1.79,0,0,1-.39-.17.93.93,0,0,1-.3-.28.8.8,0,0,1-.12-.46,1,1,0,0,1,.11-.48,1.06,1.06,0,0,1,.29-.35,1.23,1.23,0,0,1,.42-.21,1.67,1.67,0,0,1,.49-.07,1.93,1.93,0,0,1,.56.08,1.3,1.3,0,0,1,.49.28Z"/><path class="cls-1" d="M64.35,56.58a1.9,1.9,0,0,1,.14-.74,1.61,1.61,0,0,1,.38-.57,1.69,1.69,0,0,1,.58-.36,2.24,2.24,0,0,1,1.48,0,1.69,1.69,0,0,1,.59.36,1.64,1.64,0,0,1,.38.57,2.09,2.09,0,0,1,0,1.49,1.64,1.64,0,0,1-.38.57,1.69,1.69,0,0,1-.59.36,2.24,2.24,0,0,1-1.48,0,1.69,1.69,0,0,1-.58-.36,1.61,1.61,0,0,1-.38-.57A1.91,1.91,0,0,1,64.35,56.58Zm.78,0a1.24,1.24,0,0,0,.07.44,1,1,0,0,0,.22.35,1,1,0,0,0,.34.23,1.21,1.21,0,0,0,.87,0,1,1,0,0,0,.55-.58,1.24,1.24,0,0,0,.08-.44,1.25,1.25,0,0,0-.08-.44,1,1,0,0,0-.55-.58,1.21,1.21,0,0,0-.87,0,1,1,0,0,0-.34.23,1,1,0,0,0-.22.35A1.25,1.25,0,0,0,65.13,56.58Z"/><path class="cls-1" d="M70.24,55.7a.53.53,0,0,0-.25-.17.91.91,0,0,0-.3-.06l-.17,0-.16.06a.36.36,0,0,0-.13.11.28.28,0,0,0,0,.16.27.27,0,0,0,.12.24,1.09,1.09,0,0,0,.29.14l.38.12a1.56,1.56,0,0,1,.38.16.92.92,0,0,1,.29.28.88.88,0,0,1,.11.48,1.11,1.11,0,0,1-.1.5,1,1,0,0,1-.29.35,1.23,1.23,0,0,1-.42.21,1.93,1.93,0,0,1-1.12,0,1.58,1.58,0,0,1-.53-.33l.54-.59a.77.77,0,0,0,.29.24.83.83,0,0,0,.36.08l.19,0,.17-.06a.37.37,0,0,0,.12-.11.31.31,0,0,0-.07-.4,1.07,1.07,0,0,0-.3-.15l-.39-.13a1.75,1.75,0,0,1-.39-.17,1,1,0,0,1-.3-.28.8.8,0,0,1-.12-.46,1,1,0,0,1,.4-.83,1.22,1.22,0,0,1,.42-.21,1.67,1.67,0,0,1,.49-.07,1.93,1.93,0,0,1,.56.08,1.31,1.31,0,0,1,.49.28Z"/><path class="cls-1" d="M10.78,52.23H5.09a6.15,6.15,0,0,1-2-.33A4.52,4.52,0,0,1,1.45,51,4.4,4.4,0,0,1,.38,49.44a5.05,5.05,0,0,1-.38-2,4.77,4.77,0,0,1,.39-1.95,4.63,4.63,0,0,1,1.07-1.53,4.81,4.81,0,0,1,1.59-1,5.44,5.44,0,0,1,2-.35A5.33,5.33,0,0,1,7,43a4.9,4.9,0,0,1,1.59,1,4.66,4.66,0,0,1,1.07,1.52A4.74,4.74,0,0,1,10,47.41a4.27,4.27,0,0,1-.11,1,3.79,3.79,0,0,1-.34.9,2.95,2.95,0,0,1-1.42,1.31v0h2.63ZM2.15,47.41A2.89,2.89,0,0,0,3.9,50.09a2.86,2.86,0,0,0,2.23,0,2.92,2.92,0,0,0,0-5.36A2.74,2.74,0,0,0,5,44.51a2.74,2.74,0,0,0-1.11.23,2.89,2.89,0,0,0-1.75,2.68Z"/><path class="cls-1" d="M19.72,48.6a4.54,4.54,0,0,1-.25,1.54,3.32,3.32,0,0,1-2,2,4.65,4.65,0,0,1-1.71.29A4.68,4.68,0,0,1,14,52.17a3.42,3.42,0,0,1-1.24-.81,3.38,3.38,0,0,1-.75-1.22,4.54,4.54,0,0,1-.25-1.54V42.83h2.07v5.69a2.3,2.3,0,0,0,.14.81,1.9,1.9,0,0,0,.39.64,1.76,1.76,0,0,0,.6.42,1.89,1.89,0,0,0,.76.15,1.85,1.85,0,0,0,.76-.15,1.76,1.76,0,0,0,.6-.42,1.9,1.9,0,0,0,.39-.64,2.25,2.25,0,0,0,.14-.81V42.83h2.07Z"/><path class="cls-1" d="M21.71,42.83h6.38v1.91H23.78V46.5h4.07v1.91H23.78v1.91h4.55v1.91H21.71Z"/><path class="cls-1" d="M30,42.83h3.64A6.39,6.39,0,0,1,35,43a3.22,3.22,0,0,1,1.13.46,2.33,2.33,0,0,1,.77.88,3,3,0,0,1,.28,1.37,2.75,2.75,0,0,1-.52,1.69,2.32,2.32,0,0,1-1.51.88l2.39,4H35l-2-3.75h-1v3.75H30Zm2.07,3.89h1.22l.59,0a1.87,1.87,0,0,0,.56-.12,1,1,0,0,0,.42-.31,1,1,0,0,0,.17-.6,1,1,0,0,0-.15-.57,1,1,0,0,0-.37-.33,1.62,1.62,0,0,0-.52-.15,4.05,4.05,0,0,0-.57,0H32.06Z"/><path class="cls-1" d="M38.66,42.83H45v1.91H40.73V46.5H44.8v1.91H40.73v1.91h4.55v1.91H38.66Zm3.16-2.6h2.7l-2.29,1.91H40.48Z"/><path class="cls-1" d="M48.75,44.66H46.08V42.83H53.5v1.83H50.82v7.56H48.75Z"/><path class="cls-1" d="M56.42,42.83h1.71l4.09,9.39H59.88l-.81-2H55.43l-.78,2H52.36Zm.8,2.73-1.14,2.92h2.3Z"/><path class="cls-1" d="M63.16,42.83h3.63a6.38,6.38,0,0,1,1.36.14,3.23,3.23,0,0,1,1.13.46,2.33,2.33,0,0,1,.77.88,3,3,0,0,1,.28,1.37,2.75,2.75,0,0,1-.52,1.69,2.33,2.33,0,0,1-1.51.88l2.39,4H68.21l-2-3.75h-1v3.75H63.16Zm2.07,3.89h1.22l.59,0a1.88,1.88,0,0,0,.56-.12,1,1,0,0,0,.42-.31,1,1,0,0,0,.16-.6.91.91,0,0,0-.52-.9,1.62,1.62,0,0,0-.52-.15,4.07,4.07,0,0,0-.57,0H65.23Z"/><path class="cls-1" d="M71.25,47.53a5.29,5.29,0,0,1,.38-2,4.48,4.48,0,0,1,1.05-1.56,4.65,4.65,0,0,1,1.61-1,6.14,6.14,0,0,1,4.06,0,4.65,4.65,0,0,1,1.61,1A4.48,4.48,0,0,1,81,45.49a5.71,5.71,0,0,1,0,4.09A4.48,4.48,0,0,1,80,51.13a4.65,4.65,0,0,1-1.61,1,6.14,6.14,0,0,1-4.06,0,4.65,4.65,0,0,1-1.61-1,4.48,4.48,0,0,1-1.05-1.56A5.3,5.3,0,0,1,71.25,47.53Zm2.15,0a3.45,3.45,0,0,0,.21,1.21,2.77,2.77,0,0,0,.59,1,2.69,2.69,0,0,0,.92.63,3.32,3.32,0,0,0,2.4,0,2.71,2.71,0,0,0,.92-.63,2.77,2.77,0,0,0,.59-1,3.65,3.65,0,0,0,0-2.42,2.75,2.75,0,0,0-.59-1,2.69,2.69,0,0,0-.92-.63,3.3,3.3,0,0,0-2.4,0,2.68,2.68,0,0,0-.92.63,2.75,2.75,0,0,0-.59,1A3.46,3.46,0,0,0,73.4,47.53Z"/><polygon class="cls-2" points="34.75 28.75 35.9 25.32 34.75 20.61 34.75 28.75"/><polygon class="cls-3" points="18.25 0 10.5 0 10.5 38.73 16.5 38.73 18.25 24.94 18.25 0"/><polygon class="cls-4" points="51.97 0.41 48.01 12.26 52.98 27.84 55.19 10.48 51.97 0.41"/><polygon class="cls-5" points="40.38 11.92 43.64 25.31 48.01 12.26 44.23 0.42 40.38 11.92"/><polygon class="cls-5" points="34.75 28.75 34.75 38.73 39.16 38.73 39.16 38.71 35.9 25.32 34.75 28.75"/><polygon class="cls-6" points="44.36 0 44.23 0.42 48.01 12.26 51.97 0.41 52.11 0 44.36 0"/><polygon class="cls-7" points="34.75 20.61 29.72 0 29.16 0 27 17.01 27 38.73 31.41 38.73 34.75 28.75 34.75 20.61"/><polygon class="cls-8" points="31.41 38.73 34.75 38.73 34.75 28.75 31.41 38.73"/><polygon class="cls-9" points="39.17 38.73 46.92 38.73 43.64 25.31 39.16 38.71 39.17 38.73"/><polygon class="cls-9" points="35.9 25.32 40.38 11.92 37.47 0 34.75 0 34.75 20.61 35.9 25.32"/><polygon class="cls-10" points="35.9 25.32 39.16 38.71 43.64 25.31 40.38 11.92 35.9 25.32"/><polygon class="cls-8" points="34.75 0 29.72 0 34.75 20.61 34.75 0"/><polygon class="cls-11" points="21.42 0 18.25 24.94 18.25 38.73 24.25 38.73 27 17.01 27 0 21.42 0"/><polygon class="cls-12" points="16.5 38.73 18.25 38.73 18.25 24.94 16.5 38.73"/><polygon class="cls-13" points="27 0 27 17.01 29.16 0 27 0"/><polygon class="cls-14" points="51.6 38.73 56.47 38.73 52.98 27.84 51.6 38.73"/><polygon class="cls-2" points="63.14 8.87 60.73 27.84 63.14 35.38 63.14 8.87"/><polygon class="cls-15" points="64.24 0.01 63.14 8.87 63.14 35.38 64.21 38.73 63.14 38.73 63.14 38.74 70.88 38.74 70.88 0.01 64.24 0.01"/><polygon class="cls-4" points="60.73 27.84 59.35 38.73 63.14 38.73 63.14 35.38 60.73 27.84"/><polygon class="cls-16" points="63.14 35.38 63.14 38.73 64.21 38.73 63.14 35.38"/><polygon class="cls-14" points="63.14 0.18 64.24 0.18 64.26 0 56.52 0 55.19 10.48 60.73 27.84 63.14 8.87 63.14 0.18"/><polygon class="cls-16" points="63.14 8.87 64.27 0.01 63.14 0.01 63.14 8.87"/><polygon class="cls-6" points="55.19 10.48 52.98 27.84 56.47 38.73 59.35 38.73 60.73 27.84 55.19 10.48"/></svg>