<svg id="Capa_1" data-name="Capa 1" xmlns="http://www.w3.org/2000/svg" viewBox="0 0 108.5 56.73"><defs><style>.cls-1{fill:#c43677;}.cls-2{fill:#db93ae;}.cls-3{fill:#e9b977;}.cls-4{fill:#d9861c;}.cls-5{fill:#a6c5e6;}.cls-6{fill:#65a2d3;}.cls-7{fill:#d5de88;}.cls-8{fill:#b6c932;}</style></defs><title>QroTravel</title><circle class="cls-1" cx="68.55" cy="10.85" r="9.33"/><path class="cls-2" d="M68.73,18.66a7.81,7.81,0,1,1,7.81-7.81A7.82,7.82,0,0,1,68.73,18.66Zm10.85-7.81A10.85,10.85,0,1,0,68.73,21.69,10.86,10.86,0,0,0,79.58,10.85Z"/><circle class="cls-3" cx="97.38" cy="10.85" r="9.33"/><path class="cls-4" d="M97.56,18.66a7.81,7.81,0,1,1,7.81-7.81A7.82,7.82,0,0,1,97.56,18.66Zm10.85-7.81A10.85,10.85,0,1,0,97.56,21.69,10.86,10.86,0,0,0,108.41,10.85Z"/><circle class="cls-5" cx="10.69" cy="10.85" r="9.33"/><path class="cls-6" d="M10.88,18.66a7.81,7.81,0,1,1,7.81-7.81A7.82,7.82,0,0,1,10.88,18.66Zm10.85-7.81A10.85,10.85,0,1,0,10.88,21.69,10.86,10.86,0,0,0,21.72,10.85Z"/><circle class="cls-7" cx="39.56" cy="10.85" r="9.33"/><path class="cls-8" d="M39.74,18.66a7.81,7.81,0,1,1,7.81-7.81A7.82,7.82,0,0,1,39.74,18.66Zm10.85-7.81A10.85,10.85,0,1,0,39.74,21.69,10.86,10.86,0,0,0,50.59,10.85Z"/><path class="cls-1" d="M11.3,44.74a2.59,2.59,0,0,0,1.58-.53L13.78,46a4.31,4.31,0,0,1-2.6.77c-2,0-3.64-.73-5.64-3.32A6.55,6.55,0,0,1,0,36.78a6.55,6.55,0,0,1,6.81-6.85,6.49,6.49,0,0,1,6.79,6.77,6.53,6.53,0,0,1-4.87,6.67A2.91,2.91,0,0,0,11.3,44.74ZM6.87,32.19c-2.65,0-3.9,2.06-3.9,4.51s1.21,4.63,3.84,4.63,3.84-2.1,3.84-4.55S9.5,32.19,6.87,32.19Z"/><path class="cls-1" d="M21.24,43.6c-3.82,0-5.62-1.9-5.62-5.35V30.17h2.79V38c0,2.26.81,3.29,2.89,3.29s2.77-1.19,2.77-3.11v-8h2.57V38C26.64,41.59,24.84,43.6,21.24,43.6Z"/><path class="cls-1" d="M28.89,43.35V30.17h7.6v2.29H31.64v3h4.27v2.18H31.64v3.44h5v2.3Z"/><path class="cls-1" d="M46.3,43.35,43.88,39.6c-1-1.52-1.25-1.66-1.86-1.66h-.18v5.42H39.06V30.17h4.39c3.09,0,4.87,1.33,4.87,3.8a3.46,3.46,0,0,1-3.07,3.54v0a7,7,0,0,1,1.54,1.88l2.58,3.92Zm-3-11H41.85V36h1.52c1.48,0,2.18-.67,2.18-1.82S44.85,32.31,43.25,32.31Z"/><path class="cls-1" d="M51.17,43.35V30.17h7.6v2.29H53.92v3H58.2v2.18H53.92v3.44h5v2.3ZM55,26.43h3.4l-2.77,2.67H53.31Z"/><path class="cls-1" d="M66.8,32.47V43.35H64V32.47H60.35V30.17H70.43v2.29Z"/><path class="cls-1" d="M72.54,43.35H69.73l5-13.18h2.69l5.17,13.18h-3l-.89-2.47H73.42Zm4.22-7.86c-.41-1.13-.71-2.28-.71-2.28h0s-.3,1.17-.69,2.28l-1.11,3.15h3.68Z"/><path class="cls-1" d="M91,43.35,88.6,39.6c-1-1.52-1.25-1.66-1.86-1.66h-.18v5.42H83.77V30.17h4.4C91.25,30.17,93,31.5,93,34A3.46,3.46,0,0,1,90,37.52v0a7,7,0,0,1,1.54,1.88l2.57,3.92Zm-3-11H86.56V36h1.53c1.48,0,2.18-.67,2.18-1.82S89.57,32.31,88,32.31Z"/><path class="cls-1" d="M101.77,43.6a6.58,6.58,0,0,1-6.87-6.81,6.8,6.8,0,1,1,13.6-.08C108.5,40.29,106.18,43.6,101.77,43.6Zm0-11.4c-2.65,0-3.9,2.06-3.9,4.51s1.21,4.63,3.84,4.63,3.84-2.1,3.84-4.55S104.41,32.19,101.77,32.19Z"/><path class="cls-6" d="M.6,50.44H4.16v1.08H1.89v1.39h2v1h-2v1.62H4.23v1.08H.6Z"/><path class="cls-6" d="M6.88,53.44,5,50.44H6.5l1.17,1.93,1.1-1.93h1.32l-1.78,3,2,3.19H8.8L7.5,54.48,6.25,56.62H4.92Z"/><path class="cls-6" d="M11.21,50.44h2c1.35,0,2.37.62,2.37,1.95s-1,2-2.52,2h-.57v2.2H11.21Zm1.9,3c.83,0,1.18-.33,1.18-1s-.34-1-1.15-1h-.61v2Z"/><path class="cls-6" d="M16.72,50.44h3.56v1.08H18v1.39h2v1H18v1.62h2.34v1.08H16.72Z"/><path class="cls-6" d="M21.64,50.44H23.7c1.45,0,2.28.62,2.28,1.78a1.62,1.62,0,0,1-1.44,1.66v0a3.26,3.26,0,0,1,.72.88l1.21,1.84H25L23.9,54.85c-.48-.71-.58-.78-.87-.78h-.08v2.54H21.64Zm2,2.71c.7,0,1-.32,1-.85s-.32-.85-1.08-.85h-.66v1.71Z"/><path class="cls-6" d="M27.45,50.44h1.31v6.18H27.45Z"/><path class="cls-6" d="M30.4,50.44H34v1.08H31.69v1.39h2v1h-2v1.62H34v1.08H30.4Z"/><path class="cls-6" d="M35.31,50.44h1.32l2.23,3.2a10.89,10.89,0,0,1,.65,1h0c0-.08,0-.5,0-1V50.44h1.19v6.18h-1.2l-2.4-3.44c-.33-.46-.52-.81-.59-.93h0c0,.08,0,.44,0,.83v3.54H35.31Z"/><path class="cls-6" d="M41.83,53.52A3,3,0,0,1,45,50.33a3.21,3.21,0,0,1,1.86.49l-.58,1A2.22,2.22,0,0,0,45,51.41a1.83,1.83,0,0,0-1.78,2.07c0,1.18.59,2.15,1.8,2.15a2.19,2.19,0,0,0,1.4-.47l.54.92a3.1,3.1,0,0,1-2,.65A3,3,0,0,1,41.83,53.52Z"/><path class="cls-6" d="M48,50.44H49.3v6.18H48Z"/><path class="cls-6" d="M52.67,50.44h1.26l2.42,6.18H54.93l-.42-1.16H52l-.41,1.16H50.31Zm1.47,4-.53-1.48c-.2-.53-.28-.93-.33-1.07h0c0,.15-.15.57-.32,1.07l-.53,1.48Z"/><path class="cls-6" d="M56.77,56.12l.56-.91a2.19,2.19,0,0,0,1.33.46c.62,0,1-.32,1-.71s-.66-.71-1.38-1.07A1.93,1.93,0,0,1,56.93,52a1.8,1.8,0,0,1,2-1.72,2.87,2.87,0,0,1,1.81.52l-.53.92A2.33,2.33,0,0,0,59,51.38c-.5,0-.83.22-.83.64s.49.64,1.14.94c.82.37,1.59.79,1.59,1.93s-.84,1.84-2.22,1.84A3,3,0,0,1,56.77,56.12Z"/><path class="cls-8" d="M63.36,56.12l.56-.91a2.2,2.2,0,0,0,1.33.46c.62,0,1-.32,1-.71s-.66-.71-1.38-1.07A1.93,1.93,0,0,1,63.52,52a1.8,1.8,0,0,1,2-1.72,2.87,2.87,0,0,1,1.81.52l-.53.92a2.34,2.34,0,0,0-1.21-.38c-.5,0-.83.22-.83.64s.49.64,1.14.94c.82.37,1.59.79,1.59,1.93s-.84,1.84-2.22,1.84A3,3,0,0,1,63.36,56.12Z"/><path class="cls-8" d="M68.69,50.44H70v6.18H68.69Z"/><path class="cls-8" d="M71.63,50.44H73l2.23,3.2a11.07,11.07,0,0,1,.65,1h0c0-.08,0-.5,0-1V50.44H77v6.18H75.8l-2.4-3.44c-.33-.46-.52-.81-.59-.93h0c0,.08,0,.44,0,.83v3.54H71.63Z"/><path class="cls-8" d="M80.35,50.44h1.32v5.12H84v1.06H80.35Z"/><path class="cls-8" d="M85.15,50.44h1.31v6.18H85.15ZM86,48.71h1.6L86.27,50H85.2Z"/><path class="cls-8" d="M88.57,50.44h1.27l1.24,3.82c.15.45.26.89.32,1.07h0c0-.17.18-.62.32-1.07L93,50.44h1.26l.85,6.18H93.8l-.4-3.19c-.06-.45-.09-.78-.1-.9h0c0,.14-.12.47-.25.88l-1,3.21H90.69l-1-3.2c-.12-.39-.21-.76-.25-.89h0c0,.14,0,.5-.08.91l-.4,3.18H87.72Z"/><path class="cls-8" d="M96.35,50.44h1.31v6.18H96.35Z"/><path class="cls-8" d="M100.36,51.51H98.66V50.44h4.73v1.08h-1.7v5.11h-1.32Z"/><path class="cls-8" d="M104.28,50.44h3.56v1.08h-2.27v1.39h2v1h-2v1.62h2.34v1.08h-3.63Z"/></svg>