<svg id="Capa_1" data-name="Capa 1" xmlns="http://www.w3.org/2000/svg" viewBox="0 0 96.38 60.35"><defs><style>.cls-1{fill:#d9c8a3;}.cls-2{fill:#b2945e;}.cls-3{fill:#c0a879;}.cls-4{fill:#6d4f2e;}.cls-5{fill:#825a2f;}.cls-6{fill:#594730;}.cls-7{fill:#4c382d;}.cls-8{fill:#231f21;}</style></defs><title>QTM</title><polygon class="cls-1" points="41.13 20.74 45.08 43.06 50.73 43.04 51.58 35.31 50.24 16.71 41.13 20.74"/><polygon class="cls-2" points="55.54 14.35 53.79 15.15 51.58 35.31 52.13 43.04 55.69 43.04 56.8 33.26 55.54 14.35"/><polygon class="cls-3" points="50.24 16.71 51.58 35.31 53.79 15.15 50.24 16.71"/><polygon class="cls-2" points="65.03 10.15 59.12 12.71 56.8 33.26 57.45 43.04 64.48 43.04 65.07 29.82 62.58 11.23 65.03 10.15"/><polygon class="cls-3" points="55.69 43.04 57.45 43.04 56.8 33.26 55.69 43.04"/><polygon class="cls-4" points="65.97 9.75 65.07 29.82 66.85 43.04 72.16 43.04 74.04 28.31 71.14 7.48 65.97 9.75"/><polygon class="cls-5" points="62.58 11.23 65.07 29.82 66.04 9.71 62.58 11.23"/><polygon class="cls-6" points="77.1 4.78 74.04 28.31 76.1 43.04 81.41 43.04 87.58 0 77.1 4.78"/><polygon class="cls-7" points="71.03 7.51 74.04 28.31 77.14 4.76 71.03 7.51"/><polygon class="cls-3" points="88.53 1.66 82.56 43.04 86.08 43.04 88.69 35.61 92.35 8.9 88.53 1.66"/><polygon class="cls-3" points="94.2 12.41 95.79 15.42 88.69 35.61 87.67 43.04 91.62 43.04 96.38 16.43 94.2 12.41"/><polygon class="cls-2" points="94.2 12.41 92.33 8.88 88.69 35.61 95.81 15.39 94.2 12.41"/><path class="cls-8" d="M2.2,36.52H0V35H6.09v1.5H3.9v6.2H2.2Z"/><path class="cls-8" d="M7,35h5.23v1.57H8.72V38h3.34v1.57H8.72v1.57h3.73v1.57H7Z"/><path class="cls-8" d="M16.35,35h1.4l3.35,7.7H19.19l-.66-1.63h-3l-.64,1.63H13ZM17,37.26l-.94,2.39h1.88Z"/><path class="cls-8" d="M22.36,36.52h-2.2V35h6.09v1.5h-2.2v6.2h-1.7Z"/><path class="cls-8" d="M27.12,35h3a5.27,5.27,0,0,1,1.11.11,2.64,2.64,0,0,1,.93.38,1.9,1.9,0,0,1,.63.72A2.43,2.43,0,0,1,33,37.36a2.26,2.26,0,0,1-.43,1.39,1.91,1.91,0,0,1-1.24.72l2,3.25h-2l-1.61-3.08h-.84v3.08h-1.7Zm1.7,3.19h1l.48,0a1.51,1.51,0,0,0,.46-.1.81.81,0,0,0,.34-.26.78.78,0,0,0,.14-.49.75.75,0,0,0-.43-.74,1.35,1.35,0,0,0-.42-.13,3.59,3.59,0,0,0-.47,0H28.82Z"/><path class="cls-8" d="M33.76,38.87a4.35,4.35,0,0,1,.31-1.68,3.67,3.67,0,0,1,.87-1.28,3.8,3.8,0,0,1,1.32-.81,5,5,0,0,1,3.33,0,3.8,3.8,0,0,1,1.32.81,3.67,3.67,0,0,1,.87,1.28,4.7,4.7,0,0,1,0,3.35,3.69,3.69,0,0,1-.87,1.28,3.8,3.8,0,0,1-1.32.81,5,5,0,0,1-3.33,0,3.8,3.8,0,0,1-1.32-.81,3.69,3.69,0,0,1-.87-1.28A4.36,4.36,0,0,1,33.76,38.87Zm1.76,0a2.8,2.8,0,0,0,.17,1,2.25,2.25,0,0,0,.48.78,2.21,2.21,0,0,0,.76.52,2.72,2.72,0,0,0,2,0,2.22,2.22,0,0,0,.76-.52,2.26,2.26,0,0,0,.48-.78,3,3,0,0,0,0-2,2.25,2.25,0,0,0-.48-.79,2.22,2.22,0,0,0-.76-.52,2.73,2.73,0,0,0-2,0,2.21,2.21,0,0,0-.76.52,2.24,2.24,0,0,0-.48.79A2.81,2.81,0,0,0,35.52,38.87Z"/><path class="cls-8" d="M.71,45.48H3.28l1.77,5h0l1.79-5H9.41v7.7H7.72V47.28h0l-2,5.91H4.38L2.43,47.28h0v5.91H.71Z"/><path class="cls-8" d="M11,45.48h5.24V47H12.74v1.44h3.34v1.57H12.74v1.57h3.73v1.57H11Z"/><path class="cls-8" d="M19.33,47h-2.2v-1.5h6.09V47H21v6.2h-1.7Z"/><path class="cls-8" d="M24.08,45.48h3a5.27,5.27,0,0,1,1.11.11,2.63,2.63,0,0,1,.93.38,1.9,1.9,0,0,1,.63.72A2.43,2.43,0,0,1,30,47.82a2.26,2.26,0,0,1-.43,1.39,1.91,1.91,0,0,1-1.24.72l2,3.25h-2l-1.61-3.08h-.84v3.08h-1.7Zm1.7,3.19h1l.48,0a1.51,1.51,0,0,0,.46-.1.81.81,0,0,0,.34-.26.79.79,0,0,0,.14-.49.82.82,0,0,0-.12-.47.81.81,0,0,0-.3-.27,1.37,1.37,0,0,0-.42-.12,3.45,3.45,0,0,0-.47,0H25.78Z"/><path class="cls-8" d="M30.72,49.33A4.35,4.35,0,0,1,31,47.66a3.69,3.69,0,0,1,.87-1.28,3.83,3.83,0,0,1,1.32-.81,5,5,0,0,1,3.33,0,3.83,3.83,0,0,1,1.32.81,3.68,3.68,0,0,1,.87,1.28,4.69,4.69,0,0,1,0,3.35,3.66,3.66,0,0,1-.87,1.28,3.8,3.8,0,0,1-1.32.81,5,5,0,0,1-3.33,0,3.8,3.8,0,0,1-1.32-.81A3.68,3.68,0,0,1,31,51,4.36,4.36,0,0,1,30.72,49.33Zm1.76,0a2.85,2.85,0,0,0,.17,1,2.26,2.26,0,0,0,.49.78,2.19,2.19,0,0,0,.76.52,2.72,2.72,0,0,0,2,0,2.21,2.21,0,0,0,.76-.52,2.26,2.26,0,0,0,.48-.78,3,3,0,0,0,0-2,2.25,2.25,0,0,0-.48-.79,2.21,2.21,0,0,0-.76-.52,2.72,2.72,0,0,0-2,0,2.19,2.19,0,0,0-.76.52,2.25,2.25,0,0,0-.49.79A2.86,2.86,0,0,0,32.49,49.33Z"/><path class="cls-8" d="M40.19,45.48h2.86a5.67,5.67,0,0,1,1.13.11,2.6,2.6,0,0,1,.93.38,1.91,1.91,0,0,1,.63.72A2.47,2.47,0,0,1,46,47.82,2.63,2.63,0,0,1,45.76,49a1.86,1.86,0,0,1-.6.73,2.44,2.44,0,0,1-.9.39,5.31,5.31,0,0,1-1.13.11H41.89v3h-1.7Zm1.7,3.26H43a2.11,2.11,0,0,0,.44,0,1.12,1.12,0,0,0,.38-.15.77.77,0,0,0,.27-.28.89.89,0,0,0,.1-.45.77.77,0,0,0-.14-.47.92.92,0,0,0-.35-.28,1.51,1.51,0,0,0-.47-.13l-.5,0h-.87Z"/><path class="cls-8" d="M46.63,49.33a4.35,4.35,0,0,1,.31-1.68,3.67,3.67,0,0,1,.87-1.28,3.83,3.83,0,0,1,1.32-.81,5,5,0,0,1,3.33,0,3.86,3.86,0,0,1,1.32.81,3.69,3.69,0,0,1,.86,1.28,4.69,4.69,0,0,1,0,3.35,3.67,3.67,0,0,1-.86,1.28,3.83,3.83,0,0,1-1.32.81,5,5,0,0,1-3.33,0,3.8,3.8,0,0,1-1.32-.81A3.66,3.66,0,0,1,46.94,51,4.36,4.36,0,0,1,46.63,49.33Zm1.76,0a2.82,2.82,0,0,0,.17,1,2.26,2.26,0,0,0,.48.78,2.2,2.2,0,0,0,.76.52,2.72,2.72,0,0,0,2,0,2.18,2.18,0,0,0,.76-.52,2.26,2.26,0,0,0,.49-.78,3,3,0,0,0,0-2,2.25,2.25,0,0,0-.49-.79,2.18,2.18,0,0,0-.76-.52,2.72,2.72,0,0,0-2,0,2.2,2.2,0,0,0-.76.52,2.25,2.25,0,0,0-.48.79A2.84,2.84,0,0,0,48.39,49.33Z"/><path class="cls-8" d="M56.17,45.48h1.7v6.14H61v1.57H56.17Z"/><path class="cls-8" d="M61.92,45.48h1.7v7.7h-1.7Z"/><path class="cls-8" d="M66.66,47h-2.2v-1.5h6.09V47h-2.2v6.2h-1.7Z"/><path class="cls-8" d="M72.95,45.48h1.4l3.35,7.7H75.79l-.66-1.63h-3l-.64,1.63H69.62Zm.65,2.24-.94,2.39h1.88Z"/><path class="cls-8" d="M78.47,45.48h2.31l3.28,5.35h0V45.48h1.7v7.7H83.56L80.19,47.7h0v5.48h-1.7Z"/><path class="cls-8" d="M86.93,49.33a4.34,4.34,0,0,1,.31-1.68,3.67,3.67,0,0,1,.87-1.28,3.83,3.83,0,0,1,1.32-.81,5,5,0,0,1,3.33,0,3.83,3.83,0,0,1,1.32.81,3.67,3.67,0,0,1,.87,1.28,4.67,4.67,0,0,1,0,3.35,3.66,3.66,0,0,1-.87,1.28,3.8,3.8,0,0,1-1.32.81,5,5,0,0,1-3.33,0,3.8,3.8,0,0,1-1.32-.81A3.66,3.66,0,0,1,87.24,51,4.34,4.34,0,0,1,86.93,49.33Zm1.76,0a2.82,2.82,0,0,0,.17,1,2.27,2.27,0,0,0,.48.78,2.2,2.2,0,0,0,.76.52,2.72,2.72,0,0,0,2,0,2.21,2.21,0,0,0,.76-.52,2.27,2.27,0,0,0,.48-.78,3,3,0,0,0,0-2,2.26,2.26,0,0,0-.48-.79,2.21,2.21,0,0,0-.76-.52,2.72,2.72,0,0,0-2,0,2.2,2.2,0,0,0-.76.52,2.26,2.26,0,0,0-.48.79A2.84,2.84,0,0,0,88.69,49.33Z"/><path class="cls-8" d="M49.51,60.27h-2a1.79,1.79,0,0,1-.68-.13,1.75,1.75,0,0,1-.56-.36,1.7,1.7,0,0,1-.52-1.24,1.78,1.78,0,0,1,.13-.69,1.69,1.69,0,0,1,.93-.92,1.8,1.8,0,0,1,.69-.13,1.74,1.74,0,0,1,1.22.49,1.71,1.71,0,0,1,.37.54,1.65,1.65,0,0,1,.14.67,1.78,1.78,0,0,1-.05.42,1.64,1.64,0,0,1-.15.39,1.32,1.32,0,0,1-.24.33,1.15,1.15,0,0,1-.33.23h1Zm-2-.43a1.24,1.24,0,0,0,.51-.1,1.17,1.17,0,0,0,.4-.28A1.27,1.27,0,0,0,48.7,59a1.49,1.49,0,0,0,.09-.52,1.35,1.35,0,0,0-.09-.5,1.22,1.22,0,0,0-.66-.68,1.23,1.23,0,0,0-.5-.1,1.21,1.21,0,0,0-.49.1,1.26,1.26,0,0,0-.39.27,1.3,1.3,0,0,0-.26.41,1.28,1.28,0,0,0-.1.49,1.46,1.46,0,0,0,.09.52,1.32,1.32,0,0,0,.25.43,1.23,1.23,0,0,0,.4.29A1.2,1.2,0,0,0,47.53,59.84Z"/><path class="cls-8" d="M52.78,56.88V59a1.35,1.35,0,0,0,0,.33.92.92,0,0,0,.14.31.76.76,0,0,0,.26.23.93.93,0,0,0,.8,0,.75.75,0,0,0,.26-.23.9.9,0,0,0,.14-.31,1.31,1.31,0,0,0,0-.33V56.88h.46V59a1.37,1.37,0,0,1-.1.54,1.25,1.25,0,0,1-.28.42,1.23,1.23,0,0,1-.42.27,1.44,1.44,0,0,1-1,0A1.24,1.24,0,0,1,52.7,60a1.28,1.28,0,0,1-.28-.42,1.39,1.39,0,0,1-.1-.54V56.88Z"/><path class="cls-8" d="M58.14,56.88h2.19v.43H58.6v1h1.61v.43H58.6v1.09h1.81v.43H58.14Z"/><path class="cls-8" d="M63.46,56.88h1.19a1.41,1.41,0,0,1,.54.09.91.91,0,0,1,.33.23.76.76,0,0,1,.17.31,1.2,1.2,0,0,1,0,.33.88.88,0,0,1-.06.31.92.92,0,0,1-.16.27,1,1,0,0,1-.26.21.92.92,0,0,1-.35.1l1,1.55h-.57l-.86-1.49h-.51v1.49h-.46Zm.46,1.49h.6l.27,0a.69.69,0,0,0,.23-.08.44.44,0,0,0,.17-.16.57.57,0,0,0,.06-.28.58.58,0,0,0-.06-.28.44.44,0,0,0-.17-.16.71.71,0,0,0-.23-.08l-.27,0h-.6Z"/><path class="cls-8" d="M68.77,56.88H71v.43H69.23v1h1.61v.43H69.23v1.09H71v.43H68.77ZM70,56h.61l-.71.69h-.4Z"/><path class="cls-8" d="M74.8,57.31H73.7v-.43h2.64v.43H75.25v3H74.8Z"/><path class="cls-8" d="M79.85,56.88h.42l1.45,3.39h-.54l-.34-.84H79.23l-.33.84h-.54ZM80.67,59,80,57.47h0L79.39,59Z"/><path class="cls-8" d="M84.55,56.88h1.19a1.4,1.4,0,0,1,.54.09.89.89,0,0,1,.33.23.76.76,0,0,1,.17.31,1.2,1.2,0,0,1,0,.33.86.86,0,0,1-.06.31.9.9,0,0,1-.17.27.93.93,0,0,1-.26.21.91.91,0,0,1-.35.1l1,1.55h-.58l-.86-1.49H85v1.49h-.46ZM85,58.37h.6l.27,0a.7.7,0,0,0,.24-.08.44.44,0,0,0,.16-.16.55.55,0,0,0,.06-.28.55.55,0,0,0-.06-.28.44.44,0,0,0-.16-.16.72.72,0,0,0-.24-.08l-.27,0H85Z"/><path class="cls-8" d="M91.42,60.35a1.82,1.82,0,0,1-.71-.14,1.68,1.68,0,0,1-.56-.38,1.76,1.76,0,0,1-.36-.56,1.94,1.94,0,0,1,0-1.41,1.76,1.76,0,0,1,.36-.56,1.65,1.65,0,0,1,.56-.38,1.93,1.93,0,0,1,1.42,0,1.64,1.64,0,0,1,.56.38,1.73,1.73,0,0,1,.36.56,2,2,0,0,1,0,1.41,1.73,1.73,0,0,1-.36.56,1.67,1.67,0,0,1-.56.38A1.83,1.83,0,0,1,91.42,60.35Zm0-.43a1.25,1.25,0,0,0,.53-.11,1.26,1.26,0,0,0,.4-.29,1.31,1.31,0,0,0,.26-.43,1.56,1.56,0,0,0,0-1,1.29,1.29,0,0,0-.26-.43,1.25,1.25,0,0,0-.4-.29,1.27,1.27,0,0,0-1.45.29,1.27,1.27,0,0,0-.26.43,1.58,1.58,0,0,0,0,1,1.3,1.3,0,0,0,.26.43,1.23,1.23,0,0,0,.93.4Z"/></svg>