<svg id="Capa_1" data-name="Capa 1" xmlns="http://www.w3.org/2000/svg" viewBox="0 0 173.34 48.13"><defs><style>.cls-1{fill:#1a1e25;}.cls-2{fill:#59595b;}.cls-3{fill:#0056b3;}.cls-4{fill:#813889;}.cls-5{fill:#6ead3b;}.cls-6{fill:#b71765;}.cls-7{fill:#f5cd21;}.cls-8{fill:#e14e0e;}</style></defs><title>Queretaro_logo</title><path class="cls-1" d="M16.61,29H7.84a9.49,9.49,0,0,1-3.14-.5A7,7,0,0,1,2.23,27,6.8,6.8,0,0,1,.59,24.67,7.81,7.81,0,0,1,0,21.55a7.37,7.37,0,0,1,.6-3A7.13,7.13,0,0,1,2.25,16.2,7.39,7.39,0,0,1,4.7,14.68a8.35,8.35,0,0,1,3-.54,8.22,8.22,0,0,1,3,.55,7.53,7.53,0,0,1,2.45,1.53,7.15,7.15,0,0,1,1.64,2.34,7.31,7.31,0,0,1,.6,3,6.64,6.64,0,0,1-.17,1.51,5.69,5.69,0,0,1-.52,1.39,4.48,4.48,0,0,1-2.18,2v0h4ZM3.31,21.55a4.47,4.47,0,0,0,1.3,3.18,4.53,4.53,0,0,0,1.4.95,4.42,4.42,0,0,0,3.43,0,4.53,4.53,0,0,0,1.4-.95,4.52,4.52,0,0,0,0-6.35,4.57,4.57,0,0,0-1.4-.95,4.42,4.42,0,0,0-3.43,0,4.57,4.57,0,0,0-1.4.95,4.47,4.47,0,0,0-1.3,3.18" transform="translate(0 0)"/><path class="cls-1" d="M30.37,23.39A7,7,0,0,1,30,25.76a5.11,5.11,0,0,1-3.06,3.12,7.16,7.16,0,0,1-2.63.45,7.21,7.21,0,0,1-2.65-.45,5.11,5.11,0,0,1-3.06-3.12,7,7,0,0,1-.39-2.37V14.5h3.19v8.76a3.5,3.5,0,0,0,.22,1.25,3,3,0,0,0,.6,1,2.7,2.7,0,0,0,.93.65,2.91,2.91,0,0,0,1.17.23,2.83,2.83,0,0,0,1.16-.23,2.75,2.75,0,0,0,.92-.65,3,3,0,0,0,.6-1,3.5,3.5,0,0,0,.21-1.25V14.5h3.19Z" transform="translate(0 0)"/><polygon class="cls-1" points="33.44 14.5 43.26 14.5 43.26 17.44 36.62 17.44 36.62 20.14 42.89 20.14 42.89 23.08 36.62 23.08 36.62 26.02 43.63 26.02 43.63 28.96 33.44 28.96 33.44 14.5"/><path class="cls-1" d="M46.18,14.5h5.6a9.85,9.85,0,0,1,2.09.22,5,5,0,0,1,1.74.71,3.54,3.54,0,0,1,1.18,1.35,4.55,4.55,0,0,1,.44,2.11,4.24,4.24,0,0,1-.8,2.6,3.6,3.6,0,0,1-2.33,1.36L57.78,29H54l-3-5.78H49.37V29H46.18Zm3.19,6h1.88c.29,0,.59,0,.91,0a2.81,2.81,0,0,0,.87-.18,1.5,1.5,0,0,0,.64-.48,1.46,1.46,0,0,0,.26-.92A1.54,1.54,0,0,0,53.7,18a1.52,1.52,0,0,0-.57-.5,2.52,2.52,0,0,0-.8-.23,6.5,6.5,0,0,0-.88-.06H49.37Z" transform="translate(0 0)"/><path class="cls-1" d="M59.54,14.5h9.82v2.94H62.73v2.7H69v2.94H62.73V26h7V29H59.54Zm4.86-3.92h4.17L65,13.52h-2.7Z" transform="translate(0 0)"/><polygon class="cls-1" points="75.08 17.32 70.96 17.32 70.96 14.5 82.39 14.5 82.39 17.32 78.27 17.32 78.27 28.96 75.08 28.96 75.08 17.32"/><path class="cls-1" d="M86.89,14.5h2.63L95.81,29h-3.6L91,25.9H85.36L84.15,29H80.64Zm1.22,4.21-1.76,4.5h3.53Z" transform="translate(0 0)"/><path class="cls-1" d="M97.26,14.5h5.6a9.85,9.85,0,0,1,2.09.22,5,5,0,0,1,1.74.71,3.54,3.54,0,0,1,1.18,1.35,4.57,4.57,0,0,1,.44,2.11,4.24,4.24,0,0,1-.8,2.6,3.6,3.6,0,0,1-2.33,1.36l3.68,6.1H105l-3-5.78h-1.57V29H97.26Zm3.19,6h1.88c.29,0,.59,0,.91,0a2.8,2.8,0,0,0,.87-.18,1.5,1.5,0,0,0,.64-.48,1.46,1.46,0,0,0,.26-.92,1.53,1.53,0,0,0-.23-.88,1.51,1.51,0,0,0-.57-.5,2.54,2.54,0,0,0-.8-.23,6.49,6.49,0,0,0-.88-.06h-2.08Z" transform="translate(0 0)"/><path class="cls-1" d="M109.72,21.73a8.16,8.16,0,0,1,.58-3.14,6.87,6.87,0,0,1,1.62-2.4,7.13,7.13,0,0,1,2.47-1.52,9.45,9.45,0,0,1,6.25,0,7.15,7.15,0,0,1,2.47,1.52,6.9,6.9,0,0,1,1.62,2.4,8.17,8.17,0,0,1,.58,3.14,8.18,8.18,0,0,1-.58,3.15,6.9,6.9,0,0,1-1.62,2.4,7.13,7.13,0,0,1-2.47,1.52,9.42,9.42,0,0,1-6.25,0,7.11,7.11,0,0,1-2.47-1.52,6.88,6.88,0,0,1-1.62-2.4,8.16,8.16,0,0,1-.58-3.15m3.31,0a5.32,5.32,0,0,0,.32,1.87,4.27,4.27,0,0,0,.91,1.47,4.18,4.18,0,0,0,1.42,1,5.12,5.12,0,0,0,3.7,0,4.19,4.19,0,0,0,1.42-1,4.3,4.3,0,0,0,.91-1.47,5.65,5.65,0,0,0,0-3.73,4.29,4.29,0,0,0-.91-1.48,4.18,4.18,0,0,0-1.42-1,5.1,5.1,0,0,0-3.7,0,4.17,4.17,0,0,0-1.42,1,4.26,4.26,0,0,0-.91,1.48,5.33,5.33,0,0,0-.32,1.86" transform="translate(0 0)"/><polygon class="cls-2" points="18.18 31.91 22.34 31.91 22.34 32.64 18.96 32.64 18.96 34.71 22.11 34.71 22.11 35.44 18.96 35.44 18.96 37.8 22.5 37.8 22.5 38.53 18.18 38.53 18.18 31.91"/><path class="cls-2" d="M26.86,33.08a1.15,1.15,0,0,0-.52-.46,1.67,1.67,0,0,0-.68-.14,2.06,2.06,0,0,0-.51.06,1.57,1.57,0,0,0-.45.2,1,1,0,0,0-.44.85,1.05,1.05,0,0,0,.07.4.84.84,0,0,0,.23.31,1.68,1.68,0,0,0,.43.26,6.34,6.34,0,0,0,.66.24l.74.26a2.51,2.51,0,0,1,.64.35,1.58,1.58,0,0,1,.44.54,1.78,1.78,0,0,1,.16.81,1.81,1.81,0,0,1-.19.86,1.84,1.84,0,0,1-.52.6,2.23,2.23,0,0,1-.74.36,3.24,3.24,0,0,1-.87.12,3.33,3.33,0,0,1-.58-.05,2.85,2.85,0,0,1-.56-.16,2.23,2.23,0,0,1-.5-.28,1.7,1.7,0,0,1-.4-.43l.67-.55a1.38,1.38,0,0,0,.6.55,1.82,1.82,0,0,0,.81.19,1.84,1.84,0,0,0,.51-.07,1.56,1.56,0,0,0,.46-.22,1.2,1.2,0,0,0,.34-.36.94.94,0,0,0,.13-.5,1,1,0,0,0-.1-.5.93.93,0,0,0-.32-.33,2.62,2.62,0,0,0-.54-.25L25,35.47a5.16,5.16,0,0,1-.65-.26,2.06,2.06,0,0,1-.52-.36,1.54,1.54,0,0,1-.35-.51,1.78,1.78,0,0,1-.13-.71,1.71,1.71,0,0,1,.69-1.43,2.33,2.33,0,0,1,.72-.36,2.89,2.89,0,0,1,.84-.12,2.93,2.93,0,0,1,1,.17,2,2,0,0,1,.83.6Z" transform="translate(0 0)"/><polygon class="cls-2" points="33.36 32.64 31.17 32.64 31.17 38.53 30.38 38.53 30.38 32.64 28.2 32.64 28.2 31.91 33.36 31.91 33.36 32.64"/><path class="cls-2" d="M35.58,31.89h.74l2.82,6.63h-.92l-.68-1.63H34.23l-.68,1.63h-.89Zm.36,1h0l-1.38,3.26h2.71Zm.78-2.83h1l-1.34,1.35h-.67Z" transform="translate(0 0)"/><polygon class="cls-2" points="42.6 31.91 46.76 31.91 46.76 32.64 43.38 32.64 43.38 34.71 46.53 34.71 46.53 35.44 43.38 35.44 43.38 37.8 46.93 37.8 46.93 38.53 42.6 38.53 42.6 31.91"/><polygon class="cls-2" points="48.14 31.91 49.13 31.91 52.97 37.41 52.98 37.41 52.98 31.91 53.77 31.91 53.77 38.53 52.78 38.53 48.95 33.03 48.93 33.03 48.93 38.53 48.14 38.53 48.14 31.91"/><polygon class="cls-2" points="58.01 31.91 59 31.91 62.83 37.41 62.85 37.41 62.85 31.91 63.64 31.91 63.64 38.53 62.65 38.53 58.82 33.03 58.8 33.03 58.8 38.53 58.01 38.53 58.01 31.91"/><path class="cls-2" d="M68.36,38.69A3.58,3.58,0,0,1,67,38.43a3.34,3.34,0,0,1-1.09-.72,3.25,3.25,0,0,1-.72-1.1,3.86,3.86,0,0,1,0-2.78,3.27,3.27,0,0,1,.72-1.1A3.35,3.35,0,0,1,67,32a3.82,3.82,0,0,1,2.78,0,3.33,3.33,0,0,1,1.09.72,3.27,3.27,0,0,1,.72,1.1,3.9,3.9,0,0,1,0,2.78,3.26,3.26,0,0,1-.72,1.1,3.33,3.33,0,0,1-1.09.72,3.58,3.58,0,0,1-1.39.26m0-.73a2.58,2.58,0,0,0,1.06-.21,2.51,2.51,0,0,0,.83-.59,2.71,2.71,0,0,0,.54-.87,3.09,3.09,0,0,0,0-2.14,2.72,2.72,0,0,0-.54-.87,2.47,2.47,0,0,0-.83-.59,2.71,2.71,0,0,0-2.12,0,2.45,2.45,0,0,0-.83.59,2.67,2.67,0,0,0-.54.87,3.08,3.08,0,0,0,0,2.14,2.66,2.66,0,0,0,.54.87,2.49,2.49,0,0,0,.83.59,2.57,2.57,0,0,0,1.06.21" transform="translate(0 0)"/><path class="cls-2" d="M76.22,33.08a1.15,1.15,0,0,0-.52-.46,1.67,1.67,0,0,0-.68-.14,2.06,2.06,0,0,0-.51.06,1.59,1.59,0,0,0-.45.2,1,1,0,0,0-.44.85,1,1,0,0,0,.07.4.84.84,0,0,0,.23.31,1.68,1.68,0,0,0,.43.26,6.38,6.38,0,0,0,.66.24l.74.26a2.47,2.47,0,0,1,.63.35,1.57,1.57,0,0,1,.44.54,1.83,1.83,0,0,1-.55,2.27,2.22,2.22,0,0,1-.74.36,3.25,3.25,0,0,1-.87.12,3.32,3.32,0,0,1-.58-.05,2.84,2.84,0,0,1-.56-.16,2.18,2.18,0,0,1-.5-.28,1.67,1.67,0,0,1-.4-.43l.67-.55a1.37,1.37,0,0,0,.6.55,1.82,1.82,0,0,0,.81.19,1.84,1.84,0,0,0,.51-.07,1.55,1.55,0,0,0,.46-.22,1.19,1.19,0,0,0,.34-.36.94.94,0,0,0,.13-.5,1,1,0,0,0-.1-.5.92.92,0,0,0-.32-.33,2.58,2.58,0,0,0-.54-.25l-.77-.26a5.07,5.07,0,0,1-.65-.26,2,2,0,0,1-.52-.36,1.53,1.53,0,0,1-.35-.51,1.79,1.79,0,0,1-.13-.71,1.71,1.71,0,0,1,.69-1.43,2.32,2.32,0,0,1,.72-.36,3.06,3.06,0,0,1,1.86.05,2,2,0,0,1,.83.6Z" transform="translate(0 0)"/><path class="cls-2" d="M81.35,38.69A3.58,3.58,0,0,1,80,38.43a3.35,3.35,0,0,1-1.09-.72,3.26,3.26,0,0,1-.72-1.1,3.87,3.87,0,0,1,0-2.78,3.28,3.28,0,0,1,.72-1.1A3.35,3.35,0,0,1,80,32a3.82,3.82,0,0,1,2.78,0,3.34,3.34,0,0,1,1.09.72,3.27,3.27,0,0,1,.72,1.1,3.89,3.89,0,0,1,0,2.78,3.25,3.25,0,0,1-.72,1.1,3.34,3.34,0,0,1-1.09.72,3.57,3.57,0,0,1-1.39.26m0-.73a2.57,2.57,0,0,0,1.06-.21,2.49,2.49,0,0,0,.83-.59,2.65,2.65,0,0,0,.54-.87,3.08,3.08,0,0,0,0-2.14,2.66,2.66,0,0,0-.54-.87,2.46,2.46,0,0,0-.83-.59,2.71,2.71,0,0,0-2.12,0,2.45,2.45,0,0,0-.83.59,2.67,2.67,0,0,0-.54.87,3.09,3.09,0,0,0,0,2.14,2.66,2.66,0,0,0,.54.87,2.49,2.49,0,0,0,.83.59,2.57,2.57,0,0,0,1.06.21" transform="translate(0 0)"/><polygon class="cls-2" points="90.51 32.64 88.32 32.64 88.32 38.53 87.54 38.53 87.54 32.64 85.35 32.64 85.35 31.91 90.51 31.91 90.51 32.64"/><path class="cls-2" d="M91.44,31.91h1.69a8.42,8.42,0,0,1,.95.05,2.55,2.55,0,0,1,.85.25,1.52,1.52,0,0,1,.61.55,1.78,1.78,0,0,1,.23,1,1.61,1.61,0,0,1-.44,1.18,2.1,2.1,0,0,1-1.21.57l1.88,3H95l-1.79-3h-1v3h-.78Zm.78,2.92h.7l.68,0a2.29,2.29,0,0,0,.65-.12,1.12,1.12,0,0,0,.48-.32.93.93,0,0,0,.19-.63,1,1,0,0,0-.14-.57,1,1,0,0,0-.37-.33,1.6,1.6,0,0,0-.51-.16,4.75,4.75,0,0,0-.58,0h-1.1Z" transform="translate(0 0)"/><path class="cls-2" d="M100.22,38.69a3.57,3.57,0,0,1-1.39-.26,3.34,3.34,0,0,1-1.09-.72A3.28,3.28,0,0,1,97,36.6a3.87,3.87,0,0,1,0-2.78,3.29,3.29,0,0,1,.72-1.1A3.35,3.35,0,0,1,98.83,32a3.82,3.82,0,0,1,2.78,0,3.34,3.34,0,0,1,1.09.72,3.28,3.28,0,0,1,.72,1.1,3.9,3.9,0,0,1,0,2.78,3.27,3.27,0,0,1-.72,1.1,3.34,3.34,0,0,1-1.09.72,3.57,3.57,0,0,1-1.39.26m0-.73a2.59,2.59,0,0,0,1.06-.21,2.52,2.52,0,0,0,.83-.59,2.69,2.69,0,0,0,.54-.87,3.08,3.08,0,0,0,0-2.14,2.7,2.7,0,0,0-.54-.87,2.48,2.48,0,0,0-.83-.59,2.71,2.71,0,0,0-2.12,0,2.44,2.44,0,0,0-.83.59,2.66,2.66,0,0,0-.54.87,3.08,3.08,0,0,0,0,2.14,2.65,2.65,0,0,0,.54.87,2.47,2.47,0,0,0,.83.59,2.58,2.58,0,0,0,1.06.21" transform="translate(0 0)"/><path class="cls-2" d="M108.08,33.08a1.15,1.15,0,0,0-.52-.46,1.67,1.67,0,0,0-.68-.14,2.06,2.06,0,0,0-.52.06,1.55,1.55,0,0,0-.45.2,1,1,0,0,0-.32.35,1,1,0,0,0-.12.5,1.07,1.07,0,0,0,.07.4.84.84,0,0,0,.23.31,1.69,1.69,0,0,0,.43.26,6.45,6.45,0,0,0,.66.24l.74.26a2.49,2.49,0,0,1,.64.35,1.59,1.59,0,0,1,.44.54,1.78,1.78,0,0,1,.16.81,1.74,1.74,0,0,1-.72,1.46,2.22,2.22,0,0,1-.74.36,3.23,3.23,0,0,1-.87.12,3.32,3.32,0,0,1-.58-.05,2.82,2.82,0,0,1-.56-.16,2.19,2.19,0,0,1-.5-.28,1.7,1.7,0,0,1-.4-.43l.67-.55a1.37,1.37,0,0,0,.6.55,1.84,1.84,0,0,0,1.32.11,1.57,1.57,0,0,0,.46-.22,1.2,1.2,0,0,0,.34-.36,1,1,0,0,0,.13-.5,1,1,0,0,0-.1-.5.94.94,0,0,0-.32-.33,2.63,2.63,0,0,0-.54-.25l-.77-.26a5.16,5.16,0,0,1-.65-.26,2.07,2.07,0,0,1-.52-.36,1.52,1.52,0,0,1-.35-.51,1.79,1.79,0,0,1,.57-2.13,2.31,2.31,0,0,1,.72-.36,3.06,3.06,0,0,1,1.86.05,2,2,0,0,1,.83.6Z" transform="translate(0 0)"/><path class="cls-3" d="M161.45,11.8s5.61-1.49,10.65.62a27.81,27.81,0,0,1-4.56,8.66l-6.8-2.47Z" transform="translate(0 0)"/><path class="cls-4" d="M167.78,27.38s4,4.25,4.44,9.69a27.79,27.79,0,0,1-9.79,0l-1-7.16Z" transform="translate(0 0)"/><path class="cls-5" d="M157.24,39.07s-1.36,5.65-5.62,9.06A27.78,27.78,0,0,1,146.18,40l5.41-4.81Z" transform="translate(0 0)"/><path class="cls-6" d="M141.07,36.87s-5.62,1.45-10.64-.71a27.8,27.8,0,0,1,4.63-8.62l6.78,2.52Z" transform="translate(0 0)"/><path class="cls-7" d="M135.2,21.24s-4-4.21-4.55-9.64a27.76,27.76,0,0,1,9.79-.15l1.1,7.15Z" transform="translate(0 0)"/><path class="cls-8" d="M145.5,8.55S147.34,3,151.88,0a27.78,27.78,0,0,1,4.72,8.57l-5.8,4.33Z" transform="translate(0 0)"/><path class="cls-8" d="M153.08,14.72l2,2.72,3.19.39a16.94,16.94,0,0,0,.89-7.23,22,22,0,0,0-6,4.11" transform="translate(0 0)"/><path class="cls-5" d="M144.36,30.45l3.34.33,1.94,2.57a16.93,16.93,0,0,1-5.81,4.39,22,22,0,0,1,.54-7.29" transform="translate(0 0)"/><path class="cls-6" d="M142.33,27.2l1.33-3.08-1.31-2.94a16.94,16.94,0,0,0-6.66,3,21.92,21.92,0,0,0,6.63,3.06" transform="translate(0 0)"/><path class="cls-3" d="M160.6,27.2l-1.33-3.08,1.31-2.94a16.94,16.94,0,0,1,6.66,3,21.93,21.93,0,0,1-6.64,3.06" transform="translate(0 0)"/><path class="cls-7" d="M144.13,17.86l3.33-.38,1.9-2.6a16.91,16.91,0,0,0-5.88-4.3,21.94,21.94,0,0,0,.65,7.28" transform="translate(0 0)"/><path class="cls-4" d="M153.2,33.93,155,31.12l3.17-.54a16.92,16.92,0,0,1,1.22,7.19,21.93,21.93,0,0,1-6.22-3.84" transform="translate(0 0)"/><path class="cls-8" d="M163.3,7.16A1.66,1.66,0,1,0,161,7.8a1.66,1.66,0,0,0,2.26-.64" transform="translate(0 0)"/><path class="cls-5" d="M142.84,42.43a1.66,1.66,0,1,0-2.26.64,1.66,1.66,0,0,0,2.26-.64" transform="translate(0 0)"/><path class="cls-3" d="M173.13,25a1.66,1.66,0,1,0-2.26.64,1.66,1.66,0,0,0,2.26-.64" transform="translate(0 0)"/><path class="cls-4" d="M163.52,42.43a1.66,1.66,0,1,0-2.26.64,1.66,1.66,0,0,0,2.26-.64" transform="translate(0 0)"/><path class="cls-6" d="M133.23,25a1.66,1.66,0,1,0-2.26.64,1.66,1.66,0,0,0,2.26-.64" transform="translate(0 0)"/><path class="cls-7" d="M142.71,7.16a1.66,1.66,0,1,0-2.26.64,1.66,1.66,0,0,0,2.26-.64" transform="translate(0 0)"/><path class="cls-1" d="M154.92,24.19a3.21,3.21,0,1,0-3.21,3.21,3.21,3.21,0,0,0,3.21-3.21" transform="translate(0 0)"/></svg>