<?xml version="1.0" encoding="utf-8"?>
<!-- Generator: Adobe Illustrator 16.0.0, SVG Export Plug-In . SVG Version: 6.00 Build 0)  -->
<!DOCTYPE svg PUBLIC "-//W3C//DTD SVG 1.1//EN" "http://www.w3.org/Graphics/SVG/1.1/DTD/svg11.dtd">
<svg version="1.1" id="Capa_1" xmlns="http://www.w3.org/2000/svg" xmlns:xlink="http://www.w3.org/1999/xlink" x="0px" y="0px"
	 width="792px" height="612px" viewBox="0 0 792 612" enable-background="new 0 0 792 612" xml:space="preserve">
<g>
	<path fill="#1C2753" d="M201.91,374.046c-16.518,0.974-50.519,0.322-50.519,0.322c-9.205-13.411-20.615-8.521-36.393-1.784
		c-10.055,4.334-21.419,9.183-33.768,9.281c-0.588,0.004-1.176-0.035-1.764-0.031l-1.452-0.032c-1.99-0.074-3.98-0.103-5.971-0.269
		v0.092c-2.221-0.167-4.441-0.507-6.616-0.896l-0.902-0.127c-36.027-6.856-62.305-38.4-62.606-74.957
		c-0.351-42.438,33.931-77.243,76.372-77.592c42.438-0.349,77.239,33.887,77.594,76.325c0.042,5.291-0.504,10.639-1.548,15.849
		l-0.479,2.312l-2.267-0.57c-1.629-0.393-3.219-0.697-4.802-1.002c-0.365-0.039-0.726-0.131-1.091-0.17
		c-1.222-0.217-2.49-0.39-3.711-0.514c-0.408-0.043-0.77-0.085-1.134-0.082c-1.222-0.127-2.401-0.205-3.573-0.244
		c-0.453-0.039-0.906-0.035-1.406-0.031c-1.947-0.028-3.889,0.031-5.79,0.184c-5.833,0.411-11.57,1.544-17.12,3.4l-4.691,1.575
		l1.947-4.809c1.866-4.452,2.822-9.166,2.783-14.051c-0.162-19.592-16.266-35.431-35.854-35.271
		c-19.592,0.163-35.429,16.264-35.27,35.854c0.163,19.634,16.266,35.433,35.857,35.27c3.074-0.024,13.766-3.821,23.193-7.203
		c11.641-4.169,23.593-8.475,29.564-9.023c0.361-0.046,0.722-0.05,1.083-0.054c6.109-0.049,13.107,0.093,19.039,1.831
		C182.655,337.027,202.774,374.446,201.91,374.046"/>
	<path fill="#1C2753" d="M425.455,306.4c-0.348-42.476-35.068-76.63-77.544-76.279c-42.48,0.349-76.631,35.069-76.283,77.546
		c0.354,42.481,35.067,76.632,77.547,76.281C391.655,383.598,425.809,348.877,425.455,306.4 M348.523,346.026
		c-21.724,0.181-39.474-17.282-39.653-39.006c-0.178-21.722,17.285-39.474,39.005-39.656c21.724-0.177,39.478,17.288,39.654,39.007
		C387.706,328.096,370.247,345.849,348.523,346.026"/>
	<path fill="#1C2753" d="M241.815,310.328c7.118-2.67,12.781-7.515,17.017-14.639c4.232-7.111,6.389-14.646,6.393-22.476
		c-0.007-10.619-2.469-19.384-7.32-26.081c-4.947-6.709-11.758-11.558-20.513-14.54c-8.97-3.001-19.184-4.543-30.626-4.543h-40.72
		l-0.011,101.686c11.659,6.36,31.327,25.088,35.875,35.309l0.007-56.359l0.411-0.011l33.817,65.592l41.963-0.007L241.815,310.328z
		 M226.145,290.951c-2.167,3.194-5.256,5.562-9.176,6.911c-4.026,1.436-8.96,2.154-15.048,2.158l-0.008-40.936
		c9.188,0.003,15.99,1.342,20.623,4.131c4.533,2.773,6.813,7.938,6.807,15.458C229.343,283.723,228.312,287.747,226.145,290.951"/>
	<path fill="#1C2753" d="M459.297,295.534c-3.814-0.019-7.338-0.703-10.582-2.066c-3.233-1.357-6.021-3.188-8.354-5.51
		c-2.345-2.317-4.172-5.033-5.503-8.142c-1.328-3.118-1.987-6.43-1.955-9.958l-0.007-0.145c0.028-3.524,0.712-6.846,2.071-9.966
		c1.356-3.125,3.23-5.845,5.642-8.156c2.412-2.312,5.245-4.14,8.492-5.461c3.259-1.33,6.793-1.976,10.6-1.955
		c3.808,0.02,7.335,0.708,10.564,2.068c3.251,1.36,6.027,3.195,8.376,5.509c2.341,2.316,4.172,5.025,5.496,8.144
		c1.332,3.11,1.973,6.423,1.955,9.955l0.003,0.146c-0.021,3.525-0.704,6.851-2.061,9.969c-1.371,3.118-3.241,5.834-5.649,8.16
		c-2.411,2.311-5.252,4.131-8.506,5.45C466.631,294.899,463.104,295.555,459.297,295.534 M459.463,283.183
		c1.885,0.011,3.609-0.324,5.164-1.023c1.558-0.71,2.893-1.643,3.974-2.847c1.094-1.188,1.954-2.579,2.581-4.174
		c0.616-1.599,0.942-3.288,0.938-5.077l0.004-0.138c0.015-1.792-0.287-3.481-0.893-5.091c-0.609-1.595-1.48-3.01-2.596-4.243
		c-1.137-1.227-2.465-2.206-4.017-2.948c-1.555-0.74-3.269-1.11-5.152-1.121c-1.898-0.007-3.602,0.33-5.143,1.042
		c-1.526,0.689-2.865,1.634-3.977,2.828c-1.115,1.193-1.966,2.589-2.564,4.181c-0.599,1.596-0.906,3.283-0.913,5.079l-0.004,0.144
		c-0.007,1.785,0.294,3.479,0.899,5.085c0.603,1.599,1.452,3.014,2.564,4.243c1.098,1.229,2.426,2.208,3.98,2.948
		C455.854,282.81,457.572,283.179,459.463,283.183"/>
	<path fill="#1C2753" d="M493.352,245.337l23.349,0.124c3.808,0.021,7.022,0.506,9.658,1.454c2.627,0.961,4.756,2.284,6.392,3.993
		c2.897,2.828,4.35,6.672,4.324,11.513l-0.007,0.145c-0.028,3.807-0.949,6.959-2.798,9.447c-1.845,2.474-4.331,4.367-7.447,5.665
		l11.693,17.28l-15.795-0.08l-9.873-15.01l-0.139-0.004l-5.851-0.024l-0.081,14.946l-13.681-0.063L493.352,245.337z
		 M515.939,269.155c2.354,0.014,4.164-0.499,5.446-1.555c1.265-1.052,1.898-2.477,1.919-4.262l-0.003-0.142
		c0.018-1.969-0.627-3.447-1.951-4.416c-1.304-0.969-3.12-1.458-5.415-1.47l-8.964-0.046l-0.063,11.848L515.939,269.155z"/>
	<path fill="#1C2753" d="M568.986,296.097c-3.86-0.016-7.419-0.65-10.678-1.92c-3.262-1.257-6.095-3.023-8.467-5.294
		c-2.391-2.273-4.254-4.983-5.596-8.112c-1.356-3.138-2.016-6.578-2.005-10.346l0.007-0.142c0.019-3.579,0.694-6.924,2.044-10.046
		c1.363-3.111,3.212-5.838,5.557-8.156c2.358-2.311,5.171-4.124,8.446-5.415c3.258-1.305,6.803-1.946,10.613-1.921
		c4.378,0.021,8.143,0.675,11.309,1.959c3.162,1.291,6.062,3.056,8.68,5.333l-8.092,9.626c-1.771-1.509-3.588-2.678-5.437-3.481
		c-1.859-0.812-4.005-1.218-6.452-1.229c-1.789-0.013-3.453,0.326-4.983,1.025c-1.526,0.696-2.868,1.658-4.005,2.872
		c-1.13,1.218-2.036,2.651-2.699,4.287c-0.665,1.65-1.002,3.409-1.02,5.291l0.007,0.138c-0.007,1.976,0.305,3.807,0.964,5.512
		c0.641,1.689,1.572,3.146,2.766,4.351c1.189,1.204,2.61,2.152,4.239,2.843c1.618,0.689,3.425,1.045,5.407,1.053
		c3.205,0.018,5.861-0.654,7.94-2.01l0.032-5.994l-9.729-0.048l0.039-10.019l22.718,0.119l-0.106,22.22
		c-2.648,2.154-5.772,3.945-9.349,5.39C577.561,295.415,573.509,296.125,568.986,296.097"/>
	<path fill="#1C2753" d="M620.281,296.293c-3.527-0.018-6.7-0.478-9.509-1.385c-2.83-0.903-5.21-2.291-7.183-4.166
		c-1.958-1.861-3.467-4.222-4.504-7.076c-1.056-2.847-1.559-6.212-1.537-10.066l0.135-27.725l13.967,0.073l-0.138,27.441
		c-0.015,3.579,0.782,6.229,2.404,7.953c1.633,1.726,3.814,2.59,6.562,2.612c2.759,0.018,4.958-0.795,6.612-2.437
		c1.632-1.633,2.457-4.189,2.482-7.678l0.131-27.797l13.975,0.076l-0.139,27.372c-0.024,3.989-0.595,7.439-1.717,10.329
		c-1.13,2.886-2.682,5.249-4.679,7.097c-2.022,1.857-4.448,3.218-7.299,4.094C626.992,295.888,623.809,296.312,620.281,296.293"/>
	<polygon fill="#1C2753" points="651.8,246.16 665.488,246.233 665.297,283.622 689.201,283.747 689.142,295.733 651.542,295.537 	
		"/>
	<polygon fill="#1C2753" points="695.247,246.391 708.941,246.459 708.747,283.841 732.655,283.968 732.599,295.964 
		695.006,295.766 	"/>
	<path fill="#1C2753" d="M763.278,297.109c-3.814-0.021-7.323-0.708-10.575-2.068c-3.229-1.351-6.027-3.194-8.354-5.499
		c-2.341-2.322-4.18-5.038-5.5-8.146c-1.328-3.118-1.977-6.433-1.969-9.966l0.003-0.134c0.032-3.524,0.705-6.854,2.062-9.973
		c1.359-3.122,3.244-5.842,5.659-8.16c2.408-2.306,5.237-4.129,8.488-5.461c3.255-1.321,6.793-1.965,10.589-1.948
		c3.818,0.018,7.346,0.708,10.586,2.062c3.237,1.365,6.017,3.2,8.361,5.509c2.345,2.322,4.172,5.034,5.504,8.146
		c1.307,3.107,1.965,6.43,1.951,9.955l-0.004,0.146c-0.014,3.517-0.708,6.849-2.064,9.962c-1.36,3.125-3.229,5.849-5.646,8.166
		c-2.404,2.316-5.244,4.133-8.503,5.455C770.623,296.474,767.096,297.131,763.278,297.109 M763.452,284.764
		c1.888,0.013,3.602-0.329,5.171-1.032c1.562-0.695,2.89-1.64,3.977-2.836c1.084-1.194,1.947-2.585,2.561-4.177
		c0.627-1.599,0.938-3.293,0.96-5.08l-0.008-0.138c0-1.792-0.286-3.478-0.899-5.087c-0.599-1.604-1.466-3.018-2.589-4.245
		c-1.13-1.225-2.461-2.208-4.012-2.948c-1.559-0.735-3.27-1.108-5.164-1.125c-1.888-0.003-3.584,0.338-5.135,1.034
		c-1.541,0.689-2.865,1.644-3.978,2.844c-1.111,1.192-1.965,2.578-2.563,4.181c-0.599,1.596-0.907,3.283-0.914,5.073l-0.003,0.135
		c-0.008,1.795,0.293,3.492,0.902,5.091c0.605,1.601,1.456,3.014,2.561,4.251c1.098,1.229,2.426,2.208,3.963,2.938
		C759.851,284.376,761.568,284.757,763.452,284.764"/>
	<path fill="#1C2753" d="M442.889,314.574c2.146-0.309,4.686-0.531,7.47-0.521c5.039,0.032,8.62,1.218,10.996,3.446
		c2.411,2.234,3.8,5.383,3.782,9.788c-0.025,4.434-1.409,8.061-3.978,10.547c-2.542,2.524-6.75,3.874-12.04,3.853
		c-2.508-0.014-4.601-0.145-6.375-0.357L442.889,314.574z M446.264,338.646c0.89,0.167,2.189,0.209,3.557,0.213
		c7.511,0.042,11.612-4.122,11.641-11.475c0.078-6.41-3.535-10.504-10.965-10.543c-1.806-0.007-3.188,0.138-4.107,0.347
		L446.264,338.646z"/>
	<polygon fill="#1C2753" points="483.762,328.882 473.189,328.821 473.141,338.628 484.919,338.685 484.901,341.627 
		469.605,341.543 469.751,314.358 484.441,314.433 484.42,317.375 473.261,317.318 473.208,325.914 483.771,325.971 	"/>
	<polygon fill="#EB008B" points="499.163,312.393 517.561,312.488 532.432,336.896 547.554,312.641 565.966,312.74 565.637,375.594 
		548.312,375.505 548.492,339.403 532.34,363.928 531.981,363.925 516.166,339.414 515.985,375.339 498.834,375.243 	"/>
	<polygon fill="#EB008B" points="593.904,343.771 573.41,312.775 593.434,312.882 604.479,330.628 615.791,312.995 635.371,313.104 
		614.559,343.703 635.948,375.959 615.925,375.855 603.983,356.842 591.762,375.729 572.191,375.626 	"/>
</g>
</svg>
