<svg id="Capa_1" data-name="Capa 1" xmlns="http://www.w3.org/2000/svg" viewBox="0 0 94.5 57.97"><defs><style>.cls-1{fill:#cc2b44;}.cls-2{fill:#fff;}.cls-3{fill:#272525;}.cls-4{fill:#932980;}.cls-5{fill:#51a9bc;}.cls-6{fill:#74a5b9;}.cls-7{fill:#dfb43a;}.cls-8{fill:#d7742d;}</style></defs><title>VTPM</title><rect class="cls-1" x="0.73" y="50.22" width="93.69" height="7.75"/><path class="cls-2" d="M88.6,53.15a1.25,1.25,0,0,1,1.26,1.18,1.26,1.26,0,1,1-2.52,0,1.25,1.25,0,0,1,1.26-1.18m0-1.12a2.38,2.38,0,1,0,2.46,2.29A2.38,2.38,0,0,0,88.6,52m-9.31.25a2.72,2.72,0,0,0-1.06-.22,2.41,2.41,0,0,0-1.7.72,2.33,2.33,0,0,0-.66,1.63,2.18,2.18,0,0,0,.72,1.68,2.48,2.48,0,0,0,1.67.66,3.28,3.28,0,0,0,1-.21V55.16a1.33,1.33,0,0,1-1,.47,1.16,1.16,0,0,1-1.21-1.21,1.17,1.17,0,0,1,1.19-1.23,1.26,1.26,0,0,1,1,.49ZM69,52.18H67.83v4.46H69ZM58.13,54.25l-1.74,2.38h1.4l1-1.45.93,1.45h1.4l-1.65-2.38,1.43-2.07H59.48l-.68,1.15-.68-1.15H56.7Zm-8.39-1.09v-1H47.2v4.46h2.54v-1H48.36v-.77h1.31v-1H48.36v-.74ZM49.19,51l-.66-.47-.83,1,.48.35ZM34.77,56.64h1.15l.37-2.57h0l1,2.57h.46l1.07-2.57h0l.32,2.57h1.16l-.67-4.46H38.53l-1,2.38-.9-2.38H35.52Z" transform="translate(0)"/><path class="cls-2" d="M23.7,53.07h.11c.38,0,.8.07.8.56s-.43.56-.8.56H23.7Zm1.15,1.74a1.2,1.2,0,0,0,1-1.26c0-1-.67-1.37-1.55-1.37H22.55v4.46H23.7V54.92h0l1.09,1.71h1.44ZM14.42,53.15a1.25,1.25,0,0,1,1.26,1.18,1.26,1.26,0,1,1-2.52,0,1.25,1.25,0,0,1,1.26-1.18m0-1.12a2.38,2.38,0,1,0,0,4.75,2.38,2.38,0,1,0,0-4.75M4.56,53.11h.19c.45,0,.83,0,.83.57s-.41.54-.83.54H4.56ZM3.4,56.64H4.56V55.16h.66c1,0,1.58-.46,1.58-1.51s-.66-1.47-1.62-1.47H3.4Z" transform="translate(0)"/><path class="cls-3" d="M89,46.2a5,5,0,0,0,1,.6,2.12,2.12,0,0,0,.83.17.61.61,0,0,0,.36-.09.28.28,0,0,0,.13-.23q0-.28-.41-.38l-.81-.19A2,2,0,0,1,89,45.36a2,2,0,0,1-.44-1.3,2.53,2.53,0,0,1,.41-1.42,2.74,2.74,0,0,1,1.13-1,3.67,3.67,0,0,1,1.62-.35,3.63,3.63,0,0,1,1.19.18,6,6,0,0,1,1.23.64L93.29,44a2.2,2.2,0,0,0-1.39-.59.79.79,0,0,0-.44.12.35.35,0,0,0-.19.3q0,.12.18.21a3.69,3.69,0,0,0,.64.22,8.11,8.11,0,0,1,1,.3,1.29,1.29,0,0,1,.48.37,1.9,1.9,0,0,1,.59,1.49A2.76,2.76,0,0,1,94,47.53a2.4,2.4,0,0,1-.65.87,2.81,2.81,0,0,1-1,.55,3.88,3.88,0,0,1-1.28.2A4.81,4.81,0,0,1,89.68,49a8.19,8.19,0,0,1-1.56-.66Zm-5.75-2.12a1.15,1.15,0,0,0-.41.52,1.65,1.65,0,0,0-.14.67,1.58,1.58,0,0,0,.31,1,1,1,0,0,0,.88.41,1.1,1.1,0,0,0,.91-.42,1.53,1.53,0,0,0,.33-1,1.5,1.5,0,0,0-.33-1,1.1,1.1,0,0,0-.91-.42,1.06,1.06,0,0,0-.65.2m2.28-2.47a3.72,3.72,0,0,1,1.28.81,3.61,3.61,0,0,1,.83,1.24A4.15,4.15,0,0,1,88,45.23a4.31,4.31,0,0,1-.29,1.61,3.51,3.51,0,0,1-.83,1.25,3.7,3.7,0,0,1-1.3.8,4.75,4.75,0,0,1-1.67.28,4.31,4.31,0,0,1-1.58-.29A3.69,3.69,0,0,1,81,48.08a3.59,3.59,0,0,1-.82-1.25,4.19,4.19,0,0,1-.29-1.58,4.09,4.09,0,0,1,.5-2,3.51,3.51,0,0,1,1.42-1.4,4.3,4.3,0,0,1,2.09-.5,4.58,4.58,0,0,1,1.63.28M75.29,43.88a3.28,3.28,0,0,1,.76.07,1.07,1.07,0,0,1,.5.31,1.41,1.41,0,0,1,.37,1,1.55,1.55,0,0,1-.32,1,1,1,0,0,1-.83.39h-.47ZM76,49a4.21,4.21,0,0,0,1.51-.26,3.18,3.18,0,0,0,1.89-1.91,4.31,4.31,0,0,0,.26-1.53,4.41,4.41,0,0,0-.27-1.58,3.24,3.24,0,0,0-.78-1.2,3.5,3.5,0,0,0-1.25-.76,5.07,5.07,0,0,0-1.66-.25H72.59V49Zm-8.5-4.91a1.15,1.15,0,0,0-.41.52,1.65,1.65,0,0,0-.14.67,1.58,1.58,0,0,0,.31,1,1,1,0,0,0,.88.41,1.1,1.1,0,0,0,.91-.42,1.53,1.53,0,0,0,.33-1,1.5,1.5,0,0,0-.33-1,1.1,1.1,0,0,0-.91-.42,1.06,1.06,0,0,0-.65.2m2.28-2.47a3.73,3.73,0,0,1,1.29.81,3.61,3.61,0,0,1,.83,1.24,4.15,4.15,0,0,1,.29,1.58,4.33,4.33,0,0,1-.29,1.61A3.51,3.51,0,0,1,71,48.09a3.7,3.7,0,0,1-1.3.8,4.75,4.75,0,0,1-1.67.28,4.31,4.31,0,0,1-1.58-.29,3.7,3.7,0,0,1-1.27-.81,3.6,3.6,0,0,1-.83-1.25,4.2,4.2,0,0,1-.29-1.58,4.1,4.1,0,0,1,.5-2A3.51,3.51,0,0,1,66,41.82a4.31,4.31,0,0,1,2.09-.5,4.57,4.57,0,0,1,1.63.28M62.47,49H59.81V43.94H58.35V41.51h5.57v2.43H62.47ZM49.26,46.2a5,5,0,0,0,1,.6,2.12,2.12,0,0,0,.83.17.61.61,0,0,0,.36-.09.28.28,0,0,0,.13-.23q0-.28-.41-.38l-.81-.19a2,2,0,0,1-1.15-.71,2,2,0,0,1-.44-1.3,2.53,2.53,0,0,1,.41-1.42,2.73,2.73,0,0,1,1.13-1,3.67,3.67,0,0,1,1.62-.35,3.62,3.62,0,0,1,1.19.18,5.93,5.93,0,0,1,1.23.64L53.52,44a2.2,2.2,0,0,0-1.39-.59.79.79,0,0,0-.45.12.35.35,0,0,0-.19.3c0,.08.06.15.18.21a3.71,3.71,0,0,0,.64.22,8.13,8.13,0,0,1,1,.3,1.29,1.29,0,0,1,.48.37,1.9,1.9,0,0,1,.59,1.49,2.74,2.74,0,0,1-.23,1.13,2.41,2.41,0,0,1-.65.87,2.81,2.81,0,0,1-1,.55,3.88,3.88,0,0,1-1.28.2A4.82,4.82,0,0,1,49.91,49a8.16,8.16,0,0,1-1.56-.66Zm-5.75-2.12a1.15,1.15,0,0,0-.41.52,1.65,1.65,0,0,0-.14.67,1.58,1.58,0,0,0,.31,1,1,1,0,0,0,.88.41,1.1,1.1,0,0,0,.91-.42,1.53,1.53,0,0,0,.33-1,1.5,1.5,0,0,0-.33-1,1.1,1.1,0,0,0-.91-.42,1.06,1.06,0,0,0-.65.2m2.28-2.47a3.72,3.72,0,0,1,1.29.81,3.62,3.62,0,0,1,.83,1.24,4.17,4.17,0,0,1,.29,1.58,4.31,4.31,0,0,1-.29,1.61,3.51,3.51,0,0,1-.83,1.25,3.71,3.71,0,0,1-1.3.8,4.76,4.76,0,0,1-1.67.28,4.31,4.31,0,0,1-1.58-.29,3.7,3.7,0,0,1-1.27-.81,3.61,3.61,0,0,1-.83-1.25,4.22,4.22,0,0,1-.29-1.58,4.1,4.1,0,0,1,.5-2,3.51,3.51,0,0,1,1.42-1.4,4.31,4.31,0,0,1,2.09-.5,4.57,4.57,0,0,1,1.63.28M32.68,49l.4-4,1,4h1.75l1-4,.41,4H40l-1.17-7.49H36l-1,3.75-1-3.75h-2.9L30,49Zm-2.91,0V47H27.48v-.79h2V44.27h-2v-.74H29.7v-2H24.79V49Zm-9.42-2.63a2.37,2.37,0,0,0,.41.3.72.72,0,0,0,.32.07.39.39,0,0,0,.36-.17,1,1,0,0,0,.11-.54V41.51h2.68v5.16a2.42,2.42,0,0,1-.33,1.26,2.3,2.3,0,0,1-.93.87,2.84,2.84,0,0,1-1.34.31,3.12,3.12,0,0,1-.74-.08,2.92,2.92,0,0,1-.68-.26,5,5,0,0,1-.72-.49Zm-4.9-2.23L16,46.22H14.88ZM14.21,49l.25-1h1.95l.3,1h2.78L16.9,41.51H14L11.44,49Zm-3-7.49H8.52V49h2.65ZM3.18,49H5.73l2.49-7.49H5.41l-1,4-1-4H.5Z" transform="translate(0)"/><path class="cls-4" d="M91.46,26.3a2.85,2.85,0,0,0-2.35-1.76s.07,1.15.14-.26c0,0,.2-.09.19-.1,0-.27,0-.56,0-.55A1.34,1.34,0,0,0,88,22.31l-.81,0c-.19-.14,0-1.15-.29-1.56a8.43,8.43,0,0,0-.45-.92,1.88,1.88,0,0,1-.94-1,.71.71,0,0,0-1-.55c-1-1-1.32-.79-1.32-.79l-.31-.31a3.74,3.74,0,0,0-1.18-1.5c.21,0,1-.1.67-.62a2.08,2.08,0,0,0,.15-1.23s.44,0,.07-.51c0,0,.66,0,.46-.8l-.48,0a1.06,1.06,0,0,0-.28-.82l-.13-.41a.63.63,0,0,0-.15-1c0-.46-.55-.29-.55-.29-.11-.29-.53-.24-.53-.24-.79-.22-.94.17-.94.17-.77-.36-.94.29-.94.29a2.21,2.21,0,0,0-1.12,2c-.18,1.49.22,1.59.22,1.59,0,.34.34.47.57.51v.17h-.55s.15.19-.06.88h0a3.9,3.9,0,0,0-1.35,1.27L76.61,18v1.65l.09.5.76,7m11.38-3.65L88,22.92a.74.74,0,0,1,.81.62M78,27.07l-.11,0" transform="translate(0)"/><path class="cls-4" d="M92,34l-.33.06-.25,0a.11.11,0,0,1-.07,0l0-.1v0a1.35,1.35,0,0,0,0-.17c0-.35,0-.7.06-1.05s0-.9,0-1.35Zm-2.91,4a1.19,1.19,0,0,1-.09.45l-.39-.3a.75.75,0,0,0,0-.15h0A.65.65,0,0,0,89,38h.12s0,0,0,0m-.73.56.46.2a1.22,1.22,0,0,1-1.93-.06l.44-.19a.75.75,0,0,0,1,.06m-.22-.17a.48.48,0,0,1-.53,0Zm-.44-5.72,0,.22h0v-.55l0,.09a.46.46,0,0,1,0,.25m-.15,4.61a.26.26,0,0,0,0,.07.73.73,0,0,0-.4.65s0,0,0,.06l-.41.32a1.18,1.18,0,0,1-.06-.37,1.2,1.2,0,0,1,.89-1.15h0c0,.09,0,.17,0,.26a.31.31,0,0,1,0,.16m-.12-6.37s0,.05,0,.08h0a.22.22,0,0,0-.24.22v.44a2.69,2.69,0,0,1-.75.53,1,1,0,0,0,0-.37c-.07-.29-.13-.59-.21-.88ZM87,29.48,86.88,29,87,29Zm-.64.66H86l0-.1a1,1,0,0,0,0-.18,1.73,1.73,0,0,0-.1-.53c0-.08,0-.15,0-.23h.24Zm-.22,3.54q0-.37.06-.76a2.79,2.79,0,0,0,1-.43v.41h-.39l-.3.57a1.18,1.18,0,0,0-.33.2m-.72-.51a7,7,0,0,1-.2,1.29h-.12a6.87,6.87,0,0,0,.2-1.25l.11,0m-.39.05h0a7.27,7.27,0,0,1-.56,2.2h0A6.53,6.53,0,0,1,83.56,37l-3.94-3.73h.17a.23.23,0,0,0,.2.1l1.71-.1h3.35m-5.74.27,4.11,3.63a6.35,6.35,0,0,1-4.24,2.11L79,33.68l.15-.08.17-.1m-.32,6v.11h-.31a6.67,6.67,0,0,1-4.44-1.69l.07-.08a6.57,6.57,0,0,0,4.37,1.66H79m0-.26h-.28a6.32,6.32,0,0,1-4.2-1.59l0,0h0l3.7-4,0,0h0a.9.9,0,0,0,.37.13Zm0-6a.5.5,0,0,1-.51,0Zm-.37-8.14-.57,0-.06-.42.62,0Zm-.66,8.21-3.59,4.21a6.54,6.54,0,0,1-2-4.35l.95,0,3.1-.11,1.07,0a.36.36,0,0,0,.32.26h.14l0,.07m-.16-1h0a.38.38,0,0,0-.33.3l-.7.05-3.59.26-.83.06c0-.06,0-.13,0-.2A6.64,6.64,0,0,1,72.52,31a8.63,8.63,0,0,1,1-2.05c.13-.18.26-.35.4-.51l1.61,1.52h0l2.24,2.11Zm-.16-1.1-.11.13-1.57-1.38L74,28.26l.06-.06h0A6.42,6.42,0,0,1,75.63,27l.41.39a8.12,8.12,0,0,0,1.2,2.41l.21.32ZM75.94,27l-.1-.08.07,0,0,.12m-.06-.39-.24.12-.09-.08.32-.16v.12m-.45.23a6.7,6.7,0,0,0-1.58,1.26L73.77,28a6.8,6.8,0,0,1,1.58-1.26Zm-1.72,1.41-.08.09h0l-.07.08c-.09.11-.18.23-.27.35l-.12.18h0a11.29,11.29,0,0,0-.72,1.43A6.85,6.85,0,0,0,72,32.74c0,.07,0,.14,0,.21h-.11c0-.07,0-.15,0-.22a6.43,6.43,0,0,1,1.3-4h0l.14-.19h0l.11-.15.14-.17,0,0h0Zm-1.77,4.92H72a6.8,6.8,0,0,0,2.12,4.54l-.07.08a6.9,6.9,0,0,1-2.16-4.62m7.25,6.32a6.6,6.6,0,0,0,4.42-2.19l.08.07a6.71,6.71,0,0,1-4.5,2.23Zm4.56-2.35A6.8,6.8,0,0,0,84.95,35h.12a6.89,6.89,0,0,1-1.24,2.18Zm10.63-1.78-1.14.38h-.31a1.68,1.68,0,0,0,.43-.49L94,34c.09-.17.06-.3-.06-.37L92.77,34a.43.43,0,0,0-.24-.06L92,31.49h0A3,3,0,0,0,91.9,31v0a.22.22,0,0,0,0-.06,2.9,2.9,0,0,0-.45-.83,1.86,1.86,0,0,1,0-.22c0-.05,0-.11,0-.16,0-.43.06-.85.06-1.28a9.49,9.49,0,0,0-.18-2,4.59,4.59,0,0,0-.16-.57.7.7,0,0,0-.32-.38l-.57-.32a.17.17,0,0,1-.09-.12c0-.09,0-.18-.07-.27-.06-.24-.86-.7-1.09-.73l-.09,0c0-.13,0-.15-.09-.17l-.73-.18-.21-.07-.14,0-.46-.06a1,1,0,0,1-.25-.07.4.4,0,0,0-.31,0l-.2,0-.61.06a1.5,1.5,0,0,1-.53,0l-.11,0-6-.25v0h-.12l-.58.09a1.79,1.79,0,0,1-.61,0c-.14,0-.16-.08-.21-.21a.94.94,0,0,1,0-.35c0-.33.1-.66.12-1A3.38,3.38,0,0,0,77,19.58a4.49,4.49,0,0,0-1.3-1.08h0a3.75,3.75,0,0,0-.83-.07l-.09,0a2.82,2.82,0,0,0-.73-.17H72.07s-.07.13-.07.3,0,.3.08.3h1.77a2.85,2.85,0,0,1,.8.31,2.92,2.92,0,0,1,.72,1.33c0,.17.09.33.13.5L76,24.08l0,0s-.07.6-.08.8-.06.73-.06.73h0v0a8.33,8.33,0,0,0-3.14,2.46,7.7,7.7,0,0,0-1.53,4.62,7.51,7.51,0,0,0,14.52,2.84s.22-.48.22-.48h.4l.45,0,.68,0h0s0,.73,0,.8a2,2,0,0,0,0,.21S85.94,36.59,86,38a1.9,1.9,0,0,0,3.8,0s0-.09,0-.13a1.66,1.66,0,0,1,.54-.12,2.23,2.23,0,0,1,.52,0l.13,0,0,.08c-.09.19-.05.32.09.38l1.2-.4h.1a.19.19,0,0,0,.16-.07l.16,0a.56.56,0,0,0,.32-.06c.11,0,.24,0,.3-.14l.17-.07a.23.23,0,0,0,.09,0,1,1,0,0,0,.37-.23l.06,0a.33.33,0,0,0,.14-.12.84.84,0,0,0,.16-.71.46.46,0,0,0-.07-.17l.26-.53c.09-.17.05-.3-.06-.36" transform="translate(0)"/><path class="cls-5" d="M68.09,20.15l-1.84,4.62L64.45,29a.61.61,0,0,1,0,.67s.12.06-.13.62-2.18,4.47-2.18,4.47l-1.77,3.78s-.17.58-.58.72l-.41.14,0,0v0a.52.52,0,1,1-.64-.37.18.18,0,0,0,0-.15.1.1,0,0,0-.06,0,.52.52,0,0,1-1-.33h0l-.61-.29,0,.09a.52.52,0,1,1-.71.18,1,1,0,0,1-.24-.41c0-.24.06-.46-.05-.7s-.51-.39-.74-1S54.87,35.94,55,35s.13-.9,1.18-2.51,2.12-4.12,2.59-4.51.57-.2.57-.2a.86.86,0,0,1,.6-.31,1,1,0,0,1,.54.29s.12-.14.37-.09.34-.12.88-.1a2.75,2.75,0,0,1,1,.25c.26.1.31.31.64.41a6.37,6.37,0,0,0,.69.15l3.53-8.24" transform="translate(0)"/><path class="cls-6" d="M69.82,17.46c.24.18.51.37.77.58a20.71,20.71,0,0,0,2,1.29.57.57,0,0,1,.29.36,2.36,2.36,0,0,0,.37.61l.55.62,0,0a1.42,1.42,0,0,1,0,.76c0,.16.27.08.31,0s.07,0,.11,0a.46.46,0,0,0,.34,0c.12,0,.15.08.26.09a.37.37,0,0,0,.33-.19c.1-.14.11-.16.1-.07a.93.93,0,0,0,0,.39c0,.09.16,0,.21,0a1,1,0,0,0,.17-.51,2,2,0,0,0,0-.62c-.07-.15-.2-.44-.27-.63s-.28-.3-.51-.46a3.75,3.75,0,0,1-.81-.6c-.33-.35-.9-.86-1.36-1.28a18.38,18.38,0,0,1-1.73-1.74l-.26-.28" transform="translate(0)"/><path class="cls-5" d="M72.43,15.66a2.75,2.75,0,0,0-.08-.64,1.61,1.61,0,0,1,.15-1.19c.21-.5-.23-1.55-.23-2.25a3.22,3.22,0,0,1,.39-1.4c.07-.16-.23-.39-.24-.43s.18-.27.09-.36S72,9,72,9a2.16,2.16,0,0,1,.67-.89.8.8,0,0,1,1-.17c.38.14.39-.37.4-.53A.73.73,0,0,1,74.19,7a.19.19,0,0,0,0-.23s.13-.16.17-.24,0-.11,0-.28.15-.18.32-.3,0-.43-.17-.61.08-.33.06-.51-.12-.29-.14-.49a2.24,2.24,0,0,1,0-.46.89.89,0,0,0,.33-.12c.18-.1,0-.46,0-.46.25-.1.29-.47.29-.47a.31.31,0,0,1-.26-.06c.11-.26-.23-.44-.23-.44s-.21.11-.21.11c0-.21-.3-.28-.3-.28.14.32-.41.29-.67.1A3.19,3.19,0,0,0,72.56,2c.31-.49-.78-.59-.78-.59.39.48-.41.62-.41.62,0-.2-.41-.32-.41-.32.16.08.14.4.14.4-.69-.07-.83.29-.83.29a.56.56,0,0,1,.66.13,1.07,1.07,0,0,0-.75.49A5.13,5.13,0,0,0,70,5.55a3.54,3.54,0,0,1,.11.92.33.33,0,0,0,.08.32c.08.06-.08.22-.08.22-.43-.2-.5.24-.73.39a9.29,9.29,0,0,1-.79.52,5.73,5.73,0,0,0-1.4,1.47,7,7,0,0,0-.91,1.8A5.05,5.05,0,0,0,66.4,13a12.54,12.54,0,0,1,.16,2.39,5.85,5.85,0,0,1-.26,1.11A7.85,7.85,0,0,0,66.08,18a9.47,9.47,0,0,0-.15,2c.25,0,.67-.1.79.17s-.14,1-.22,1.26-.26.7-.34,1.07.31.26.52.41.34.36.45.33a.33.33,0,0,1,.36.19c.1.17,0,.47.28.71s.09.38.09.64a3.53,3.53,0,0,0,.28.93c.1.29-.07.57-.14,1.14a5.2,5.2,0,0,0,.34,1.66,1.9,1.9,0,0,1-.17.78,2.28,2.28,0,0,0,.14.62c0,.17-.45.36-1.17,1.05s-1.26,1.33-1.36,1.43-.41.36-.6.57-.12.52-.24.53a1.13,1.13,0,0,0-.52.17c-.21.14-.6.4-.69.47s-.09.21-.12.26-.55.22-.71.34,0,.5.12.78A16.59,16.59,0,0,1,64,37.52a5.37,5.37,0,0,0,1.83,2.19c.4.28.57.1.66-.07S66.19,39,66,38.48a3.63,3.63,0,0,1,0-1.57c0-.17.07-.79.07-.9s.1-.19.22-.29.09-.22.17-.43.67-.16.93-.35.41-.65.59-.93.09.21.09.33.07.88.09,1.29,0,1.05,0,1.28a.94.94,0,0,0,.21.52.39.39,0,0,1,0,.5c-.12.12-.05.23-.1.45s.14.48.1.78-.19.57-.19.83,1.19.38,1.57.29a4.26,4.26,0,0,1,1.07-.14,16.84,16.84,0,0,0,2.35-.1c.59-.1.83-.26.9-.57a.47.47,0,0,0-.43-.53,3.17,3.17,0,0,1-1.14-.09,6.19,6.19,0,0,1-1.23-.55c-.12-.09-.1-.14-.1-.29a.54.54,0,0,0-.1-.41c-.12-.15,0-.26,0-.5s-.5-.66-.64-.83a10,10,0,0,1,.09-2.38c.07-.95.09-2,.07-2.12s.21-.21.6-.57S72.7,30,73,29.66s.26-.71.22-1.21-.09-1.33-.14-2.23a6.58,6.58,0,0,0-.35-1.66c-.05-.24-.17-1.07-.28-1.48s-.29-.84-.35-1.09a1.81,1.81,0,0,1,.05-.67A4.27,4.27,0,0,0,72,20c-.1-.29.08-.88,0-1s0-.28.05-.41a5.94,5.94,0,0,0,.16-.91,2,2,0,0,1,.06-.34" transform="translate(0)"/><path class="cls-4" d="M31.87,7l.41-.31a1.11,1.11,0,0,0-.33,0,1.38,1.38,0,0,0-.29,0,1.61,1.61,0,0,0,.21.33M36.66.63a1.58,1.58,0,0,1,.9.23,2,2,0,0,1,.7.67l.26.45a.27.27,0,0,0,.16.13l.8.29a.38.38,0,0,1,.24.26c0,.09,0,.28-.07.35a.58.58,0,0,1-.37.09h-.06c-.21,0-.51,0-.51,0a.55.55,0,0,1,0,.11c0,.11-.11.21-.09.33s.07.24.08.37a1.81,1.81,0,0,1,0,.53c0,.21-.1.53-.13.64a4.81,4.81,0,0,0-.1.54,1.3,1.3,0,0,1-.11.54.38.38,0,0,1-.34.16h-.27c-.08,0-.15,0-.16,0a2.64,2.64,0,0,0-.19.38.41.41,0,0,1,.14.22.34.34,0,0,0,.1.19,2.43,2.43,0,0,0,.29.23,1.22,1.22,0,0,1,.21.18.69.69,0,0,0,.23.14.56.56,0,0,1,.28.27,5.13,5.13,0,0,1,.21.83,4.66,4.66,0,0,1,.09.68,2.44,2.44,0,0,0,0,.68c.07.27.14.6.18.69a1,1,0,0,1,.07.28,1.27,1.27,0,0,0,.08.37,3.05,3.05,0,0,1,.14.5,2.43,2.43,0,0,0,.09.32.24.24,0,0,1-.08.29,3.24,3.24,0,0,1-.69.32c0,.34.06.91.09,1.15a6.56,6.56,0,0,0,.19.72,2.25,2.25,0,0,0,.19.46,4.46,4.46,0,0,1,.26.64,4.22,4.22,0,0,1,.12.54,5.89,5.89,0,0,0,.18.74c.09.27.44,1.32.56,1.67s.28.71.36.88.14.28.21.42.19,0,.25.07a.86.86,0,0,1,.14.6c0,.08,0,.13-.07.16a3.52,3.52,0,0,0,.23.5,2.39,2.39,0,0,1,.13.26,1.86,1.86,0,0,0,.11.2.41.41,0,0,1,.07.2.59.59,0,0,1,0,.14.83.83,0,0,0,0,.23c0,.11,0,.36,0,.52s0,.26-.1.35l-.25.2-.19.15a.23.23,0,0,1-.14.08,2.12,2.12,0,0,0-.32.1.46.46,0,0,1-.16,0l0,0a.15.15,0,0,1,0-.12.43.43,0,0,1-.15,0h0a.11.11,0,0,1,0-.13.37.37,0,0,1,.12-.14l0,0s0-.09,0-.12l.17-.07a.22.22,0,0,0,.13-.07L40.9,23s0,0,0-.06l0,0a.15.15,0,0,1-.13.07h-.07a.39.39,0,0,1-.21-.23,1.61,1.61,0,0,1-.1-.35,1.15,1.15,0,0,0-.09-.35,1.34,1.34,0,0,1-.16-.23L40,21.49a.48.48,0,0,1,0-.25A1.35,1.35,0,0,0,40,21h-.07s0,0-.05-.07-.05-.2-.06-.27,0-.18,0-.21l.06-.05s-.1-.17-.18-.27l-.45-.63-.46-.67c-.15-.23-.73-1.07-.87-1.32s-.24-.38-.25-.42,0,0,0,0h0s-.05,0-.06.12a.52.52,0,0,1-.09.27.36.36,0,0,0-.08.25,1.42,1.42,0,0,1-.07.46.54.54,0,0,0-.12.28,2.25,2.25,0,0,1-.05.4c0,.19-.07.48-.09.57a.79.79,0,0,0,0,.35.73.73,0,0,1,.06.29,1.48,1.48,0,0,0,0,.39.65.65,0,0,1,0,.18.54.54,0,0,0,0,.16s0,.08-.05.13S37,20.91,37,21a4.73,4.73,0,0,0,0,.5,1.22,1.22,0,0,1,0,.5,7.05,7.05,0,0,0-.07.78,2.18,2.18,0,0,0,.08.53,3.65,3.65,0,0,1,.11.67c0,.23,0,.39,0,.5a.74.74,0,0,1,0,.34.84.84,0,0,0-.07.4c0,.21,0,.69,0,.87a4.75,4.75,0,0,1,0,.57,1.34,1.34,0,0,0,.06.54,1.73,1.73,0,0,1,.15.55,2.75,2.75,0,0,1,0,.48,2.26,2.26,0,0,0,0,.41c0,.19,0,.73,0,.82s0,.16-.11.16h-.54c0,.48,0,2.1,0,2.56s-.05,1.88-.06,2.16a8.47,8.47,0,0,0,0,.89c0,.13.07.43.1.62.09,0,.11.09.12.15a2.18,2.18,0,0,1,0,.32.64.64,0,0,0,0,.19,1.67,1.67,0,0,1,0,.33.67.67,0,0,1,.23,0l.11,0a.74.74,0,0,1,.2.29,4.16,4.16,0,0,1,.11.48.52.52,0,0,0,.13.25,1.21,1.21,0,0,1,.12.19.68.68,0,0,0,.27.22,3.4,3.4,0,0,1,.46.29,1.61,1.61,0,0,0,.93.34h.08a.77.77,0,0,1,.36.06.67.67,0,0,1,.28.45.49.49,0,0,1,0,.37c-.15.3-.65.44-1,.48a5.4,5.4,0,0,1-.79.05c-.7,0-1.42-.1-2.1-.14l-1.5-.08a.57.57,0,0,1-.39-.14.23.23,0,0,1-.05-.23c0-.07,0-.25.05-.35a.44.44,0,0,1,.08-.22s0-.08,0-.18a1.28,1.28,0,0,1,0-.27,2.5,2.5,0,0,1,.15-.51.85.85,0,0,0,.06-.33.57.57,0,0,1,.17-.34.14.14,0,0,1,.1,0,.2.2,0,0,1,.09,0h0s0,0,0-.08a1,1,0,0,0,0-.28.47.47,0,0,1,0-.13.34.34,0,0,0,0-.17.23.23,0,0,1,0-.11.67.67,0,0,0-.06-.17.28.28,0,0,1,0-.22.24.24,0,0,0,0-.15c-.06-.36-.16-.78-.2-1a12.64,12.64,0,0,0-.38-1.64,6.61,6.61,0,0,1-.29-1.59c0-.34,0-1.17,0-1.41a.81.81,0,0,1-.48.23,1.83,1.83,0,0,0-.44.34c-.19.17-.85.73-1.3,1s-1.16.78-1.42.92a8,8,0,0,0-.92.63c-.24.19-.75.65-.8.7s0,.08,0,.15,0,.12-.11.18a2,2,0,0,1-.24.17.69.69,0,0,0-.16.13,1.49,1.49,0,0,1-.14.2.71.71,0,0,0,.27,0,.16.16,0,0,1,.17.11.22.22,0,0,1,0,.2,2.61,2.61,0,0,0-.14.23.48.48,0,0,1-.22.19.58.58,0,0,0-.23.16,1.37,1.37,0,0,0-.08.44,2.47,2.47,0,0,1-.1.45.9.9,0,0,0,0,.29c0,.12,0,.31,0,.48a1.35,1.35,0,0,0,0,.41c0,.19.06.4.12.58a1.84,1.84,0,0,1,.11.38.52.52,0,0,1-.11.42c-.07.09-.15.11-.38.12h0a1.51,1.51,0,0,1-.69-.24,2.47,2.47,0,0,1-1.26-2c0-.19,0-.47,0-.76a.47.47,0,0,0-.17-.45,2.34,2.34,0,0,1-.37-.5,5.14,5.14,0,0,1-.29-.79,2.54,2.54,0,0,1-.08-.7.67.67,0,0,1,.22-.44.37.37,0,0,1,.23-.11h0a.24.24,0,0,0,.13,0,.86.86,0,0,1,.23-.12,1.18,1.18,0,0,1,.35,0h.06a1.39,1.39,0,0,0,.33,0l.16,0h.13a.65.65,0,0,1,.32-.13h0a.58.58,0,0,1,.28.1c.11-.1.27-.22.35-.28a.21.21,0,0,1,.16-.06s.07,0,.13-.09l1-.94a4.59,4.59,0,0,0,.55-.74,4,4,0,0,1,.63-.8,10,10,0,0,1,1.16-1c.22-.15.66-.42.73-.46s.07-.08.07-.12,0-.08.14-.15a.89.89,0,0,0,.23-.33,1.61,1.61,0,0,0,.11-.34.23.23,0,0,0-.06-.18.3.3,0,0,1-.06-.16,1.69,1.69,0,0,0-.08-.31.27.27,0,0,1,0-.2A.62.62,0,0,0,32,27a1.23,1.23,0,0,1-.06-.48.64.64,0,0,0-.11-.4,1.19,1.19,0,0,1-.14-.44,2,2,0,0,1,0-.38.84.84,0,0,0-.14-.33.56.56,0,0,1-.1-.32,1.29,1.29,0,0,0-.07-.36c0-.16-.11-.41-.14-.57a.69.69,0,0,0-.16-.33.75.75,0,0,1-.12-.3,2.09,2.09,0,0,0-.15-.4c-.06-.14-.15-.46-.21-.69a2.41,2.41,0,0,0-.23-.49.77.77,0,0,1-.09-.28.78.78,0,0,0-.08-.23,2.39,2.39,0,0,1-.11-.24s0,0,0,0h0a.14.14,0,0,1-.08,0h0s-.08,0-.1-.08a2.29,2.29,0,0,1-.1-.47,3.62,3.62,0,0,1,.06-.42.15.15,0,0,1,.1-.12s0,0,0-.12a1.93,1.93,0,0,1,0-.43.33.33,0,0,1-.15-.06s0-.11,0-.21.16-.46.21-.59a.85.85,0,0,0,0-.3.83.83,0,0,1,.08-.26,1,1,0,0,0,0-.33c0-.16,0-.45.07-.64h-.06a4.11,4.11,0,0,1-1-.12,6.5,6.5,0,0,1-1-.22c-.35-.16-.45-.65-.52-.92a5.6,5.6,0,0,1-.13-1c0-.18.07-.63.09-.71a.24.24,0,0,0,0-.18.4.4,0,0,1,0-.18c0-.08,0-.28,0-.38a.4.4,0,0,1,.08-.23.5.5,0,0,0,.07-.25c0-.1,0-.42.07-.66s.18-1,.28-1.27a4.53,4.53,0,0,1,.58-1.06c.19-.23.51-.52.6-.61a.36.36,0,0,0,.1-.22,1.64,1.64,0,0,1,.11-.3.49.49,0,0,1,.25-.27,2.44,2.44,0,0,1,.54-.1.61.61,0,0,0,.34-.13,3.29,3.29,0,0,1,.33-.19.93.93,0,0,0,.26-.2,3.56,3.56,0,0,1,.39-.36A2.05,2.05,0,0,1,31.34,7a.18.18,0,0,1,0-.21,3.4,3.4,0,0,0,.14-.34.17.17,0,0,1,.13-.13l.24,0H32a1.89,1.89,0,0,1,.63.29,1.31,1.31,0,0,1,.46-.13.69.69,0,0,0,.26-.07L34,6.13c.19-.07.64-.21.79-.29s.24-.09.31-.23a1.27,1.27,0,0,0,.17-.42,2,2,0,0,0-.12-.61.54.54,0,0,1-.25-.29,1.4,1.4,0,0,1-.16-.53c-.07,0-.1-.07-.16-.19a1.56,1.56,0,0,1-.1-.59c0-.19,0-.62,0-.8a1.35,1.35,0,0,1,.33-.77A2.31,2.31,0,0,1,35.72.8a2.71,2.71,0,0,1,.94-.17" transform="translate(0)"/><path class="cls-7" d="M42.4,22.07c0-.1-.13-.45-.13-.45a9.78,9.78,0,0,1,0-1.81c0-.09.07-.35.07-.35a1,1,0,0,1,.49-.43s-.18,1-.2,1.4-.14,1.4-.14,1.4Zm-.18-7.42a.56.56,0,0,1,.46-.16c0,.2-.46.16-.46.16m.15-.4a.48.48,0,0,1,.27,0,.29.29,0,0,1-.27,0m-.46.69a.56.56,0,0,1,.27-.12c-.07.12-.27.12-.27.12m-.22.57a2,2,0,0,0,.45-.36.64.64,0,0,1-.45.36M40.4,38.93s-.37.48.29.85a4.28,4.28,0,0,0,2,.27l.47.06s2.73.62,2.79-.48c0,0,0-.33-.21-.33,0,0-.15-.17-.91-.19l-.23,0a4.82,4.82,0,0,0-.95-.46l-.35-.4s-.2.16.16-1c0,0,1.12-1.84,1.41-2.3a5.74,5.74,0,0,0,.43-.85,1.18,1.18,0,0,0,.75-.19,1.89,1.89,0,0,1,1.26-.06s.6.39,1,.19c0,0,.5,0,.19-.46,0,0-.35-.7-.23-.93,0,0,.52-.33.54-.48a.44.44,0,0,1,.23,0s.25.08.35,0a1.06,1.06,0,0,1,.52-.25A4.42,4.42,0,0,0,51,31.32s.19-.1-.08-.33a2.33,2.33,0,0,0-.37-.56,15.2,15.2,0,0,0-.91-1.82s-.48-.83-.79-1.24a2,2,0,0,0-.95-.85,4.67,4.67,0,0,0-.45-.44.6.6,0,0,1,.06-.31,2.51,2.51,0,0,0,.17-.75,12.76,12.76,0,0,0,.1-1.81,5.14,5.14,0,0,0,.11-.84,8,8,0,0,0,.34-2.62,15.12,15.12,0,0,0-.18-1.92L48,17.56s.43-.56.24-.71a10.36,10.36,0,0,1-.77-1.14c-.08-.22-.13-.36-.34-.37,0,0,.31-.53-.09-.57,0,0,0-.36.55-.61a4.07,4.07,0,0,1,.44-.18c.18-.06.51-.07.31-.55,0,0,0-.12.06-.16s.18-.27-.16-.26a.32.32,0,0,1,.17-.27s.21-.08,0-.21v-.25s.52-.18.07-.51a.71.71,0,0,1-.33-.35,2,2,0,0,0-.7-1.76,1.13,1.13,0,0,0-.36-.43A1.91,1.91,0,0,0,45.24,9a1.47,1.47,0,0,0-1.14.64,1,1,0,0,0-.63.54s-.35.16-.35,1A13.2,13.2,0,0,0,43,13.36a5.87,5.87,0,0,0-.11.67,3.51,3.51,0,0,1-.8-.37,1.26,1.26,0,0,0,.73.43l0,.08a1.47,1.47,0,0,1-1-.42,1.38,1.38,0,0,0,.56.44s-.56-.06-.71.08a1.75,1.75,0,0,1,.6,0s-.3.16-.36.27a.2.2,0,0,1-.26-.08s0,.21.28.18a.77.77,0,0,1,.42-.29s-.37.75-.85.24a.41.41,0,0,0,.47.24,1.71,1.71,0,0,0-.57.61l.27-.26s.25-.25.42-.09a2.16,2.16,0,0,1-.78.6,1.72,1.72,0,0,0,.82-.26,1.53,1.53,0,0,1-.63.37,1.38,1.38,0,0,0,.9-.4s.2.24-.17.48a.55.55,0,0,1-.47,0s.1.15.46.15c0,0-.11.31-.31.37a.19.19,0,0,0,.25,0,.36.36,0,0,0,.11.43s.12.17-.1.25a.27.27,0,0,0,.33,0s-.06.12,0,.18A14.63,14.63,0,0,0,41,18.68a1.07,1.07,0,0,0-.12,1,7.43,7.43,0,0,0,.28,2.07,4.67,4.67,0,0,1,.22,1.08,2.56,2.56,0,0,0,0,.79,1,1,0,0,0,0,.34v.17a.21.21,0,0,0,.09.29s.19.08.26,0l.07.06,0,.07a.15.15,0,0,0-.06.26s.16.13.28,0a1.32,1.32,0,0,1,0,.26s-.13.44.11.51a19.68,19.68,0,0,0,.27,2.31A2.71,2.71,0,0,0,42,29s-.09,2.52-.06,3.17c0,0-.69.18-.49.47,0,0,.17.43.31.47s-.07.31,0,.37-.58.23-.1,1.08a5.63,5.63,0,0,0,.64.81,7.26,7.26,0,0,1-1.25,2.51s-.32.16-.34.22a1.15,1.15,0,0,0-.35.79" transform="translate(0)"/><path class="cls-7" d="M50.21,22.8h0s0,0,0,0,.08.09.08,0a.41.41,0,0,0,0-.09m-5.15-.88c0-.18,0-.16,0-.16s.24.1.45.16.8.2,1.32.31a7,7,0,0,1,1.26.28,1.75,1.75,0,0,0,.67.31,5.6,5.6,0,0,0,.72.12.38.38,0,0,1,.25.06.57.57,0,0,0,.16,0s0,0,.11.07.19.18.3.2.14,0,.14,0,0,0,0,0a.38.38,0,0,0,.11,0,.11.11,0,0,0,0-.08.41.41,0,0,0,0-.08.88.88,0,0,0,0-.23,1,1,0,0,0-.08-.19s0,0,0,0,.08.12.11.13,0,0,.07.09a.39.39,0,0,0,.13.21.18.18,0,0,0,.15,0S51,23,51,23a.5.5,0,0,1,0-.18.32.32,0,0,0,0-.17s0-.07,0,0a.18.18,0,0,0,.14,0c.08,0,.12,0,.09-.09S51,22.38,51,22.3A1.48,1.48,0,0,0,50.8,22a.54.54,0,0,0-.31-.22,4.17,4.17,0,0,1-.56-.09,1.26,1.26,0,0,0-.45-.06c-.19,0-.53.08-.74.06s-.46-.26-.58-.31l-1-.4c-.36-.15-1.23-.58-1.54-.76" transform="translate(0)"/><path class="cls-8" d="M49.54,38.27l-.11-.05.07-.11.11.05Zm-.25-.12-.07,0,.07-.11.07,0Zm6.16-28.2.07-.07v.06Zm-.68,0a.74.74,0,0,1,.29-.38,1.06,1.06,0,0,0,.3-.7,1.14,1.14,0,0,1,0,.55,1.61,1.61,0,0,0-.26.54l-.52.09.4-.66a.49.49,0,0,1,0,.2c-.06.11-.15.24-.13.36m.32,0a.8.8,0,0,1,.23-.37c.12-.17.19-.27.14-.75a1.14,1.14,0,0,1,0,.59c-.06.13-.24.4-.28.5v0ZM54.5,7.6a1,1,0,0,1,.3-.42,1.26,1.26,0,0,1,.45-.2.87.87,0,0,1-.28.36,2.44,2.44,0,0,1-.34.2l-.13.07M55,6.46c0-.05.3-.43.45-.45-.09.15-.21.4-.45.45m.7-1s0,0,0,0A.8.8,0,0,1,55.78,5a1.15,1.15,0,0,1,.34-.37c-.08.43-.34.44-.43.87m.46-1.13a1.59,1.59,0,0,1,0-.83A.92.92,0,0,1,56.41,3a1.2,1.2,0,0,0-.12.51,2.25,2.25,0,0,1-.1.75l0,0M61.64.8c-.11-.26-.4-.31-.48-.44a.5.5,0,0,1,.48.44M60,0a3.85,3.85,0,0,0-.78.08,1.2,1.2,0,0,1-.43.05,1.06,1.06,0,0,0-.57.21,3.64,3.64,0,0,1-.35.27,3,3,0,0,0-.59.53,1.32,1.32,0,0,0-.31.67.76.76,0,0,1-.15.51,5.92,5.92,0,0,0-.65.89,1.57,1.57,0,0,0,0,1.15,2,2,0,0,0-.45.6,1,1,0,0,0,0,.63c-.07.14-.3.17-.51.46s-.15.32-.23.41h-.07l-.25,0a1.23,1.23,0,0,0,.29.07.68.68,0,0,1-.4.2.6.6,0,0,0,.34-.1l.1-.09H55a1.14,1.14,0,0,0,.33-.14.61.61,0,0,1-.23.28c-.06,0-.33.17-.46.25a.55.55,0,0,0-.26.43c0,.18,0,.35-.23.42.14,0,.21-.07.23-.16a1.21,1.21,0,0,1,.26-.51.66.66,0,0,1,.41-.16.91.91,0,0,0-.4.28,1,1,0,0,0-.19.42.57.57,0,0,0-.21.17,1,1,0,0,1-.24.32c.18-.09.2-.24.31-.32a1,1,0,0,1,.59-.14,2.75,2.75,0,0,0,.69-.08,1.08,1.08,0,0,1-.38.15.63.63,0,0,0-.35.25.75.75,0,0,1,.63-.21,1.54,1.54,0,0,0-.52.59c-.08.21-.11.62-.49.82a.74.74,0,0,0,.41-.36.75.75,0,0,1,.22-.29A2.62,2.62,0,0,1,55,8.8c-.35.47-.9,1.23-1,1.38l-.47.11c-.13,0-.12.11-.15.23s-.14.66-.19.91a1.24,1.24,0,0,1-.26.55c-.12.18-.32.52-.57.88s-.57.83-.81,1.22A6.67,6.67,0,0,0,51,15.23c-.07.23-.21.6-.29.78s0,.27.11.37a6.06,6.06,0,0,0,.57.47,2.05,2.05,0,0,0,.7.23.92.92,0,0,1,.32.11l.16.07c-.12.26-.83,2.09-.87,2.18a.61.61,0,0,1-.28.32,4.56,4.56,0,0,0-.71.5,4.14,4.14,0,0,1-.46.41,1.07,1.07,0,0,0-.25.21l-.32.33a.33.33,0,0,0-.11.24.56.56,0,0,0,0,.21.27.27,0,0,0-.09.21c0,.09.06.29.07.35s0,.16.1.16a.29.29,0,0,0-.07.22.87.87,0,0,0,.14.3.11.11,0,0,0,.19,0c0,.11,0,.24.14.24s.14,0,.19-.1a.78.78,0,0,1,.14-.27l.4-.31c0,.13-.1.35,0,.41a.15.15,0,0,0,.11.07.12.12,0,0,0,.09-.06,2.34,2.34,0,0,1,.23-.3.88.88,0,0,0,.17-.22,1,1,0,0,1,.27-.27.77.77,0,0,0,.26-.26c.09-.14.24-.36.32-.49A1.11,1.11,0,0,0,52.3,21a.57.57,0,0,1,.12-.29.47.47,0,0,0,.16-.24,9.8,9.8,0,0,1,.61-.82c.27-.22.45-1.65.58-1.86a9.29,9.29,0,0,0-.39,1.1c-.09.38-.22,1-.33,1.27a4.48,4.48,0,0,0-.17.58,4.42,4.42,0,0,1-.2.63,8.49,8.49,0,0,0-.37,1.15c0,.2-.07.32.05.37s.79.22.85.24.11,0,.1.11,0,.22,0,.25,0,.06.06.08a4.46,4.46,0,0,0,.76.08h.05c0,.7,0,1.26-.07,1.77a4,4,0,0,1-.28,1.36c-.17.38-.22.53-.29.71a3.12,3.12,0,0,1-.48.74,7.91,7.91,0,0,0-1.28,2c-.2.54-.56,1.54-.87,2.38-.16.44-.81,2.32-1,2.68a3,3,0,0,1-.68.94l-.07,0a.14.14,0,0,0-.11.07c-.06.08-.08.11,0,.16-.18.22-.43.54-.4.76a.77.77,0,0,0,.51.71h0l-.06.11-.42-.23a.41.41,0,0,0-.2-.07.13.13,0,0,0-.1,0,.29.29,0,0,0-.06.3,6.92,6.92,0,0,1,.26,1.05c0,.3,0,.61,0,.74s0,.29.23.3,1.43,0,1.88.1,1.14.1,1.72.1h.14c.54,0,.94,0,1-.12l.2-.35a.26.26,0,0,0,0-.21.41.41,0,0,0,.13-.35c0-.08,0-.12-.09-.12h0l-.25,0h-.11a2.41,2.41,0,0,1-.29-.11.35.35,0,0,0-.12-.19,2.53,2.53,0,0,0-.29-.21.29.29,0,0,0-.14,0h0a.34.34,0,0,0-.07-.22c-.06-.08-.25-.32-.29-.39a.29.29,0,0,0-.22-.15.53.53,0,0,0-.11-.31c-.07-.1-.19-.3-.25-.37s-.08-.12-.17-.13a1.91,1.91,0,0,1,.13-.77A14.85,14.85,0,0,1,52.49,34c.42-.76.75-1.42,1.07-1.93s.65-1.09.8-1.36l.54-1a3.31,3.31,0,0,1,.58-.75,3.86,3.86,0,0,0,.94-1,2.94,2.94,0,0,0,.45-1c.06-.26.12-.44.23-.77s.43-1.19.63-1.82h.18a1.61,1.61,0,0,1,.6.09,1.8,1.8,0,0,0,.59.09h.12a12.63,12.63,0,0,1,1.57,1.92,5.13,5.13,0,0,1,.52,1,2.64,2.64,0,0,1,.15.77,12.72,12.72,0,0,0,.29,1.9,12.26,12.26,0,0,0,.8,2.4c.48,1.13,1,2.66,1.16,3.08a4,4,0,0,1,.18.71,3.93,3.93,0,0,1,0,.42c-.06,0-.1,0-.1.13s0,.16,0,.18a1,1,0,0,0-.07.68c-.09,0-.21,0-.23.11a.29.29,0,0,0,.05.26,5.67,5.67,0,0,1,.35.67,5.9,5.9,0,0,1,.29.94c0,.21,0,.29.17.29h.08c.24,0,.66-.05,1-.1s1-.13,1.35-.14a9,9,0,0,0,1.25-.15,4.54,4.54,0,0,0,.86-.28c.14-.07.21-.08.29-.26a1.33,1.33,0,0,0,.13-.44s0-.1,0-.11-.07,0-.07-.06,0-.12-.17-.12h0a.38.38,0,0,0,.08-.24.25.25,0,0,0-.05-.19A.12.12,0,0,0,69,38h-.07a1.56,1.56,0,0,1-.36.1h-.12a.15.15,0,0,1-.09,0L68.11,38a.25.25,0,0,0-.13,0l-.1,0c0-.05-.05-.1-.12-.15l-.38-.32a.21.21,0,0,0-.15-.07h0a.23.23,0,0,0-.07-.19c-.07-.07-.24-.26-.32-.33l-.31-.24a.25.25,0,0,0-.13,0H66.3a3.36,3.36,0,0,1-.5-.87,17.58,17.58,0,0,1-.74-2.34c-.25-1-.51-2.53-.6-3.12A13,13,0,0,0,64,28.56a1.63,1.63,0,0,1,0-.86,5.94,5.94,0,0,0,0-1.27,2.79,2.79,0,0,0-.42-1.06,2.11,2.11,0,0,1-.29-.6,3,3,0,0,0-.25-.66c.1,0,.1,0,0-.16a4.34,4.34,0,0,1-.18-.64,3.16,3.16,0,0,0-.2-.66,1,1,0,0,1-.12-.39,1.29,1.29,0,0,0-.14-.38,2.43,2.43,0,0,1-.16-.46,1.6,1.6,0,0,0-.12-.34c-.07-.16-.33-.7-.74-1.52a9,9,0,0,0-1-1.55.2.2,0,0,0,.05-.2c0-.08,0-.24-.08-.26s0-.06,0-.13a.33.33,0,0,0,0-.33.52.52,0,0,1,0-.38,2.45,2.45,0,0,0,0-.71,3.8,3.8,0,0,1,.2-1.13c.09-.29.19-.68.25-.94a.46.46,0,0,1,.29-.37,1.66,1.66,0,0,0,.92-1.08,1.86,1.86,0,0,0-.18-1c-.15-.37-.38-.8-.59-1.29a9.36,9.36,0,0,1-.4-1.06l-.27-.94a8.82,8.82,0,0,0-.33-1,.49.49,0,0,1,0-.42c0-.11.08-.29.16-.49a3.9,3.9,0,0,1,.31-.59.47.47,0,0,1,.2-.21.73.73,0,0,1,.22,0h.68a.25.25,0,0,0,.22-.21.5.5,0,0,0,0-.26,1.81,1.81,0,0,1,0-.19.33.33,0,0,1,.07-.15.23.23,0,0,0,.05-.14c0-.05-.06-.11-.12-.14a.37.37,0,0,0,.13-.12.14.14,0,0,0,0-.18.41.41,0,0,1-.08-.18.07.07,0,0,1,0-.08,2,2,0,0,0,.24-.1.15.15,0,0,0,.06-.2,2.25,2.25,0,0,0-.24-.29A2.53,2.53,0,0,1,62,2.84a.17.17,0,0,1,0-.16s0-.09.08-.17a.48.48,0,0,0,0-.27c0-.05-.06-.18-.08-.26s-.16-.42-.18-.46,0-.07,0-.17a.7.7,0,0,0,0-.35,1.11,1.11,0,0,0-.15-.44.67.67,0,0,0-.39-.22,1.52,1.52,0,0,1-.38-.18A2.18,2.18,0,0,0,60.07,0H60" transform="translate(0)"/><path class="cls-1" d="M20.93,4.41c0,.12-.09.23-.14.32s-.43,1.18-.6,1.87a6.65,6.65,0,0,1,.74-2.19m-1.16,7A5.09,5.09,0,0,1,18.61,11,19.44,19.44,0,0,1,20,8.12a17.61,17.61,0,0,0-.27,3.32m-6,20.06-.07-.26.14-.16a.53.53,0,0,1-.07.42m0,1h-.2l.06-.15h.1ZM11.4,27l0,0a.42.42,0,0,1,.28,0l.37,0,0,.16a1,1,0,0,0-.68-.1m1.31.33h0s.11,0,.14.06,0,.09,0,.19a4.37,4.37,0,0,0-.42-.31h0a.59.59,0,0,0,.32.07m-6.39-.12a.37.37,0,0,1,0-.14,2.25,2.25,0,0,1,.47-.24l-.06.08-.46.32v0m.63-.51,0,.05a1.88,1.88,0,0,0-.43.19,1.25,1.25,0,0,1,.48-.24M4.32,39.47a.43.43,0,0,1-.24.47l0-.14a.29.29,0,0,0,.15-.29h0Zm-.87.23.15,0a.34.34,0,0,0,.3.17l0,.14a.5.5,0,0,1-.5-.27m0-.35.14.08a.32.32,0,0,0,0,.12l-.15,0a.45.45,0,0,1,0-.24M18.18,25.64l-3.91,3.59a2.29,2.29,0,0,0-.76-1,7,7,0,0,0-.67-.66c.06-.1.09-.18.06-.24s-.18-.09-.19-.09h0a.61.61,0,0,1-.34-.09L12.31,27h.15a.07.07,0,0,0,.07-.09s0-.11-.21,0l-.06-.18s0-.05-.08,0,0-.07-.11,0a2.08,2.08,0,0,0-.74.1A1.86,1.86,0,0,0,8.9,25.71l0-.16a7.56,7.56,0,0,0-1.13.53c-.19-.18-.37-.27-.31.19a3.31,3.31,0,0,0-.4.32,1.16,1.16,0,0,0-.7.4,3.61,3.61,0,0,0-.36.27,0,0,0,0,0,0,0,0,0,0,0,0,0,0,3.3,3.3,0,0,1,.29-.21.38.38,0,0,0,0,.09,0,0,0,0,0,0,0h0A23.26,23.26,0,0,0,4.07,29S.29,33.42,0,34.93a2.83,2.83,0,0,0,1.28,1.44s-.88,1.07,1.9,2.86a.69.69,0,0,0,0,.48.78.78,0,0,0,.92.51.67.67,0,0,0,.47-.85l.23-.1s6.78-6.58,8.57-7.71a2.82,2.82,0,0,0,.26-.24l0,.26,0,.45a.24.24,0,0,0-.09.18l0,.28s0,.12.15.1l.16,0s.14,0,.07-.25l0-.27s0-.06-.06-.05l0-.43a.75.75,0,0,0,.09-.6,2,2,0,0,0,.46-1.49L18.11,26" transform="translate(0)"/><path class="cls-1" d="M17.58,28.18a10.77,10.77,0,0,0-.15,1.08s-.33.43-.08.61c0,0-2.2,2.43-2.76,8.79a1.07,1.07,0,0,0,.13.13,1.32,1.32,0,0,0,.07.79c.08.36,1.33.33,1.33.33.59,0,2.14.26,2.14.26,2.73.28,2.5-.54,2.5-.54,0-.66-1-.54-1-.54a14.83,14.83,0,0,1-1.57-.85l-.34-.59a2,2,0,0,0-.13-.92c.41-.08.33-1.23.33-1.23.36-.66,1.56-4.09,1.56-4.09a5.27,5.27,0,0,0,1.3-2.35c.28-.65.67-1.78,1-2.89a23.19,23.19,0,0,1,2,3,.88.88,0,0,0,.23.43s0,.61.23.66c0,0-.59,2.1,2.17,7.18a3.05,3.05,0,0,1,.63,1.29,1.78,1.78,0,0,0,.39,1.09A2.75,2.75,0,0,0,29.25,39a4,4,0,0,1,1.48-.51s1.1,0,1.79-1.56c0,0,0-.89-1.17-.08,0,0-.33.42-1.45.11a.37.37,0,0,0,0-.08L29,36.57c.26-.74-.66-1.1-.66-1.1.13-.59-.49-1.33-.49-1.33-.23-.61-1.17-4.4-1.17-4.4A1.43,1.43,0,0,0,26.7,29c.28-.51-.31-1.46-.31-1.46a27,27,0,0,0-2.82-6.77l0,0c1.07-.92.46-1.69.46-1.69a.78.78,0,0,0-.18-.59A1.25,1.25,0,0,0,24,17.15a18.23,18.23,0,0,0,.43-2c.53-.33,1.53-1,1.7-1.13,0,0,.6-.19.6-.45,0,0,.26-.11.38-.06a.13.13,0,0,0,.17,0l.36,0,0-.11c.23,0,1,0,1.27-.35l.3,0a1.13,1.13,0,0,0,.59-.53l.43-.15s.19-.08.09-.36l.28-.21s.17-.11-.06-.28l-.36,0s-.08,0-.34.11l-.66.3-1.38,0a.44.44,0,0,1,.24-.17.36.36,0,0,0,.55,0l-.14-.1a.44.44,0,0,0-.19-.19.74.74,0,0,0-.58-.06.61.61,0,0,0-.69.42l-.06.08a1.56,1.56,0,0,0-.54.45s-.13-.06-.36.38c0,0-.25-.11-.45.32a2.25,2.25,0,0,1-.42.31.88.88,0,0,0,.21-.9,2.33,2.33,0,0,1-.36-.58,7.86,7.86,0,0,1-.25-1.23,1.59,1.59,0,0,1,.25.85,2,2,0,0,0-.11-.94,6.59,6.59,0,0,1,.45,1.79A5.37,5.37,0,0,0,24.75,10a5,5,0,0,1,.57,1.23,3.22,3.22,0,0,0-.72-1.62,3.64,3.64,0,0,1-.21-2.15.43.43,0,0,1,.17,0s1,.25,1-.49a.25.25,0,0,1,.13-.17s.24-.19,0-.24c0,0,.26-.11.15-.32a.28.28,0,0,1,0-.26s.42,0,.38-.25a2.18,2.18,0,0,1-.23-.89,1.64,1.64,0,0,0,.61-1.12.91.91,0,0,0-.39-1,1.25,1.25,0,0,1,.34.67,1.28,1.28,0,0,0-.2-.39.3.3,0,0,0-.16-.17,1.69,1.69,0,0,0-.46-.34A1.53,1.53,0,0,0,24.71,2a1.81,1.81,0,0,0-1.46-.33A3,3,0,0,1,24.67,2l-.22,0s-1.85-1-2.83.59A2.13,2.13,0,0,0,21,4.34c-.15.6-.34,1.32-.54,1.9a3.77,3.77,0,0,0-.74,2.11h0a4.47,4.47,0,0,0-.07.95,20.34,20.34,0,0,0-2.38,3.09c-.51-.18-.95.47-.95.47a3.24,3.24,0,0,0-2.14,1.38A6.11,6.11,0,0,1,12,17l.89.77a12.94,12.94,0,0,0,4.34,3.14A4.92,4.92,0,0,0,18,23.82a4.35,4.35,0,0,1-.08,2.53s-.14.71-.26,1.43" transform="translate(0)"/></svg>