<?xml version="1.0" standalone="no"?>
<!DOCTYPE svg PUBLIC "-//W3C//DTD SVG 1.1//EN" "http://www.w3.org/Graphics/SVG/1.1/DTD/svg11.dtd" >
<svg xmlns="http://www.w3.org/2000/svg">
<metadata></metadata>
<defs>
<font id="SSElements" >
<font-face font-family="SS Elements" units-per-em="2048" ascent="2176" descent="-640" />
<missing-glyph  />
<glyph  horiz-adv-x="2048"  />
<glyph unicode="&#x22c6;" horiz-adv-x="2048" d="M1552 115q-12 0 -28 7l-500 277l-500 -277q-32 -17 -60 4q-30 20 -23 55l96 589l-407 417q-25 25 -13 58q10 33 45 38l560 85l251 535q14 30 51 30t51 -30l251 -535l560 -85q35 -5 45 -38q12 -33 -13 -58l-407 -417l97 -589q5 -36 -24 -55q-14 -11 -32 -11zM1024 520
q15 0 28 -7l425 -234l-83 501q-3 30 16 49l349 358l-480 74q-30 3 -43 32l-212 452l-212 -452q-13 -29 -43 -32l-480 -74l349 -358q19 -19 16 -49l-82 -501l424 234q13 7 28 7z" />
<glyph unicode="&#x2600;" horiz-adv-x="2048" d="M1793 921l230 -150q35 -22 23 -61q-12 -36 -53 -38l-279 7h-5q-88 0 -123 -51q-33 -47 -5 -119l88 -237q11 -14 11 -32q0 -23 -16.5 -38.5t-38.5 -15.5h-3q-17 0 -30 10l-221 162q-47 35 -96 35q-41 0 -73 -26t-48 -74l-79 -255q-12 -38 -51 -38t-51 38l-79 255
q-15 48 -47.5 74t-73.5 26q-49 0 -96 -35l-221 -162q-13 -10 -32 -10q-20 0 -32 11q-14 10 -19 27.5t1 33.5l93 251q28 72 -5 120q-36 50 -121 50l-286 -7q-41 2 -53 38q-12 39 23 61l230 150q70 47 70 105t-70 105l-230 150q-16 10 -22 27t-1 34t19.5 28t32.5 11q1 0 1 -1
l279 -7h1q91 0 127 51q33 47 5 119l-93 251q-6 16 -1 33.5t19 27.5q12 11 32 11q19 0 32 -10l221 -162q47 -35 96 -35q41 0 73 26t48 74l79 255q10 34 51 34t51 -34l79 -255q16 -48 48 -74t73 -26q49 0 96 35l221 162q13 10 32 10q20 0 32 -11q14 -10 19 -27.5t-1 -33.5
l-93 -251q-28 -72 5 -119q36 -51 121 -51l286 7l1 1q18 0 32.5 -11t19.5 -28t-1 -34t-22 -27l-230 -150q-70 -47 -70 -105t70 -105zM1716 793l69 -2l-54 35q-122 80 -122 200t122 200l54 35l-75 -2q-148 0 -217 100q-67 96 -19 224l23 63l-59 -44q-79 -57 -163 -57
q-80 0 -142 48.5t-87 131.5l-22 70l-22 -69q-25 -84 -87 -132.5t-142 -48.5q-84 0 -163 57l-59 44l23 -63q48 -127 -19 -224q-69 -100 -220 -100l-72 2l54 -35q122 -80 122 -200t-122 -200l-54 -35l75 2q148 0 217 -100q67 -96 19 -224l-23 -63l59 44q79 57 163 57
q80 0 142 -48.5t87 -131.5l22 -70l22 70q25 83 87 131.5t142 48.5q84 0 163 -57l59 -44l-23 63q-48 128 19 224q68 100 216 100h7zM1024 1451q176 0 301.5 -125.5t125.5 -301.5t-125.5 -301.5t-301.5 -125.5t-301.5 125.5t-125.5 301.5t125.5 301.5t301.5 125.5zM1024 654
q153 0 261.5 108.5t108.5 261.5t-108.5 261.5t-261.5 108.5t-261.5 -108.5t-108.5 -261.5t108.5 -261.5t261.5 -108.5z" />
<glyph unicode="&#x2601;" horiz-adv-x="2048" d="M1561 341h-1021q-147 0 -271 70.5t-196.5 192t-72.5 264.5t72.5 264t196.5 191.5t271 70.5q71 0 145 -20q61 149 198 241t302 92q201 0 350.5 -125.5t181.5 -318.5q148 -48 239.5 -171.5t91.5 -276.5q0 -128 -65 -237.5t-177.5 -173t-244.5 -63.5zM540 1280
q-176 0 -301 -121t-125 -291q0 -171 125 -292t301 -121h1021q154 0 263.5 105.5t109.5 254.5q0 124 -79 221.5t-204 127.5l-39 9l-4 41q-13 162 -134.5 270.5t-288.5 108.5q-143 0 -258 -85.5t-152 -220.5l-17 -60l-58 22q-77 31 -160 31z" />
<glyph unicode="&#x2602;" horiz-adv-x="2048" d="M1024 1934q208 0 397.5 -81t327 -218t218.5 -327t81 -398h-967v-512q0 -118 -83.5 -201t-201.5 -83q-121 0 -205 83t-84 201q0 23 16.5 40t40.5 17q23 0 40 -17t17 -40q0 -70 50 -120t121 -50q74 0 124.5 49.5t50.5 120.5v512h-967q0 208 81 398t218.5 327t327 218
t397.5 81zM121 1024h451q12 242 70.5 443t149.5 323q-267 -71 -452 -280t-219 -486zM629 1024h790q-13 274 -83 481t-170 303q-69 12 -142 12t-142 -12q-100 -96 -170 -303t-83 -481zM1256 1790q91 -122 149.5 -323t70.5 -443h451q-34 277 -219 486t-452 280z" />
<glyph unicode="&#x2607;" horiz-adv-x="2048" d="M1647 1048q7 -32 -4 -63t-37 -51l-1024 -796q-32 -24 -70 -24q-46 0 -77 30q-31 29 -36 70.5t18 76.5l366 548l-299 75q-31 8 -53 30t-30 53q-16 67 36 113l910 796q33 28 75 28h1q47 0 80 -33.5t33 -80.5q0 -32 -15 -56l-275 -550l318 -80q31 -7 53.5 -30.5t29.5 -55.5z
M512 228l1024 796l-455 114l341 682l-910 -796l455 -114z" />
<glyph unicode="&#x1f327;" horiz-adv-x="2048" d="M1024 534q-57 -141 -57 -177q0 -32 17 -55.5t40 -23.5t40 23.5t17 55.5q0 36 -57 177zM1024 676q13 -27 32 -69.5t50.5 -129t31.5 -120.5q0 -56 -33.5 -96t-80.5 -40t-80.5 40t-33.5 96q0 34 28.5 113.5t57.5 142.5zM569 534q-57 -141 -57 -177q0 -32 17 -55.5t40 -23.5
t40 23.5t17 55.5q0 36 -57 177zM569 676q13 -27 32 -69.5t50.5 -129t31.5 -120.5q0 -56 -33.5 -96t-80.5 -40t-80.5 40t-33.5 96q0 34 28.5 113.5t56.5 142.5zM1479 534q-57 -141 -57 -177q0 -32 17 -55.5t40 -23.5t40 23.5t17 55.5q0 36 -57 177zM1479 676q13 -27 32 -69.5
t50.5 -129t31.5 -120.5q0 -56 -33.5 -96t-80.5 -40t-80.5 40t-33.5 96q0 34 28.5 113.5t56.5 142.5zM1626 1633q175 0 298.5 -123.5t123.5 -298.5t-123.5 -298t-298.5 -123h-1204q-175 0 -298.5 123t-123.5 298t123.5 298.5t298.5 123.5q83 0 162 -33q62 149 198 241.5
t302 92.5q158 0 289 -84.5t198 -222.5q36 6 55 6zM1621 903q130 0 221.5 91.5t91.5 221.5t-91.5 221.5t-221.5 91.5q-57 0 -112 -22q-47 136 -164 221.5t-264 85.5q-164 0 -289.5 -104.5t-156.5 -261.5q-91 81 -208 81q-130 0 -221.5 -91.5t-91.5 -221.5t91.5 -221.5
t221.5 -91.5h1194z" />
<glyph unicode="&#x26a0;" horiz-adv-x="2048" d="M1778 606q32 -61 40 -119t-8.5 -104.5t-53 -81.5t-94.5 -54t-130 -19h-1016q-72 0 -130 19t-94.5 54t-53 81.5t-8.5 104.5t40 119l555 1058q83 156 199 156t199 -156zM1694 403q33 55 -16 151l-556 1057q-25 49 -52 72.5t-46 23.5t-46 -23.5t-52 -72.5l-556 -1058
q-49 -95 -16 -150q38 -62 162 -62h1016q124 0 162 62zM1024 654q35 0 60 -25t25 -60q0 -36 -25 -60.5t-60 -24.5t-60 24.5t-25 60.5q0 35 25 60t60 25zM1024 740q-24 0 -40.5 16.5t-16.5 39.5v569q0 24 16.5 40.5t40.5 16.5q23 0 40 -16.5t17 -40.5v-569q0 -23 -17 -39.5
t-40 -16.5z" />
<glyph unicode="&#x26c5;" horiz-adv-x="2048" d="M1632 838q173 -2 294.5 -124.5t121.5 -294.5q0 -173 -123.5 -296t-298.5 -123h-1204q-175 0 -298.5 123t-123.5 296q0 174 123.5 296.5t298.5 122.5q83 0 162 -33q33 80 91 146q-20 5 -37 5l-231 -2q-33 2 -42 30q-8 32 18 50l188 119q58 35 58 84q2 48 -56 85l-184 124
q-27 20 -17 50t41 30h2l226 -9h1h3q71 0 99 39q27 36 7 97l-73 204q-11 29 15 49q14 9 26 9t26 -9l177 -133q37 -30 78 -30q33 0 59 21t38 59l67 205q9 27 41 27q33 0 42 -29l61 -207q11 -38 37.5 -60t59.5 -22q36 0 78 28l179 128q11 8 25 8q16 0 28 -9q25 -20 13 -50
l-78 -201q-23 -59 3 -97q29 -42 98 -42l230 2h1q15 0 26.5 -8.5t15.5 -22.5q8 -31 -19 -50l-188 -118q-57 -38 -58 -84q0 -47 56 -86l184 -123q28 -20 17 -51q-8 -27 -43 -29l-225 9h-7q-68 0 -97 -40q-18 -28 -12 -63zM651 1069q67 -3 117 -34q51 38 104 59q-20 48 -24 90
q-18 145 71 259t234 132q26 2 42 2q131 0 231 -87.5t116 -219.5q18 -160 -89 -278q40 -37 72 -83q8 33 27 58q59 83 182 88q-89 69 -89 168q2 96 94 165q-122 8 -180 92q-53 83 -21 186q-63 -42 -133 -42q-69 0 -124.5 41.5t-78.5 111.5q-25 -68 -79 -108t-123 -40
q-71 0 -138 46q31 -104 -25 -184q-58 -84 -182 -88q90 -71 88 -168t-92 -166zM1426 1047q74 97 59 216q-13 110 -96 183.5t-194 73.5q-12 0 -36 -2q-118 -14 -195 -111q-76 -96 -59 -216q4 -37 20 -77q75 24 159 24q182 0 325 -111q1 1 17 20zM1621 113q130 0 221.5 91.5
t91.5 219.5q0 129 -91.5 220t-221.5 91q-57 0 -112 -22q-47 135 -164 220t-264 85q-164 0 -289 -103.5t-157 -260.5q-91 81 -208 81q-130 0 -221.5 -91t-91.5 -220q0 -128 91.5 -219.5t221.5 -91.5h1194z" />
<glyph unicode="&#x26c6;" horiz-adv-x="2048" d="M796 655q-56 -143 -56 -177q0 -32 16.5 -56t39.5 -24t40 24t17 56q0 36 -57 177zM796 796q114 -243 114 -318q0 -57 -33.5 -97t-80.5 -40t-80 40t-33 97q0 33 28.5 112.5t56.5 142.5zM341 655q-57 -141 -57 -177q0 -32 17 -56t40 -24t40 24t17 56q0 36 -57 177zM341 796
q114 -243 114 -318q0 -57 -33.5 -97t-80.5 -40t-80 40t-33 97q0 33 28 112.5t56 142.5zM1707 655q-57 -141 -57 -177q0 -32 17 -56t40 -24t40 24t17 56q0 36 -57 177zM1707 796q113 -243 113 -318q0 -57 -33 -97t-80 -40t-80.5 40t-33.5 97q0 33 28.5 112.5t56.5 142.5z
M1252 655q-57 -141 -57 -177q0 -32 17 -56t40 -24t39.5 24t16.5 56q0 34 -56 177zM1252 796q113 -243 113 -318q0 -57 -33 -97t-80 -40t-80.5 40t-33.5 97q0 33 28.5 112.5t57.5 142.5zM1024 313q-57 -139 -57 -176q0 -33 17 -56.5t40 -23.5t40 23.5t17 56.5q0 37 -57 176z
M1024 455q114 -243 114 -318q0 -57 -33.5 -97t-80.5 -40t-80.5 40t-33.5 97q0 33 28.5 112.5t57.5 142.5zM569 313q-57 -139 -57 -176q0 -33 17 -56.5t40 -23.5t40 23.5t17 56.5q0 37 -57 176zM569 455q114 -243 114 -318q0 -57 -33.5 -97t-80.5 -40t-80.5 40t-33.5 97
q0 33 28.5 112.5t56.5 142.5zM1479 313q-57 -139 -57 -176q0 -33 17 -56.5t40 -23.5t40 23.5t17 56.5q0 37 -57 176zM1479 455q114 -243 114 -318q0 -57 -33.5 -97t-80.5 -40t-80.5 40t-33.5 97q0 33 28.5 112.5t56.5 142.5zM1626 1749q175 0 298.5 -123t123.5 -297
q0 -173 -123.5 -296t-298.5 -123h-1204q-175 0 -298.5 123t-123.5 296q0 174 123.5 297t298.5 123q83 0 162 -33q62 148 198 240t302 92q158 0 289 -83.5t198 -221.5q36 6 55 6zM1621 1023q130 0 221.5 91.5t91.5 219.5q0 129 -91.5 220t-221.5 91q-55 0 -112 -21
q-47 135 -164 219.5t-264 84.5q-164 0 -289.5 -103t-156.5 -260q-91 80 -208 80q-130 0 -221.5 -91t-91.5 -220q0 -128 91.5 -219.5t221.5 -91.5h1194z" />
<glyph unicode="&#x26c8;" horiz-adv-x="2048" d="M796 57q25 0 41 17l406 406l-341 114l162 162q16 16 16 40t-16 41t-40 17t-40 -17l-293 -293l341 -114l-276 -276q-16 -16 -16 -40t16 -40q16 -17 40 -17zM1626 1749q175 0 298.5 -123t123.5 -297q0 -173 -123.5 -296t-298.5 -123h-1204q-175 0 -298.5 123t-123.5 296
q0 174 123.5 297t298.5 123q83 0 162 -33q62 148 198 240t302 92q158 0 289 -83.5t198 -221.5q36 6 55 6zM1621 1023q130 0 221.5 91.5t91.5 219.5q0 129 -91.5 220t-221.5 91q-55 0 -112 -21q-47 135 -164 219.5t-264 84.5q-164 0 -289.5 -103t-156.5 -260q-91 80 -208 80
q-130 0 -221.5 -91t-91.5 -220q0 -128 91.5 -219.5t221.5 -91.5h1194z" />
<glyph unicode="&#x26f0;" horiz-adv-x="2048" d="M2040 769q16 -28 1 -58q-16 -28 -50 -28h-393l214 -370q18 -29 0 -57q-16 -28 -48 -28h-1707q-33 0 -49 28t0 57l851 1479q16 28 49 28q34 0 50 -28l173 -300l184 301q16 27 49 27q32 0 48 -27zM908 1650l-234 -407l117 -159l182 196h149zM1664 341l-509 882h-157
l-213 -227l-142 193l-488 -848h1509zM1533 796h357l-526 858l-167 -275z" />
<glyph unicode="&#x2744;" horiz-adv-x="2048" d="M1764 1081q23 0 39.5 -16.5t16.5 -40.5t-16.5 -40.5t-39.5 -16.5h-603l426 -426q17 -17 17 -40t-17 -40t-40 -17t-40 17l-426 426v-603q0 -23 -16.5 -39.5t-40.5 -16.5t-40.5 16.5t-16.5 39.5v603l-426 -426q-17 -17 -40 -17t-40 17t-17 40t17 40l426 426h-603
q-23 0 -39.5 16.5t-16.5 40.5t16.5 40.5t39.5 16.5h603l-426 426q-17 17 -17 40t17 40t40 17t40 -17l426 -426v603q0 23 16.5 39.5t40.5 16.5t40.5 -16.5t16.5 -39.5v-603l426 426q17 17 40 17t40 -17t17 -40t-17 -40l-426 -426h603z" />
<glyph unicode="&#xe1b0;" horiz-adv-x="2048" d="M1376 171q-15 0 -28 7l-324 179l-324 -179q-30 -17 -60 3q-29 21 -24 56l63 383l-265 271q-25 25 -13 58t45 38l364 55l163 348q13 29 51 29t51 -29l163 -348l364 -55q33 -5 45 -38t-13 -58l-265 -271l63 -383q5 -35 -24 -56q-13 -10 -32 -10zM573 891l207 -212
q21 -21 16 -49l-48 -296l248 138q28 14 56 0l249 -138l-49 296q-5 28 16 49l207 212l-284 44q-30 3 -43 32l-124 264l-124 -264q-13 -29 -43 -32zM425 1280q-6 0 -14 3l-127 71l-127 -71q-15 -8 -30 2q-14 10 -11 28l24 151l-104 106q-11 11 -6 29q5 16 23 19l142 21l64 137
q7 14 25.5 14t25.5 -14l64 -137l142 -21q18 -3 23 -19q5 -18 -7 -29l-103 -106l24 -151q3 -17 -11 -28q-8 -5 -17 -5zM284 1415q6 0 14 -4l89 -49l-17 106q-2 14 8 25l75 77l-103 16q-15 2 -21 16l-45 95l-44 -95q-6 -14 -21 -16l-103 -16l75 -77q10 -11 8 -25l-18 -106
l90 49q8 4 13 4zM1904 1280q-7 0 -13 3l-127 71l-127 -71q-16 -8 -31 2q-14 11 -11 28l24 151l-103 106q-12 11 -7 29q5 16 23 19l142 21l64 137q7 14 25.5 14t25.5 -14l64 -137l142 -21q18 -3 23 -19q5 -18 -6 -29l-104 -106l24 -151q3 -18 -11 -28q-8 -5 -17 -5z
M1764 1415q5 0 13 -4l90 -49l-18 106q-2 14 8 25l75 77l-103 16q-15 2 -21 16l-44 95l-45 -95q-6 -14 -21 -16l-103 -16l75 -77q10 -11 8 -25l-17 -106l89 49q8 4 14 4z" />
<glyph unicode="&#xe671;" horiz-adv-x="2048" d="M1024 1363q-25 -36 -47 -70.5t-37.5 -60t-28.5 -48t-21.5 -37.5t-14 -26t-7.5 -17l-3 -5q-24 -53 -15 -107t48 -93q51 -49 126 -49t126 49q39 39 48 92.5t-14 104.5q-61 121 -160 267zM1024 1559q93 -127 159 -231t85 -144l20 -41q38 -83 22 -171.5t-80 -152.5
q-82 -83 -206 -83t-206 83q-64 64 -80 152.5t22 171.5q6 15 21 44.5t82.5 137t160.5 234.5zM1064 985q16 17 16 40t-16 40t-40 17t-40 -17t-16 -40t16 -40t40 -17t40 17zM1024 1707q-138 0 -264.5 -54.5t-218 -146t-146 -218t-54.5 -264.5t54.5 -264.5t146 -218t218 -146
t264.5 -54.5t264.5 54.5t218 146t146 218t54.5 264.5t-54.5 264.5t-146 218t-218 146t-264.5 54.5zM1024 1820q162 0 309.5 -63t254 -169.5t169.5 -254t63 -309.5t-63 -309.5t-169.5 -254t-254 -169.5t-309.5 -63t-309.5 63t-254 169.5t-169.5 254t-63 309.5t63 309.5
t169.5 254t254 169.5t309.5 63z" />
<glyph unicode="&#x1f321;" horiz-adv-x="2048" d="M1081 552q57 -35 57 -97q0 -47 -33.5 -80.5t-80.5 -33.5t-80.5 33.5t-33.5 80.5q0 62 57 97v671q0 24 16.5 40.5t40.5 16.5t40.5 -16.5t16.5 -40.5v-671zM1308 733q114 -114 114 -278q0 -165 -116.5 -281.5t-281.5 -116.5t-281.5 116.5t-116.5 281.5q0 164 114 278v974
q0 118 83 201t201 83t201 -83t83 -201v-974zM1024 171q118 0 201 83t83 201q0 68 -30.5 127.5t-82.5 98.5v1026q0 70 -50 120t-121 50t-121 -50t-50 -120v-1026q-52 -39 -82.5 -98.5t-30.5 -127.5q0 -118 83 -201t201 -83z" />
<glyph unicode="&#xf205;" horiz-adv-x="2048" d="M1081 552q57 -35 57 -97q0 -47 -33.5 -80.5t-80.5 -33.5t-80.5 33.5t-33.5 80.5q0 62 57 97v1155q0 23 16.5 40t40.5 17t40.5 -17t16.5 -40v-1155zM1308 733q114 -114 114 -278q0 -165 -116.5 -281.5t-281.5 -116.5t-281.5 116.5t-116.5 281.5q0 164 114 278v974
q0 118 83 201t201 83t201 -83t83 -201v-974zM1024 171q118 0 201 83t83 201q0 68 -30.5 127.5t-82.5 98.5v1026q0 70 -50 120t-121 50t-121 -50t-50 -120v-1026q-52 -39 -82.5 -98.5t-30.5 -127.5q0 -118 83 -201t201 -83z" />
<glyph unicode="&#xf206;" horiz-adv-x="2048" d="M1081 552q57 -35 57 -97q0 -47 -33.5 -80.5t-80.5 -33.5t-80.5 33.5t-33.5 80.5q0 62 57 97v984q0 24 16.5 40.5t40.5 16.5t40.5 -16.5t16.5 -40.5v-984zM1308 733q114 -114 114 -278q0 -165 -116.5 -281.5t-281.5 -116.5t-281.5 116.5t-116.5 281.5q0 164 114 278v974
q0 118 83 201t201 83t201 -83t83 -201v-974zM1024 171q118 0 201 83t83 201q0 68 -30.5 127.5t-82.5 98.5v1026q0 70 -50 120t-121 50t-121 -50t-50 -120v-1026q-52 -39 -82.5 -98.5t-30.5 -127.5q0 -118 83 -201t201 -83z" />
<glyph unicode="&#xf208;" horiz-adv-x="2048" d="M1081 552q57 -35 57 -97q0 -47 -33.5 -80.5t-80.5 -33.5t-80.5 33.5t-33.5 80.5q0 62 57 97v372q0 24 16.5 40.5t40.5 16.5t40.5 -16.5t16.5 -40.5v-372zM1308 733q114 -114 114 -278q0 -165 -116.5 -281.5t-281.5 -116.5t-281.5 116.5t-116.5 281.5q0 164 114 278v974
q0 118 83 201t201 83t201 -83t83 -201v-974zM1024 171q118 0 201 83t83 201q0 68 -30.5 127.5t-82.5 98.5v1026q0 70 -50 120t-121 50t-121 -50t-50 -120v-1026q-52 -39 -82.5 -98.5t-30.5 -127.5q0 -118 83 -201t201 -83z" />
<glyph unicode="&#xf209;" horiz-adv-x="2048" d="M1138 455q0 47 -33.5 80.5t-80.5 33.5t-80.5 -33.5t-33.5 -80.5t33.5 -80.5t80.5 -33.5t80.5 33.5t33.5 80.5zM1308 733q114 -114 114 -278q0 -165 -116.5 -281.5t-281.5 -116.5t-281.5 116.5t-116.5 281.5q0 164 114 278v974q0 118 83 201t201 83t201 -83t83 -201v-974z
M1024 171q118 0 201 83t83 201q0 68 -30.5 127.5t-82.5 98.5v1026q0 70 -50 120t-121 50t-121 -50t-50 -120v-1026q-52 -39 -82.5 -98.5t-30.5 -127.5q0 -118 83 -201t201 -83z" />
<glyph unicode="&#xf20a;" horiz-adv-x="2048" d="M1707 551q57 -35 57 -96q0 -47 -33.5 -80.5t-80.5 -33.5t-80.5 33.5t-33.5 80.5q0 61 57 96v1156q0 23 16.5 39.5t40.5 16.5q23 0 40 -16.5t17 -39.5v-1156zM840 1502q-127 -29 -196.5 -140t-40.5 -238t140 -196.5t238 -40.5q127 28 196.5 139t40.5 239
q-29 127 -140 196.5t-238 40.5zM830 1549q146 34 274 -46.5t162 -227.5q33 -146 -47.5 -274t-226.5 -162q-147 -33 -275 47.5t-161 226.5q-34 147 46.5 275t227.5 161zM1934 733q114 -116 114 -278q0 -164 -117 -281t-281 -117q-165 0 -281.5 117t-116.5 281q0 141 86 246
l-13 6q-30 13 -61 13q-13 0 -25 -3q-34 -8 -55.5 -35.5t-25.5 -70.5l-17 -228q-1 -14 -11.5 -25.5t-24.5 -15.5q-4 -1 -10 -1q-26 0 -40 23l-114 197q-37 64 -97 64q-7 0 -23 -4q-40 -8 -72 -46l-154 -177q-9 -12 -24 -15q-3 -1 -10 -1q-12 0 -19 4q-32 15 -27 49l30 225
q9 66 -27 99q-26 24 -70 24q-11 0 -41 -6l-235 -60h-10q-29 0 -41 22q-18 29 6 55l163 169q50 51 39 101q-13 48 -79 74l-220 81q-32 10 -30 46q3 35 35 42h1l235 47q76 16 95 66q19 44 -17 101l-125 190q-19 30 3 55q10 13 24 16q2 0 5.5 0.5t5.5 0.5q10 0 18 -5l215 -92
q32 -13 61 -13q9 0 25 2q34 8 56 36t25 71l17 226q4 30 37 39q2 0 6.5 0.5t5.5 0.5q26 0 38 -20l114 -197q34 -63 96 -63q7 0 23 2q40 10 73 47l154 178q6 10 23 14q4 2 11 2q9 0 19 -5q31 -14 26 -48l-30 -226q-8 -67 28 -98q23 -21 62 -23v96q0 118 83.5 201t201.5 83
t201 -83t83 -201v-974zM1264 834q49 0 101 -22v684q-84 5 -139 54q-39 35 -55.5 86.5t-7.5 111.5l-5 -5q-57 -66 -134 -83q-19 -6 -48 -6q-59 0 -110.5 31.5t-85.5 88.5l-3 8l-1 -9q-6 -79 -52 -136t-118 -73q-19 -5 -50 -5q-51 0 -106 22l-6 3q69 -105 28 -206
q-39 -103 -176 -134l-2 -1q58 -23 96 -63t49 -91q25 -107 -65 -203l6 1q42 10 68 10q85 0 147 -54q80 -77 63 -198l4 5q57 65 134 83q32 6 48 6q60 0 111.5 -31.5t84.5 -88.5l3 -8l1 8q6 80 52 136.5t118 72.5q24 6 50 6zM1650 171q118 0 201 83t83 201q0 68 -30.5 127
t-83.5 100v1025q0 71 -50 120.5t-120 49.5q-71 0 -121 -49.5t-50 -120.5v-1025q-52 -41 -83 -100.5t-31 -126.5q0 -118 83.5 -201t201.5 -83z" />
<glyph unicode="&#xf20b;" horiz-adv-x="2048" d="M1764 455q0 47 -33.5 80.5t-80.5 33.5t-80.5 -33.5t-33.5 -80.5t33.5 -80.5t80.5 -33.5t80.5 33.5t33.5 80.5zM840 1502q-127 -29 -196.5 -140t-40.5 -238t140 -196.5t238 -40.5q127 28 196.5 139t40.5 239q-29 127 -140 196.5t-238 40.5zM830 1549q146 34 274 -46.5
t162 -227.5q33 -146 -47.5 -274t-226.5 -162q-147 -33 -275 47.5t-161 226.5q-34 147 46.5 275t227.5 161zM1934 733q114 -116 114 -278q0 -164 -117 -281t-281 -117q-165 0 -281.5 117t-116.5 281q0 141 86 246l-13 6q-30 13 -61 13q-13 0 -25 -3q-34 -8 -55.5 -35.5
t-25.5 -70.5l-17 -228q-1 -14 -11.5 -25.5t-24.5 -15.5q-4 -1 -10 -1q-26 0 -40 23l-114 197q-37 64 -97 64q-7 0 -23 -4q-40 -8 -72 -46l-154 -177q-9 -12 -24 -15q-3 -1 -10 -1q-12 0 -19 4q-32 15 -27 49l30 225q9 66 -27 99q-26 24 -70 24q-11 0 -41 -6l-235 -60h-10
q-29 0 -41 22q-18 29 6 55l163 169q50 51 39 101q-13 48 -79 74l-220 81q-32 10 -30 46q3 35 35 42h1l235 47q76 16 95 66q19 44 -17 101l-125 190q-19 30 3 55q10 13 24 16q2 0 5.5 0.5t5.5 0.5q10 0 18 -5l215 -92q32 -13 61 -13q9 0 25 2q34 8 56 36t25 71l17 226
q4 30 37 39q2 0 6.5 0.5t5.5 0.5q26 0 38 -20l114 -197q34 -63 96 -63q7 0 23 2q40 10 73 47l154 178q6 10 23 14q4 2 11 2q9 0 19 -5q31 -14 26 -48l-30 -226q-8 -67 28 -98q23 -21 62 -23v96q0 118 83.5 201t201.5 83t201 -83t83 -201v-974zM1264 834q49 0 101 -22v684
q-84 5 -139 54q-39 35 -55.5 86.5t-7.5 111.5l-5 -5q-57 -66 -134 -83q-19 -6 -48 -6q-59 0 -110.5 31.5t-85.5 88.5l-3 8l-1 -9q-6 -79 -52 -136t-118 -73q-19 -5 -50 -5q-51 0 -106 22l-6 3q69 -105 28 -206q-39 -103 -176 -134l-2 -1q58 -23 96 -63t49 -91
q25 -107 -65 -203l6 1q42 10 68 10q85 0 147 -54q80 -77 63 -198l4 5q57 65 134 83q32 6 48 6q60 0 111.5 -31.5t84.5 -88.5l3 -8l1 8q6 80 52 136.5t118 72.5q24 6 50 6zM1650 171q118 0 201 83t83 201q0 68 -30.5 127t-83.5 100v1025q0 71 -50 120.5t-120 49.5
q-71 0 -121 -49.5t-50 -120.5v-1025q-52 -41 -83 -100.5t-31 -126.5q0 -118 83.5 -201t201.5 -83z" />
<glyph unicode="&#xf20c;" horiz-adv-x="2048" d="M1081 1536q23 0 40 -16.5t17 -40.5q0 -23 -17 -40t-40 -17h-375l265 -265q17 -17 17 -40t-17 -40t-40 -17t-40 17l-265 265v-375q0 -23 -17 -40t-40 -17q-24 0 -40.5 17t-16.5 40v375l-265 -265q-17 -17 -40 -17t-40 17t-17 40t17 40l265 265h-375q-24 0 -40.5 17
t-16.5 40q0 24 16.5 40.5t40.5 16.5h375l-265 265q-17 17 -17 40t17 40t40.5 17t39.5 -17l265 -265v375q0 24 16.5 40.5t40.5 16.5q23 0 40 -16.5t17 -40.5v-375l265 265q17 17 40 17t40 -17t17 -40t-17 -40l-265 -265h375zM1764 455q0 47 -33.5 80.5t-80.5 33.5
t-80.5 -33.5t-33.5 -80.5t33.5 -80.5t80.5 -33.5t80.5 33.5t33.5 80.5zM1934 733q114 -116 114 -278q0 -165 -116.5 -281.5t-281.5 -116.5t-281.5 116.5t-116.5 281.5q0 163 113 278v974q0 118 83.5 201t201.5 83t201 -83t83 -201v-974zM1650 171q118 0 201 83t83 201
q0 68 -30.5 127.5t-83.5 98.5v1026q0 71 -50 120.5t-120 49.5q-71 0 -121 -49.5t-50 -120.5v-1026q-53 -39 -83.5 -98.5t-30.5 -127.5q0 -118 83.5 -201t201.5 -83z" />
<glyph unicode="&#x1f32b;" horiz-adv-x="2048" d="M1991 512q24 0 40.5 -16.5t16.5 -40.5q0 -23 -16.5 -40t-40.5 -17h-1934q-24 0 -40.5 17t-16.5 40q0 24 16.5 40.5t40.5 16.5h1934zM1991 740q24 0 40.5 -17t16.5 -40q0 -24 -16.5 -40.5t-40.5 -16.5h-1934q-24 0 -40.5 16.5t-16.5 40.5q0 23 16.5 40t40.5 17h1934z
M1991 967q24 0 40.5 -16.5t16.5 -40.5q0 -23 -16.5 -40t-40.5 -17h-1934q-24 0 -40.5 17t-16.5 40q0 24 16.5 40.5t40.5 16.5h1934zM1991 1195q24 0 40.5 -17t16.5 -40q0 -24 -16.5 -40.5t-40.5 -16.5h-1934q-24 0 -40.5 16.5t-16.5 40.5q0 23 16.5 40t40.5 17h1934z
M1991 1422q24 0 40.5 -16.5t16.5 -40.5q0 -23 -16.5 -40t-40.5 -17h-1934q-24 0 -40.5 17t-16.5 40q0 24 16.5 40.5t40.5 16.5h1934zM57 1536q-24 0 -40.5 16.5t-16.5 40.5q0 23 16.5 40t40.5 17h1934q24 0 40.5 -17t16.5 -40q0 -24 -16.5 -40.5t-40.5 -16.5h-1934z" />
<glyph unicode="&#xf212;" horiz-adv-x="2048" d="M1308 796q118 0 201.5 -83.5t83.5 -200.5q0 -118 -83.5 -201.5t-201.5 -83.5q-117 0 -200.5 83.5t-83.5 201.5h114q0 -71 49.5 -121t120.5 -50t121 50t50 121q0 70 -50 120t-121 50h-1251q-24 0 -40.5 17t-16.5 40t16.5 40t40.5 17h1251zM1820 1365q94 0 161 -66.5
t67 -161.5q0 -94 -67 -160.5t-161 -66.5h-1763q-24 0 -40.5 16.5t-16.5 40.5q0 23 16.5 40t40.5 17h1763q47 0 80.5 33t33.5 80t-33.5 80.5t-80.5 33.5t-80 -33.5t-33 -80.5h-114q0 94 66.5 161t160.5 67zM57 1137q-24 0 -40.5 17t-16.5 40q0 24 16.5 40.5t40.5 16.5h967
q70 0 120.5 50.5t50.5 120.5t-50.5 120.5t-120.5 50.5t-120.5 -50.5t-50.5 -120.5h-113q0 118 83 201t201 83t201 -83t83 -201t-83 -201.5t-201 -83.5h-967z" />
<glyph unicode="&#x1f32a;" horiz-adv-x="2048" d="M284 1764q-23 0 -39.5 16.5t-16.5 39.5q0 24 16.5 40.5t39.5 16.5h1480q23 0 39.5 -16.5t16.5 -40.5q0 -23 -16.5 -39.5t-39.5 -16.5h-1480zM1650 1593q0 -24 -17 -40.5t-40 -16.5h-1309q-23 0 -39.5 16.5t-16.5 40.5q0 23 16.5 40t39.5 17h1309q23 0 40 -17t17 -40z
M1536 1365q0 -23 -16.5 -40t-40.5 -17h-1024q-23 0 -40 17t-17 40q0 24 17 40.5t40 16.5h1024q24 0 40.5 -16.5t16.5 -40.5zM1650 1138q0 -24 -17 -40.5t-40 -16.5h-910q-24 0 -40.5 16.5t-16.5 40.5q0 23 16.5 40t40.5 17h910q23 0 40 -17t17 -40zM1764 967
q23 0 39.5 -16.5t16.5 -40.5q0 -23 -16.5 -40t-39.5 -17h-854q-23 0 -40 17t-17 40q0 24 17 40.5t40 16.5h854zM1593 740q23 0 40 -17t17 -40q0 -24 -17 -40.5t-40 -16.5h-569q-24 0 -40.5 16.5t-16.5 40.5q0 23 16.5 40t40.5 17h569zM1365 512q24 0 40.5 -16.5t16.5 -40.5
q0 -23 -16.5 -40t-40.5 -17h-341q-24 0 -40.5 17t-16.5 40q0 24 16.5 40.5t40.5 16.5h341zM1024 284q24 0 40.5 -16.5t16.5 -39.5q0 -24 -16.5 -40.5t-40.5 -16.5h-114q-23 0 -40 16.5t-17 40.5q0 23 17 39.5t40 16.5h114z" />
<glyph unicode="&#xf220;" horiz-adv-x="2048" d="M2048 1212q0 -89 -34.5 -167t-96.5 -135q131 -136 131 -322q0 -196 -143 -335t-344 -139h-1021q-147 0 -271 70t-196.5 191t-72.5 264q0 169 99 303q-99 117 -99 270q0 174 123.5 297.5t298.5 123.5q82 0 162 -32q62 149 198 241t302 92q159 0 289.5 -84.5t196.5 -222.5
q6 1 17.5 2.5t21 2.5t17.5 1q175 0 298.5 -123.5t123.5 -297.5zM1934 588q0 124 -79 220.5t-204 127.5l-40 10l-3 41q-14 162 -135 270t-287 108q-145 0 -259 -85.5t-152 -220.5l-17 -60l-58 23q-80 30 -160 30q-176 0 -301 -121t-125 -292q0 -170 125 -290.5t301 -120.5
h1021q155 0 264 105.5t109 254.5zM1717 1035q55 -17 110 -52q107 92 107 233q0 130 -91.5 221.5t-221.5 91.5q-55 0 -112 -21q-47 135 -164 220.5t-264 85.5q-164 0 -289 -104t-157 -262q-89 81 -208 81q-130 0 -221.5 -91.5t-91.5 -221.5q0 -104 64 -187q153 137 362 137
q69 0 145 -19q61 149 198 240.5t303 91.5q201 0 350.5 -126t180.5 -318z" />
<glyph unicode="&#xf221;" horiz-adv-x="2048" d="M1739 823q135 -36 222 -148.5t87 -255.5q0 -173 -123.5 -296t-298.5 -123h-1204q-175 0 -298.5 123t-123.5 296q0 174 123.5 296.5t298.5 122.5q8 0 56 -5q52 105 142 181t204 106q-76 144 -76 310q0 197 102 361t279 251q34 18 66 -11q28 -28 10 -65q-59 -121 -59 -251
q0 -116 45 -221t121.5 -181.5t181.5 -121.5t221 -45q133 0 251 59q38 17 65 -11q29 -31 11 -65q-50 -101 -128 -179t-175 -127zM1046 1849q-88 -80 -136.5 -189t-48.5 -230q0 -156 85 -292h18q150 0 276 -75.5t196 -201.5q119 1 226 49.5t187 135.5q-60 -14 -134 -14
q-185 0 -342.5 91.5t-249 249t-91.5 342.5q0 71 14 134zM1621 113q130 0 221.5 91.5t91.5 219.5q0 129 -91.5 220t-221.5 91q-117 0 -208 -81q-32 157 -157 260.5t-289 103.5q-147 0 -264 -85t-164 -220q-55 22 -112 22q-130 0 -221.5 -91t-91.5 -220q0 -128 91.5 -219.5
t221.5 -91.5h1194z" />
<glyph unicode="&#x1f325;" horiz-adv-x="2048" d="M1710 893q147 -40 242.5 -161t95.5 -277q0 -188 -133.5 -321.5t-321.5 -133.5h-797q-188 0 -321.5 133.5t-133.5 321.5q0 100 42 188.5t115 152.5h-157q-140 0 -240.5 100t-100.5 239q0 141 100.5 241.5t240.5 100.5q32 0 79 -9q48 58 117 91.5t146 33.5q49 0 96 -14
q7 30 -6 67l-73 203q-5 13 -0.5 27.5t16.5 22.5q11 9 25 9q15 0 26 -9l177 -133q39 -30 79 -30q69 0 97 80l67 205q7 27 41 27q33 0 42 -28l60 -208q12 -39 38 -60t60 -21q38 0 76 27l181 128q11 8 25 8q15 0 27 -9q26 -19 14 -50l-78 -201q-23 -59 3 -97q28 -42 97 -42
l231 2h1q14 0 25.5 -8.5t15.5 -21.5q8 -33 -18 -50l-188 -119q-56 -37 -58 -84q0 -48 55 -85l185 -124q28 -21 17 -50q-9 -30 -43 -30l-226 9h-6q-43 0 -70 -16q8 -9 16 -25zM885 1668q22 -78 -3 -140q45 -31 76 -76q87 98 217 116q28 2 42 2q131 0 231 -87.5t116 -219.5
q12 -99 -29 -187q46 -26 90 -69q53 39 131 41q-43 33 -66 76.5t-22 90.5q2 99 92 166q-121 8 -179 92q-55 81 -20 185q-66 -41 -133 -41q-69 0 -124.5 41.5t-79.5 111.5q-25 -68 -79 -108t-122 -40q-72 0 -138 46zM1484 1101q33 75 24 155q-14 110 -97 183.5t-194 73.5
q-11 0 -35 -2q-119 -14 -194 -109q14 -24 21 -52q79 -23 139 -81.5t87 -137.5q54 7 73 7q93 0 176 -37zM341 910h577q73 127 205 188q-23 68 -81 111t-132 43q0 94 -66.5 160.5t-160.5 66.5q-75 0 -133.5 -43t-81.5 -112q-58 39 -127 39q-94 0 -160.5 -67t-66.5 -161
t66.5 -159.5t160.5 -65.5zM1593 114q142 0 241.5 99.5t99.5 241.5q0 131 -87.5 227.5t-216.5 110.5q-35 102 -123 166.5t-199 64.5q-124 0 -217.5 -79.5t-116.5 -199.5q-83 51 -178 51q-141 0 -241 -99.5t-100 -241.5t100 -241.5t241 -99.5h797z" />
<glyph unicode="&#xf223;" horiz-adv-x="2048" d="M1710 893q147 -40 242.5 -161t95.5 -277q0 -188 -133.5 -321.5t-321.5 -133.5h-797q-188 0 -321.5 133.5t-133.5 321.5q0 100 42 188.5t115 152.5h-157q-141 0 -241 99.5t-100 239.5q0 141 100 241.5t241 100.5q30 0 79 -9q47 58 116 91.5t146 33.5q72 0 136 -28
q26 159 128 285t255 187q0 1 7.5 3.5t8.5 2.5q10 5 25 5q39 0 61 -31q15 -19 15 -44.5t-15 -45.5q-97 -123 -86 -278q14 -171 142 -279q113 -98 265 -98q21 0 32 1q154 11 263 126q21 23 54 23q20 0 35 -8q23 -12 33.5 -34.5t5.5 -47.5q-30 -144 -119 -259t-219 -178
q0 -1 0.5 -1t0.5 -1zM1143 1878q-97 -66 -154.5 -167.5t-64.5 -217.5q60 -63 85 -143q79 -23 139 -81.5t86 -137.5q56 7 74 7q97 0 184 -39t151 -109q83 37 148 100t103 145q-102 -65 -230 -76q-12 -1 -40 -1q-191 0 -338 125q-80 68 -127 160.5t-55 196.5q-9 124 39 238z
M341 910h577q73 127 205 188q-23 68 -81 111t-132 43q0 94 -67 160.5t-161 66.5q-74 0 -132.5 -43t-82.5 -112q-57 39 -126 39q-94 0 -160.5 -67t-66.5 -161t66.5 -159.5t160.5 -65.5zM1593 114q142 0 241.5 99.5t99.5 241.5q0 131 -87.5 227.5t-216.5 110.5
q-35 102 -123 166.5t-199 64.5q-124 0 -218 -79.5t-116 -199.5q-84 51 -178 51q-142 0 -241.5 -99.5t-99.5 -241.5t99.5 -241.5t241.5 -99.5h797z" />
<glyph unicode="&#x1f326;" horiz-adv-x="2048" d="M853 313q-57 -139 -57 -177q0 -32 17 -55.5t40 -23.5t40 23.5t17 55.5q0 38 -57 177zM853 455q13 -27 32 -69.5t50.5 -129t31.5 -120.5q0 -56 -33.5 -96t-80.5 -40t-80 40t-33 96q0 34 28 113.5t56 142.5zM398 313q-57 -139 -57 -177q0 -32 17 -55.5t40 -23.5t40 23.5
t17 55.5q0 38 -57 177zM398 455q13 -27 32 -69.5t50.5 -129t31.5 -120.5q0 -56 -33.5 -96t-80.5 -40t-80.5 40t-33.5 96q0 34 28.5 113.5t57.5 142.5zM1308 313q-56 -141 -56 -177q0 -32 16.5 -55.5t39.5 -23.5t40 23.5t17 55.5q0 38 -57 177zM1308 455q13 -27 32 -69.5
t50.5 -129t31.5 -120.5q0 -56 -33.5 -96t-80.5 -40t-80 40t-33 96q0 34 28.5 113.5t56.5 142.5zM1870 1408q-48 -29 -51 -67q-2 -38 42 -71l145 -110q22 -17 13 -41q-11 -23 -37 -23h-1l-183 18h-15q-48 0 -72 -27q-9 -13 -15 -27v-1q11 -44 11 -89q0 -166 -120.5 -283.5
t-290.5 -117.5h-841q-188 0 -321.5 130t-133.5 314q0 182 133.5 312t321.5 130q60 0 113 -13q53 122 167 197t252 75q22 0 34 -3q0 13 -5 30l-50 169q-8 25 15 40q9 6 19 6q13 0 23 -9l139 -116q30 -29 67 -29q53 0 78 62l64 164q8 20 32 20q30 0 35 -25l41 -172
q7 -33 29 -52t52 -19q32 0 58 18l154 98q7 4 19 4q14 0 23 -8q19 -16 9 -42l-73 -160q-21 -47 -2 -80q19 -34 77 -39l189 -8q26 -2 33 -27q5 -26 -17 -40zM1296 683q123 0 210 84t87 203q0 98 -62.5 175t-162.5 101l-40 10l-4 41q-11 129 -107.5 216t-229.5 87
q-115 0 -206.5 -68.5t-122.5 -176.5l-17 -60l-59 23q-60 23 -127 23q-141 0 -241 -96t-100 -232t100 -233t241 -97h841zM1541 1289q17 35 18 70q6 82 -49 145q-52 63 -137 68q-4 2 -15 2q-17 0 -37 -5q88 -93 111 -223q62 -22 109 -57zM1760 1220q-51 57 -45 129
q3 68 63 123q-83 20 -121 84q-36 61 -19 134q-38 -16 -78 -16q-57 0 -103 30.5t-69 84.5q-27 -43 -68.5 -67.5t-90.5 -24.5q-53 0 -103 28q3 -18 -1 -33q85 -26 152 -81q38 15 81 15h19q105 -7 173.5 -86.5t61.5 -184.5q-3 -54 -29 -100q42 -39 67 -82q44 39 110 47z" />
<glyph unicode="&#xf226;" horiz-adv-x="2048" d="M853 313q-57 -139 -57 -177q0 -32 17 -55.5t40 -23.5t40 23.5t17 55.5q0 38 -57 177zM853 455q13 -27 32 -69.5t50.5 -129t31.5 -120.5q0 -56 -33.5 -96t-80.5 -40t-80 40t-33 96q0 34 28 113.5t56 142.5zM398 313q-57 -139 -57 -177q0 -32 17 -55.5t40 -23.5t40 23.5
t17 55.5q0 38 -57 177zM398 455q13 -27 32 -69.5t50.5 -129t31.5 -120.5q0 -56 -33.5 -96t-80.5 -40t-80.5 40t-33.5 96q0 34 28.5 113.5t57.5 142.5zM1308 313q-56 -141 -56 -177q0 -32 16.5 -55.5t39.5 -23.5t40 23.5t17 55.5q0 38 -57 177zM1308 455q13 -27 32 -69.5
t50.5 -129t31.5 -120.5q0 -56 -33.5 -96t-80.5 -40t-80 40t-33 96q0 34 28.5 113.5t56.5 142.5zM2036 1409q25 -34 3 -66q-63 -95 -161 -149t-210 -56q39 -80 39 -168q0 -166 -120.5 -283.5t-290.5 -117.5h-841q-188 0 -321.5 130t-133.5 314q0 182 133.5 312t321.5 130
q60 0 113 -13q53 122 167 197t252 75q117 0 223 -57q5 45 15 74q45 142 165 229.5t270 87.5h13q17 -1 31.5 -12t19.5 -29q8 -40 -25 -60q-101 -61 -134 -166q-37 -120 21 -226q56 -109 174 -146q105 -34 211 13q37 18 65 -13zM1296 683q123 0 210 84t87 203q0 98 -62.5 175
t-162.5 101l-40 10l-4 41q-11 129 -107.5 216t-229.5 87q-115 0 -206.5 -68.5t-122.5 -176.5l-17 -60l-59 23q-60 23 -127 23q-141 0 -241 -96t-100 -232t100 -233t241 -97h841zM1581 1256q127 -29 240 31q-48 3 -94 18q-77 24 -138.5 75.5t-99.5 123.5q-78 151 -27 310
q12 41 39 86q-62 -31 -106.5 -83t-65.5 -119q-19 -59 -14 -123q95 -96 117 -229q85 -28 148 -90h1z" />
<glyph unicode="&#xf227;" horiz-adv-x="2048" d="M1479 500l-52 -158l52 -104l52 104zM1479 679l114 -341l-114 -228l-114 228zM1024 500l-52 -158l52 -104l52 104zM1024 679l114 -341l-114 -228l-114 228zM569 500l-52 -158l52 -104l52 104zM569 679l114 -341l-114 -228l-114 228zM1626 1636q175 0 298.5 -123
t123.5 -298t-123.5 -298.5t-298.5 -123.5h-1204q-175 0 -298.5 123.5t-123.5 298.5t123.5 298t298.5 123q86 0 162 -32q62 149 198 241.5t302 92.5q158 0 289 -84.5t198 -222.5q45 5 55 5zM1621 907q130 0 221.5 91.5t91.5 221.5t-91.5 221.5t-221.5 91.5q-57 0 -112 -22
q-47 136 -164 221t-264 85q-164 0 -289.5 -104t-156.5 -261q-91 81 -208 81q-130 0 -221.5 -91.5t-91.5 -221.5t91.5 -221.5t221.5 -91.5h1194z" />
<glyph unicode="&#xf228;" horiz-adv-x="2048" d="M1479 389l-52 -157l52 -105l52 105zM1479 569l114 -341l-114 -228l-114 228zM1024 389l-52 -157l52 -105l52 105zM1024 569l114 -341l-114 -228l-114 228zM569 389l-52 -157l52 -105l52 105zM569 569l114 -341l-114 -228l-114 228zM341 616l-52 -156l52 -105l53 105z
M341 796l114 -341l-114 -227l-113 227zM796 616l-52 -156l52 -105l53 105zM796 796l114 -341l-114 -227l-113 227zM1252 616l-53 -156l53 -105l52 105zM1252 796l113 -341l-113 -227l-114 227zM1707 616l-53 -156l53 -105l52 105zM1707 796l113 -341l-113 -227l-114 227z
M1626 1749q175 0 298.5 -123t123.5 -297q0 -173 -123.5 -296t-298.5 -123h-1204q-175 0 -298.5 123t-123.5 296q0 174 123.5 297t298.5 123q83 0 162 -33q62 148 198 240t302 92q158 0 289 -83.5t198 -221.5q36 6 55 6zM1621 1023q130 0 221.5 91.5t91.5 219.5
q0 129 -91.5 220t-221.5 91q-55 0 -112 -21q-47 135 -164 219.5t-264 84.5q-164 0 -289.5 -103t-156.5 -260q-91 80 -208 80q-130 0 -221.5 -91t-91.5 -220q0 -128 91.5 -219.5t221.5 -91.5h1194z" />
<glyph unicode="&#xf229;" horiz-adv-x="2048" d="M1309 328l-51 -100l51 -101l50 101zM1309 455l113 -227l-113 -228l-114 228zM853 328l-50 -100l50 -101l51 101zM853 455l114 -227l-114 -228l-113 228zM398 328l-50 -100l50 -101l51 101zM398 455l114 -227l-114 -228l-113 228zM1871 1408q-47 -28 -52 -67
q-2 -39 43 -71l144 -110q22 -17 13 -41q-11 -23 -37 -23h-1l-183 18h-15q-48 0 -72 -27q-9 -14 -14 -27v-1q10 -47 10 -89q0 -166 -120.5 -283.5t-290.5 -117.5h-841q-188 0 -321.5 130t-133.5 314q0 182 133.5 312t321.5 130q60 0 113 -13q53 122 167 197t252 75
q22 0 34 -3q0 13 -5 30l-50 169q-7 26 15 40q9 6 19 6q13 0 23 -9l139 -116q30 -29 67 -29q53 0 78 62l64 164q8 20 32 20q30 0 35 -25l41 -172q8 -33 30 -52t51 -19q32 0 58 18l154 98q7 4 19 4q14 0 23 -8q21 -17 9 -42l-73 -160q-21 -47 -2 -80q19 -34 77 -39l189 -8
q26 -2 33 -27q5 -26 -17 -40zM1296 683q123 0 210 84t87 203q0 98 -62.5 175t-162.5 101l-40 10l-4 41q-10 129 -107 216t-230 87q-115 0 -206.5 -68.5t-122.5 -176.5l-17 -60l-58 23q-60 23 -128 23q-141 0 -241 -96t-100 -232t100 -233t241 -97h841zM1541 1289
q17 35 18 70q6 82 -49 145q-52 63 -137 68q-4 2 -14 2q-16 0 -38 -5q87 -92 112 -223q60 -21 108 -57zM1760 1220q-51 57 -45 129q3 68 63 123q-83 20 -121 84q-36 61 -18 134q-39 -16 -79 -16q-57 0 -103 30.5t-69 84.5q-27 -43 -68.5 -67.5t-90.5 -24.5q-54 0 -102 28
q2 -19 -2 -33q85 -26 152 -81q38 15 82 15h18q105 -7 173.5 -86.5t61.5 -184.5q-3 -54 -29 -100q42 -39 67 -82q46 40 110 47z" />
<glyph unicode="&#xf22a;" horiz-adv-x="2048" d="M1308 328l-50 -100l50 -101l51 101zM1308 455l114 -227l-114 -228l-113 228zM853 328l-50 -100l50 -101l51 101zM853 455l114 -227l-114 -228l-113 228zM398 328l-50 -100l50 -101l50 101zM398 455l114 -227l-114 -228l-114 228zM2036 1409q25 -34 3 -66
q-63 -95 -161 -149t-210 -56q39 -80 39 -168q0 -166 -120.5 -283.5t-290.5 -117.5h-841q-188 0 -321.5 130t-133.5 314q0 182 133.5 312t321.5 130q60 0 113 -13q53 122 167 197t252 75q117 0 223 -57q5 45 15 74q45 142 165 229.5t270 87.5h13q17 -1 31.5 -12t19.5 -29
q8 -40 -25 -60q-101 -61 -134 -166q-37 -120 21 -226q56 -109 174 -146q105 -34 211 13q37 18 65 -13zM1296 683q123 0 210 84t87 203q0 98 -62.5 175t-162.5 101l-40 10l-4 41q-11 129 -107.5 216t-229.5 87q-115 0 -206.5 -68.5t-122.5 -176.5l-17 -60l-59 23
q-60 23 -127 23q-141 0 -241 -96t-100 -232t100 -233t241 -97h841zM1581 1256q127 -29 240 31q-48 3 -94 18q-77 24 -138.5 75.5t-99.5 123.5q-78 151 -27 310q12 41 39 86q-62 -31 -106.5 -83t-65.5 -119q-19 -59 -14 -123q95 -96 117 -229q85 -28 148 -90h1z" />
<glyph unicode="&#xf22b;" horiz-adv-x="2048" d="M699 683q0 84 81.5 283t162.5 356l81 157q13 -25 35 -67t78 -157t99 -212.5t78 -202t35 -157.5q0 -142 -95 -242t-230 -100t-230 100t-95 242zM1235 683q0 114 -211 546q-211 -432 -211 -546q0 -95 61.5 -161.5t149.5 -66.5t149.5 66.5t61.5 161.5zM114 1149
q0 59 57 198.5t113 249.5l57 110q26 -48 63.5 -122t101 -225.5t63.5 -210.5q0 -99 -67 -169t-161 -70t-160.5 70t-66.5 169zM455 1149q0 60 -114 304q-113 -242 -113 -304q0 -52 33 -88.5t80 -36.5t80.5 36.5t33.5 88.5zM1707 1707q25 -48 63 -122t101 -225.5t63 -210.5
q0 -99 -66.5 -169t-160.5 -70t-161 70t-67 169q0 59 57 198.5t114 249.5zM1707 1024q47 0 80 36.5t33 88.5q0 62 -113 304q-114 -244 -114 -304q0 -52 33.5 -88.5t80.5 -36.5z" />
<glyph unicode="&#x1f328;" horiz-adv-x="2048" d="M653 371q12 0 21 -8.5t9 -21.5q0 -12 -9 -21t-21 -9h-126l89 -89q9 -8 9 -20.5t-9 -21.5q-8 -8 -21 -8t-21 8l-89 89v-126q0 -12 -9 -21t-21 -9t-21 9t-9 21v126l-89 -89q-8 -8 -21 -8t-20 8q-9 9 -9 21q0 14 9 21l88 89h-126q-12 0 -20.5 9t-8.5 21q0 13 8.5 21.5
t20.5 8.5h126l-88 89q-9 7 -9 21q0 12 9 21q7 8 20 8t21 -8l89 -89v126q0 12 9 21t21 9q13 0 21.5 -9t8.5 -21v-126l89 89q8 8 21 8t21 -8q9 -9 9 -21q0 -14 -9 -21l-89 -89h126zM1222 371q12 0 21 -8.5t9 -21.5q0 -12 -9 -21t-21 -9h-126l89 -89q9 -8 9 -20.5t-9 -21.5
q-7 -8 -21 -8t-21 8l-89 89v-126q0 -12 -9 -21t-21 -9t-21 9t-9 21v126l-89 -89q-7 -8 -20.5 -8t-21.5 8q-8 10 -8 21q0 14 8 21l89 89h-126q-12 0 -21 9t-9 21q0 13 9 21.5t21 8.5h126l-89 89q-8 7 -8 21q0 13 8 21t21.5 8t20.5 -8l89 -89v126q0 12 9 21t21 9q13 0 21.5 -9
t8.5 -21v-126l89 89q8 8 21 8t21 -8q9 -9 9 -21q0 -14 -9 -21l-89 -89h126zM1791 371q12 0 20.5 -8.5t8.5 -21.5q0 -12 -8.5 -21t-20.5 -9h-126l89 -89q9 -8 9 -20.5t-9 -21.5q-8 -8 -21 -8t-21 8l-89 89v-126q0 -12 -9 -21t-21 -9q-13 0 -21.5 9t-8.5 21v126l-89 -89
q-8 -8 -21 -8t-21 8q-9 11 -9 21q0 14 9 21l89 89h-126q-12 0 -21 9t-9 21q0 13 9 21.5t21 8.5h126l-89 89q-9 7 -9 21q0 12 9 21q8 8 21 8t21 -8l89 -89v126q0 12 9 21t21 9q13 0 21.5 -9t8.5 -21v-126l89 89q8 8 21 8t21 -8q9 -9 9 -21q0 -14 -9 -21l-89 -89h126z
M1626 1639q175 0 298.5 -123t123.5 -298t-123.5 -298.5t-298.5 -123.5h-1204q-175 0 -298.5 123.5t-123.5 298.5t123.5 298t298.5 123q86 0 162 -32q62 149 198 241.5t302 92.5q158 0 289 -84.5t198 -222.5q45 5 55 5zM1621 910q130 0 221.5 91.5t91.5 221.5t-91.5 221.5
t-221.5 91.5q-57 0 -112 -22q-47 136 -164 221t-264 85q-164 0 -289.5 -104t-156.5 -261q-91 81 -208 81q-130 0 -221.5 -91.5t-91.5 -221.5t91.5 -221.5t221.5 -91.5h1194z" />
<glyph unicode="&#xf232;" horiz-adv-x="2048" d="M653 599q12 0 21 -8.5t9 -21.5q0 -12 -9 -21t-21 -9h-126l89 -89q9 -8 9 -20.5t-9 -21.5q-8 -8 -21 -8t-21 8l-89 89v-126q0 -12 -9 -21t-21 -9t-21 9t-9 21v126l-89 -89q-8 -8 -21 -8t-20 8q-9 9 -9 21q0 13 9 21l88 89h-126q-12 0 -20.5 9t-8.5 21q0 13 8.5 21.5
t20.5 8.5h126l-88 89q-9 8 -9 21q0 12 9 21q7 8 20 8t21 -8l89 -89v126q0 12 9 21t21 9q13 0 21.5 -9t8.5 -21v-126l89 89q8 8 21 8t21 -8q9 -9 9 -21q0 -13 -9 -21l-89 -89h126zM1222 599q12 0 21 -8.5t9 -21.5q0 -12 -9 -21t-21 -9h-126l89 -89q9 -8 9 -20.5t-9 -21.5
q-7 -8 -21 -8t-21 8l-89 89v-126q0 -12 -9 -21t-21 -9t-21 9t-9 21v126l-89 -89q-7 -8 -20.5 -8t-21.5 8q-8 10 -8 21q0 14 8 21l89 89h-126q-12 0 -21 9t-9 21q0 13 9 21.5t21 8.5h126l-89 89q-8 7 -8 21q0 13 8 21t21.5 8t20.5 -8l89 -89v126q0 12 9 21t21 9q13 0 21.5 -9
t8.5 -21v-126l89 89q8 8 21 8t21 -8q9 -9 9 -21q0 -13 -9 -21l-89 -89h126zM1791 599q12 0 20.5 -8.5t8.5 -21.5q0 -12 -8.5 -21t-20.5 -9h-126l89 -89q9 -8 9 -20.5t-9 -21.5q-8 -8 -21 -8t-21 8l-89 89v-126q0 -12 -9 -21t-21 -9q-13 0 -21.5 9t-8.5 21v126l-89 -89
q-8 -8 -21 -8t-21 8q-9 11 -9 21q0 13 9 21l89 89h-126q-12 0 -21 9t-9 21q0 13 9 21.5t21 8.5h126l-89 89q-9 8 -9 21q0 12 9 21q8 8 21 8t21 -8l89 -89v126q0 12 9 21t21 9q13 0 21.5 -9t8.5 -21v-126l89 89q8 8 21 8t21 -8q9 -9 9 -21q0 -13 -9 -21l-89 -89h126z
M1460 193q9 0 15.5 -6.5t6.5 -15.5q0 -10 -6.5 -16.5t-15.5 -6.5h-94l66 -66q16 -16 0 -32q-5 -6 -15 -6t-16 6l-67 67v-95q0 -9 -6.5 -15.5t-15.5 -6.5q-10 0 -16.5 6.5t-6.5 15.5v95l-66 -67q-6 -6 -16 -6t-16 6q-7 7 -7 16q0 7 7 16l67 66h-95q-9 0 -15.5 6.5t-6.5 16.5
q0 9 6.5 15.5t15.5 6.5h95l-67 67q-7 7 -7 15q0 9 7 16q6 6 16 6t15 -6l67 -67v95q0 9 6.5 15.5t16.5 6.5q9 0 15.5 -6.5t6.5 -15.5v-94l67 66q6 6 16 6t15 -6q7 -7 7 -16t-7 -15l-67 -67h95zM888 193q9 0 15.5 -6.5t6.5 -15.5q0 -10 -6.5 -16.5t-15.5 -6.5h-94l66 -66
q16 -16 0 -32q-5 -6 -15 -6t-16 6l-67 67v-95q0 -9 -6.5 -15.5t-15.5 -6.5q-10 0 -16.5 6.5t-6.5 15.5v95l-66 -67q-6 -6 -16 -6t-16 6q-7 7 -7 16q0 7 7 16l67 66h-95q-9 0 -15.5 6.5t-6.5 16.5q0 9 6.5 15.5t15.5 6.5h95l-67 67q-7 7 -7 15q0 9 7 16q6 6 16 6t16 -6
l66 -67v95q0 9 6.5 15.5t16.5 6.5q9 0 15.5 -6.5t6.5 -15.5v-94l67 66q6 6 16 6t15 -6q7 -7 7 -16t-7 -15l-67 -67h95zM1626 1749q175 0 298.5 -123t123.5 -297q0 -173 -123.5 -296t-298.5 -123h-1204q-175 0 -298.5 123t-123.5 296q0 174 123.5 297t298.5 123q83 0 162 -33
q62 148 198 240t302 92q158 0 289 -83.5t198 -221.5q36 6 55 6zM1621 1023q130 0 221.5 91.5t91.5 219.5q0 129 -91.5 220.5t-221.5 91.5q-53 0 -112 -22q-47 135 -164 219.5t-264 84.5q-164 0 -289.5 -103t-156.5 -260q-91 81 -208 81q-130 0 -221.5 -91.5t-91.5 -220.5
q0 -128 91.5 -219.5t221.5 -91.5h1194z" />
<glyph unicode="&#xf233;" horiz-adv-x="2048" d="M482 257q13 0 21.5 -8.5t8.5 -20.5q0 -13 -8.5 -21.5t-21.5 -8.5h-125l89 -89q8 -9 8 -21.5t-8 -20.5t-21 -8t-21 8l-90 89v-126q0 -13 -8.5 -21.5t-20.5 -8.5q-13 0 -21.5 8.5t-8.5 21.5v126l-89 -89q-8 -8 -21 -8t-21 8q-9 7 -9 21q0 12 9 21l89 89h-126
q-13 0 -21.5 8.5t-8.5 21.5q0 12 8.5 20.5t21.5 8.5h126l-89 89q-9 9 -9 21q0 13 9 22q8 7 21 7t21 -7l89 -90v126q0 13 8.5 21.5t21.5 8.5q12 0 20.5 -8.5t8.5 -21.5v-125l90 89q8 7 21 7t21 -7q8 -10 8 -22q0 -11 -8 -21l-90 -89h126zM1051 257q13 0 21.5 -8.5t8.5 -20.5
q0 -13 -8.5 -21.5t-21.5 -8.5h-126l90 -89q8 -9 8 -21.5t-8 -20.5t-21.5 -8t-21.5 8l-89 89v-126q0 -13 -8.5 -21.5t-21.5 -8.5q-12 0 -20.5 8.5t-8.5 21.5v126l-89 -89q-8 -8 -21.5 -8t-20.5 8q-9 8 -9 21q0 12 9 21l89 89h-126q-13 0 -21.5 8.5t-8.5 21.5q0 12 8.5 20.5
t21.5 8.5h126l-89 89q-9 9 -9 21q0 13 9 22q7 7 20.5 7t21.5 -7l89 -90v126q0 13 8.5 21.5t21.5 8.5q12 0 20.5 -8.5t8.5 -21.5v-125l89 89q8 7 21 7t21 -7q9 -9 9 -22q0 -11 -8 -21l-90 -89h126zM1620 257q13 0 21.5 -8.5t8.5 -20.5q0 -13 -8.5 -21.5t-21.5 -8.5h-126
l90 -89q8 -9 8 -21.5t-8 -20.5t-21.5 -8t-21.5 8l-89 89v-126q0 -13 -8.5 -21.5t-21.5 -8.5q-12 0 -20.5 8.5t-8.5 21.5v126l-89 -89q-8 -8 -21 -8t-21 8q-9 8 -9 21q0 12 9 21l89 89h-127q-12 0 -20.5 8.5t-8.5 21.5q0 12 8.5 20.5t20.5 8.5h127l-89 89q-9 9 -9 21
q0 13 9 22q8 7 21 7t21 -7l89 -90v126q0 13 8.5 21.5t21.5 8.5q12 0 20.5 -8.5t8.5 -21.5v-125l89 89q8 7 21.5 7t20.5 -7q9 -9 9 -22q0 -11 -8 -21l-90 -89h126zM1871 1408q-47 -28 -52 -67q-2 -39 43 -71l144 -110q22 -17 13 -41q-11 -23 -37 -23h-1l-183 18h-15
q-48 0 -72 -27q-9 -14 -14 -27v-1q10 -47 10 -89q0 -166 -120.5 -283.5t-290.5 -117.5h-841q-188 0 -321.5 130t-133.5 314q0 182 133.5 312t321.5 130q60 0 113 -13q53 122 167 197t252 75q22 0 34 -3q0 13 -5 30l-50 169q-7 26 15 40q9 6 19 6q13 0 23 -9l139 -116
q30 -29 67 -29q53 0 78 62l64 164q8 20 32 20q30 0 35 -25l41 -172q8 -33 30 -52t51 -19q32 0 58 18l154 98q7 4 19 4q14 0 23 -8q21 -17 9 -42l-73 -160q-21 -47 -2 -80q19 -34 77 -39l189 -8q26 -2 33 -27q5 -26 -17 -40zM1296 683q123 0 210 84t87 203q0 98 -62.5 175
t-162.5 101l-40 10l-4 41q-10 129 -107 216t-230 87q-115 0 -206.5 -68.5t-122.5 -176.5l-17 -60l-58 23q-60 23 -128 23q-141 0 -241 -96t-100 -232t100 -233t241 -97h841zM1541 1289q17 35 18 70q6 82 -49 145q-52 63 -137 68q-4 2 -14 2q-16 0 -38 -5q87 -92 112 -223
q60 -21 108 -57zM1760 1220q-51 57 -45 129q3 68 63 123q-83 20 -121 84q-36 61 -18 134q-39 -16 -79 -16q-57 0 -103 30.5t-69 84.5q-27 -43 -68.5 -67.5t-90.5 -24.5q-54 0 -102 28q2 -19 -2 -33q85 -26 152 -81q38 15 82 15h18q105 -7 173.5 -86.5t61.5 -184.5
q-3 -54 -29 -100q42 -39 67 -82q46 40 110 47z" />
<glyph unicode="&#xf234;" horiz-adv-x="2048" d="M482 257q13 0 21.5 -8.5t8.5 -20.5q0 -13 -8.5 -21.5t-21.5 -8.5h-125l89 -89q8 -9 8 -21.5t-8 -20.5t-21.5 -8t-21.5 8l-89 89v-126q0 -13 -8.5 -21.5t-21.5 -8.5q-12 0 -20.5 8.5t-8.5 21.5v126l-89 -89q-8 -8 -21 -8t-21 8q-9 7 -9 21q0 12 9 21l89 89h-126
q-13 0 -21.5 8.5t-8.5 21.5q0 12 8.5 20.5t21.5 8.5h126l-89 89q-9 9 -9 21q0 13 9 22q8 7 21 7t21 -7l89 -90v126q0 13 8.5 21.5t20.5 8.5q13 0 21.5 -8.5t8.5 -21.5v-125l89 89q8 7 21.5 7t20.5 -7q9 -9 9 -22q0 -11 -8 -21l-90 -89h126zM1051 257q13 0 21.5 -8.5
t8.5 -20.5q0 -13 -8.5 -21.5t-21.5 -8.5h-126l89 -89q9 -9 9 -21.5t-8 -20.5t-21.5 -8t-21.5 8l-89 89v-126q0 -13 -8.5 -21.5t-21.5 -8.5q-12 0 -20.5 8.5t-8.5 21.5v126l-89 -89q-8 -8 -21.5 -8t-20.5 8q-9 8 -9 21q0 12 9 21l89 89h-127q-12 0 -20.5 8.5t-8.5 21.5
q0 12 8.5 20.5t20.5 8.5h127l-89 89q-9 9 -9 21q0 13 9 22q7 7 20.5 7t21.5 -7l89 -90v126q0 13 8.5 21.5t20.5 8.5q13 0 21.5 -8.5t8.5 -21.5v-125l89 89q8 7 21 7t21 -7q9 -9 9 -22q0 -12 -9 -21l-89 -89h126zM1620 257q12 0 21 -8.5t9 -20.5q0 -13 -9 -21.5t-21 -8.5
h-126l89 -89q9 -9 9 -21.5t-8 -20.5t-21.5 -8t-21.5 8l-89 89v-126q0 -13 -8.5 -21.5t-21.5 -8.5q-12 0 -20.5 8.5t-8.5 21.5v126l-89 -89q-8 -8 -21 -8t-21 8q-9 8 -9 21q0 12 9 21l88 89h-126q-12 0 -20.5 8.5t-8.5 21.5q0 12 8.5 20.5t20.5 8.5h126l-88 89q-9 9 -9 21
q0 13 9 22q8 7 21 7t21 -7l89 -90v126q0 13 8.5 21.5t20.5 8.5q13 0 21.5 -8.5t8.5 -21.5v-125l89 89q8 7 21.5 7t20.5 -7q9 -9 9 -22q0 -12 -9 -21l-89 -89h126zM2036 1409q25 -34 3 -66q-63 -95 -161 -149t-210 -56q39 -80 39 -168q0 -166 -120.5 -283.5t-290.5 -117.5
h-841q-188 0 -321.5 130t-133.5 314q0 182 133.5 312t321.5 130q60 0 113 -13q53 122 167 197t252 75q117 0 223 -57q5 45 15 74q45 142 165 229.5t270 87.5h13q17 -1 31.5 -12t19.5 -29q8 -40 -25 -60q-101 -61 -134 -166q-37 -120 21 -226q56 -109 174 -146
q105 -34 211 13q37 18 65 -13zM1296 683q123 0 210 84t87 203q0 98 -62.5 175t-162.5 101l-40 10l-4 41q-11 129 -107.5 216t-229.5 87q-115 0 -206.5 -68.5t-122.5 -176.5l-17 -60l-59 23q-60 23 -127 23q-141 0 -241 -96t-100 -232t100 -233t241 -97h841zM1581 1256
q127 -29 240 31q-48 3 -94 18q-77 24 -138.5 75.5t-99.5 123.5q-78 151 -27 310q12 41 39 86q-62 -31 -106.5 -83t-65.5 -119q-19 -59 -14 -123q95 -96 117 -229q85 -28 148 -90h1z" />
<glyph unicode="&#xf235;" horiz-adv-x="2048" d="M796 427q-56 -141 -56 -177q0 -32 16.5 -55.5t39.5 -23.5t40 23.5t17 55.5q0 38 -57 177zM796 569q13 -27 32 -69.5t50.5 -129t31.5 -120.5q0 -56 -33.5 -96t-80.5 -40t-80 40t-33 96q0 34 28.5 113.5t56.5 142.5zM1707 427q-57 -139 -57 -177q0 -32 17 -55.5t40 -23.5
t40 23.5t17 55.5q0 38 -57 177zM1707 569q13 -27 31.5 -69.5t50 -129t31.5 -120.5q0 -56 -33 -96t-80 -40t-80.5 40t-33.5 96q0 34 28.5 113.5t56.5 142.5zM539 371q13 0 21.5 -8.5t8.5 -21.5q0 -12 -8.5 -20.5t-21.5 -8.5h-126l89 -89q9 -9 9 -21.5t-8 -21.5
q-8 -8 -21.5 -8t-21.5 8l-89 90v-126q0 -13 -8.5 -21.5t-21.5 -8.5q-12 0 -20.5 8.5t-8.5 21.5v126l-89 -90q-8 -8 -21.5 -8t-20.5 8q-9 9 -9 22q0 12 9 21l89 89h-127q-12 0 -20.5 8.5t-8.5 20.5q0 13 8.5 21.5t20.5 8.5h127l-89 89q-9 9 -9 21q0 13 9 21q7 8 20.5 8
t21.5 -8l89 -89v126q0 13 8.5 21.5t20.5 8.5q13 0 21.5 -8.5t8.5 -21.5v-126l89 89q8 8 21 8t21 -8q9 -8 9 -21q0 -12 -9 -21l-89 -89h126zM1449 371q13 0 21.5 -8.5t8.5 -21.5q0 -12 -8.5 -20.5t-21.5 -8.5h-125l89 -89q8 -9 8 -21.5t-8 -21.5q-8 -8 -21.5 -8t-20.5 8
l-90 90v-126q0 -13 -8.5 -21.5t-20.5 -8.5q-13 0 -21.5 8.5t-8.5 21.5v126l-89 -90q-7 -8 -21 -8t-21 8q-9 9 -9 22q0 12 9 21l89 89h-126q-13 0 -21.5 8.5t-8.5 20.5q0 13 8.5 21.5t21.5 8.5h126l-89 89q-9 9 -9 21q0 13 9 21q7 8 21 8t21 -8l89 -89v126q0 13 8.5 21.5
t21.5 8.5q12 0 20.5 -8.5t8.5 -21.5v-126l90 89q8 8 21 8t21 -8t8 -21q0 -11 -8 -21l-90 -89h126zM1626 1635q175 0 298.5 -123t123.5 -296q0 -174 -123.5 -297t-298.5 -123h-1204q-175 0 -298.5 123t-123.5 297q0 173 123.5 296t298.5 123q83 0 162 -33q62 148 198 240
t302 92q158 0 289 -83.5t198 -221.5q36 6 55 6zM1621 910q130 0 221.5 91t91.5 220q0 128 -91.5 219.5t-221.5 91.5q-57 0 -112 -22q-47 135 -164 220t-264 85q-164 0 -289.5 -103.5t-156.5 -260.5q-91 81 -208 81q-130 0 -221.5 -91.5t-91.5 -219.5q0 -129 91.5 -220
t221.5 -91h1194z" />
<glyph unicode="&#xf236;" horiz-adv-x="2048" d="M683 313q-57 -139 -57 -176q0 -33 17 -56.5t40 -23.5t40 23.5t17 56.5q0 37 -57 176zM683 455q113 -243 113 -318q0 -57 -33 -97t-80 -40t-80.5 40t-33.5 97q0 33 28.5 112.5t56.5 142.5zM1365 313q-57 -139 -57 -176q0 -33 17 -56.5t40 -23.5t40 23.5t17 56.5
q0 37 -57 176zM1365 455q114 -243 114 -318q0 -57 -33.5 -97t-80.5 -40t-80 40t-33 97q0 33 28 112.5t56 142.5zM539 599q13 0 21.5 -9t8.5 -21t-8.5 -21t-21.5 -9h-126l89 -89q9 -8 9 -20.5t-8 -21.5q-8 -8 -21.5 -8t-21.5 8l-89 89v-126q0 -12 -8.5 -21t-21.5 -9
q-12 0 -20.5 9t-8.5 21v126l-89 -89q-8 -8 -21.5 -8t-20.5 8q-9 9 -9 21q0 13 9 21l89 89h-127q-12 0 -20.5 9t-8.5 21t8.5 21t20.5 9h127l-89 89q-9 8 -9 21q0 12 9 21q7 8 20.5 8t21.5 -8l89 -89v126q0 12 8.5 20.5t20.5 8.5q13 0 21.5 -8.5t8.5 -20.5v-126l89 89
q8 8 21 8t21 -8q9 -9 9 -21q0 -13 -9 -21l-89 -89h126zM1222 599q12 0 21 -9t9 -21t-9 -21t-21 -9h-126l89 -89q9 -8 9 -20.5t-9 -21.5q-7 -8 -21 -8t-21 8l-89 89v-126q0 -12 -9 -21t-21 -9t-21 9t-9 21v126l-89 -89q-7 -8 -20.5 -8t-21.5 8q-8 10 -8 21q0 14 8 21l89 89
h-126q-12 0 -21 9t-9 21t9 21t21 9h126l-89 89q-8 7 -8 21q0 13 8 21t21.5 8t20.5 -8l89 -89v126q0 12 9 20.5t21 8.5q13 0 21.5 -8.5t8.5 -20.5v-126l89 89q8 8 21 8t21 -8q9 -9 9 -21q0 -13 -9 -21l-89 -89h126zM1904 599q13 0 21.5 -9t8.5 -21t-8.5 -21t-21.5 -9h-125
l89 -89q8 -8 8 -20.5t-8 -21.5q-8 -8 -21 -8t-21 8l-90 89v-126q0 -12 -8.5 -21t-20.5 -9q-13 0 -21.5 9t-8.5 21v126l-89 -89q-8 -8 -21 -8t-21 8q-9 9 -9 21q0 13 9 21l89 89h-126q-13 0 -21.5 9t-8.5 21t8.5 21t21.5 9h126l-89 89q-9 8 -9 21q0 12 9 21q8 8 21 8t21 -8
l89 -89v126q0 12 8.5 20.5t21.5 8.5q12 0 20.5 -8.5t8.5 -20.5v-126l90 89q8 8 21 8t21 -8q8 -10 8 -21q0 -13 -8 -21l-90 -89h126zM1626 1749q175 0 298.5 -123t123.5 -297q0 -173 -123.5 -296t-298.5 -123h-1204q-175 0 -298.5 123t-123.5 296q0 174 123.5 297t298.5 123
q83 0 162 -33q62 148 198 240t302 92q158 0 289 -83.5t198 -221.5q36 6 55 6zM1621 1023q130 0 221.5 91.5t91.5 219.5q0 129 -91.5 220t-221.5 91q-55 0 -112 -21q-47 135 -164 219.5t-264 84.5q-164 0 -289.5 -103t-156.5 -260q-91 80 -208 80q-130 0 -221.5 -91
t-91.5 -220q0 -128 91.5 -219.5t221.5 -91.5h1194z" />
<glyph unicode="&#xf237;" horiz-adv-x="2048" d="M683 313q-57 -139 -57 -176q0 -33 17 -56.5t40 -23.5t40 23.5t17 56.5q0 37 -57 176zM683 455q114 -243 114 -318q0 -57 -33.5 -97t-80.5 -40t-80.5 40t-33.5 97q0 33 28.5 112.5t56.5 142.5zM1593 313q-57 -139 -57 -176q0 -33 17 -56.5t40 -23.5t40 23.5t17 56.5
q0 37 -57 176zM1593 455q114 -243 114 -318q0 -57 -33.5 -97t-80.5 -40t-80.5 40t-33.5 97q0 33 28.5 112.5t56.5 142.5zM425 257q13 0 21.5 -8.5t8.5 -20.5q0 -13 -8.5 -21.5t-21.5 -8.5h-125l89 -89q8 -9 8 -21.5t-8 -20.5t-21.5 -8t-20.5 8l-90 89v-126q0 -13 -8.5 -21.5
t-20.5 -8.5q-13 0 -21.5 8.5t-8.5 21.5v126l-89 -89q-7 -8 -20.5 -8t-21.5 8q-9 7 -9 21q0 12 9 21l89 89h-126q-12 0 -21 8.5t-9 21.5q0 12 9 20.5t21 8.5h126l-89 89q-9 9 -9 21q0 13 9 22q7 7 21 7t21 -7l89 -90v126q0 13 8.5 21.5t21.5 8.5q12 0 21 -8.5t9 -21.5v-126
l89 90q7 7 20.5 7t21.5 -7q9 -11 9 -22q0 -10 -9 -21l-90 -89h126zM1336 257q12 0 20.5 -8.5t8.5 -20.5q0 -13 -8.5 -21.5t-20.5 -8.5h-126l89 -89q9 -9 9 -21.5t-9 -20.5q-7 -8 -21 -8t-21 8l-89 89v-126q0 -13 -9 -21.5t-21 -8.5q-13 0 -21.5 8.5t-8.5 21.5v126l-89 -89
q-7 -8 -20.5 -8t-21.5 8q-9 9 -9 21t9 21l89 89h-126q-12 0 -21 8.5t-9 21.5q0 12 9 20.5t21 8.5h126l-89 89q-9 9 -9 21q0 13 9 22q8 7 21.5 7t20.5 -7l89 -90v126q0 13 8.5 21.5t21.5 8.5q12 0 21 -8.5t9 -21.5v-126l89 90q7 7 21 7t21 -7q9 -9 9 -22q0 -12 -9 -21
l-89 -89h126zM1871 1408q-47 -26 -52 -66q-2 -40 43 -72l144 -110q22 -17 13 -41q-11 -23 -37 -23h-1l-183 18h-15q-48 0 -72 -27q-9 -14 -14 -27v-1q10 -47 10 -89q0 -166 -120.5 -283.5t-290.5 -117.5h-841q-188 0 -321.5 130t-133.5 314q0 182 133.5 312t321.5 130
q60 0 113 -13q53 122 167 197t252 75q22 0 34 -3q0 13 -5 30l-50 169q-7 26 15 40q9 6 19 6q13 0 23 -9l139 -116q30 -29 67 -29q53 0 78 62l64 164q8 20 32 20q30 0 35 -25l41 -172q8 -33 30 -52t51 -19q32 0 58 18l154 98q7 4 19 4q14 0 23 -8q21 -17 9 -42l-73 -160
q-21 -47 -2 -80q19 -34 77 -39l189 -8q26 -2 33 -27q5 -26 -17 -40zM1296 683q123 0 210 84t87 203q0 98 -62.5 175t-162.5 101l-40 10l-4 41q-10 129 -107 216t-230 87q-115 0 -206.5 -68.5t-122.5 -176.5l-17 -60l-58 23q-63 24 -128 24q-141 0 -241 -96.5t-100 -232.5
t100 -233t241 -97h841zM1321 1569q88 -92 112 -223q60 -21 108 -57q17 35 18 70q6 83 -49 145q-52 63 -137 68q-4 2 -14 2q-16 0 -38 -5zM1760 1220q-51 57 -45 130q3 66 63 123q-83 19 -121 84q-36 60 -18 133q-43 -16 -79 -16q-57 0 -103 30.5t-69 84.5
q-27 -43 -68.5 -67.5t-90.5 -24.5q-54 0 -102 28q2 -19 -2 -33q85 -26 152 -81q38 15 82 15h18q105 -7 173.5 -86.5t61.5 -184.5q-3 -54 -29 -100q42 -39 67 -82q46 40 110 47z" />
<glyph unicode="&#xf238;" horiz-adv-x="2048" d="M683 313q-57 -139 -57 -176q0 -33 17 -56.5t40 -23.5t40 23.5t17 56.5q0 37 -57 176zM683 455q113 -243 113 -318q0 -57 -33 -97t-80 -40t-80.5 40t-33.5 97q0 33 28.5 112.5t56.5 142.5zM1593 313q-57 -139 -57 -176q0 -33 17 -56.5t40 -23.5t40 23.5t17 56.5
q0 37 -57 176zM1593 455q114 -243 114 -318q0 -57 -33.5 -97t-80.5 -40t-80.5 40t-33.5 97q0 33 28.5 112.5t56.5 142.5zM425 257q13 0 21.5 -8.5t8.5 -20.5q0 -13 -8.5 -21.5t-21.5 -8.5h-125l89 -89q8 -9 8 -21.5t-8 -20.5t-21.5 -8t-20.5 8l-90 89v-126q0 -13 -8.5 -21.5
t-20.5 -8.5q-13 0 -21.5 8.5t-8.5 21.5v126l-89 -89q-7 -8 -20.5 -8t-21.5 8q-9 7 -9 21q0 12 9 21l89 89h-126q-13 0 -21.5 8.5t-8.5 21.5q0 12 8.5 20.5t21.5 8.5h126l-89 89q-9 9 -9 21q0 13 9 22q7 7 21 7t21 -7l89 -90v126q0 13 8.5 21.5t21.5 8.5q12 0 20.5 -8.5
t8.5 -21.5v-126l90 90q7 7 20.5 7t21.5 -7q8 -10 8 -22q0 -11 -8 -21l-90 -89h126zM1336 257q12 0 20.5 -8.5t8.5 -20.5q0 -13 -8.5 -21.5t-20.5 -8.5h-126l89 -89q9 -9 9 -21.5t-9 -20.5q-8 -8 -21.5 -8t-20.5 8l-89 89v-126q0 -13 -9 -21.5t-21 -8.5q-13 0 -21.5 8.5
t-8.5 21.5v126l-89 -89q-7 -8 -20.5 -8t-21.5 8q-9 8 -9 21q0 12 9 21l89 89h-126q-12 0 -21 8.5t-9 21.5q0 12 9 20.5t21 8.5h126l-89 89q-9 9 -9 21q0 13 9 22q8 7 21.5 7t20.5 -7l89 -90v126q0 13 8.5 21.5t21.5 8.5q12 0 21 -8.5t9 -21.5v-126l89 90q7 7 20.5 7t21.5 -7
q9 -11 9 -22q0 -10 -9 -21l-89 -89h126zM2036 1409q11 -14 12 -32.5t-9 -33.5q-63 -94 -161 -148.5t-210 -56.5q39 -80 39 -168q0 -166 -120.5 -283.5t-290.5 -117.5h-841q-188 0 -321.5 130t-133.5 314q0 182 133.5 312t321.5 130q60 0 113 -13q53 122 167 197t252 75
q117 0 223 -57q5 38 15 74q45 142 165 229.5t270 87.5h13q17 -1 31.5 -12t19.5 -29q4 -18 -3 -34.5t-22 -25.5q-101 -62 -133 -166q-38 -119 20 -226q56 -109 174 -146q106 -34 211 13q37 18 65 -13zM1296 683q123 0 210 84t87 203q0 98 -62.5 175t-162.5 101l-40 10l-4 41
q-10 129 -107 216t-230 87q-115 0 -206.5 -68.5t-122.5 -176.5l-17 -60l-58 23q-65 24 -128 24q-141 0 -241 -96.5t-100 -232.5t100 -233t241 -97h841zM1581 1256q127 -29 241 31q-49 3 -95 18q-77 24 -138.5 75.5t-99.5 123.5q-78 151 -27 310q12 41 39 86
q-62 -31 -106.5 -83t-65.5 -119q-19 -59 -14 -123q94 -96 118 -229q84 -28 147 -90h1z" />
<glyph unicode="&#xf239;" horiz-adv-x="2048" d="M1024 1650l-375 -858l375 -491l375 491zM1024 1934l506 -1158l-506 -662l-506 662z" />
<glyph unicode="&#xf23a;" horiz-adv-x="2048" d="M1029 1304l-211 -492l211 -281l211 281zM1029 1593l342 -797l-342 -455l-341 455zM341 1418l-92 -215l92 -122l92 122zM341 1707l223 -519l-223 -297l-222 297zM1707 1418l-92 -215l92 -122l92 122zM1707 1707l222 -519l-222 -297l-223 297z" />
<glyph unicode="&#xf23b;" horiz-adv-x="2048" d="M1707 441l-51 -100l51 -100l50 100zM1707 568l113 -227l-113 -228l-114 228zM796 441l-50 -100l50 -100l51 100zM796 568l114 -227l-114 -228l-113 228zM539 371q13 0 21.5 -8.5t8.5 -21.5q0 -12 -8.5 -21t-21.5 -9h-126l89 -88q9 -9 9 -21.5t-8 -21.5q-8 -8 -21.5 -8
t-21.5 8l-89 89v-126q0 -12 -8.5 -21t-21.5 -9q-12 0 -20.5 9t-8.5 21v126l-89 -89q-8 -8 -21.5 -8t-20.5 8q-9 9 -9 21q0 14 9 21l89 89h-127q-12 0 -20.5 9t-8.5 21q0 13 8.5 21.5t20.5 8.5h127l-89 89q-9 7 -9 21q0 12 9 21q7 8 20.5 8t21.5 -8l89 -89v126q0 12 8.5 21
t20.5 9q13 0 21.5 -9t8.5 -21v-126l89 89q8 8 21 8t21 -8q9 -9 9 -21t-9 -21l-89 -89h126zM1449 371q13 0 21.5 -8.5t8.5 -21.5q0 -12 -8.5 -21t-21.5 -9h-125l89 -88q8 -9 8 -21.5t-8 -21.5q-8 -8 -21.5 -8t-20.5 8l-90 89v-126q0 -12 -8.5 -21t-20.5 -9q-13 0 -21.5 9
t-8.5 21v126l-89 -89q-7 -8 -21 -8t-21 8q-9 9 -9 21q0 14 9 21l89 89h-126q-13 0 -21.5 9t-8.5 21q0 13 8.5 21.5t21.5 8.5h126l-89 89q-9 7 -9 21q0 12 9 21q7 8 21 8t21 -8l89 -89v126q0 12 8.5 21t21.5 9q12 0 20.5 -9t8.5 -21v-126l90 89q8 8 21 8t21 -8q8 -10 8 -21
t-8 -21l-90 -89h126zM1626 1639q175 0 298.5 -123t123.5 -298t-123.5 -298.5t-298.5 -123.5h-1204q-175 0 -298.5 123.5t-123.5 298.5t123.5 298t298.5 123q86 0 162 -32q62 149 198 241.5t302 92.5q158 0 289 -84.5t198 -222.5q45 5 55 5zM1621 910q130 0 221.5 91.5
t91.5 221.5t-91.5 221.5t-221.5 91.5q-57 0 -112 -22q-47 136 -164 221t-264 85q-164 0 -289.5 -104t-156.5 -261q-91 81 -208 81q-130 0 -221.5 -91.5t-91.5 -221.5t91.5 -221.5t221.5 -91.5h1194z" />
<glyph unicode="&#xf23c;" horiz-adv-x="2048" d="M1365 389l-52 -157l52 -105l53 105zM1365 569l114 -341l-114 -228l-113 228zM683 389l-53 -157l53 -105l52 105zM683 569l113 -341l-113 -228l-114 228zM539 599q13 0 21.5 -9t8.5 -21t-8.5 -21t-21.5 -9h-126l89 -89q9 -8 9 -20.5t-8 -21.5q-8 -8 -21.5 -8t-21.5 8
l-89 89v-126q0 -12 -8.5 -21t-21.5 -9q-12 0 -20.5 9t-8.5 21v126l-89 -89q-8 -8 -21.5 -8t-20.5 8q-9 9 -9 21q0 13 9 21l89 89h-127q-12 0 -20.5 9t-8.5 21t8.5 21t20.5 9h127l-89 89q-9 8 -9 21q0 12 9 21q7 8 20.5 8t21.5 -8l89 -89v126q0 12 8.5 20.5t20.5 8.5
q13 0 21.5 -8.5t8.5 -20.5v-126l89 89q8 8 21 8t21 -8q9 -9 9 -21q0 -13 -9 -21l-89 -89h126zM1222 599q12 0 21 -9t9 -21t-9 -21t-21 -9h-126l89 -89q9 -8 9 -20.5t-9 -21.5q-7 -8 -21 -8t-21 8l-89 89v-126q0 -12 -9 -21t-21 -9t-21 9t-9 21v126l-89 -89q-7 -8 -20.5 -8
t-21.5 8q-8 10 -8 21q0 14 8 21l89 89h-126q-12 0 -21 9t-9 21t9 21t21 9h126l-89 89q-8 7 -8 21q0 13 8 21t21.5 8t20.5 -8l89 -89v126q0 12 9 20.5t21 8.5q13 0 21.5 -8.5t8.5 -20.5v-126l89 89q8 8 21 8t21 -8q9 -9 9 -21q0 -13 -9 -21l-89 -89h126zM1904 599
q13 0 21.5 -9t8.5 -21t-8.5 -21t-21.5 -9h-125l89 -89q8 -8 8 -20.5t-8 -21.5q-8 -8 -21 -8t-21 8l-90 89v-126q0 -12 -8.5 -21t-20.5 -9q-13 0 -21.5 9t-8.5 21v126l-89 -89q-8 -8 -21 -8t-21 8q-9 9 -9 21q0 13 9 21l89 89h-126q-13 0 -21.5 9t-8.5 21t8.5 21t21.5 9h126
l-89 89q-9 8 -9 21q0 12 9 21q8 8 21 8t21 -8l89 -89v126q0 12 8.5 20.5t21.5 8.5q12 0 20.5 -8.5t8.5 -20.5v-126l90 89q8 8 21 8t21 -8q8 -10 8 -21q0 -13 -8 -21l-90 -89h126zM1626 1749q175 0 298.5 -123t123.5 -297q0 -173 -123.5 -296t-298.5 -123h-1204
q-175 0 -298.5 123t-123.5 296q0 174 123.5 297t298.5 123q83 0 162 -33q62 148 198 240t302 92q158 0 289 -83.5t198 -221.5q36 6 55 6zM1621 1023q130 0 221.5 91.5t91.5 219.5q0 129 -91.5 220t-221.5 91q-55 0 -112 -21q-47 135 -164 219.5t-264 84.5
q-164 0 -289.5 -103t-156.5 -260q-91 80 -208 80q-130 0 -221.5 -91t-91.5 -220q0 -128 91.5 -219.5t221.5 -91.5h1194z" />
<glyph unicode="&#xf23d;" horiz-adv-x="2048" d="M1593 328l-50 -100l50 -101l50 101zM1593 455l114 -227l-114 -228l-114 228zM683 328l-50 -100l50 -101l50 101zM683 455l114 -227l-114 -228l-114 228zM425 257q13 0 21.5 -8.5t8.5 -20.5q0 -13 -8.5 -21.5t-21.5 -8.5h-125l89 -89q8 -9 8 -21.5t-8 -20.5t-21.5 -8
t-20.5 8l-90 89v-126q0 -13 -8.5 -21.5t-20.5 -8.5q-13 0 -21.5 8.5t-8.5 21.5v126l-89 -89q-7 -8 -20.5 -8t-21.5 8q-9 7 -9 21q0 12 9 21l89 89h-126q-12 0 -21 8.5t-9 21.5q0 12 9 20.5t21 8.5h126l-89 89q-9 9 -9 21q0 13 9 22q7 7 21 7t21 -7l89 -90v126q0 13 8.5 21.5
t21.5 8.5q12 0 21 -8.5t9 -21.5v-126l89 90q7 7 20.5 7t21.5 -7q9 -11 9 -22q0 -10 -9 -21l-90 -89h126zM1336 257q12 0 20.5 -8.5t8.5 -20.5q0 -13 -8.5 -21.5t-20.5 -8.5h-126l89 -89q9 -9 9 -21.5t-9 -20.5q-7 -8 -21 -8t-21 8l-89 89v-126q0 -13 -9 -21.5t-21 -8.5
q-13 0 -21.5 8.5t-8.5 21.5v126l-89 -89q-7 -8 -20.5 -8t-21.5 8q-9 9 -9 21t9 21l89 89h-126q-12 0 -21 8.5t-9 21.5q0 12 9 20.5t21 8.5h126l-89 89q-9 9 -9 21q0 13 9 22q8 7 21.5 7t20.5 -7l89 -90v126q0 13 8.5 21.5t21.5 8.5q12 0 21 -8.5t9 -21.5v-126l89 90
q7 7 21 7t21 -7q9 -9 9 -22q0 -12 -9 -21l-89 -89h126zM1871 1408q-47 -26 -52 -66q-2 -40 43 -72l144 -110q22 -17 13 -41q-11 -23 -37 -23h-1l-183 18h-15q-48 0 -72 -27q-9 -14 -14 -27v-1q10 -47 10 -89q0 -166 -120.5 -283.5t-290.5 -117.5h-841q-188 0 -321.5 130
t-133.5 314q0 182 133.5 312t321.5 130q60 0 113 -13q53 122 167 197t252 75q22 0 34 -3q0 13 -5 30l-50 169q-7 26 15 40q9 6 19 6q13 0 23 -9l139 -116q30 -29 67 -29q53 0 78 62l64 164q8 20 32 20q30 0 35 -25l41 -172q8 -33 30 -52t51 -19q32 0 58 18l154 98q7 4 19 4
q14 0 23 -8q21 -17 9 -42l-73 -160q-21 -47 -2 -80q19 -34 77 -39l189 -8q26 -2 33 -27q5 -26 -17 -40zM1296 683q123 0 210 84t87 203q0 98 -62.5 175t-162.5 101l-40 10l-4 41q-10 129 -107 216t-230 87q-115 0 -206.5 -68.5t-122.5 -176.5l-17 -60l-58 23q-63 24 -128 24
q-141 0 -241 -96.5t-100 -232.5t100 -233t241 -97h841zM1321 1569q88 -92 112 -223q60 -21 108 -57q17 35 18 70q6 83 -49 145q-52 63 -137 68q-4 2 -14 2q-16 0 -38 -5zM1760 1220q-51 57 -45 130q3 66 63 123q-83 19 -121 84q-36 60 -18 133q-43 -16 -79 -16
q-57 0 -103 30.5t-69 84.5q-27 -43 -68.5 -67.5t-90.5 -24.5q-54 0 -102 28q2 -19 -2 -33q85 -26 152 -81q38 15 82 15h18q105 -7 173.5 -86.5t61.5 -184.5q-3 -54 -29 -100q42 -39 67 -82q46 40 110 47z" />
<glyph unicode="&#xf23e;" horiz-adv-x="2048" d="M1593 328l-50 -100l50 -101l50 101zM1593 455l114 -227l-114 -228l-114 228zM683 328l-51 -100l51 -101l50 101zM683 455l113 -227l-113 -228l-114 228zM425 257q13 0 21.5 -8.5t8.5 -20.5q0 -13 -8.5 -21.5t-21.5 -8.5h-125l89 -89q8 -9 8 -21.5t-8 -20.5t-21.5 -8
t-20.5 8l-90 89v-126q0 -13 -8.5 -21.5t-20.5 -8.5q-13 0 -21.5 8.5t-8.5 21.5v126l-89 -89q-7 -8 -20.5 -8t-21.5 8q-9 7 -9 21q0 12 9 21l89 89h-126q-13 0 -21.5 8.5t-8.5 21.5q0 12 8.5 20.5t21.5 8.5h126l-89 89q-9 9 -9 21q0 13 9 22q7 7 21 7t21 -7l89 -90v126
q0 13 8.5 21.5t21.5 8.5q12 0 20.5 -8.5t8.5 -21.5v-126l90 90q7 7 20.5 7t21.5 -7q8 -10 8 -22q0 -11 -8 -21l-90 -89h126zM1336 257q12 0 20.5 -8.5t8.5 -20.5q0 -13 -8.5 -21.5t-20.5 -8.5h-126l89 -89q9 -9 9 -21.5t-9 -20.5q-8 -8 -21.5 -8t-20.5 8l-89 89v-126
q0 -13 -9 -21.5t-21 -8.5q-13 0 -21.5 8.5t-8.5 21.5v126l-89 -89q-7 -8 -20.5 -8t-21.5 8q-9 8 -9 21q0 12 9 21l89 89h-126q-12 0 -21 8.5t-9 21.5q0 12 9 20.5t21 8.5h126l-89 89q-9 9 -9 21q0 13 9 22q8 7 21.5 7t20.5 -7l89 -90v126q0 13 8.5 21.5t21.5 8.5
q12 0 21 -8.5t9 -21.5v-126l89 90q7 7 20.5 7t21.5 -7q9 -11 9 -22q0 -10 -9 -21l-89 -89h126zM2036 1409q11 -14 12 -32.5t-9 -33.5q-63 -94 -161 -148.5t-210 -56.5q39 -80 39 -168q0 -166 -120.5 -283.5t-290.5 -117.5h-841q-188 0 -321.5 130t-133.5 314
q0 182 133.5 312t321.5 130q60 0 113 -13q53 122 167 197t252 75q117 0 223 -57q5 38 15 74q45 142 165 229.5t270 87.5h13q17 -1 31.5 -12t19.5 -29q4 -18 -3 -34.5t-22 -25.5q-101 -62 -133 -166q-38 -119 20 -226q56 -109 174 -146q106 -34 211 13q37 18 65 -13z
M1296 683q123 0 210 84t87 203q0 98 -62.5 175t-162.5 101l-40 10l-4 41q-10 129 -107 216t-230 87q-115 0 -206.5 -68.5t-122.5 -176.5l-17 -60l-58 23q-65 24 -128 24q-141 0 -241 -96.5t-100 -232.5t100 -233t241 -97h841zM1581 1256q127 -29 241 31q-49 3 -95 18
q-77 24 -138.5 75.5t-99.5 123.5q-78 151 -27 310q12 41 39 86q-62 -31 -106.5 -83t-65.5 -119q-19 -59 -14 -123q94 -96 118 -229q84 -28 147 -90h1z" />
<glyph unicode="&#xf241;" horiz-adv-x="2048" d="M1536 853q24 0 40.5 -17t16.5 -40q0 -24 -16.5 -40.5t-40.5 -16.5h-375l265 -265q17 -17 17 -40.5t-17 -40.5q-16 -16 -40 -16t-40 16l-265 265v-374q0 -24 -16.5 -40.5t-40.5 -16.5t-40.5 16.5t-16.5 40.5v374l-265 -265q-16 -16 -40 -16t-40 16q-17 17 -17 41t17 40
l265 265h-375q-24 0 -40.5 16.5t-16.5 40.5q0 23 16.5 40t40.5 17h375l-265 264q-17 17 -17 41t17 40q16 16 40 16t40 -16l265 -265v375q0 23 16.5 40t40.5 17t40.5 -17t16.5 -40v-375l265 265q16 16 40 16t40 -16q17 -16 17 -40t-17 -41l-265 -264h375zM549 1324l-108 108
v-153q0 -17 -12.5 -30t-30.5 -13q-17 0 -29.5 13t-12.5 30v153l-109 -108q-13 -13 -30 -13t-30 13t-13 30.5t13 29.5l108 108h-153q-17 0 -29.5 13t-12.5 30q0 18 12.5 30.5t29.5 12.5h153l-108 108q-13 13 -13 30.5t13 29.5q13 13 30.5 13t29.5 -13l109 -108v153
q0 18 12.5 30.5t29.5 12.5q18 0 30.5 -12.5t12.5 -30.5v-153l108 108q13 13 30.5 13t29.5 -13q13 -12 13 -29.5t-13 -30.5l-108 -108h153q18 0 30.5 -12.5t12.5 -30.5q0 -17 -12.5 -30t-30.5 -13h-153l108 -108q13 -12 13 -29.5t-13 -30.5t-30 -13t-30 13zM1906 1578
q17 0 29.5 -12.5t12.5 -30.5q0 -17 -12.5 -30t-29.5 -13h-153l108 -108q13 -12 13 -29.5t-13 -30.5t-30 -13t-30 13l-109 108v-153q0 -17 -12.5 -30t-29.5 -13q-18 0 -30.5 13t-12.5 30v153l-108 -108q-13 -13 -30 -13t-30 13t-13 30.5t13 29.5l108 108h-153q-18 0 -30.5 13
t-12.5 30q0 18 12.5 30.5t30.5 12.5h153l-108 108q-13 13 -13 30.5t13 29.5q12 13 29.5 13t30.5 -13l108 -108v153q0 18 12.5 30.5t30.5 12.5q17 0 29.5 -12.5t12.5 -30.5v-153l109 108q12 13 29.5 13t30.5 -13q13 -12 13 -29.5t-13 -30.5l-108 -108h153z" />
<glyph unicode="&#xf242;" horiz-adv-x="2048" d="M341 770q-113 -242 -113 -304q0 -52 33 -88.5t80 -36.5t80.5 36.5t33.5 88.5q0 60 -114 304zM341 1024q26 -48 63.5 -122t101 -225.5t63.5 -210.5q0 -99 -67 -169t-161 -70t-160.5 70t-66.5 169q0 59 57 198.5t113 249.5zM1707 770q-114 -244 -114 -304q0 -52 33.5 -88.5
t80.5 -36.5t80 36.5t33 88.5q0 62 -113 304zM1707 1024q25 -48 63 -122t101 -225.5t63 -210.5q0 -99 -66.5 -169t-160.5 -70t-161 70t-67 169q0 59 57 198.5t114 249.5zM1479 1308q24 0 40.5 -16.5t16.5 -40.5q0 -23 -16.5 -40t-40.5 -17h-318l225 -224q16 -17 16 -40.5
t-16 -40.5q-16 -16 -40 -16t-40 16l-225 225v-318q0 -23 -16.5 -40t-40.5 -17t-40.5 17t-16.5 40v318l-225 -225q-16 -16 -40 -16t-40 16q-16 17 -16 40.5t16 40.5l225 224h-318q-24 0 -40.5 17t-16.5 40q0 24 16.5 40.5t40.5 16.5h318l-225 225q-16 17 -16 40t16 40t40 17
t40 -17l225 -224v317q0 24 16.5 40.5t40.5 16.5t40.5 -16.5t16.5 -40.5v-317l225 224q16 17 40 17t40 -17t16 -40t-16 -40l-225 -225h318z" />
<glyph unicode="&#xf243;" horiz-adv-x="2048" d="M341 735l-92 -214l92 -123l92 123zM341 1024l223 -519l-223 -297l-222 297zM1707 735l-92 -214l92 -123l92 123zM1707 1024l222 -519l-222 -297l-223 297zM1484 1308q24 0 40.5 -16.5t16.5 -40.5q0 -23 -16.5 -40t-40.5 -17h-317l224 -224q17 -17 17 -40.5t-17 -40.5
q-16 -16 -40 -16t-40 16l-225 225v-318q0 -23 -16.5 -40t-40.5 -17q-23 0 -40 17t-17 40v318l-224 -225q-17 -16 -41 -16t-40 16q-17 17 -17 40.5t17 40.5l225 224h-318q-23 0 -40 17t-17 40q0 24 17 40.5t40 16.5h318l-225 225q-17 17 -17 40t17 40t40.5 17t40.5 -17
l224 -224v317q0 24 17 40.5t40 16.5q24 0 40.5 -16.5t16.5 -40.5v-317l225 224q17 17 40 17t40 -17t17 -40t-17 -40l-224 -225h317z" />
<glyph unicode="&#xf244;" horiz-adv-x="2048" d="M1024 622q-23 0 -40 -16.5t-17 -40.5q0 -23 17 -39.5t40 -16.5t40 16.5t17 39.5q0 24 -17 40.5t-40 16.5zM1024 679q47 0 80.5 -33.5t33.5 -80.5t-33.5 -80t-80.5 -33t-80.5 33t-33.5 80t33.5 80.5t80.5 33.5zM569 622q-23 0 -40 -16.5t-17 -40.5q0 -23 17 -39.5
t40 -16.5t40 16.5t17 39.5q0 24 -17 40.5t-40 16.5zM569 679q47 0 80.5 -33.5t33.5 -80.5t-33.5 -80t-80.5 -33t-80.5 33t-33.5 80t33.5 80.5t80.5 33.5zM1479 622q-23 0 -40 -16.5t-17 -40.5q0 -23 17 -39.5t40 -16.5t40 16.5t17 39.5q0 24 -17 40.5t-40 16.5zM1479 679
q47 0 80.5 -33.5t33.5 -80.5t-33.5 -80t-80.5 -33t-80.5 33t-33.5 80t33.5 80.5t80.5 33.5zM796 281q-23 0 -39.5 -16.5t-16.5 -40.5q0 -23 16.5 -40t39.5 -17q24 0 40.5 17t16.5 40q0 24 -16.5 40.5t-40.5 16.5zM796 338q47 0 80.5 -33.5t33.5 -80.5t-33.5 -80.5
t-80.5 -33.5t-80 33.5t-33 80.5t33 80.5t80 33.5zM1252 281q-24 0 -40.5 -16.5t-16.5 -40.5q0 -23 16.5 -40t40.5 -17q23 0 39.5 17t16.5 40q0 24 -16.5 40.5t-39.5 16.5zM1252 338q47 0 80 -33.5t33 -80.5t-33 -80.5t-80 -33.5t-80.5 33.5t-33.5 80.5t33.5 80.5t80.5 33.5z
M1626 1636q175 0 298.5 -123t123.5 -298t-123.5 -298.5t-298.5 -123.5h-1204q-175 0 -298.5 123.5t-123.5 298.5t123.5 298t298.5 123q86 0 162 -32q62 149 198 241.5t302 92.5q158 0 289 -84.5t198 -222.5q45 5 55 5zM1621 907q130 0 221.5 91.5t91.5 221.5t-91.5 221.5
t-221.5 91.5q-57 0 -112 -22q-47 136 -164 221t-264 85q-164 0 -289.5 -104t-156.5 -261q-91 81 -208 81q-130 0 -221.5 -91.5t-91.5 -221.5t91.5 -221.5t221.5 -91.5h1194z" />
<glyph unicode="&#xf245;" horiz-adv-x="2048" d="M228 512q-24 0 -40.5 -17t-16.5 -40t16.5 -40t40.5 -17q23 0 39.5 17t16.5 40t-16.5 40t-39.5 17zM228 569q47 0 80 -33.5t33 -80.5t-33 -80.5t-80 -33.5t-80.5 33.5t-33.5 80.5t33.5 80.5t80.5 33.5zM1820 512q-23 0 -39.5 -17t-16.5 -40t16.5 -40t39.5 -17
q24 0 40.5 17t16.5 40t-16.5 40t-40.5 17zM1820 569q47 0 80.5 -33.5t33.5 -80.5t-33.5 -80.5t-80.5 -33.5t-80 33.5t-33 80.5t33 80.5t80 33.5zM1024 171q-23 0 -40 -17t-17 -40q0 -24 17 -40.5t40 -16.5t40 16.5t17 40.5q0 23 -17 40t-40 17zM1024 228q47 0 80.5 -33.5
t33.5 -80.5t-33.5 -80.5t-80.5 -33.5t-80.5 33.5t-33.5 80.5t33.5 80.5t80.5 33.5zM740 796h56v-682v-1v0q0 -11 -8.5 -19.5t-19.5 -8.5q-12 0 -20 8.5t-8 20.5q0 8 -1 21.5t-7.5 45.5t-17.5 62t-34.5 64.5t-55.5 60t-83 42.5t-114 17q-12 0 -20.5 8.5t-8.5 19.5
q0 12 8.5 20.5t20.5 8.5q216 0 313 -167v479zM1621 484q12 0 20.5 -8.5t8.5 -20.5q0 -11 -8.5 -19.5t-20.5 -8.5q-63 0 -114.5 -17t-83 -42.5t-55 -60t-34.5 -64t-17.5 -62t-7.5 -45.5t-1 -22q0 -12 -8 -20.5t-20 -8.5t-20 8.5t-8 20.5v682h56v-479q97 167 313 167zM996 796
h56v-455q0 -11 -8 -19.5t-20 -8.5t-20 8.5t-8 19.5v455zM1626 1749q175 0 298.5 -123t123.5 -297q0 -173 -123.5 -296t-298.5 -123h-1204q-175 0 -298.5 123t-123.5 296q0 174 123.5 297t298.5 123q83 0 162 -33q62 148 198 240t302 92q158 0 289 -83.5t198 -221.5
q36 6 55 6zM1621 1023q130 0 221.5 91.5t91.5 219.5q0 129 -91.5 220t-221.5 91q-55 0 -112 -21q-47 135 -164 219.5t-264 84.5q-164 0 -289.5 -103t-156.5 -260q-91 80 -208 80q-130 0 -221.5 -91t-91.5 -220q0 -128 91.5 -219.5t221.5 -91.5h1194z" />
<glyph unicode="&#xf246;" horiz-adv-x="2048" d="M853 284q-23 0 -39.5 -16.5t-16.5 -40.5q0 -23 16.5 -39.5t39.5 -16.5q24 0 40.5 16.5t16.5 39.5q0 24 -16.5 40.5t-40.5 16.5zM853 341q47 0 80.5 -33.5t33.5 -80.5t-33.5 -80t-80.5 -33t-80 33t-33 80t33 80.5t80 33.5zM398 398q-23 0 -40 -16.5t-17 -40.5
q0 -23 17 -40t40 -17q24 0 40.5 17t16.5 40q0 24 -16.5 40.5t-40.5 16.5zM398 455q47 0 80.5 -33.5t33.5 -80.5t-33.5 -80.5t-80.5 -33.5t-80 33.5t-33 80.5t33 80.5t80 33.5zM1309 398q-24 0 -40.5 -16.5t-16.5 -40.5q0 -23 16.5 -40t40.5 -17q23 0 39.5 17t16.5 40
q0 24 -16.5 40.5t-39.5 16.5zM1309 455q47 0 80 -33.5t33 -80.5t-33 -80.5t-80 -33.5t-80.5 33.5t-33.5 80.5t33.5 80.5t80.5 33.5zM1871 1407q-47 -26 -52 -66q-2 -39 43 -71l144 -111q22 -15 13 -41q-11 -22 -37 -22h-1l-183 18h-15q-48 0 -72 -27q-9 -14 -14 -27v-1
q10 -47 10 -90q0 -165 -120.5 -282.5t-290.5 -117.5h-841q-188 0 -321.5 130t-133.5 314q0 182 133.5 312t321.5 130q60 0 113 -13q53 122 167 197t252 75q22 0 34 -3q0 13 -5 30l-50 169q-7 26 15 40q9 6 19 6t23 -9l139 -116q30 -29 67 -29q53 0 78 62l64 164q8 20 32 20
q30 0 35 -25l41 -172q8 -33 30 -52t51 -19q32 0 58 18l154 98q7 4 19 4q14 0 23 -8q21 -17 9 -42l-73 -160q-21 -47 -2 -80q20 -36 77 -39l189 -8q26 -2 33 -27q5 -26 -17 -40zM1296 683q123 0 210 84t87 202q0 98 -62.5 175.5t-162.5 101.5l-40 10l-4 41q-10 129 -107 216
t-230 87q-115 0 -206.5 -68.5t-122.5 -176.5l-17 -60l-58 22q-63 24 -128 24q-141 0 -241 -96t-100 -232t100 -233t241 -97h841zM1321 1569q87 -92 112 -223q60 -21 108 -57q17 33 18 69q6 83 -49 146q-52 63 -137 68q-4 1 -14 1q-21 0 -38 -4zM1760 1220q-51 57 -45 129
q3 68 63 123q-83 20 -121 84q-36 61 -18 134q-39 -16 -79 -16q-57 0 -103 30.5t-69 84.5q-27 -43 -68.5 -68t-90.5 -25q-52 0 -102 29q2 -19 -2 -33q82 -25 152 -81q38 15 82 15h18q105 -7 173.5 -86.5t61.5 -184.5q-3 -54 -29 -100q42 -39 67 -82q46 40 110 47z" />
<glyph unicode="&#xf247;" horiz-adv-x="2048" d="M853 284q-23 0 -40 -16.5t-17 -40.5q0 -23 17 -39.5t40 -16.5q24 0 40.5 16.5t16.5 39.5q0 24 -16.5 40.5t-40.5 16.5zM853 341q47 0 80.5 -33.5t33.5 -80.5t-33.5 -80t-80.5 -33t-80 33t-33 80t33 80.5t80 33.5zM398 398q-23 0 -40 -16.5t-17 -40.5q0 -23 17 -40t40 -17
q24 0 40.5 17t16.5 40q0 24 -16.5 40.5t-40.5 16.5zM398 455q47 0 80.5 -33.5t33.5 -80.5t-33.5 -80.5t-80.5 -33.5t-80.5 33.5t-33.5 80.5t33.5 80.5t80.5 33.5zM1308 398q-23 0 -39.5 -16.5t-16.5 -40.5q0 -23 16.5 -40t39.5 -17q24 0 40.5 17t16.5 40q0 24 -16.5 40.5
t-40.5 16.5zM1308 455q47 0 80.5 -33.5t33.5 -80.5t-33.5 -80.5t-80.5 -33.5t-80 33.5t-33 80.5t33 80.5t80 33.5zM2036 1409q25 -34 3 -66q-63 -95 -161 -149t-210 -56q39 -80 39 -169q0 -165 -120.5 -282.5t-290.5 -117.5h-841q-188 0 -321.5 130t-133.5 314
q0 182 133.5 312t321.5 130q60 0 113 -13q53 122 167 197t252 75q117 0 223 -57q5 45 15 74q45 142 165 229.5t270 87.5h13q17 -1 31.5 -12t19.5 -29q8 -40 -25 -60q-101 -61 -134 -166q-37 -120 21 -226q57 -111 174 -146q107 -35 211 13q38 17 65 -13zM1296 683
q123 0 210 84t87 202q0 98 -62.5 175.5t-162.5 101.5l-40 10l-4 41q-11 129 -107.5 216t-229.5 87q-115 0 -206.5 -68.5t-122.5 -176.5l-17 -60l-59 22q-63 24 -127 24q-141 0 -241 -96t-100 -232t100 -233t241 -97h841zM1581 1256q127 -29 240 31q-48 3 -94 18
q-77 24 -138.5 75.5t-99.5 123.5q-78 151 -27 310q12 41 39 86q-62 -31 -106.5 -83t-65.5 -119q-19 -59 -14 -123q95 -96 117 -229q85 -28 148 -90h1z" />
<glyph unicode="&#xf248;" horiz-adv-x="2048" d="M1991 114q24 0 40.5 -17t16.5 -40q0 -24 -16.5 -40.5t-40.5 -16.5h-1934q-24 0 -40.5 16.5t-16.5 40.5q0 23 16.5 40t40.5 17h1934zM1991 341q24 0 40.5 -16.5t16.5 -40.5q0 -23 -16.5 -39.5t-40.5 -16.5h-1934q-24 0 -40.5 16.5t-16.5 39.5q0 24 16.5 40.5t40.5 16.5
h1934zM512 1934q-24 0 -40.5 17t-16.5 40q0 24 16.5 40.5t40.5 16.5t40.5 -16.5t16.5 -40.5q0 -23 -16.5 -40t-40.5 -17zM1536 1934q-24 0 -40.5 17t-16.5 40q0 24 16.5 40.5t40.5 16.5t40.5 -16.5t16.5 -40.5q0 -23 -16.5 -40t-40.5 -17zM1877 1252q-23 0 -40 16.5
t-17 39.5q0 24 17 40.5t40 16.5q24 0 40.5 -16.5t16.5 -40.5q0 -23 -16.5 -39.5t-40.5 -16.5zM284 1252q-23 0 -39.5 16.5t-16.5 39.5q0 24 16.5 40.5t39.5 16.5q24 0 40.5 -16.5t16.5 -40.5q0 -23 -16.5 -39.5t-40.5 -16.5zM171 1707q-24 0 -40.5 16.5t-16.5 40.5
q0 23 16.5 39.5t40.5 16.5q23 0 40 -16.5t17 -39.5q0 -24 -17 -40.5t-40 -16.5zM1991 1707q-23 0 -40 16.5t-17 40.5q0 23 17 39.5t40 16.5q24 0 40.5 -16.5t16.5 -39.5q0 -24 -16.5 -40.5t-40.5 -16.5zM1626 1066q175 0 298.5 -123t123.5 -296q0 -79 -32 -157l-15 -35
h-1954l-15 35q-32 78 -32 157q0 173 123.5 296t298.5 123q83 0 162 -32q63 151 199.5 241t300.5 90q156 0 287 -82t200 -223q40 6 55 6zM1923 569q11 41 11 78q0 126 -90.5 215.5t-217.5 89.5q-2 0 -36 -4l-86 -11l-36 73q-54 112 -157.5 177t-226.5 65q-130 0 -237.5 -71.5
t-157.5 -190.5l-44 -105l-105 44q-57 23 -118 23q-127 0 -217.5 -89.5t-90.5 -215.5q0 -37 11 -78h1798zM626 1593q-24 0 -40.5 16.5t-16.5 40.5q0 23 16.5 40t40.5 17q23 0 40 -17t17 -40q0 -24 -17 -40.5t-40 -16.5zM1195 1707q-24 0 -40.5 16.5t-16.5 40.5
q0 23 16.5 39.5t40.5 16.5q23 0 40 -16.5t17 -39.5q0 -24 -17 -40.5t-40 -16.5zM1536 1365q-24 0 -40.5 17t-16.5 40q0 24 16.5 40.5t40.5 16.5t40.5 -16.5t16.5 -40.5q0 -23 -16.5 -40t-40.5 -17z" />
<glyph unicode="&#xf249;" horiz-adv-x="2048" d="M740 0q24 0 40 17l236 235l-171 57l49 49q16 16 16 40t-16 40q-17 17 -40.5 17t-40.5 -17l-179 -179l171 -56l-106 -106q-17 -17 -17 -40t17 -40t41 -17zM1871 1407q-47 -26 -52 -66q-2 -39 43 -71l144 -111q22 -15 13 -41q-11 -22 -37 -22h-1l-183 18h-15q-48 0 -72 -27
q-9 -14 -14 -27v-1q10 -47 10 -90q0 -165 -120.5 -282.5t-290.5 -117.5h-841q-188 0 -321.5 130t-133.5 314q0 182 133.5 312t321.5 130q60 0 113 -13q53 122 167 197t252 75q22 0 34 -3q0 13 -5 30l-50 169q-7 26 15 40q9 6 19 6t23 -9l139 -116q30 -29 67 -29q53 0 78 62
l64 164q8 20 32 20q30 0 35 -25l41 -172q8 -33 30 -52t51 -19q32 0 58 18l154 98q7 4 19 4q14 0 23 -8q21 -17 9 -42l-73 -160q-21 -47 -2 -80q20 -36 77 -39l189 -8q26 -2 33 -27q5 -26 -17 -40zM1296 683q123 0 210 84t87 202q0 98 -62.5 175.5t-162.5 101.5l-40 10l-4 41
q-10 129 -107 216t-230 87q-115 0 -206.5 -68.5t-122.5 -176.5l-17 -60l-58 22q-63 24 -128 24q-141 0 -241 -96t-100 -232t100 -233t241 -97h841zM1321 1569q87 -92 112 -223q60 -21 108 -57q17 33 18 69q6 83 -49 146q-52 63 -137 68q-4 1 -14 1q-21 0 -38 -4zM1760 1220
q-51 57 -45 129q3 68 63 123q-83 20 -121 84q-36 61 -18 134q-39 -16 -79 -16q-57 0 -103 30.5t-69 84.5q-27 -43 -68.5 -68t-90.5 -25q-52 0 -102 29q2 -19 -2 -33q82 -25 152 -81q38 15 82 15h18q105 -7 173.5 -86.5t61.5 -184.5q-3 -54 -29 -100q42 -39 67 -82
q46 40 110 47z" />
<glyph unicode="&#xf24a;" horiz-adv-x="2048" d="M740 0q24 0 40 17l236 235l-171 57l49 49q16 16 16 40t-16 40q-17 17 -40.5 17t-40.5 -17l-179 -179l171 -56l-106 -106q-17 -17 -17 -40t17 -40q16 -17 41 -17zM2036 1409q25 -34 3 -66q-63 -95 -161 -149t-210 -56q39 -80 39 -169q0 -165 -120.5 -282.5t-290.5 -117.5
h-841q-188 0 -321.5 130t-133.5 314q0 182 133.5 312t321.5 130q60 0 113 -13q53 122 167 197t252 75q117 0 223 -57q5 38 15 74q45 142 165 229.5t270 87.5h13q17 -1 31.5 -12t19.5 -29q4 -18 -3 -34.5t-22 -25.5q-101 -62 -133 -166q-38 -119 20 -226q57 -111 174 -146
q108 -35 211 13q38 17 65 -13zM1296 683q123 0 210 84t87 202q0 98 -62.5 175.5t-162.5 101.5l-40 10l-4 41q-10 129 -107 216t-230 87q-115 0 -206.5 -68.5t-122.5 -176.5l-17 -60l-58 22q-65 24 -128 24q-141 0 -241 -96t-100 -232t100 -233t241 -97h841zM1581 1256
q127 -29 241 31q-49 3 -95 18q-77 24 -138.5 75.5t-99.5 123.5q-78 151 -27 310q12 41 39 86q-62 -31 -106.5 -83t-65.5 -119q-19 -59 -14 -123q94 -96 118 -229q84 -28 147 -90h1z" />
<glyph unicode="&#xf24b;" horiz-adv-x="2048" d="M512 427q-57 -139 -57 -177q0 -32 17 -55.5t40 -23.5t40 23.5t17 55.5q0 38 -57 177zM512 569q13 -27 32 -69.5t50.5 -129t31.5 -120.5q0 -56 -33.5 -96t-80.5 -40t-80.5 40t-33.5 96q0 34 28.5 113.5t57.5 142.5zM114 427q-57 -139 -57 -177q0 -32 17 -55.5t40 -23.5
t40 23.5t17 55.5q0 38 -57 177zM114 569q13 -27 32 -69.5t50.5 -129t31.5 -120.5q0 -56 -33.5 -96t-80.5 -40t-80.5 40t-33.5 96q0 34 28.5 113.5t57.5 142.5zM910 427q-57 -139 -57 -177q0 -32 17 -55.5t40 -23.5t40 23.5t17 55.5q0 38 -57 177zM910 569q13 -27 32 -69.5
t50.5 -129t31.5 -120.5q0 -56 -33.5 -96t-80.5 -40t-80.5 40t-33.5 96q0 34 28.5 113.5t57.5 142.5zM1707 427q-57 -139 -57 -177q0 -32 17 -55.5t40 -23.5t40 23.5t17 55.5q0 38 -57 177zM1707 569q13 -27 31.5 -69.5t50 -129t31.5 -120.5q0 -56 -33 -96t-80 -40t-80.5 40
t-33.5 96q0 34 28.5 113.5t56.5 142.5zM1308 1024q118 0 201.5 -83.5t83.5 -200.5q0 -118 -83.5 -201.5t-201.5 -83.5q-117 0 -200.5 83.5t-83.5 201.5h114q0 -71 50 -121t120 -50t120.5 50.5t50.5 120.5t-50 120t-121 50h-1251q-24 0 -40.5 17t-16.5 40q0 24 16.5 40.5
t40.5 16.5h1251zM1820 1593q94 0 161 -66.5t67 -161.5q0 -94 -67 -160.5t-161 -66.5h-1763q-24 0 -40.5 16.5t-16.5 40.5q0 23 16.5 40t40.5 17h1763q47 0 80.5 33t33.5 80t-33.5 80.5t-80.5 33.5t-80 -33.5t-33 -80.5h-114q0 94 66.5 161t160.5 67zM57 1365q-24 0 -40.5 17
t-16.5 40q0 24 16.5 40.5t40.5 16.5h967q70 0 120.5 50.5t50.5 120.5t-50 120t-121 50t-121 -50t-50 -120h-113q0 118 83 201t201 83t201 -83t83 -201t-83 -201.5t-201 -83.5h-967z" />
<glyph unicode="&#xf24c;" horiz-adv-x="2048" d="M425 371q13 0 21.5 -8.5t8.5 -21.5q0 -12 -8.5 -20.5t-21.5 -8.5h-125l89 -89q8 -9 8 -21.5t-8 -21.5q-8 -8 -21.5 -8t-20.5 8l-90 90v-126q0 -13 -8.5 -21.5t-20.5 -8.5q-13 0 -21.5 8.5t-8.5 21.5v126l-89 -90q-7 -8 -21 -8t-21 8q-9 9 -9 22q0 12 9 21l89 89h-126
q-13 0 -21.5 8.5t-8.5 20.5q0 13 8.5 21.5t21.5 8.5h126l-89 89q-9 9 -9 21q0 13 9 21q8 8 21.5 8t20.5 -8l89 -89v126q0 13 8.5 21.5t21.5 8.5q12 0 20.5 -8.5t8.5 -21.5v-126l90 89q8 8 21 8t21 -8t8 -21q0 -11 -8 -21l-90 -89h126zM994 371q13 0 21.5 -8.5t8.5 -21.5
q0 -12 -8.5 -20.5t-21.5 -8.5h-125l89 -89q8 -9 8 -21.5t-8 -21.5q-8 -8 -21.5 -8t-21.5 8l-89 90v-126q0 -13 -8.5 -21.5t-21.5 -8.5q-12 0 -20.5 8.5t-8.5 21.5v126l-89 -90q-8 -8 -21 -8t-21 8q-9 9 -9 22q0 12 9 21l89 89h-126q-13 0 -21.5 8.5t-8.5 20.5q0 13 8.5 21.5
t21.5 8.5h126l-89 89q-9 9 -9 21q0 13 9 21q8 8 21 8t21 -8l89 -89v126q0 13 8.5 21.5t20.5 8.5q13 0 21.5 -8.5t8.5 -21.5v-126l89 89q8 8 21 8t21 -7q9 -9 9 -22q0 -11 -8 -21l-90 -89h126zM2018 371q13 0 21.5 -8.5t8.5 -21.5q0 -12 -8.5 -20.5t-21.5 -8.5h-125l89 -89
q8 -9 8 -21.5t-8 -21.5q-8 -8 -21.5 -8t-21.5 8l-89 90v-126q0 -13 -8.5 -21.5t-21.5 -8.5q-12 0 -20.5 8.5t-8.5 21.5v126l-89 -90q-8 -8 -21 -8t-21 8q-9 9 -9 22q0 12 9 21l89 89h-126q-13 0 -21.5 8.5t-8.5 20.5q0 13 8.5 21.5t21.5 8.5h126l-89 89q-9 9 -9 21
q0 13 9 21q8 8 21 8t21 -8l89 -89v126q0 13 8.5 21.5t20.5 8.5q13 0 21.5 -8.5t8.5 -21.5v-126l89 89q8 8 21 8t21 -7q9 -9 9 -22q0 -11 -8 -21l-90 -89h126zM1308 1024q118 0 201.5 -83.5t83.5 -200.5q0 -118 -83.5 -201.5t-201.5 -83.5q-117 0 -200.5 83.5t-83.5 201.5
h114q0 -71 50 -121t120 -50t120.5 50.5t50.5 120.5t-50 120t-121 50h-1251q-24 0 -40.5 17t-16.5 40q0 24 16.5 40.5t40.5 16.5h1251zM1820 1593q94 0 161 -66.5t67 -161.5q0 -94 -67 -160.5t-161 -66.5h-1763q-24 0 -40.5 16.5t-16.5 40.5q0 23 16.5 40t40.5 17h1763
q47 0 80.5 33t33.5 80t-33.5 80.5t-80.5 33.5t-80 -33.5t-33 -80.5h-114q0 94 66.5 161t160.5 67zM57 1365q-24 0 -40.5 17t-16.5 40q0 24 16.5 40.5t40.5 16.5h967q70 0 120.5 50.5t50.5 120.5t-50 120t-121 50t-121 -50t-50 -120h-113q0 118 83 201t201 83t201 -83
t83 -201t-83 -201.5t-201 -83.5h-967z" />
<glyph unicode="&#xf24d;" horiz-adv-x="2048" d="M341 503l-52 -157l52 -105l53 105zM341 683l114 -342l-114 -227l-113 227zM796 503l-52 -157l52 -105l53 105zM796 683l114 -342l-114 -227l-113 227zM1820 503l-52 -157l52 -105l53 105zM1820 683l114 -342l-114 -227l-113 227zM1308 1024q118 0 201.5 -83.5
t83.5 -200.5q0 -118 -83.5 -201.5t-201.5 -83.5q-117 0 -200.5 83.5t-83.5 201.5h114q0 -71 50 -121t120 -50t120.5 50.5t50.5 120.5t-50 120t-121 50h-1251q-24 0 -40.5 17t-16.5 40q0 24 16.5 40.5t40.5 16.5h1251zM1820 1593q94 0 161 -66.5t67 -161.5q0 -94 -67 -160.5
t-161 -66.5h-1763q-24 0 -40.5 16.5t-16.5 40.5q0 23 16.5 40t40.5 17h1763q47 0 80.5 33t33.5 80t-33.5 80.5t-80.5 33.5t-80 -33.5t-33 -80.5h-114q0 94 66.5 161t160.5 67zM57 1365q-24 0 -40.5 17t-16.5 40q0 24 16.5 40.5t40.5 16.5h967q70 0 120.5 50.5t50.5 120.5
t-50 120t-121 50t-121 -50t-50 -120h-113q0 118 83 201t201 83t201 -83t83 -201t-83 -201.5t-201 -83.5h-967z" />
<glyph unicode="&#xf24e;" horiz-adv-x="2048" d="M1363 1048q7 -32 -4.5 -63t-37.5 -51l-1024 -796q-30 -24 -69 -24q-45 0 -78 30q-31 28 -35.5 70t18.5 77l365 548l-298 75q-31 8 -53.5 30t-29.5 53q-16 67 36 113l910 796q33 28 75 28q47 0 80.5 -33.5t33.5 -80.5q0 -29 -15 -56l-275 -550l317 -80q31 -7 54 -30.5
t30 -55.5zM228 228l1024 796l-456 114l342 682l-910 -796l455 -114zM1308 114q18 0 34 11l543 407l-342 113l368 277q19 13 22.5 36.5t-10.5 42.5t-37.5 22.5t-42.5 -10.5l-542 -407l341 -114l-368 -276q-19 -14 -22 -37t11 -42q17 -23 45 -23z" />
<glyph unicode="&#xf250;" horiz-adv-x="2048" d="M1991 341q24 0 40.5 -16.5t16.5 -40.5q0 -23 -16.5 -39.5t-40.5 -16.5h-1934q-24 0 -40.5 16.5t-16.5 39.5q0 24 16.5 40.5t40.5 16.5h1934zM1991 569q24 0 40.5 -16.5t16.5 -40.5t-16.5 -40.5t-40.5 -16.5h-1934q-24 0 -40.5 16.5t-16.5 40.5t16.5 40.5t40.5 16.5h1934z
M1991 796q24 0 40.5 -16.5t16.5 -39.5q0 -24 -16.5 -40.5t-40.5 -16.5h-1934q-24 0 -40.5 16.5t-16.5 40.5q0 23 16.5 39.5t40.5 16.5h1934zM2001 910h-1954l-15 35q-32 78 -32 157q0 173 123.5 296t298.5 123q83 0 162 -32q63 151 199.5 241t300.5 90q156 0 287 -81.5
t200 -222.5q45 5 55 5q175 0 298.5 -123t123.5 -296q0 -79 -32 -157zM125 1024h1798q11 41 11 78q0 126 -90.5 215.5t-217.5 89.5q-13 0 -36 -4l-86 -11l-36 73q-54 112 -157.5 177t-226.5 65q-130 0 -237.5 -71.5t-157.5 -190.5l-44 -105l-105 44q-57 23 -118 23
q-127 0 -217.5 -89.5t-90.5 -215.5q0 -37 11 -78z" />
<glyph unicode="&#xf251;" horiz-adv-x="2048" d="M1650 227q23 0 40 -16.5t17 -39.5q0 -24 -17 -40.5t-40 -16.5h-1593q-23 0 -40 16.5t-17 40.5q0 23 17 39.5t40 16.5h1593zM1650 455q23 0 40 -17t17 -40t-17 -40t-40 -17h-1593q-23 0 -40 17t-17 40t17 40t40 17h1593zM1650 683q23 0 40 -17t17 -40q0 -24 -17 -40.5
t-40 -16.5h-1593q-23 0 -40 16.5t-17 40.5q0 23 17 40t40 17h1593zM1871 1407q-47 -26 -52 -66q-2 -39 43 -71l144 -111q22 -15 13 -41q-11 -22 -37 -22h-1l-183 18h-15q-48 0 -72 -27q-12 -17 -12 -39q8 -33 8 -79q0 -69 -26 -136l-14 -37h-1609l-15 32q-43 91 -43 185
q0 182 133.5 312t321.5 130q58 0 113 -13q51 122 167 198q117 74 252 74q22 0 34 -3q0 13 -5 30l-50 169q-7 26 15 40q9 6 19 6t23 -9l139 -116q30 -29 67 -29q53 0 78 62l64 164q8 20 32 20q30 0 35 -25l41 -172q8 -33 30 -52t51 -19q32 0 58 18l154 98q7 4 19 4
q14 0 23 -8q21 -17 9 -42l-73 -160q-21 -47 -2 -80q20 -36 77 -39l189 -8q26 -2 33 -27q5 -26 -17 -40zM1586 910q7 28 7 59q0 91 -54.5 165t-142.5 104l-64 22l-11 67q-21 119 -115.5 196t-218.5 77q-103 0 -188.5 -55.5t-125.5 -148.5l-39 -89l-93 24q-41 10 -86 10
q-141 0 -241 -96t-100 -232q0 -54 18 -103h1454zM1320 1569q89 -93 113 -223q60 -21 108 -57q17 33 18 69q6 83 -49 146q-52 63 -137 68q-4 1 -14 1q-23 0 -39 -4zM1760 1220q-51 57 -45 129q3 68 63 123q-83 20 -121 84q-36 61 -18 134q-39 -16 -79 -16q-57 0 -103 30.5
t-69 84.5q-27 -43 -68.5 -68t-90.5 -25q-52 0 -102 29q1 -17 0 -33q81 -25 150 -81q38 15 82 15h18q105 -7 173.5 -86.5t61.5 -184.5q-3 -50 -29 -101q27 -25 49 -55q3 -5 9.5 -14t8.5 -12q46 40 110 47z" />
<glyph unicode="&#xf252;" horiz-adv-x="2048" d="M1650 227q23 0 40 -16.5t17 -39.5q0 -24 -17 -40.5t-40 -16.5h-1593q-24 0 -40.5 16.5t-16.5 40.5q0 23 16.5 39.5t40.5 16.5h1593zM1650 455q23 0 40 -17t17 -40t-17 -40t-40 -17h-1593q-24 0 -40.5 17t-16.5 40t16.5 40t40.5 17h1593zM1650 683q23 0 40 -17t17 -40
q0 -24 -17 -40.5t-40 -16.5h-1593q-24 0 -40.5 16.5t-16.5 40.5q0 23 16.5 40t40.5 17h1593zM2036 1409q25 -34 3 -66q-63 -95 -161.5 -149t-210.5 -56q40 -78 40 -169q0 -69 -26 -136l-14 -37h-1609l-15 32q-43 91 -43 185q0 182 133.5 312t321.5 130q58 0 113 -13
q51 122 167 198q117 74 252 74q119 0 223 -59q2 31 15 76q45 142 165 229.5t270 87.5h13q17 -1 31.5 -12t19.5 -29q4 -18 -3 -34.5t-22 -25.5q-101 -62 -133 -166q-38 -119 20 -226q57 -111 174 -146q108 -35 211 13q38 17 65 -13zM1586 910q7 28 7 59q0 91 -54.5 165
t-142.5 104l-64 22l-11 67q-22 119 -116 196t-218 77q-103 0 -188.5 -55.5t-126.5 -148.5l-38 -89l-94 24q-40 10 -85 10q-141 0 -241 -96t-100 -232q0 -57 18 -103h1454zM1579 1257q129 -31 243 30q-49 3 -95 18q-77 24 -138.5 75.5t-99.5 123.5q-78 151 -27 310
q12 41 39 86q-62 -31 -106.5 -83t-65.5 -119q-19 -62 -14 -125q94 -94 118 -227q82 -28 146 -89z" />
<glyph unicode="&#xf253;" horiz-adv-x="2048" d="M1991 228q24 0 40.5 -17t16.5 -40q0 -24 -16.5 -40.5t-40.5 -16.5h-1934q-24 0 -40.5 16.5t-16.5 40.5q0 23 16.5 40t40.5 17h1934zM1991 455q24 0 40.5 -16.5t16.5 -40.5q0 -23 -16.5 -40t-40.5 -17h-1934q-24 0 -40.5 17t-16.5 40q0 24 16.5 40.5t40.5 16.5h1934z
M1991 683q24 0 40.5 -17t16.5 -40q0 -24 -16.5 -40.5t-40.5 -16.5h-1934q-24 0 -40.5 16.5t-16.5 40.5q0 23 16.5 40t40.5 17h8l190 125q70 45 70 105q0 59 -70 104l-230 150q-15 10 -21.5 27.5t-1.5 34.5q11 37 51 37h3l278 -6q93 0 128 50q32 46 6 119l-94 250
q-14 37 17 63q16 10 33 10q19 0 32 -10l221 -163q49 -34 96 -34q41 0 73.5 26t47.5 74l79 255q10 34 51 34t51 -34l80 -255q14 -48 46.5 -74t73.5 -26q48 0 96 35l221 162q13 10 32 10q17 0 33 -10q31 -26 17 -63l-94 -250q-26 -73 6 -119q35 -50 121 -50l285 6h3
q40 0 51 -37q5 -17 -1.5 -34.5t-21.5 -27.5l-230 -150q-70 -45 -70 -104q0 -60 70 -105l190 -125h8zM734 683h580q80 99 80 227q0 153 -108.5 261.5t-261.5 108.5t-261.5 -108.5t-108.5 -261.5q0 -128 80 -227zM1451 910q0 -122 -67 -227h392l-44 29q-123 78 -123 201
q0 119 122 199l54 35l-75 -1q-149 0 -217 99q-67 96 -20 224l24 62l-59 -43q-79 -57 -163 -57q-79 0 -141 48.5t-88 131.5l-22 71l-22 -71q-26 -83 -88 -131.5t-141 -48.5q-84 0 -163 57l-59 43l24 -62q47 -128 -20 -224q-67 -99 -221 -99l-71 1l54 -34q122 -82 122 -200
q0 -122 -122 -201l-45 -29h392q-67 105 -67 227q0 177 125 302t302 125t302 -125t125 -302z" />
<glyph unicode="&#xf254;" horiz-adv-x="2048" d="M1991 683q24 0 40.5 -17t16.5 -40q0 -24 -16.5 -40.5t-40.5 -16.5h-1934q-24 0 -40.5 16.5t-16.5 40.5q0 23 16.5 40t40.5 17h340q-131 157 -164 363q-26 158 10 313t131 289q82 116 204 200q69 47 148 82q41 16 67 -18q11 -16 9.5 -35t-15.5 -34q-140 -152 -157 -354
t96 -368q89 -129 230.5 -193.5t298.5 -50.5t290 106q122 83 191 212q8 13 19 19q21 15 46 9q19 -4 30 -19.5t9 -34.5q-17 -230 -147 -416q-20 -30 -57 -70h355zM337 1064q38 -229 207 -381h943q70 62 119 131q49 65 80 147q-39 -38 -81 -65q-157 -108 -342.5 -124.5t-352 60
t-271.5 228.5q-100 146 -115 322t55 334q-70 -61 -118 -129q-83 -115 -115 -250.5t-9 -272.5zM1991 228q24 0 40.5 -17t16.5 -40q0 -24 -16.5 -40.5t-40.5 -16.5h-1934q-24 0 -40.5 16.5t-16.5 40.5q0 23 16.5 40t40.5 17h1934zM1991 455q24 0 40.5 -16.5t16.5 -40.5
q0 -23 -16.5 -40t-40.5 -17h-1934q-24 0 -40.5 17t-16.5 40q0 24 16.5 40.5t40.5 16.5h1934z" />
<glyph unicode="&#xf255;" horiz-adv-x="2048" d="M1163 171q-14 0 -24 5q-32 14 -32 52q0 109 -54 198q-26 42 -60.5 73t-69.5 46.5t-60 23t-47 10.5l-134 27q-26 3 -55 12t-70.5 27.5t-83 55.5t-71.5 86q-86 140 -50.5 316.5t171.5 291.5q29 23 61 8q33 -15 33 -52q-2 -108 52 -198q26 -42 60.5 -73t69.5 -46.5t60 -23
t48 -10.5l134 -27q26 -3 55.5 -12t71 -28t82.5 -55.5t71 -85.5q86 -140 50.5 -316.5t-171.5 -291.5q-16 -13 -37 -13zM519 1220q-57 -88 -63 -189t43 -184q22 -36 52.5 -62.5t61 -39.5t51 -19t37.5 -8l133 -27q29 -3 62.5 -13t79.5 -31t93 -63t82 -99q35 -59 53 -127
q57 89 63 189.5t-43 184.5q-67 109 -202 129l-133 27q-30 4 -62.5 14t-79.5 31t-93.5 63t-81.5 98q-34 56 -53 126zM1488 639q-12 0 -23 6q-33 14 -33 52q0 108 -53 198q-26 42 -60.5 73t-69.5 46.5t-60 23t-48 10.5l-134 27q-26 3 -55 12t-70.5 27.5t-83 55.5t-71.5 86
q-85 140 -50.5 316t171.5 292q28 23 61 8t33 -52q-1 -109 53 -198q25 -42 59.5 -73t70 -47t60 -23.5t48.5 -10.5l133 -26q26 -3 55.5 -12t70.5 -28t82.5 -56t71.5 -86q86 -139 50.5 -315.5t-171.5 -291.5q-16 -14 -37 -14zM844 1689q-57 -88 -63 -189t43 -185
q28 -45 71 -75.5t73 -40t58 -12.5l133 -27q30 -4 62.5 -14t79.5 -31t93.5 -63t81.5 -98q35 -59 53 -127q57 88 63 189t-43 185q-67 108 -202 129l-133 26q-30 5 -62.5 14.5t-79.5 31t-93.5 63.5t-81.5 98q-35 57 -53 126z" />
<glyph unicode="&#xf381;" horiz-adv-x="2048" d="M1593 1593q94 0 160.5 -67t66.5 -161v-1033q0 -90 -63.5 -154t-154.5 -64h-1156q-91 0 -154.5 64t-63.5 154v1033q0 94 66.5 161t160.5 67h455v341h228v-341h455zM1707 332v351h-399v-228q0 -24 -16.5 -40.5t-39.5 -16.5q-24 0 -40.5 16.5t-16.5 40.5v228h-342v-228
q0 -24 -16.5 -40.5t-40.5 -16.5q-23 0 -39.5 16.5t-16.5 40.5v228h-399v-351q0 -43 30.5 -73.5t74.5 -30.5h1156q44 0 74.5 30.5t30.5 73.5zM711 1138q0 -35 25 -60.5t60 -25.5t60.5 25.5t25.5 60.5t-25.5 60t-60.5 25q-34 0 -59.5 -25.5t-25.5 -59.5zM1707 796v569
q0 47 -33.5 80.5t-80.5 33.5h-1138q-47 0 -80.5 -33.5t-33.5 -80.5v-569h399v212q-38 17 -62 52t-24 78q0 58 42 100t100 42q59 0 101 -41.5t42 -100.5q0 -43 -24 -78t-62 -52v-212h342v212q-38 17 -62 52t-24 78q0 59 42 100.5t101 41.5q58 0 100 -42t42 -100
q0 -43 -24 -78t-62 -52v-212h399zM1252 1052q35 0 60 25.5t25 60.5q0 34 -25.5 59.5t-59.5 25.5q-35 0 -60.5 -25t-25.5 -60t25.5 -60.5t60.5 -25.5z" />
<glyph unicode="&#xf382;" horiz-adv-x="2048" d="M1707 1593q94 0 160.5 -67t66.5 -161v-1033q0 -90 -64 -154t-154 -64h-1384q-90 0 -154 64t-64 154v1033q0 94 66.5 161t160.5 67h569v341h228v-341h569zM1820 332v351h-284v-228q0 -24 -16.5 -40.5t-40.5 -16.5t-40.5 16.5t-16.5 40.5v228h-341v-228q0 -24 -16.5 -40.5
t-40.5 -16.5t-40.5 16.5t-16.5 40.5v228h-341v-228q0 -24 -16.5 -40.5t-40.5 -16.5t-40.5 16.5t-16.5 40.5v228h-284v-351q0 -44 30 -74t74 -30h1384q44 0 74 30t30 74zM484 1138q0 -35 25 -60.5t60 -25.5t60 25.5t25 60.5t-25 60t-60 25t-60 -25t-25 -60zM939 1138
q0 -35 25 -60.5t60 -25.5t60 25.5t25 60.5t-25 60t-60 25t-60 -25t-25 -60zM1820 796v569q0 47 -33 80.5t-80 33.5h-1366q-47 0 -80 -33.5t-33 -80.5v-569h284v212q-38 17 -61.5 52t-23.5 78q0 59 41.5 100.5t100.5 41.5t100.5 -42t41.5 -100q0 -43 -23.5 -78t-61.5 -52
v-212h341v212q-38 17 -61.5 52t-23.5 78q0 58 42 100t100 42t100 -42t42 -100q0 -43 -23.5 -78t-61.5 -52v-212h341v212q-38 17 -61.5 52t-23.5 78q0 58 41.5 100t100.5 42t100.5 -41.5t41.5 -100.5q0 -43 -23.5 -78t-61.5 -52v-212h284zM1479 1052q35 0 60 25.5t25 60.5
t-25 60t-60 25t-60 -25t-25 -60t25 -60.5t60 -25.5z" />
<glyph unicode="&#xf383;" horiz-adv-x="2048" d="M1820 1593q94 0 161 -66.5t67 -161.5v-1033q0 -90 -64 -154t-155 -64h-1610q-91 0 -155 64t-64 154v1033q0 95 67 161.5t161 66.5h682v341h228v-341h682zM1934 332v351h-170v-228q0 -24 -16.5 -40.5t-40.5 -16.5t-40.5 16.5t-16.5 40.5v228h-342v-228q0 -24 -16.5 -40.5
t-39.5 -16.5q-24 0 -40.5 16.5t-16.5 40.5v228h-342v-228q0 -24 -16.5 -40.5t-40.5 -16.5q-23 0 -39.5 16.5t-16.5 40.5v228h-342v-228q0 -24 -16.5 -40.5t-40.5 -16.5t-40.5 16.5t-16.5 40.5v228h-170v-351q0 -44 30.5 -74t74.5 -30h1610q44 0 74.5 30t30.5 74zM256 1138
q0 -35 25 -60.5t60 -25.5t60.5 25.5t25.5 60.5t-25.5 60t-60.5 25t-60 -25.5t-25 -59.5zM711 1138q0 -35 25 -60.5t60 -25.5t60.5 25.5t25.5 60.5t-25.5 60t-60.5 25q-34 0 -59.5 -25.5t-25.5 -59.5zM1166 1138q0 -35 25.5 -60.5t60.5 -25.5t60 25.5t25 60.5
q0 34 -25.5 59.5t-59.5 25.5q-35 0 -60.5 -25t-25.5 -60zM1934 796v569q0 47 -33.5 80.5t-80.5 33.5h-1592q-47 0 -80.5 -33.5t-33.5 -80.5v-569h170v212q-38 17 -61.5 52t-23.5 78q0 58 41.5 100t100.5 42t101 -41.5t42 -100.5q0 -43 -24 -78t-62 -52v-212h342v212
q-38 17 -62 52t-24 78q0 58 42 100t100 42q59 0 101 -41.5t42 -100.5q0 -43 -24 -78t-62 -52v-212h342v212q-38 17 -62 52t-24 78q0 59 42 100.5t101 41.5q58 0 100 -42t42 -100q0 -43 -24 -78t-62 -52v-212h342v212q-38 17 -62 52t-24 78q0 59 42 100.5t101 41.5t100.5 -42
t41.5 -100q0 -43 -23.5 -78t-61.5 -52v-212h170zM1707 1052q35 0 60 25.5t25 60.5q0 34 -25 59.5t-60 25.5t-60.5 -25t-25.5 -60t25.5 -60.5t60.5 -25.5z" />
<glyph unicode="&#xf390;" horiz-adv-x="2048" d="M1024 1593q-116 0 -221 -45t-181.5 -121.5t-121.5 -181.5t-45 -221t45 -221t121.5 -181.5t181.5 -121.5t221 -45t221 45t181.5 121.5t121.5 181.5t45 221t-45 221t-121.5 181.5t-181.5 121.5t-221 45zM1024 1707q185 0 342.5 -91.5t249 -249t91.5 -342.5t-91.5 -342.5
t-249 -249t-342.5 -91.5t-342.5 91.5t-249 249t-91.5 342.5t91.5 342.5t249 249t342.5 91.5z" />
<glyph unicode="&#xf391;" horiz-adv-x="2048" d="M1593 1593h-1138v-1138h1138v1138zM1707 1707v-1366h-1366v1366h1366z" />
<glyph unicode="&#xf392;" horiz-adv-x="2048" d="M1024 1761l-645 -737l645 -737l645 737zM1024 1934l796 -910l-796 -910l-796 910z" />
<glyph unicode="&#xf393;" horiz-adv-x="2048" d="M0 1024l512 910l512 -910l-512 -910zM512 346l382 678l-382 678l-382 -678zM1536 1934l512 -910l-512 -910l-512 910zM1154 1024l382 -678l382 678l-382 678z" />
<glyph unicode="&#xf531;" horiz-adv-x="2048" d="M1263 1263q-95 -18 -169 -36.5t-100.5 -27t-28.5 -10.5q-54 -20 -86 -64.5t-32 -99.5q0 -72 54 -124q52 -54 124 -54q55 0 99.5 31.5t63.5 83.5q3 6 11.5 31t27 100t36.5 170zM1402 1402q-24 -156 -51 -276t-41 -162l-15 -42q-32 -86 -105.5 -137.5t-164.5 -51.5
q-116 0 -205 87q-87 89 -87 205q0 91 51.5 164.5t137.5 105.5q130 53 480 107zM1025 968q23 0 40 16.5t16 39.5q1 24 -16 40.5t-41 16.5q-23 1 -39.5 -16t-16.5 -40q0 -24 16.5 -40.5t40.5 -16.5zM1024 1707q-137 0 -261.5 -51.5t-221.5 -148.5t-148.5 -221.5t-51.5 -261.5
t51.5 -261.5t148.5 -221.5t221.5 -148.5t261.5 -51.5t261.5 51.5t221.5 148.5t148.5 221.5t51.5 261.5t-51.5 261.5t-148.5 221.5t-221.5 148.5t-261.5 51.5zM1024 1820q156 0 302.5 -59t260.5 -174q115 -115 174.5 -263.5t59.5 -299.5t-59.5 -299.5t-174.5 -263.5
q-114 -115 -260.5 -174t-302.5 -59t-302.5 59t-260.5 174q-115 115 -174.5 263.5t-59.5 299.5t59.5 299.5t174.5 263.5q114 115 260.5 174t302.5 59z" />
<glyph unicode="&#xf532;" horiz-adv-x="2048" d="M1021 1201q-71 0 -122 -51q-49 -51 -49 -126t49 -126q51 -51 122 -51q38 0 75 17q5 1 29.5 13.5t91 52t146.5 94.5q-36 25 -70.5 47t-60 37.5t-48 28.5t-37.5 21.5t-26 14t-17 7.5l-5 3q-41 18 -78 18zM1021 1314q66 0 122 -26q15 -6 44.5 -21t137 -82.5t234.5 -160.5
q-127 -93 -231 -159t-144 -85l-41 -20q-56 -26 -122 -26q-119 0 -202 84q-83 82 -83 206t83 206q83 84 202 84zM985 984q17 -16 40 -16t40 16t17 40t-17 40t-40.5 16t-40.5 -16t-16.5 -40t17.5 -40zM1024 1707q-137 0 -261.5 -51.5t-221.5 -148.5t-148.5 -221.5
t-51.5 -261.5t51.5 -261.5t148.5 -221.5t221.5 -148.5t261.5 -51.5q138 0 264.5 54.5t218 146t146 218t54.5 264.5t-54.5 264.5t-146 218t-218 146t-264.5 54.5zM1024 1820q162 0 309.5 -63t254 -169.5t169.5 -254t63 -309.5t-63 -309.5t-169.5 -254t-254 -169.5t-309.5 -63
t-309.5 63t-254 169.5t-169.5 254t-63 309.5t63 309.5t169.5 254t254 169.5t309.5 63z" />
<glyph unicode="&#xf533;" horiz-adv-x="2048" d="M1025 1201q-72 0 -124 -54q-53 -52 -55 -124q0 -55 31.5 -99t84.5 -64q6 -3 31 -11.5t100 -27t170 -36.5q-18 94 -36.5 168.5t-27 101t-10.5 28.5q-20 54 -64.5 86t-99.5 32zM1025 1315q91 0 164.5 -51.5t105.5 -137.5q53 -130 107 -480q-156 24 -276 51t-162 41l-42 15
q-86 32 -137.5 105.5t-51.5 164.5q0 116 87 205q89 87 205 87zM968 1023q0 -23 16.5 -40t39.5 -16q24 -1 40.5 16t16.5 41q1 23 -16 39.5t-41 16.5q-23 0 -39.5 -16.5t-16.5 -40.5zM1024 1707q-137 0 -261.5 -51.5t-221.5 -148.5t-148.5 -221.5t-51.5 -261.5t51.5 -261.5
t148.5 -221.5t221.5 -148.5t261.5 -51.5t261.5 51.5t221.5 148.5t148.5 221.5t51.5 261.5t-51.5 261.5t-148.5 221.5t-221.5 148.5t-261.5 51.5zM1024 1820q156 0 302.5 -59t260.5 -174q115 -115 174.5 -263.5t59.5 -299.5t-59.5 -299.5t-174.5 -263.5
q-114 -115 -260.5 -174t-302.5 -59t-302.5 59t-260.5 174q-115 115 -174.5 263.5t-59.5 299.5t59.5 299.5t174.5 263.5q114 115 260.5 174t302.5 59z" />
<glyph unicode="&#xf534;" horiz-adv-x="2048" d="M1025 1198h-1q-77 0 -126 -49q-39 -38 -48 -92t14 -105q1 -5 13.5 -29.5t52 -91t94.5 -146.5q25 36 47 70.5t37.5 60t28.5 48t21.5 37.5t14 26t7.5 17l3 5q24 53 15 107t-48 93q-49 49 -125 49zM1025 1312q123 0 205 -83q64 -64 80 -152.5t-22 -171.5q-6 -15 -21 -44.5
t-82.5 -137t-160.5 -234.5q-93 127 -159 231t-85 144l-20 41q-38 83 -22 172t80 153q82 82 206 82h1zM984 1064q-16 -17 -16 -40.5t16 -40.5t40 -17t40 17t16 40.5t-16 40.5q-16 16 -40 16t-40 -16zM1024 1707v0q-138 0 -264.5 -54.5t-218 -146t-146 -218t-54.5 -264.5
t54.5 -264.5t146 -218t218 -146t264.5 -54.5q139 0 265.5 54.5t218 146t145.5 217.5t54 265q0 137 -51.5 261.5t-148.5 221.5t-221.5 148.5t-261.5 51.5zM1024 1820q162 0 309.5 -63t254 -169.5t169.5 -254t63 -309.5t-63 -309.5t-169.5 -254t-254 -169.5t-309.5 -63
t-309.5 63t-254 169.5t-169.5 254t-63 309.5t63 309.5t169.5 254t254 169.5t309.5 63v0z" />
<glyph unicode="&#xf535;" horiz-adv-x="2048" d="M1023 1202q-55 -1 -99.5 -32.5t-63.5 -83.5q-2 -3 -11 -30t-27.5 -101.5t-36.5 -169.5q94 18 168.5 36.5t101 27t28.5 10.5q54 20 86 64.5t32 99.5q0 72 -54 124q-53 53 -124 55zM1023 1315q116 0 205 -87q87 -89 87 -205q0 -91 -51.5 -164.5t-137.5 -105.5
q-130 -53 -480 -107q24 156 51 276t41 162l15 42q32 86 105.5 137.5t164.5 51.5zM1023 1080q-23 0 -40 -16.5t-16 -40.5q-1 -23 16 -40t41 -17q23 0 39.5 17t17.5 40q-1 24 -17.5 40.5t-40.5 16.5zM1024 1707q-137 0 -261.5 -51.5t-221.5 -148.5q-131 -131 -177.5 -307
t0 -352t177.5 -307q97 -97 221.5 -148.5t261.5 -51.5t261.5 51.5t221.5 148.5t148.5 221.5t51.5 261.5t-51.5 261.5t-148.5 220.5q-97 97 -221.5 149t-261.5 52zM1024 1820q156 0 302.5 -59t260.5 -174q115 -115 174.5 -263.5t59.5 -299.5t-59.5 -299.5t-174.5 -263.5
q-114 -115 -260.5 -174t-302.5 -59t-302.5 59t-260.5 174q-115 115 -174.5 263.5t-59.5 299.5t59.5 299.5t174.5 263.5q114 115 260.5 174t302.5 59z" />
<glyph unicode="&#xf536;" horiz-adv-x="2048" d="M1027 1201q-38 0 -75 -17q-5 -1 -29.5 -13.5t-91 -52t-146.5 -94.5q36 -25 70.5 -47t60 -37.5t48 -28.5t37.5 -21.5t26 -14t17 -7.5l5 -3q41 -18 78 -18q71 0 122 51q49 51 49 126q0 77 -49 126q-49 51 -122 51zM1027 1314q121 0 203 -84q82 -82 82 -206t-83 -206
q-83 -84 -202 -84q-66 0 -122 26q-15 6 -44.5 21t-137 82.5t-234.5 160.5q128 93 232 159t144 85l40 20q58 26 122 26zM1064 1064q-17 16 -40.5 16t-40.5 -16t-17 -40t17 -40t40.5 -16t40.5 16q16 16 16 40t-16 40zM1024 1707q-138 0 -264.5 -54.5t-218 -146t-146 -218
t-54.5 -264.5q0 -137 51.5 -261.5t148.5 -221.5t221.5 -148.5t261.5 -51.5t261.5 51.5t221.5 148.5t148.5 221.5t51.5 261.5t-51.5 261.5t-148.5 221.5t-221.5 148.5t-261.5 51.5zM1024 1820q162 0 309.5 -63t254 -169.5t169.5 -254t63 -309.5t-62.5 -309.5t-169.5 -254
t-254.5 -169.5t-309.5 -63t-309.5 63t-254 169.5t-169.5 254t-63 309.5t63 309.5t169.5 254t254 169.5t309.5 63z" />
<glyph unicode="&#xf537;" horiz-adv-x="2048" d="M785 1263q18 -94 36.5 -168.5t27 -101t10.5 -28.5q20 -54 64.5 -86t99.5 -32q72 0 124 54q53 52 55 124q0 55 -31.5 99t-84.5 64q-3 2 -30 11t-101.5 27.5t-169.5 36.5zM646 1402q156 -24 276 -51t162 -41l42 -15q86 -32 137.5 -105.5t51.5 -164.5q0 -116 -87 -205
q-87 -87 -205 -87q-90 0 -164 51.5t-106 137.5q-6 15 -16.5 46t-38.5 154.5t-52 279.5zM1080 1025q0 23 -16.5 39.5t-40.5 16.5q-23 0 -39.5 -16.5t-16.5 -40.5q-1 -23 16 -39.5t40 -16.5q24 0 40.5 16.5t16.5 40.5zM1024 1707q-137 0 -261.5 -51.5t-221.5 -148.5
t-148.5 -221.5t-51.5 -261.5t51.5 -261.5t148.5 -221.5t221.5 -148.5t261.5 -51.5q136 0 260.5 51.5t221.5 148.5t149 221.5t52 261.5t-51.5 261.5t-148.5 221.5t-221.5 148.5t-261.5 51.5zM1024 1820q156 0 302.5 -59t260.5 -174q115 -115 174.5 -263.5t59.5 -299.5
t-59.5 -299.5t-174.5 -263.5q-114 -115 -260.5 -174t-302.5 -59t-302.5 59t-260.5 174q-115 115 -174.5 263.5t-59.5 299.5t59.5 299.5t174.5 263.5q114 115 260.5 174t302.5 59z" />
<glyph unicode="&#x1f300;" horiz-adv-x="2048" d="M1650 1024q0 -34 -5 -72q-17 -327 -177.5 -565.5t-425.5 -326.5q-9 -3 -18 -3q-18 0 -33 10.5t-21 28.5q-8 22 3 43t33 29q279 93 423 380q-176 -150 -405 -150q-170 0 -314 84t-228 228t-84 314q0 34 5 72q17 327 177.5 565.5t425.5 326.5q22 8 43 -3t29 -33t-3 -43
t-33 -29q-279 -93 -423 -380q176 150 405 150q170 0 314 -84t228 -228t84 -314zM1024 512q104 0 198.5 40.5t163.5 109.5t109.5 163.5t40.5 198.5t-40.5 198.5t-109.5 163.5t-163.5 109.5t-198.5 40.5t-198.5 -40.5t-163.5 -109.5t-109.5 -163.5t-40.5 -198.5t40.5 -198.5
t109.5 -163.5t163.5 -109.5t198.5 -40.5zM1024 1280q106 0 181 -75t75 -181t-75 -181t-181 -75t-181 75t-75 181t75 181t181 75zM1024 825q82 0 140.5 58.5t58.5 140.5t-58.5 140.5t-140.5 58.5t-140.5 -58.5t-58.5 -140.5t58.5 -140.5t140.5 -58.5z" />
<glyph unicode="&#x1f305;" horiz-adv-x="2048" d="M509 601q-31 0 -47 24q-36 51 -121 51l-286 -8q-43 2 -56 41q-5 19 2 37t23 28l232 145q69 45 69 104q0 58 -70 105l-230 150q-16 10 -22.5 28.5t-0.5 36.5q5 18 21.5 29.5t34.5 9.5l277 -12q91 0 127 51q33 47 5 119l-93 250q-15 40 19 66q16 11 35 11t34 -12l216 -165
q62 -46 127.5 -26.5t88.5 92.5l79 255q5 18 20 29t34 11t34.5 -11.5t20.5 -29.5l73 -255q23 -72 87 -91.5t129 27.5l221 162q33 25 68 -1q34 -27 18 -66l-98 -247q-27 -71 6 -118q36 -51 121 -51l286 7q20 1 35 -10.5t21 -29.5q5 -19 -2 -37t-23 -28l-232 -145
q-69 -45 -69 -104q0 -58 70 -105l231 -150q16 -10 22 -28.5t1 -36.5q-6 -19 -22 -31t-35 -9l-277 13q-91 0 -127 -51q-13 -19 -36.5 -23.5t-42.5 9.5q-19 13 -23.5 36.5t9.5 42.5q67 100 222 100l72 -4l-56 37q-122 80 -122 200t122 200l56 35l-78 -2q-148 0 -216 100
q-67 96 -19 224l26 64l-62 -45q-79 -57 -163 -57q-80 0 -142 48.5t-87 131.5l-21 73l-23 -73q-26 -82 -88 -131t-141 -49q-84 0 -163 57l-60 46l24 -65q48 -128 -19 -224q-69 -100 -222 -100l-72 4l56 -37q122 -80 122 -200t-122 -200l-56 -35l78 2h1q146 0 215 -100
q14 -19 9.5 -42.5t-23.5 -36.5q-14 -10 -32 -10zM699 388q-16 17 -16 40.5t16 40.5l325 324l325 -324q16 -16 16 -40t-16 -41q-16 -16 -41 -16q-24 0 -40 16l-188 178v-512q0 -22 -16 -39.5t-39 -17.5q-24 0 -40.5 16.5t-16.5 40.5l-1 512l-187 -178q-16 -16 -40 -16t-41 16
zM759 689q-75 60 -118.5 146.5t-43.5 185.5q0 176 125.5 301.5t301.5 125.5t301.5 -125.5t125.5 -301.5q0 -99 -43.5 -185.5t-118.5 -146.5l-40 40q67 52 106 128.5t39 163.5q0 153 -108.5 261.5t-261.5 108.5t-261.5 -108.5t-108.5 -261.5q0 -87 39 -163.5t106 -128.5z" />
<glyph unicode="&#x1f307;" horiz-adv-x="2048" d="M509 601q-31 0 -47 24q-36 51 -121 51l-286 -8q-18 1 -34 12t-22 29q-5 19 2 37t23 28l232 145q69 45 69 104q0 58 -70 105l-230 150q-16 10 -22.5 28.5t-0.5 36.5q5 18 21.5 29.5t34.5 9.5l277 -12q91 0 127 51q33 47 5 119l-93 250q-15 40 19 66q16 11 35 11t34 -12
l216 -165q62 -46 127.5 -26.5t88.5 92.5l79 255q5 18 22 30t32 10q19 0 34.5 -11.5t20.5 -29.5l73 -255q23 -73 87 -92t129 28l221 162q33 25 68 -1q15 -12 20 -30.5t-2 -35.5l-98 -247q-26 -72 6 -118q36 -51 121 -51l286 7q19 1 34.5 -10.5t21.5 -29.5q5 -19 -2 -37
t-23 -28l-232 -145q-69 -45 -69 -104q0 -58 70 -105l231 -150q16 -10 22 -28.5t1 -36.5q-6 -19 -22 -31t-35 -9l-277 13q-91 0 -127 -51q-13 -19 -36.5 -23.5t-42.5 9.5q-19 13 -23.5 36.5t9.5 42.5q69 100 222 100l72 -4l-56 37q-122 80 -122 200t122 200l56 35l-78 -2
q-148 0 -216 100q-67 96 -19 224l26 64l-62 -45q-79 -57 -163 -57q-80 0 -142 48.5t-87 131.5l-21 73l-23 -73q-26 -82 -88 -131t-141 -49q-84 0 -163 57l-60 46l24 -65q48 -128 -19 -224q-69 -100 -222 -100l-72 3l56 -36q122 -80 122 -200t-122 -200l-56 -35l78 2h1
q146 0 215 -100q14 -19 9.5 -42.5t-23.5 -36.5q-14 -10 -32 -10zM1349 402q16 -16 16 -40t-16 -40l-325 -325l-325 325q-16 16 -16 40t16 40q17 17 41 17q23 0 40 -17l188 -178v512q0 22 16 39.5t39 17.5q24 0 40.5 -16.5t16.5 -40.5l1 -512l187 178q16 16 40 16t41 -16z
M854 630q-115 50 -186 156t-71 235q0 176 125.5 301.5t301.5 125.5t301.5 -125.5t125.5 -301.5q0 -129 -71 -235t-186 -156v64q90 47 145 134.5t55 192.5q0 153 -108.5 261.5t-261.5 108.5t-261.5 -108.5t-108.5 -261.5q0 -105 55 -192.5t145 -134.5v-64z" />
<glyph unicode="&#x1f308;" horiz-adv-x="2048" d="M1934 708q114 -120 114 -287q0 -174 -123.5 -297.5t-298.5 -123.5h-1204q-175 0 -298.5 123.5t-123.5 297.5q0 167 114 287v430q0 185 72 353.5t194 290.5t290.5 194t353.5 72t353.5 -72t290.5 -194t194 -290.5t72 -353.5v-430zM228 1138v-343q50 28 113 41v302
q0 185 91.5 342t249 248.5t342.5 91.5t342.5 -91.5t249 -248.5t91.5 -342v-302q63 -13 113 -41v343q0 162 -63 309t-170 254t-254 170t-309 63t-309 -63t-254 -170t-170 -254t-63 -309zM1024 1593q123 0 228 -61t166 -166t61 -228v-166q53 -57 91 -135q1 0 9.5 1.5t13.5 1.5
v298q0 116 -45 221t-121.5 181.5t-181.5 121.5t-221 45t-221 -45t-181.5 -121.5t-121.5 -181.5t-45 -221v-297q59 -4 114 -25v322q0 123 61 228t166 166t228 61zM1365 1138q0 140 -100 240.5t-241 100.5t-241 -100.5t-100 -240.5v-172q76 84 180 131.5t221 47.5
q153 0 281 -80v73zM1621 114q130 0 221.5 91.5t91.5 221.5t-91.5 221.5t-221.5 91.5q-57 0 -112 -22q-47 135 -164 220.5t-264 85.5q-164 0 -289 -103.5t-157 -261.5q-91 81 -208 81q-130 0 -221.5 -91.5t-91.5 -221.5t91.5 -221.5t221.5 -91.5h1194z" />
<glyph unicode="&#x1f311;" horiz-adv-x="2048" d="M1024 1707q-138 0 -264.5 -54.5t-218 -146t-146 -218t-54.5 -264.5t54.5 -264.5t146 -218t218 -146t264.5 -54.5t264.5 54.5t218 146t146 218t54.5 264.5t-54.5 264.5t-146 218t-218 146t-264.5 54.5zM1024 1820q162 0 309.5 -63t254 -169.5t169.5 -254t63 -309.5
t-63 -309.5t-169.5 -254t-254 -169.5t-309.5 -63t-309.5 63t-254 169.5t-169.5 254t-63 309.5t63 309.5t169.5 254t254 169.5t309.5 63zM1024 1479q-188 0 -321.5 -133.5t-133.5 -321.5t133.5 -321.5t321.5 -133.5t321.5 133.5t133.5 321.5t-133.5 321.5t-321.5 133.5z
M1024 1593q116 0 221 -45t181.5 -121.5t121.5 -181.5t45 -221t-45 -221t-121.5 -181.5t-181.5 -121.5t-221 -45t-221 45t-181.5 121.5t-121.5 181.5t-45 221t45 221t121.5 181.5t181.5 121.5t221 45z" />
<glyph unicode="&#x1f312;" horiz-adv-x="2048" d="M1024 1707q-138 0 -264.5 -54.5t-218 -146t-146 -218t-54.5 -264.5t54.5 -264.5t146 -218t218 -146t264.5 -54.5t264.5 54.5t218 146t146 218t54.5 264.5t-54.5 264.5t-146 218t-218 146t-264.5 54.5zM1024 1820q162 0 309.5 -63t254 -169.5t169.5 -254t63 -309.5
t-63 -309.5t-169.5 -254t-254 -169.5t-309.5 -63t-309.5 63t-254 169.5t-169.5 254t-63 309.5t63 309.5t169.5 254t254 169.5t309.5 63zM1024 1593q116 0 221 -45t181.5 -121.5t121.5 -181.5t45 -221t-45 -221t-121.5 -181.5t-181.5 -121.5t-221 -45q-79 0 -171 29
q176 56 287.5 204t111.5 336t-111.5 336t-287.5 204q92 29 171 29z" />
<glyph unicode="&#x1f313;" horiz-adv-x="2048" d="M1024 1707q-138 0 -264.5 -54.5t-218 -146t-146 -218t-54.5 -264.5t54.5 -264.5t146 -218t218 -146t264.5 -54.5t264.5 54.5t218 146t146 218t54.5 264.5t-54.5 264.5t-146 218t-218 146t-264.5 54.5zM1024 1820q162 0 309.5 -63t254 -169.5t169.5 -254t63 -309.5
t-63 -309.5t-169.5 -254t-254 -169.5t-309.5 -63t-309.5 63t-254 169.5t-169.5 254t-63 309.5t63 309.5t169.5 254t254 169.5t309.5 63zM1024 1593q116 0 221 -45t181.5 -121.5t121.5 -181.5t45 -221t-45 -221t-121.5 -181.5t-181.5 -121.5t-221 -45v1138z" />
<glyph unicode="&#x1f314;" horiz-adv-x="2048" d="M1024 1707q-138 0 -264.5 -54.5t-218 -146t-146 -218t-54.5 -264.5t54.5 -264.5t146 -218t218 -146t264.5 -54.5t264.5 54.5t218 146t146 218t54.5 264.5t-54.5 264.5t-146 218t-218 146t-264.5 54.5zM1024 1820q162 0 309.5 -63t254 -169.5t169.5 -254t63 -309.5
t-63 -309.5t-169.5 -254t-254 -169.5t-309.5 -63t-309.5 63t-254 169.5t-169.5 254t-63 309.5t63 309.5t169.5 254t254 169.5t309.5 63zM1024 1593q116 0 221 -45t181.5 -121.5t121.5 -181.5t45 -221t-45 -221t-121.5 -181.5t-181.5 -121.5t-221 -45q-92 0 -171 76
t-124.5 207.5t-45.5 285.5t45.5 285.5t124.5 207.5t171 76z" />
<glyph unicode="&#x1f315;" horiz-adv-x="2048" d="M1024 1707q-138 0 -264.5 -54.5t-218 -146t-146 -218t-54.5 -264.5t54.5 -264.5t146 -218t218 -146t264.5 -54.5t264.5 54.5t218 146t146 218t54.5 264.5t-54.5 264.5t-146 218t-218 146t-264.5 54.5zM1024 1820q162 0 309.5 -63t254 -169.5t169.5 -254t63 -309.5
t-63 -309.5t-169.5 -254t-254 -169.5t-309.5 -63t-309.5 63t-254 169.5t-169.5 254t-63 309.5t63 309.5t169.5 254t254 169.5t309.5 63zM1593 1024q0 116 -45 221t-121.5 181.5t-181.5 121.5t-221 45t-221 -45t-181.5 -121.5t-121.5 -181.5t-45 -221t45 -221t121.5 -181.5
t181.5 -121.5t221 -45t221 45t181.5 121.5t121.5 181.5t45 221z" />
<glyph unicode="&#x1f316;" horiz-adv-x="2048" d="M1024 341q138 0 264.5 54.5t218 146t146 218t54.5 264.5t-54.5 264.5t-146 218t-218 146t-264.5 54.5t-264.5 -54.5t-218 -146t-146 -218t-54.5 -264.5t54.5 -264.5t146 -218t218 -146t264.5 -54.5zM1024 228q-162 0 -309.5 63t-254 169.5t-169.5 254t-63 309.5t63 309.5
t169.5 254t254 169.5t309.5 63t309.5 -63t254 -169.5t169.5 -254t63 -309.5t-63 -309.5t-169.5 -254t-254 -169.5t-309.5 -63zM1024 1593q92 0 171 -76t124.5 -207.5t45.5 -285.5t-45.5 -285.5t-124.5 -207.5t-171 -76q-116 0 -221 45t-181.5 121.5t-121.5 181.5t-45 221
t45 221t121.5 181.5t181.5 121.5t221 45z" />
<glyph unicode="&#x1f317;" horiz-adv-x="2048" d="M1024 341q138 0 264.5 54.5t218 146t146 218t54.5 264.5t-54.5 264.5t-146 218t-218 146t-264.5 54.5t-264.5 -54.5t-218 -146t-146 -218t-54.5 -264.5t54.5 -264.5t146 -218t218 -146t264.5 -54.5zM1024 228q-162 0 -309.5 63t-254 169.5t-169.5 254t-63 309.5t63 309.5
t169.5 254t254 169.5t309.5 63t309.5 -63t254 -169.5t169.5 -254t63 -309.5t-63 -309.5t-169.5 -254t-254 -169.5t-309.5 -63zM1024 455q-116 0 -221 45t-181.5 121.5t-121.5 181.5t-45 221t45 221t121.5 181.5t181.5 121.5t221 45v-1138z" />
<glyph unicode="&#x1f318;" horiz-adv-x="2048" d="M1024 341q138 0 264.5 54.5t218 146t146 218t54.5 264.5t-54.5 264.5t-146 218t-218 146t-264.5 54.5t-264.5 -54.5t-218 -146t-146 -218t-54.5 -264.5t54.5 -264.5t146 -218t218 -146t264.5 -54.5zM1024 228q-162 0 -309.5 63t-254 169.5t-169.5 254t-63 309.5t63 309.5
t169.5 254t254 169.5t309.5 63t309.5 -63t254 -169.5t169.5 -254t63 -309.5t-63 -309.5t-169.5 -254t-254 -169.5t-309.5 -63zM1024 455q-116 0 -221 45t-181.5 121.5t-121.5 181.5t-45 221t45 221t121.5 181.5t181.5 121.5t221 45q79 0 171 -29q-176 -56 -287.5 -204
t-111.5 -336t111.5 -336t287.5 -204q-92 -29 -171 -29z" />
<glyph unicode="&#x1f319;" horiz-adv-x="2048" d="M1023 1760q-99 -11 -185 -43q-144 -53 -254.5 -153t-173.5 -236q-63 -135 -68 -280.5t49 -282.5q84 -216 283 -348.5t439 -132.5q137 0 272 49q82 29 159 81q-58 -8 -111 -8q-154 0 -294 58.5t-241.5 157t-161.5 234.5t-60 285q0 191 93 355t254 264zM1102 1877
q88 0 181 -17q21 -5 34.5 -20.5t14.5 -36.5q0 -20 -13 -36.5t-34 -20.5q-218 -50 -356.5 -219t-138.5 -386q0 -168 86 -311t234 -226.5t323 -83.5q159 0 299 71q13 7 28 7q28 0 46 -20q14 -16 14.5 -37t-12.5 -37q-154 -194 -384 -278q-149 -55 -311 -55q-275 0 -503 152
t-325 400q-62 159 -56.5 328t78.5 325q73 157 200 272.5t292 175.5q143 53 303 53z" />
<glyph unicode="&#x1f320;" horiz-adv-x="2048" d="M1931 920q12 -33 -13 -58l-265 -271l63 -383q6 -35 -23 -56q-14 -10 -33 -10q-16 0 -27 7l-325 179l-324 -179q-30 -17 -60 3q-28 21 -23 56l63 383l-265 271q-25 25 -13 58q9 33 45 38l72 11q-119 132 -283.5 207t-348.5 75q-24 0 -40.5 16.5t-16.5 40.5q0 23 16.5 40
t40.5 17q228 0 428 -101t335 -276l126 20q-149 217 -383 344t-506 127q-24 0 -40.5 16.5t-16.5 40.5q0 23 16.5 40t40.5 17q291 0 544.5 -132.5t419.5 -359.5l54 114q-182 228 -448 359.5t-570 131.5q-24 0 -40.5 16.5t-16.5 40.5q0 23 16.5 40t40.5 17q314 0 593.5 -130
t479.5 -359l13 29q13 30 51 30t52 -30l162 -346l364 -56q36 -5 45 -38zM1552 649l207 213l-283 43q-32 6 -44 32l-124 265l-124 -265q-12 -26 -43 -32l-283 -43l207 -213q20 -20 15 -48l-48 -296l249 137q27 18 55 0l249 -137l-48 296q-5 30 15 48z" />
<glyph unicode="&#x1f4a7;" horiz-adv-x="2048" d="M1024 1681q-159 -323 -275.5 -614.5t-116.5 -406.5q0 -179 115 -305.5t277 -126.5t277 126.5t115 305.5q0 115 -116.5 406.5t-275.5 614.5zM1024 1934q21 -40 55 -107t121 -251t154 -340.5t121.5 -323.5t54.5 -252q0 -149 -67.5 -274.5t-184 -198.5t-254.5 -73t-254.5 73
t-184 198.5t-67.5 274.5q0 85 52 247t126.5 333.5t149 330.5t126.5 261z" />
<glyph unicode="&#x1f6a1;" horiz-adv-x="2048" d="M569 967h-228q-23 0 -40 -17t-17 -40v-227q0 -24 17 -40.5t40 -16.5h228q23 0 40 16.5t17 40.5v227q0 23 -17 40t-40 17zM569 1024q47 0 80.5 -33.5t33.5 -80.5v-227q0 -47 -33.5 -80.5t-80.5 -33.5h-228q-47 0 -80 33.5t-33 80.5v227q0 47 33 80.5t80 33.5h228z
M1138 967h-228q-23 0 -40 -17t-17 -40v-227q0 -24 17 -40.5t40 -16.5h228q23 0 40 16.5t17 40.5v227q0 23 -17 40t-40 17zM1138 1024q47 0 80.5 -33.5t33.5 -80.5v-227q0 -47 -33.5 -80.5t-80.5 -33.5h-228q-47 0 -80.5 33.5t-33.5 80.5v227q0 47 33.5 80.5t80.5 33.5h228z
M1707 967h-228q-23 0 -40 -17t-17 -40v-227q0 -24 17 -40.5t40 -16.5h228q23 0 40 16.5t17 40.5v227q0 23 -17 40t-40 17zM1707 1024q47 0 80 -33.5t33 -80.5v-227q0 -47 -33 -80.5t-80 -33.5h-228q-47 0 -80.5 33.5t-33.5 80.5v227q0 47 33.5 80.5t80.5 33.5h228z
M1308 1934q-23 0 -39.5 -16.5t-16.5 -40.5q0 -23 16.5 -40t39.5 -17q24 0 40.5 17t16.5 40q0 24 -16.5 40.5t-40.5 16.5zM1308 2048q71 0 121 -50t50 -121t-50 -120.5t-121 -49.5q-70 0 -120 49.5t-50 120.5t50 121t120 50zM740 1934q-24 0 -40.5 -16.5t-16.5 -40.5
q0 -23 16.5 -40t40.5 -17q23 0 39.5 17t16.5 40q0 24 -16.5 40.5t-39.5 16.5zM740 2048q70 0 120 -50t50 -121t-50 -120.5t-120 -49.5q-71 0 -121 49.5t-50 120.5t50 121t121 50zM2048 1479h-910v-227h682q94 0 161 -67t67 -161v-796q0 -95 -66.5 -161.5t-161.5 -66.5h-1592
q-95 0 -161.5 66.5t-66.5 161.5v796q0 94 67 161t161 67h682v227h-910v114h2048v-114zM1820 1138h-1592q-47 0 -80.5 -33.5t-33.5 -80.5v-796q0 -47 33.5 -80.5t80.5 -33.5h1592q47 0 80.5 33.5t33.5 80.5v796q0 47 -33.5 80.5t-80.5 33.5z" />
<glyph   />
<glyph  horiz-adv-x="682"  />
<glyph unicode=" " horiz-adv-x="512"  />
<glyph unicode="A" horiz-adv-x="1375" d="M1344 0h-218l-145 429h-595l-154 -429h-204l555 1479h230zM905 607l-218 654l-237 -654h455z" />
<glyph unicode="B" horiz-adv-x="1375" d="M1287 443q0 -132 -64.5 -234.5t-168.5 -155.5t-227 -53h-680v1479h668q165 0 280 -99t119 -275q0 -100 -50 -187.5t-142 -121.5q117 -41 191 -133.5t74 -219.5zM1017 1062q0 122 -62.5 181t-219.5 63h-384v-455h389q139 0 206 60.5t71 150.5zM1088 417q0 66 -14 111.5
t-50.5 82.5t-105 56t-171.5 20h-396v-519h462q69 0 123 23t85.5 60.5t48 79.5t18.5 86z" />
<glyph unicode="C" horiz-adv-x="1489" d="M1403 543q-11 -96 -44.5 -183t-89 -160t-128 -126.5t-167 -83.5t-201.5 -30q-150 0 -270.5 49t-196.5 127.5t-127.5 184t-72.5 212t-21 218.5q0 116 27 225t82.5 206t135 170.5t191 118t242.5 48.5q57 0 115.5 -9t125.5 -28.5t127.5 -57t113 -89t90.5 -129.5t52 -173
h-195q-29 147 -137.5 225.5t-262.5 78.5q-105 0 -189 -31t-140.5 -84t-94 -128.5t-55 -160t-19.5 -182.5q2 -91 19 -177t53 -166t87.5 -139.5t128 -95.5t169.5 -36q193 0 310 107t146 299h196z" />
<glyph unicode="D" horiz-adv-x="1489" d="M1384 792q0 -125 -24.5 -240.5t-74 -215t-119 -173.5t-166 -117.5t-208.5 -45.5h-628v1479h621q77 0 155.5 -22t157.5 -74.5t140 -129t101.5 -196t44.5 -265.5zM1178 775q0 85 -13.5 160.5t-45.5 144t-79.5 118t-120 79t-163.5 29.5h-389v-1138h413q119 0 210.5 81
t139.5 218t48 308z" />
<glyph unicode="E" horiz-adv-x="1375" d="M1266 0h-1093v1479h1081v-180h-879v-450h810v-178h-810v-493h891v-178z" />
<glyph unicode="F" horiz-adv-x="1256" d="M1197 1299h-822v-450h725v-178h-725v-671h-202v1479h1024v-180z" />
<glyph unicode="G" horiz-adv-x="1598" d="M1446 0h-128l-47 197q-70 -98 -200 -161.5t-286 -68.5q-146 0 -262 39t-195 108.5t-131.5 168.5t-76 215t-23.5 253q0 112 26.5 219.5t83.5 205t137.5 171t197 118t254.5 45.5q113 0 217.5 -31t190.5 -90t144.5 -152t73.5 -208h-192q-27 109 -95 180t-154 99.5t-194 28.5
q-212 0 -349 -161.5t-137 -435.5q0 -295 134 -454.5t352 -159.5q173 0 310 106q91 74 125.5 158.5t38.5 225.5h-460v171h645v-787z" />
<glyph unicode="H" horiz-adv-x="1489" d="M1332 0h-201v687h-773v-687h-202v1479h202v-614h773v614h201v-1479z" />
<glyph unicode="I" horiz-adv-x="569" d="M386 0h-201v1479h201v-1479z" />
<glyph unicode="J" horiz-adv-x="1029" d="M882 398q0 -117 -33.5 -203t-93.5 -136t-134.5 -73.5t-165.5 -25.5q-93 0 -167 23t-121 60t-78 86.5t-43.5 99t-12.5 100.5v145h187v-104q0 -123 54.5 -181.5t168.5 -58.5q122 0 177.5 62t57.5 194v1093h204v-1081z" />
<glyph unicode="K" horiz-adv-x="1375" d="M1363 0h-258l-520 740l-232 -221v-519h-201v1479h201v-720l718 720h275l-616 -597z" />
<glyph unicode="L" horiz-adv-x="1147" d="M1105 0h-953v1479h201v-1301h752v-178z" />
<glyph unicode="M" horiz-adv-x="1711" d="M1567 0h-197v1242l-412 -1242h-199l-422 1240v-1240h-190v1479h287l426 -1254l422 1254h285v-1479z" />
<glyph unicode="N" horiz-adv-x="1489" d="M1332 0h-227l-754 1192v-1192h-195v1479h237l745 -1197v1197h194v-1479z" />
<glyph unicode="O" horiz-adv-x="1598" d="M1519 740q0 -56 -5.5 -112t-23.5 -134.5t-48 -146.5t-85 -138.5t-127.5 -121t-182.5 -83.5t-243 -35q-145 0 -265.5 43t-203 116.5t-140 172.5t-84 209.5t-26.5 229.5q0 124 27 236t85 209t141.5 168.5t202.5 113t263 43.5q113 0 211 -25.5t169.5 -69.5t129.5 -105
t95.5 -129.5t63 -145t36 -149.5t10.5 -146zM1318 740q0 264 -136.5 426t-377.5 166q-230 0 -372.5 -160.5t-142.5 -431.5q0 -267 138 -428t377 -165q241 0 377.5 162.5t136.5 430.5z" />
<glyph unicode="P" horiz-adv-x="1375" d="M1278 1062q0 -66 -14 -126t-47 -117t-82.5 -99t-125.5 -68.5t-170 -28.5h-464v-623h-202v1479h666q188 0 311 -109t128 -308zM1071 1062q0 244 -291 244h-405v-514h398q295 0 298 270z" />
<glyph unicode="Q" horiz-adv-x="1598" d="M1519 740q0 -358 -215 -569l201 -157l-97 -121l-228 178q-155 -102 -379 -102q-145 0 -265.5 43t-203.5 116.5t-140.5 172.5t-84 209.5t-26.5 229.5q0 124 27 236t85 209t141.5 168.5t203 113t263.5 43.5q113 0 210.5 -25.5t169.5 -69.5t130 -105t96.5 -129.5t64 -145
t36.5 -149.5t11 -146zM1313 740q0 264 -135.5 426t-376.5 166q-231 0 -372.5 -160t-141.5 -432q0 -268 137 -428.5t377 -164.5q119 0 216 47l-154 117l102 125l189 -144q159 165 159 448z" />
<glyph unicode="R" horiz-adv-x="1489" d="M1384 0h-225q-26 57 -37.5 150t-15 186.5t-6.5 113.5q-26 178 -242 181h-502v-631h-202v1479h709q89 0 169 -24t146 -71.5t106 -128t43 -184.5q0 -230 -215 -343q79 -25 126 -87t56 -153q6 -56 12.5 -157t14.5 -165.5t25 -106.5q18 -42 38 -59zM1124 1052
q0 112 -58.5 181t-186.5 73h-523v-502h507q112 0 186.5 69t74.5 179z" />
<glyph unicode="S" horiz-adv-x="1375" d="M1273 415q0 -145 -76.5 -247.5t-204.5 -150.5t-297 -48q-284 0 -438 127t-155 392h185q0 -78 24 -139t62.5 -98.5t93.5 -62.5t109.5 -35.5t118.5 -12.5q59 0 112 7.5t104 25.5t88 45.5t59.5 71t22.5 99.5q0 39 -8.5 69.5t-24.5 54t-44.5 42.5t-64 34t-88 29.5t-110.5 28
t-138 31.5q-36 8 -55 12q-67 15 -119.5 32.5t-106.5 47.5t-90 67.5t-59.5 94t-25.5 125.5q0 92 30 171.5t90 143.5t161 101t231 37q111 0 201.5 -21t148 -51t101.5 -77.5t65.5 -84.5t36 -89.5t17 -75.5t5.5 -58q1 -9 1 -12h-185q0 63 -21.5 114t-57 84.5t-85 56.5
t-100.5 33.5t-108 12.5q-51 0 -96 -6.5t-90.5 -24.5t-77.5 -46.5t-52.5 -75.5t-20.5 -108q0 -141 178 -180l422 -97q332 -74 332 -389z" />
<glyph unicode="T" horiz-adv-x="1256" d="M1230 1299h-502v-1299h-202v1299h-498v180h1202v-180z" />
<glyph unicode="U" horiz-adv-x="1489" d="M1327 486q0 -105 -35.5 -195.5t-106 -162t-187 -113.5t-268.5 -43q-282 0 -423.5 130.5t-145.5 373.5v1003h202v-965q0 -171 95 -269t272 -98q180 0 285.5 94.5t110.5 268.5v969h201v-993z" />
<glyph unicode="V" horiz-adv-x="1375" d="M1330 1479l-538 -1479h-214l-538 1479h233l419 -1263l436 1263h202z" />
<glyph unicode="W" horiz-adv-x="1941" d="M1911 1479l-392 -1479h-208l-337 1225l-346 -1225h-211l-384 1479h216l272 -1206l339 1206h216l339 -1206l273 1206h223z" />
<glyph unicode="X" horiz-adv-x="1375" d="M1332 0h-249l-396 607l-410 -607h-239l529 759l-498 720h251l375 -566l376 566h240l-496 -723z" />
<glyph unicode="Y" horiz-adv-x="1375" d="M1342 1479l-557 -889v-590h-200v590l-554 889h242l422 -711l424 711h223z" />
<glyph unicode="Z" horiz-adv-x="1256" d="M1209 0h-1162v164l906 1137h-839v178h1095v-173l-910 -1126h910v-180z" />
<glyph unicode="a" horiz-adv-x="1147" d="M1093 2v-2q-57 -21 -119 -21q-168 0 -173 161q-154 -166 -389 -173q-151 0 -246 89t-95 214q0 60 15.5 109t39.5 82.5t64 60.5t76.5 42.5t91 29.5t93.5 20.5t98 16.5t91 16q82 14 117 50.5t35 79.5q0 83 -63.5 133t-185.5 50q-110 0 -176.5 -53t-70.5 -160h-168
q0 147 111.5 250.5t327.5 107.5q106 0 195.5 -32.5t150.5 -106.5t61 -179v-576q0 -60 22.5 -82t96.5 4v-131zM787 358v194q-29 -19 -84 -34t-111.5 -23.5t-117.5 -25t-108 -37.5t-77.5 -62t-30.5 -97q0 -78 52 -118.5t140 -40.5q51 0 109 17t109.5 47t85 77.5t33.5 102.5z
" />
<glyph unicode="b" horiz-adv-x="1147" d="M1088 569q3 -85 -10.5 -166.5t-48 -161.5t-88 -140t-138.5 -97t-191 -37q-104 0 -187.5 42.5t-130.5 123.5l-14 -133h-164v1479h185v-538q59 78 138.5 119t191.5 45q197 0 323.5 -149.5t133.5 -386.5zM898 538q0 198 -79 301.5t-222 103.5q-82 0 -143.5 -38.5t-95 -100.5
t-49 -128.5t-15.5 -135.5q0 -404 313 -414q140 0 215.5 112.5t75.5 299.5z" />
<glyph unicode="c" horiz-adv-x="1029" d="M991 379q-12 -111 -57 -194t-111 -129t-138 -67.5t-149 -21.5q-203 0 -340 158.5t-137 412.5q0 140 39.5 251t107 179t153.5 103.5t184 35.5q62 0 119.5 -11.5t114.5 -40t100.5 -71.5t74.5 -112t39 -156h-173q-10 106 -83.5 166.5t-184.5 60.5q-63 0 -114.5 -21t-94 -66
t-66.5 -126t-24 -192q0 -170 85 -287.5t214 -117.5q109 0 176.5 62t88.5 184h176z" />
<glyph unicode="d" horiz-adv-x="1147" d="M64 569q7 237 133.5 386.5t323.5 149.5q113 -4 191.5 -45t138.5 -119v538h185v-1479h-164v152q-48 -82 -139.5 -133.5t-192.5 -51.5q-106 0 -191 37t-138.5 97t-88 140t-48 161.5t-10.5 166.5zM254 538q0 -187 75.5 -299.5t215.5 -112.5q313 10 313 414q0 69 -15.5 135.5
t-48.5 128.5t-94.5 100.5t-144.5 38.5q-143 0 -222 -103.5t-79 -301.5z" />
<glyph unicode="e" horiz-adv-x="1147" d="M1074 476h-804q0 -150 91.5 -246.5t226.5 -96.5q68 0 125 22t91 54.5t52.5 66.5t18.5 61h185q-30 -172 -161 -270t-321 -98q-114 0 -209 42.5t-157 116t-97 171t-37 208.5q0 270 139.5 436t365.5 166q160 0 273.5 -81.5t168 -223.5t49.5 -328zM884 623q0 144 -87 234.5
t-212 90.5q-128 0 -219 -95.5t-96 -229.5h614z" />
<glyph unicode="f" horiz-adv-x="569" d="M538 1493v-149q-31 5 -76 5q-54 0 -76.5 -25t-22.5 -84v-164h175v-163h-175v-913h-185v913h-150v163h150v199q0 98 73.5 164t191.5 66q55 0 95 -12z" />
<glyph unicode="g" horiz-adv-x="1228" d="M1086 47q0 -262 -128 -390.5t-358 -128.5q-33 0 -66 3t-75 12.5t-79.5 24.5t-74.5 41.5t-63.5 61t-43.5 85t-18 111.5h180q0 -80 68 -125t160 -45q150 0 233.5 83t83.5 253v64q-65 -70 -145.5 -99t-183.5 -29q-84 0 -166.5 36.5t-151 103t-112 171.5t-46.5 230
q0 277 139.5 436t362.5 159q98 0 180 -42t123 -110v130h181v-1036zM905 536q0 180 -82.5 283t-227.5 103q-56 0 -109 -23t-97 -67t-70.5 -116.5t-26.5 -163.5q0 -106 26.5 -189.5t71.5 -132.5t99 -74.5t113 -25.5q132 0 216 107.5t87 298.5z" />
<glyph unicode="h" horiz-adv-x="1147" d="M1012 0h-185v704q0 117 -50 178t-161 61q-61 0 -113.5 -21t-96 -62.5t-68.5 -112t-25 -162.5v-585h-185v1479h185v-547q55 85 147 128t187 47q55 0 104 -10.5t98 -38t84 -70.5t57 -112.5t22 -159.5v-716z" />
<glyph unicode="i" horiz-adv-x="460" d="M318 1271h-185v203h185v-203zM318 0h-185v1076h185v-1076z" />
<glyph unicode="j" horiz-adv-x="543" d="M405 -185q0 -106 -70 -175t-200 -69q-59 0 -92 7v157q41 -10 83 -10q51 0 72.5 29t21.5 101v1221h185v-1261zM405 1271h-185v208h185v-208z" />
<glyph unicode="k" horiz-adv-x="1029" d="M1029 0h-230l-356 526l-130 -128v-398h-185v1479h185v-860l460 457h232l-429 -412z" />
<glyph unicode="l" horiz-adv-x="460" d="M320 0h-187v1479h187v-1479z" />
<glyph unicode="m" horiz-adv-x="1711" d="M1586 0h-185v695q0 248 -199 248q-108 0 -177 -78t-74 -211v-654h-185v742q0 84 -42 142.5t-131 58.5q-53 0 -99.5 -18.5t-87 -58t-65 -112t-26.5 -169.5v-585h-185v1076h171v-152q57 89 144 135t186 46q113 0 179.5 -46t109.5 -127q46 72 131 122.5t198 50.5
q42 0 84 -8.5t89 -33.5t82 -63.5t58.5 -105t23.5 -152.5v-742z" />
<glyph unicode="n" horiz-adv-x="1147" d="M1012 0h-185v673q0 61 -10 107.5t-33 84.5t-65.5 58t-102.5 20q-130 0 -216.5 -88.5t-86.5 -240.5v-614h-185v1076h175v-156q15 24 43.5 52.5t72 60t104 52t124.5 20.5q166 0 265.5 -96t99.5 -293v-716z" />
<glyph unicode="o" horiz-adv-x="1147" d="M1081 538q0 -112 -34.5 -213t-97.5 -179.5t-159.5 -126t-213.5 -50.5q-94 0 -175 30.5t-140.5 84t-102 125t-64 155.5t-21.5 174q0 155 58 283t174 207t271 79t271.5 -79t175 -207t58.5 -283zM891 538q1 68 -16.5 136t-53.5 129.5t-100 101t-145 41.5q-80 0 -143 -39
t-98.5 -101.5t-53.5 -131t-18 -136.5q0 -81 18 -152.5t54 -130.5t98 -93t143 -34q82 0 143.5 34t97 93.5t53.5 129.5t21 153z" />
<glyph unicode="p" horiz-adv-x="1147" d="M1090 507q-7 -237 -134 -386t-325 -149q-112 3 -190 44t-138 119v-562h-187v1503h166v-152q48 82 139.5 133.5t192.5 51.5q106 0 191 -37t138.5 -97t88.5 -140t48 -161.5t10 -166.5zM901 538q0 187 -76 300t-216 113q-160 -6 -236.5 -114t-76.5 -301q0 -69 15.5 -135
t48.5 -128.5t95 -101t145 -38.5q143 0 222 103.5t79 301.5z" />
<glyph unicode="q" horiz-adv-x="1147" d="M45 507q0 85 14 166t48.5 161.5t87 140t136.5 97t190 37.5q103 0 186 -42.5t130 -123.5l16 133h166v-1503h-185v562q-62 -78 -140 -119t-189 -44q-201 0 -328 143.5t-132 391.5zM235 538q0 -198 80 -301.5t223 -103.5q66 0 119 26t86.5 67t55.5 95.5t31 107.5t9 107
q0 404 -313 415q-140 0 -215.5 -113t-75.5 -300z" />
<glyph unicode="r" horiz-adv-x="683" d="M609 913q-154 0 -250 -71.5t-96 -196.5v-645h-185v1076h178v-182q94 206 353 206v-187z" />
<glyph unicode="s" horiz-adv-x="1029" d="M960 325q0 -155 -113.5 -256.5t-310.5 -101.5q-97 0 -176 20.5t-142.5 64.5t-101.5 118.5t-45 175.5h178q0 -220 287 -220q101 0 172.5 43t71.5 125q0 44 -23 70t-102 55t-247 69q-48 12 -81.5 22.5t-78 32.5t-72 49t-47.5 71.5t-20 99.5q0 163 114.5 253.5t293.5 90.5
q99 0 175.5 -26t118.5 -63t69.5 -86.5t36 -87.5t10.5 -76h-176q0 88 -64 134t-189 46q-15 0 -30 -1t-42 -5.5t-49 -14.5t-44.5 -26t-35.5 -43t-15 -62q0 -66 62.5 -95.5t267.5 -78.5q23 -5 35 -8q55 -15 95.5 -30t83.5 -39t70 -53t45 -71.5t19 -95.5z" />
<glyph unicode="t" horiz-adv-x="569" d="M538 128v-152q-57 -12 -95 -12q-118 0 -191.5 67t-73.5 163v719h-140v163h140v304h185v-304h175v-163h-175v-681q0 -59 22.5 -85t76.5 -26q33 0 76 7z" />
<glyph unicode="u" horiz-adv-x="1147" d="M116 1076h187v-673q0 -61 10 -107.5t33 -84.5t65.5 -58t102.5 -20q129 0 216.5 89t87.5 240v614h185v-1076h-178v156q-14 -24 -43 -52.5t-72 -59.5t-104 -51.5t-125 -20.5q-166 0 -265.5 95.5t-99.5 292.5v716z" />
<glyph unicode="v" horiz-adv-x="1029" d="M988 1076l-410 -1076h-194l-391 1076h206l294 -882l301 882h194z" />
<glyph unicode="w" horiz-adv-x="1489" d="M1458 1076l-311 -1076h-189l-216 832l-216 -832h-189l-309 1076h197l204 -848l220 848h202l211 -848l216 848h180z" />
<glyph unicode="x" horiz-adv-x="1029" d="M1007 0h-232l-265 405l-261 -405h-228l380 555l-361 521h233l248 -381l252 381h218l-363 -524z" />
<glyph unicode="y" horiz-adv-x="1029" d="M1007 1076q-166 -472 -314.5 -865.5t-182.5 -461.5q-66 -133 -149 -171.5t-235 -4.5v166q35 -13 63.5 -18.5t60 -3t58 22t45.5 56.5l74 171l-403 1109h204l293 -879l292 879h194z" />
<glyph unicode="z" horiz-adv-x="1029" d="M965 0h-901v140l647 784h-597v152h829v-149l-642 -780h664v-147z" />
</font>
</defs>
</svg>
