<?xml version="1.0" encoding="utf-8"?>
<!-- Generator: Adobe Illustrator 16.0.0, SVG Export Plug-In . SVG Version: 6.00 Build 0)  -->
<!DOCTYPE svg PUBLIC "-//W3C//DTD SVG 1.1//EN" "http://www.w3.org/Graphics/SVG/1.1/DTD/svg11.dtd">
<svg version="1.1" id="Layer_1" xmlns="http://www.w3.org/2000/svg" xmlns:xlink="http://www.w3.org/1999/xlink" x="0px" y="0px"
	 width="136.934px" height="98.972px" viewBox="0 0 136.934 98.972" enable-background="new 0 0 136.934 98.972"
	 xml:space="preserve">
<g>
	<g>
		<path fill="#28A1D4" d="M60.642,4.486h2.604l3.317,11.81h0.066l3.674-11.81h2.311l3.678,11.842h0.064l3.352-11.842h2.404
			l-4.684,15.615h-2.146L71.412,7.967h-0.064l-3.905,12.134h-2.146L60.642,4.486z"/>
		<path fill="#28A1D4" d="M83.675,4.486h2.604l3.318,11.81h0.064l3.676-11.81h2.309l3.678,11.842h0.066l3.35-11.842h2.406
			l-4.686,15.615h-2.145L94.445,7.967h-0.066l-3.904,12.134H88.33L83.675,4.486z"/>
		<path fill="#28A1D4" d="M106.707,4.486h2.604l3.318,11.81h0.062l3.678-11.81h2.311l3.678,11.842h0.062l3.35-11.842h2.408
			l-4.684,15.615h-2.146l-3.875-12.134h-0.061l-3.904,12.134h-2.148L106.707,4.486z"/>
		<path fill="#A6CE39" d="M128.992,18.409c0-1.104,0.879-1.951,1.982-1.951c1.107,0,1.986,0.847,1.986,1.951
			c0,1.107-0.879,1.985-1.986,1.985C129.871,20.394,128.992,19.516,128.992,18.409z"/>
	</g>
	<g>
		<path fill="#EE3E82" d="M14.32,53.214c-0.685,0.715-2.146,1.625-3.904,1.625c-4.262,0-6.734-3.35-6.734-8.131
			c0-4.75,3.416-8.264,7.874-8.264c3.092,0,4.848,1.008,5.139,1.203v21.862H14.32V53.214z M14.32,51.163V41.045
			c-0.292-0.129-1.137-0.552-2.798-0.552c-3.547,0-5.302,2.992-5.302,6.147c0,3.285,1.271,6.051,4.65,6.051
			C12.629,52.692,14.093,51.456,14.32,51.163z"/>
		<path fill="#EE3E82" d="M21.509,49.959V38.834h2.374v10.669c0,1.953,0.685,3.189,2.798,3.189c2.374,0,4.166-2.407,4.49-2.863
			V38.834h2.374v12.329c0,1.336,0.164,2.67,0.295,3.287h-2.407c-0.065-0.393-0.196-1.529-0.229-2.311
			c-0.717,0.977-2.374,2.699-5.076,2.699C22.809,54.839,21.509,52.659,21.509,49.959z"/>
		<path fill="#EE3E82" d="M37.515,46.544c0-4.587,2.863-8.101,7.026-8.101c3.871,0,6.147,2.766,6.147,7.026
			c0,0.359-0.03,0.716-0.062,1.106H40.05c0.065,3.317,1.401,6.213,4.913,6.213c2.182,0,3.646-0.975,4.327-1.4l0.976,1.855
			c-0.779,0.52-2.535,1.594-5.368,1.594C39.988,54.839,37.515,51.163,37.515,46.544z M48.251,44.69
			c-0.068-2.212-1.074-4.196-3.776-4.196c-2.505,0-3.871,1.756-4.294,4.196H48.251z"/>
		<path fill="#EE3E82" d="M54.822,38.834h2.375v2.44c0.619-1.042,1.984-2.831,4.163-2.831c0.943,0,1.432,0.229,1.627,0.325
			l-0.586,2.276c-0.163-0.097-0.553-0.259-1.365-0.259c-2.342,0-3.646,2.699-3.839,3.187V54.45h-2.375V38.834z"/>
		<path fill="#EE3E82" d="M64.514,46.544c0-4.587,2.863-8.101,7.028-8.101c3.873,0,6.148,2.766,6.148,7.026
			c0,0.359-0.033,0.716-0.066,1.106H67.052c0.065,3.317,1.398,6.213,4.914,6.213c2.178,0,3.643-0.975,4.326-1.4l0.975,1.855
			c-0.779,0.52-2.537,1.594-5.367,1.594C66.987,54.839,64.514,51.163,64.514,46.544z M75.251,44.69
			c-0.066-2.212-1.074-4.196-3.773-4.196c-2.507,0-3.873,1.756-4.295,4.196H75.251z"/>
		<path fill="#EE3E82" d="M82.539,50.708v-9.989h-2.572v-1.885h2.572v-4.458h2.375v4.458h3.936v1.885h-3.936v9.76
			c0,1.562,0.455,2.311,1.82,2.311c0.977,0,1.854-0.488,2.115-0.684l0.879,1.789c-0.455,0.295-1.596,0.943-3.285,0.943
			C83.839,54.839,82.539,53.312,82.539,50.708z"/>
		<path fill="#EE3E82" d="M92.23,50.642c0-4.129,4.555-5.366,8.328-5.366h0.686v-1.464c0-2.312-0.977-3.255-3.125-3.255
			c-1.432,0-2.666,0.457-4.066,1.692l-1.268-1.659c1.529-1.432,3.32-2.146,5.498-2.146c3.416,0,5.336,1.627,5.336,5.173v7.287
			c0,1.562,0.162,2.797,0.357,3.547h-2.375c-0.098-0.422-0.197-1.4-0.23-1.887c-1.041,1.301-2.764,2.275-4.684,2.275
			C94.087,54.839,92.23,53.181,92.23,50.642z M101.244,50.546v-3.513h-0.686c-3.35,0-5.789,0.91-5.789,3.546
			c0,1.625,1.365,2.211,2.309,2.211C98.835,52.79,100.236,51.88,101.244,50.546z"/>
		<path fill="#EE3E82" d="M108.824,38.834h2.373v2.44c0.619-1.042,1.984-2.831,4.164-2.831c0.943,0,1.432,0.229,1.627,0.325
			l-0.586,2.276c-0.164-0.097-0.553-0.259-1.365-0.259c-2.346,0-3.646,2.699-3.84,3.187V54.45h-2.373V38.834z"/>
		<path fill="#EE3E82" d="M118.679,46.674c0-3.645,1.854-8.23,7.123-8.23s7.451,4.521,7.451,8.165s-2.084,8.23-7.354,8.23
			S118.679,50.317,118.679,46.674z M130.714,46.674c0-3.351-1.693-6.181-4.945-6.181s-4.553,2.765-4.553,6.115
			s1.465,6.181,4.717,6.181S130.714,50.025,130.714,46.674z"/>
	</g>
	<g>
		<path fill="#A6CE39" d="M52.611,92.409c0-1.105,0.877-1.953,1.984-1.953s1.984,0.846,1.984,1.951
			c0.001,1.105-0.876,1.984-1.983,1.986C53.49,94.394,52.611,93.513,52.611,92.409z"/>
		<path fill="#F68B1F" d="M61.555,90.356l-0.003-9.986h-2.567l-0.001-1.887h2.567l-0.001-4.457h2.378l0.001,4.455h3.934l0.001,1.887
			H63.93l0.003,9.762c0,1.561,0.452,2.309,1.821,2.309c0.973-0.002,1.854-0.488,2.112-0.684l0.879,1.787
			c-0.453,0.293-1.592,0.943-3.285,0.943C62.86,94.487,61.556,92.96,61.555,90.356z"/>
		<path fill="#F68B1F" d="M72.158,78.479h2.375v2.439c0.619-1.041,1.984-2.83,4.166-2.83c0.943-0.002,1.432,0.227,1.625,0.324
			l-0.586,2.277c-0.16-0.1-0.551-0.262-1.365-0.26c-2.344,0-3.643,2.701-3.838,3.189l0.002,10.475h-2.375L72.158,78.479z"/>
		<path fill="#F68B1F" d="M82.148,90.286c-0.002-4.133,4.555-5.367,8.328-5.369h0.682l-0.002-1.465c0-2.311-0.975-3.254-3.123-3.252
			c-1.43,0-2.666,0.455-4.062,1.691l-1.271-1.658c1.529-1.432,3.316-2.146,5.498-2.148c3.416,0,5.336,1.625,5.338,5.17l0.002,7.289
			c0,1.561,0.16,2.797,0.357,3.545h-2.375c-0.098-0.422-0.197-1.398-0.23-1.887c-1.039,1.301-2.762,2.277-4.682,2.279
			C84.003,94.481,82.148,92.823,82.148,90.286z M91.158,90.187v-3.514h-0.682c-3.352,0-5.791,0.912-5.791,3.547
			c0.002,1.627,1.367,2.213,2.311,2.211C88.755,92.431,90.152,91.521,91.158,90.187z"/>
		<path fill="#F68B1F" d="M96.427,78.472h2.602l4.461,12.492h0.064l4.357-12.494h2.439l-5.754,15.617h-2.215L96.427,78.472z"/>
		<path fill="#F68B1F" d="M112.076,86.179c0-4.586,2.861-8.102,7.023-8.102c3.871-0.002,6.148,2.764,6.15,7.025
			c0,0.357-0.033,0.715-0.062,1.105l-10.572,0.002c0.066,3.318,1.398,6.215,4.912,6.213c2.18,0,3.645-0.977,4.326-1.398l0.977,1.852
			c-0.781,0.521-2.535,1.596-5.365,1.596C114.55,94.474,112.078,90.8,112.076,86.179z M122.808,84.321
			c-0.062-2.213-1.072-4.197-3.773-4.195c-2.502,0-3.871,1.758-4.293,4.199L122.808,84.321z"/>
		<path fill="#F68B1F" d="M129.441,70.655h2.379l0.006,23.424h-2.379L129.441,70.655z"/>
	</g>
</g>
</svg>
