<?xml version="1.0" encoding="UTF-8" standalone="no"?>
<svg width="65px" height="40px" viewBox="0 0 65 40" version="1.1" xmlns="http://www.w3.org/2000/svg" xmlns:xlink="http://www.w3.org/1999/xlink">
    <!-- Generator: Sketch 39.1 (31720) - http://www.bohemiancoding.com/sketch -->
    <title>viajemos-mexico</title>
    <desc>Created with Sketch.</desc>
    <defs></defs>
    <g id="Page-1" stroke="none" stroke-width="1" fill="none" fill-rule="evenodd">
        <g id="viajemos-mexico" transform="translate(-1.000000, 0.000000)">
            <rect id="Rectangle-path" fill="#CC2B44" x="1.5" y="34.27" width="63.93" height="5.29"></rect>
            <path d="M61.46,36.27 C61.9144413,36.2638686 62.2933071,36.6163018 62.32,37.07 C62.32,37.5449649 61.9349649,37.93 61.46,37.93 C60.9850351,37.93 60.6,37.5449649 60.6,37.07 C60.6266929,36.6163018 61.0055587,36.2638686 61.46,36.27 L61.46,36.27 Z M61.46,35.5 C60.5662237,35.5337167 59.8688849,36.2853859 59.9021929,37.1791775 C59.935501,38.0729691 60.6868512,38.7706516 61.580658,38.7377522 C62.4744648,38.7048529 63.1724906,37.9538217 63.14,37.06 C63.1243784,36.6302481 62.9385274,36.2243414 62.6234,35.9317231 C62.3082726,35.6391048 61.8897301,35.4837889 61.46,35.5 L61.46,35.5 Z M55.11,35.67 C54.8823759,35.5725765 54.6375915,35.5215797 54.39,35.52 C53.9537607,35.5235609 53.5366852,35.6997394 53.23,36.01 C52.9410461,36.3071975 52.7795772,36.7054876 52.78,37.12 C52.7668633,37.5566274 52.9459898,37.9770264 53.27,38.27 C53.5803071,38.5573594 53.9870797,38.7179275 54.41,38.72 C54.649317,38.7110528 54.8856508,38.663786 55.11,38.58 L55.11,37.63 C54.940022,37.8296537 54.6921837,37.9462835 54.43,37.95 C54.2082024,37.9587227 53.9929677,37.873733 53.8369659,37.7158288 C53.6809642,37.5579246 53.5985896,37.3416756 53.61,37.12 C53.5989271,36.8992369 53.679688,36.6837307 53.8331201,36.5246159 C53.9865523,36.365501 54.1989803,36.2769595 54.42,36.28 C54.6889507,36.2760425 54.9442625,36.3981481 55.11,36.61 L55.11,35.67 Z M48.11,35.6 L47.32,35.6 L47.32,38.6 L48.11,38.6 L48.11,35.6 Z M40.66,37 L39.47,38.63 L40.47,38.63 L41.17,37.63 L41.81,38.63 L42.81,38.63 L41.59,37 L42.59,35.58 L41.59,35.58 L41.13,36.37 L40.67,35.58 L39.67,35.58 L40.66,37 Z M34.93,36.25 L34.93,35.58 L33.21,35.58 L33.21,38.58 L34.94,38.58 L34.94,38 L34,38 L34,37.48 L34.89,37.48 L34.89,36.81 L34,36.81 L34,36.3 L34.93,36.25 Z M34.56,34.79 L34.11,34.47 L33.54,35.16 L33.87,35.4 L34.56,34.79 Z M24.72,38.63 L25.51,38.63 L25.76,36.88 L25.76,36.88 L26.46,38.63 L26.77,38.63 L27.5,36.88 L27.5,36.88 L27.72,38.63 L28.51,38.63 L28.05,35.63 L27.26,35.63 L26.61,37.26 L26,35.61 L25.22,35.61 L24.72,38.63 Z" id="Shape" fill="#FFFFFF"></path>
            <path d="M17.18,36.21 L17.26,36.21 C17.52,36.21 17.81,36.21 17.81,36.59 C17.81,36.97 17.52,36.97 17.26,36.97 L17.18,36.97 L17.18,36.21 Z M18,37.4 C18.4091492,37.3247884 18.6971483,36.9551178 18.67,36.54 C18.67,35.89 18.21,35.6 17.61,35.6 L16.39,35.6 L16.39,38.6 L17.18,38.6 L17.18,37.48 L17.18,37.48 L17.93,38.65 L18.93,38.65 L18,37.4 Z M10.84,36.27 C11.2944413,36.2638686 11.6733071,36.6163018 11.7,37.07 C11.7,37.5449649 11.3149649,37.93 10.84,37.93 C10.3650351,37.93 9.98,37.5449649 9.98,37.07 C10.0066929,36.6163018 10.3855587,36.2638686 10.84,36.27 L10.84,36.27 Z M10.84,35.5 C9.94529871,35.5 9.22,36.2252987 9.22,37.12 C9.22,38.0147013 9.94529871,38.74 10.84,38.74 C11.7347013,38.74 12.46,38.0147013 12.46,37.12 C12.46,36.2252987 11.7347013,35.5 10.84,35.5 L10.84,35.5 Z M4.11,36.24 L4.24,36.24 C4.55,36.24 4.81,36.24 4.81,36.63 C4.81,37.02 4.53,37 4.24,37 L4.11,37 L4.11,36.24 Z M3.32,38.64 L4.11,38.64 L4.11,37.64 L4.56,37.64 C5.25,37.64 5.64,37.33 5.64,36.64 C5.64,35.95 5.19,35.64 4.53,35.64 L3.32,35.64 L3.32,38.64 Z" id="Shape" fill="#FFFFFF"></path>
            <path d="M61.75,31.53 C61.9566401,31.6922411 62.1814914,31.8298367 62.42,31.94 C62.5974587,32.0136598 62.7878641,32.0510609 62.98,32.05 C63.0675564,32.0566247 63.1549874,32.0356412 63.23,31.99 C63.285484,31.9556593 63.3194646,31.8952493 63.32,31.83 C63.32,31.7033333 63.2266667,31.6166667 63.04,31.57 L62.48,31.44 C62.166961,31.3753436 61.8870192,31.2017088 61.69,30.95 C61.4912238,30.7001966 61.3852033,30.3892033 61.39,30.07 C61.3787262,29.7158584 61.476464,29.3667949 61.67,29.07 C61.8609719,28.7832728 62.1274386,28.5548728 62.44,28.41 C62.7866899,28.2459085 63.1664881,28.1637899 63.55,28.17 C63.824796,28.1646552 64.098557,28.2052124 64.36,28.29 C64.6562255,28.4033522 64.9381479,28.5510259 65.2,28.73 L64.66,30 C64.4005261,29.7586326 64.0639751,29.616927 63.71,29.6 C63.6043247,29.5967233 63.5000122,29.62454 63.41,29.68 C63.3342588,29.7188882 63.2847902,29.7949937 63.28,29.88 C63.28,29.9333333 63.32,29.9833333 63.4,30.03 C63.5385123,30.0928756 63.6824332,30.1430806 63.83,30.18 C64.0710848,30.2340891 64.308281,30.3042457 64.54,30.39 C64.6683162,30.445904 64.7814467,30.531609 64.87,30.64 C65.1416378,30.8998269 65.2875123,31.2645131 65.27,31.64 C65.2747022,31.9043589 65.2235896,32.1667369 65.12,32.41 C65.0199277,32.6374624 64.8694726,32.839209 64.68,33 C64.4816797,33.1718001 64.2502508,33.3011281 64,33.38 C63.7198456,33.4748937 63.425781,33.5222145 63.13,33.52 C62.8153694,33.5214961 62.5021603,33.4777142 62.2,33.39 C61.8344058,33.2961208 61.4792601,33.1654539 61.14,33 L61.75,31.53 Z M57.83,30.08 C57.7044342,30.16676 57.6070807,30.2884519 57.55,30.43 C57.488179,30.5753576 57.4575196,30.7320616 57.46,30.89 C57.453422,31.1304893 57.5273297,31.36629 57.67,31.56 C57.8115741,31.7465846 58.036059,31.8513443 58.27,31.84 C58.5095456,31.8511534 58.7399816,31.7470855 58.89,31.56 C59.0422597,31.3707914 59.1204591,31.1326386 59.11,30.89 C59.118024,30.6507597 59.0399634,30.4165779 58.89,30.23 C58.7399816,30.0429145 58.5095456,29.9388466 58.27,29.95 C58.1119411,29.9470973 57.9573201,29.9962949 57.83,30.09 L57.83,30.08 Z M59.39,28.4 C59.7180578,28.5208193 60.0176427,28.7080599 60.27,28.95 C60.5174878,29.1902407 60.7116898,29.4798402 60.84,29.8 C60.9765578,30.1434841 61.044504,30.5103933 61.04,30.88 C61.0443075,31.2560841 60.9764134,31.6295016 60.84,31.98 C60.7162554,32.3001142 60.5252944,32.5899656 60.28,32.83 C60.0248947,33.0733411 59.7217472,33.2606795 59.39,33.38 C59.0244579,33.5111432 58.638316,33.5755002 58.25,33.57 C57.88127,33.5749592 57.5148983,33.5105049 57.17,33.38 C56.848813,33.2572579 56.5561423,33.0700847 56.31,32.83 C56.0658852,32.5889955 55.8751016,32.2994133 55.75,31.98 C55.6154476,31.6394262 55.5475514,31.2761815 55.55,30.91 C55.5405647,30.4249875 55.6577525,29.9458959 55.89,29.52 C56.1148227,29.0934207 56.4634207,28.7448227 56.89,28.52 C57.3301903,28.2874171 57.8222343,28.1704276 58.32,28.18 C58.6984441,28.1757038 59.07453,28.2400789 59.43,28.37 L59.39,28.4 Z M52.43,29.92 C52.6027456,29.8998127 52.7772544,29.8998127 52.95,29.92 C53.0806602,29.9570124 53.1984059,30.0297377 53.29,30.13 C53.4601778,30.322545 53.5497018,30.5732123 53.54,30.83 C53.5499491,31.0786957 53.4720672,31.3229617 53.32,31.52 C53.1836067,31.6953474 52.9720791,31.7955447 52.75,31.79 L52.43,31.79 L52.43,29.92 Z M52.88,33.41 C53.2213668,33.4097393 53.5599686,33.3487909 53.88,33.23 C54.4587359,33.0188595 54.9204528,32.5716849 55.15,32 C55.2641756,31.6790335 55.3216983,31.3406651 55.32,31 C55.326758,30.6320063 55.265742,30.2659104 55.14,29.92 C55.0237619,29.6096343 54.8392079,29.3293856 54.6,29.1 C54.3534283,28.8676733 54.0602816,28.6904218 53.74,28.58 C53.3753589,28.4610952 52.9934854,28.4036452 52.61,28.41 L50.54,28.41 L50.54,33.52 L52.88,33.41 Z M47,30.08 C46.8744342,30.16676 46.7770807,30.2884519 46.72,30.43 C46.658179,30.5753576 46.6275196,30.7320616 46.63,30.89 C46.623422,31.1304893 46.6973297,31.36629 46.84,31.56 C46.9815741,31.7465846 47.206059,31.8513443 47.44,31.84 C47.6795456,31.8511534 47.9099816,31.7470855 48.06,31.56 C48.2158505,31.3722122 48.2976537,31.1339161 48.29,30.89 C48.2952136,30.6494969 48.2135557,30.4151744 48.06,30.23 C47.9099816,30.0429145 47.6795456,29.9388466 47.44,29.95 C47.2819411,29.9470973 47.1273201,29.9962949 47,30.09 L47,30.08 Z M48.56,28.4 C48.8879312,28.5210775 49.1874661,28.7082868 49.44,28.95 C49.6874878,29.1902407 49.8816898,29.4798402 50.01,29.8 C50.1465578,30.1434841 50.214504,30.5103933 50.21,30.88 C50.2121973,31.2633212 50.1409116,31.6435117 50,32 C49.873323,32.3210197 49.6789033,32.6109439 49.43,32.85 C49.1748947,33.0933411 48.8717472,33.2806795 48.54,33.4 C48.1744579,33.5311432 47.788316,33.5955002 47.4,33.59 C47.03127,33.5949592 46.6648983,33.5305049 46.32,33.4 C45.9989403,33.2770056 45.7063179,33.0898634 45.46,32.85 C45.2161153,32.6088067 45.0253659,32.3192763 44.9,32 C44.7656863,31.6593574 44.6977988,31.2961594 44.7,30.93 C44.6910253,30.4450386 44.8081848,29.9660632 45.04,29.54 C45.265329,29.1137942 45.6137942,28.765329 46.04,28.54 C46.4801903,28.3074171 46.9722343,28.1904276 47.47,28.2 C47.8484617,28.1954818 48.2245873,28.2598636 48.58,28.39 L48.56,28.4 Z M43.58,33.39 L41.81,33.39 L41.81,30 L40.81,30 L40.81,28.32 L44.61,28.32 L44.61,30 L43.61,30 L43.58,33.39 Z M34.58,31.48 C34.7866401,31.6422411 35.0114914,31.7798367 35.25,31.89 C35.4274587,31.9636598 35.6178641,32.0010609 35.81,32 C35.9036006,32.0344315 36.0063994,32.0344315 36.1,32 C36.155484,31.9656593 36.1894646,31.9052493 36.19,31.84 C36.19,31.7133333 36.0966667,31.6266667 35.91,31.58 L35.35,31.45 C35.036961,31.3853436 34.7570192,31.2117088 34.56,30.96 C34.3612238,30.7101966 34.2552033,30.3992033 34.26,30.08 C34.2480748,29.7257797 34.3458665,29.3765238 34.54,29.08 C34.7305773,28.7929235 34.9971538,28.5644294 35.31,28.42 C35.6566899,28.2559085 36.0364881,28.1737899 36.42,28.18 C36.694796,28.1746552 36.968557,28.2152124 37.23,28.3 C37.5264558,28.4128413 37.8084368,28.5605456 38.07,28.74 L37.52,30 C37.2605261,29.7586326 36.9239751,29.616927 36.57,29.6 C36.4643247,29.5967233 36.3600122,29.62454 36.27,29.68 C36.1942588,29.7188882 36.1447902,29.7949937 36.14,29.88 C36.14,29.94 36.14,29.98 36.26,30.03 C36.4017526,30.093397 36.5490409,30.1436089 36.7,30.18 C36.9410773,30.2341179 37.1782716,30.304274 37.41,30.39 C37.5383162,30.445904 37.6514467,30.531609 37.74,30.64 C38.0116378,30.8998269 38.1575123,31.2645131 38.14,31.64 C38.1450044,31.9043853 38.0938796,32.1668259 37.99,32.41 C37.8896263,32.6372867 37.7392182,32.8389703 37.55,33 C37.3516797,33.1718001 37.1202508,33.3011281 36.87,33.38 C36.5898456,33.4748937 36.295781,33.5222145 36,33.52 C35.6853787,33.5213577 35.3721893,33.4775786 35.07,33.39 C34.7009451,33.2968998 34.3424049,33.1662169 34,33 L34.58,31.48 Z M30.7,30.08 C30.5748336,30.1671876 30.4775856,30.2887477 30.42,30.43 C30.358179,30.5753576 30.3275196,30.7320616 30.33,30.89 C30.323422,31.1304893 30.3973297,31.36629 30.54,31.56 C30.6815741,31.7465846 30.906059,31.8513443 31.14,31.84 C31.3795456,31.8511534 31.6099816,31.7470855 31.76,31.56 C31.9158505,31.3722122 31.9976537,31.1339161 31.99,30.89 C31.9952136,30.6494969 31.9135557,30.4151744 31.76,30.23 C31.6099816,30.0429145 31.3795456,29.9388466 31.14,29.95 C30.9819411,29.9470973 30.8273201,29.9962949 30.7,30.09 L30.7,30.08 Z M32.26,28.4 C32.5880578,28.5208193 32.8876427,28.7080599 33.14,28.95 C33.3872586,29.1904319 33.5814259,29.4799797 33.71,29.8 C33.8463093,30.1435558 33.9142462,30.5104154 33.91,30.88 C33.9143075,31.2560841 33.8464134,31.6295016 33.71,31.98 C33.5862554,32.3001142 33.3952944,32.5899656 33.15,32.83 C32.8948947,33.0733411 32.5917472,33.2606795 32.26,33.38 C31.8944031,33.5109328 31.5082996,33.5752834 31.12,33.57 C30.7365439,33.5737126 30.3560651,33.5023728 30,33.36 C29.6789403,33.2370056 29.3863179,33.0498634 29.14,32.81 C28.90784,32.5786671 28.7242458,32.3032757 28.6,32 C28.4659234,31.6592893 28.3980445,31.2961373 28.4,30.93 C28.3910253,30.4450386 28.5081848,29.9660632 28.74,29.54 C28.9648227,29.1134207 29.3134207,28.7648227 29.74,28.54 C30.1801903,28.3074171 30.6722343,28.1904276 31.17,28.2 C31.5484617,28.1954818 31.9245873,28.2598636 32.28,28.39 L32.26,28.4 Z M23.28,33.39 L23.55,30.67 L24.26,33.39 L25.45,33.39 L26.16,30.68 L26.44,33.39 L28.25,33.39 L27.45,28.28 L25.53,28.28 L24.87,30.84 L24.21,28.28 L22.21,28.28 L21.47,33.39 L23.28,33.39 Z M21.28,33.39 L21.28,32.05 L19.75,32.05 L19.75,31.51 L21.11,31.51 L21.11,30.21 L19.75,30.21 L19.75,29.71 L21.26,29.71 L21.26,28.32 L17.91,28.32 L17.91,33.43 L21.28,33.39 Z M14.85,31.59 C14.9359685,31.6664179 15.0298312,31.7334626 15.13,31.79 C15.2023854,31.8066754 15.2776146,31.8066754 15.35,31.79 C15.4471019,31.8012947 15.5427248,31.7592207 15.6,31.68 C15.6601419,31.5663547 15.6878208,31.43834 15.68,31.31 L15.68,28.32 L17.51,28.32 L17.51,31.84 C17.5135746,32.142325 17.4340119,32.4398202 17.28,32.7 C17.1307133,32.9553532 16.9123276,33.1633396 16.65,33.3 C16.365292,33.4446549 16.0492767,33.5167889 15.73,33.51 C15.5615471,33.5098418 15.3937077,33.4897011 15.23,33.45 C15.0698178,33.4092385 14.9153063,33.3487775 14.77,33.27 C14.5974541,33.1743392 14.4335092,33.0639274 14.28,32.94 L14.85,31.59 Z M11.51,30.07 L11.87,31.5 L11.12,31.5 L11.51,30.07 Z M10.7,33.43 L10.87,32.77 L12.2,32.77 L12.4,33.43 L14.3,33.43 L12.54,28.32 L10.54,28.32 L8.81,33.43 L10.7,33.43 Z M8.63,28.32 L6.82,28.32 L6.82,33.43 L8.63,33.43 L8.63,28.32 Z M3.17,33.43 L4.91,33.43 L6.61,28.32 L4.69,28.32 L4,31 L3.31,28.28 L1.31,28.28 L3.17,33.43 Z" id="Shape" fill="#272525"></path>
            <path d="M63.41,17.95 C63.1398376,17.2847247 62.5243098,16.8230788 61.81,16.75 C61.81,16.75 61.81,17.54 61.9,16.57 C61.9,16.57 62.04,16.51 62.03,16.5 L62.03,16.12 C62.0254249,15.8649777 61.9151826,15.6233 61.7255956,15.4526716 C61.5360085,15.2820432 61.2840936,15.1977795 61.03,15.22 L60.48,15.22 C60.35,15.12 60.48,14.44 60.28,14.15 C60.1895968,13.9338811 60.0860705,13.723489 59.97,13.52 C59.6767858,13.379617 59.4479717,13.1329268 59.33,12.83 C59.3148578,12.670954 59.221575,12.5298664 59.0811648,12.4536437 C58.9407547,12.377421 58.771623,12.3760551 58.63,12.45 C57.97,11.76 57.73,11.91 57.73,11.91 L57.52,11.7 C57.3427385,11.3040426 57.0673888,10.9598555 56.72,10.7 C56.86,10.7 57.37,10.63 57.18,10.27 C57.2978978,10.0066617 57.3327793,9.71365697 57.28,9.43 C57.28,9.43 57.58,9.43 57.28,9.09 C57.28,9.09 57.73,9.09 57.59,8.55 L57.26,8.55 C57.2784937,8.3448893 57.2094898,8.14150916 57.07,7.99 L57,7.65 C57.1079696,7.55436473 57.1607999,7.41096776 57.1406838,7.26814313 C57.1205676,7.12531851 57.0301847,7.00209241 56.9,6.94 C56.9,6.63 56.53,6.74 56.53,6.74 C56.45,6.54 56.17,6.58 56.17,6.58 C55.63,6.43 55.53,6.7 55.53,6.7 C55.01,6.45 54.89,6.9 54.89,6.9 C54.3910938,7.18421488 54.0965516,7.72679263 54.13,8.3 C54.01,9.3 54.28,9.38 54.28,9.38 C54.28,9.61 54.51,9.7 54.67,9.73 L54.67,9.84 L54.29,9.84 C54.29,9.84 54.39,9.97 54.29,10.44 L54.29,10.44 C53.9189155,10.6488925 53.6034069,10.9438245 53.37,11.3 L53.37,12.3 L53.37,13.42 L53.43,13.76 L53.95,18.55 M61.72,16.06 L61.17,15.64 C61.4348019,15.6151716 61.6742267,15.7980052 61.72,16.06 M54.35,18.46 L54.28,18.46" id="Shape" fill="#932980"></path>
            <path d="M63.78,23.22 L63.55,23.22 L63.38,23.22 L63.38,23.22 L63.38,23.13 C63.382194,23.0933662 63.382194,23.0566338 63.38,23.02 L63.38,22.3 L63.38,21.38 L63.78,23.22 Z M61.78,25.95 C61.7805293,26.0562688 61.760142,26.1616031 61.72,26.26 L61.46,26 C61.4632759,25.9667472 61.4632759,25.9332528 61.46,25.9 L61.46,25.9 C61.5353106,25.9203923 61.6146894,25.9203923 61.69,25.9 L61.77,25.9 L61.77,25.9 L61.78,25.95 Z M61.27,26.28 L61.58,26.41 C61.4207286,26.6123019 61.1774751,26.7303848 60.92,26.7303848 C60.6625249,26.7303848 60.4192714,26.6123019 60.26,26.41 L60.56,26.28 C60.7565022,26.465407 61.0634978,26.465407 61.26,26.28 L61.27,26.28 Z M61.11,26.16 C61.0005667,26.2312182 60.8594333,26.2312182 60.75,26.16 L61.11,26.16 Z M60.81,22.25 L60.81,22.4 L60.81,22.4 L60.81,22.02 L60.81,22.08 C60.8253274,22.1356302 60.8253274,22.1943698 60.81,22.25 L60.81,22.25 Z M60.71,25.4 C60.54539,25.4852713 60.4414711,25.6546207 60.44,25.84 L60.44,25.84 L60.16,26.06 C60.1470624,25.9771688 60.1470624,25.8928312 60.16,25.81 C60.1612012,25.438992 60.4113624,25.1150128 60.77,25.02 L60.77,25.02 L60.77,25.2 C60.7797738,25.2360154 60.7797738,25.2739846 60.77,25.31 L60.71,25.4 Z M60.69,20.96 L60.69,21.01 L60.69,21.01 C60.6485151,21.0072281 60.6077407,21.0217992 60.5774085,21.0502357 C60.5470762,21.0786722 60.5299075,21.1184227 60.53,21.16 L60.53,21.46 C60.3926501,21.6747726 60.2121681,21.85866 60,22 C60.0154503,21.9173828 60.0154503,21.8326172 60,21.75 C60,21.55 59.91,21.35 59.86,21.15 L60.69,20.96 Z M60.42,19.96 L60.32,19.63 L60.42,19.63 L60.42,19.96 Z M59.98,20.41 L59.69,20.41 L59.69,20.34 C59.6933863,20.3000717 59.6933863,20.2599283 59.69,20.22 C59.6855711,20.0970852 59.6619526,19.9756185 59.62,19.86 L59.62,19.71 L59.79,19.71 L59.98,20.41 Z M59.79,23 L59.79,22.48 C60.0264909,22.426338 60.2505227,22.3278998 60.45,22.19 L60.45,22.47 L60.18,22.47 L59.98,22.86 C59.8995033,22.8943203 59.8251829,22.9416151 59.76,23 L59.79,23 Z M59.27,22.65 C59.2507202,22.9470397 59.2038517,23.2416421 59.13,23.53 L59.05,23.53 C59.1226441,23.2515615 59.1695084,22.9670283 59.19,22.68 L59.27,22.68 L59.27,22.65 Z M59.01,22.68 L59.01,22.68 C58.9619388,23.1966896 58.8337372,23.7027483 58.63,24.18 L58.63,24.18 C58.4591872,24.5409902 58.2405573,24.8773438 57.98,25.18 L55.29,22.64 L55.41,22.64 C55.4393335,22.6831278 55.4878474,22.7092506 55.54,22.71 L56.7,22.64 L59,22.64 L59.01,22.68 Z M55.08,22.82 L57.89,25.29 C57.1551024,26.1395166 56.1188355,26.6702 55,26.77 L54.9,23 L55,22.94 L55.12,22.87 L55.08,22.82 Z M54.9,27 L54.9,27 L54.7,27 C53.5921229,26.9914741 52.5254209,26.579016 51.7,25.84 L51.75,25.78 C52.5763897,26.5138061 53.644852,26.9162602 54.75,26.91 L54.95,26.91 L54.9,27 Z M54.95,26.73 L54.7,26.73 C53.6454198,26.7287982 52.6278765,26.3409933 51.84,25.64 L51.84,25.64 L51.84,25.64 L54.37,22.88 L54.37,22.88 L54.37,22.88 C54.4457078,22.9280054 54.5310659,22.9587343 54.62,22.97 L54.95,26.73 Z M54.95,22.63 C54.8422925,22.6946604 54.7077075,22.6946604 54.6,22.63 L54.95,22.63 Z M54.69,17.08 L54.3,17.08 L54.3,16.8 L54.72,16.8 L54.69,17.08 Z M54.24,22.69 L51.79,25.56 C50.9594194,24.7750197 50.4618615,23.7011535 50.4,22.56 L51.05,22.56 L53.17,22.48 L53.9,22.48 C53.9287701,22.5799092 54.0163721,22.6515836 54.12,22.66 L54.21,22.66 L54.21,22.71 L54.24,22.69 Z M54.06,22 L54.06,22 C53.9481983,22.0100276 53.8554552,22.0906738 53.83,22.2 L53.35,22.2 L50.9,22.38 L50.33,22.38 L50.33,22.25 C50.3302946,21.847991 50.3841004,21.44781 50.49,21.06 C50.64746,20.5663333 50.8693756,20.0956034 51.15,19.66 C51.24,19.54 51.33,19.42 51.42,19.31 L52.52,20.31 L52.52,20.31 L54,21.88 L54.06,22 Z M54,21.27 L53.92,21.36 L52.85,20.42 L51.57,19.29 L51.57,19.29 L51.57,19.29 C51.8623385,18.9757803 52.1992724,18.7062333 52.57,18.49 L52.85,18.76 C53.0293148,19.3519162 53.3064806,19.9096279 53.67,20.41 L53.81,20.63 L54,21.27 Z M52.87,18.42 L52.8,18.36 L52.85,18.36 L52.85,18.44 L52.87,18.42 Z M52.85,18.18 L52.69,18.26 L52.63,18.21 L52.85,18.1 L52.85,18.18 L52.85,18.18 Z M52.55,18.34 C52.1485269,18.5703216 51.7843725,18.8602963 51.47,19.2 L51.41,19.15 C51.7250999,18.8110807 52.0891284,18.5212061 52.49,18.29 L52.55,18.34 Z M51.38,19.34 L51.33,19.4 L51.33,19.4 L51.33,19.45 L51.15,19.69 L51.06,19.81 L51.06,19.81 C50.8727761,20.1310866 50.7090158,20.4652914 50.57,20.81 C50.3827648,21.3260385 50.2879806,21.8710477 50.29,22.42 L50.29,22.57 L50.21,22.57 L50.21,22.42 C50.1372925,21.4104914 50.4164448,20.4069567 51,19.58 L51,19.58 L51.1,19.45 L51.1,19.45 L51.18,19.34 L51.28,19.23 L51.28,19.23 L51.28,19.23 L51.38,19.34 Z M50.17,22.69 L50.25,22.69 C50.3206747,23.870344 50.839321,24.9791741 51.7,25.79 L51.7,25.85 C50.8262852,25.0258393 50.3004377,23.8990233 50.23,22.7 L50.17,22.69 Z M55.23,27.01 C56.3859361,26.9152861 57.4606672,26.3779205 58.23,25.51 L58.29,25.56 C57.4351057,26.4678808 56.2469746,26.9879138 55,27 L55.23,27.01 Z M58.34,25.4 C58.6461783,24.9461586 58.8696238,24.4417135 59,23.91 L59,23.91 C58.8134935,24.4538648 58.5287796,24.9588931 58.16,25.4 L58.34,25.4 Z M65.6,24.18 L64.82,24.44 L64.61,24.44 C64.7305759,24.3506302 64.832492,24.2385224 64.91,24.11 L65.33,23.27 C65.39,23.15 65.33,23.07 65.33,23.02 L64.55,23.28 C64.4977219,23.2649963 64.4422781,23.2649963 64.39,23.28 L64.03,21.59 L64.03,21.59 C64.0140449,21.467868 63.987273,21.3473947 63.95,21.23 L63.95,21.23 L63.95,21.23 C63.8783811,21.024393 63.7736701,20.8318599 63.64,20.66 C63.6370447,20.6100437 63.6370447,20.5599563 63.64,20.51 L63.64,20.4 L63.64,19.52 C63.5946653,19.0023353 63.487227,18.4920031 63.32,18 C63.2917957,17.8677605 63.255052,17.7374876 63.21,17.61 C63.1709132,17.4993552 63.0926492,17.4068613 62.99,17.35 L62.6,17.13 C62.5693123,17.1133339 62.5474069,17.0841267 62.54,17.05 L62.54,16.86 C62.54,16.69 61.95,16.38 61.79,16.36 L61.73,16.36 C61.73,16.27 61.73,16.26 61.67,16.24 L61.17,16.11 L61.02,16.11 L60.93,16.11 L60.62,16.11 L60.45,16.11 C60.3828679,16.0816625 60.3071321,16.0816625 60.24,16.11 L60.1,16.11 L59.69,16.11 C59.5709881,16.1317779 59.4490119,16.1317779 59.33,16.11 L59.25,16.11 L55.16,15.94 L55.16,15.94 L55,15.94 L54.6,16 C54.4610527,16.0242796 54.3189473,16.0242796 54.18,16 C54.08,16 54.07,15.95 54.04,15.86 C54.0248658,15.7807158 54.0248658,15.6992842 54.04,15.62 C54.04,15.39 54.11,15.17 54.12,14.94 C54.0980814,14.3930212 53.88179,13.8717941 53.51,13.47 C53.2660601,13.1699447 52.9674565,12.9188463 52.63,12.73 L52.63,12.73 C52.4405924,12.7087817 52.2494076,12.7087817 52.06,12.73 L52,12.73 C51.838991,12.6711777 51.6708298,12.6341823 51.5,12.62 L50.18,12.62 C50.18,12.62 50.13,12.71 50.13,12.82 C50.13,12.93 50.13,13.02 50.18,13.02 L51.39,13.02 C51.5826887,13.0624857 51.7680296,13.1332522 51.94,13.23 C52.1802425,13.4851624 52.3492181,13.7989742 52.43,14.14 C52.43,14.25 52.49,14.37 52.52,14.48 L52.83,16.58 L52.83,16.58 C52.83,16.58 52.83,16.99 52.78,17.13 C52.73,17.27 52.78,17.63 52.78,17.63 L52.78,17.63 L52.78,17.63 C51.9411023,18.0083687 51.2067027,18.5849067 50.64,19.31 C49.976893,20.2252913 49.6262452,21.329832 49.64,22.46 C49.5733883,24.959027 51.3212048,27.1407801 53.7745519,27.6210519 C56.227899,28.1013237 58.6693784,26.7396749 59.55,24.4 L59.7,24.07 L60.78,24.07 L60.78,24.62 C60.7776484,24.666637 60.7776484,24.713363 60.78,24.76 C60.78,24.76 59.69,25.07 59.71,26.05 C59.7690414,26.7212316 60.3311767,27.2360921 61.005,27.2360921 C61.6788233,27.2360921 62.2409586,26.7212316 62.3,26.05 L62.3,25.96 C62.4179575,25.9127178 62.5430456,25.8856717 62.67,25.88 C62.7895763,25.8657393 62.9104237,25.8657393 63.03,25.88 L63.12,25.88 L63.12,25.93 C63.06,26.06 63.12,26.15 63.18,26.19 L64,25.91 L64,25.91 C64.0348602,25.9262771 64.0751398,25.9262771 64.11,25.91 L64.22,25.91 C64.2917291,25.9316924 64.3682709,25.9316924 64.44,25.91 C64.52,25.91 64.61,25.91 64.65,25.81 L64.76,25.81 L64.82,25.81 C64.9128124,25.7778322 64.9979402,25.7267555 65.07,25.66 L65.07,25.66 C65.1102348,25.6433381 65.1449125,25.6155959 65.17,25.58 C65.2774553,25.4449096 65.317905,25.2684021 65.28,25.1 C65.2878158,25.0603818 65.2878158,25.0196182 65.28,24.98 L65.46,24.62 C65.52,24.5 65.46,24.42 65.46,24.37 L65.6,24.18 Z" id="Shape" fill="#932980"></path>
            <path d="M47.46,13.75 L46.2,16.9 L45,19.79 C45.0941183,19.9288905 45.0941183,20.1111095 45,20.25 C45,20.25 45.08,20.25 44.91,20.67 C44.74,21.09 43.42,23.67 43.42,23.67 L42.21,26.3 C42.21,26.3 42.09,26.69 41.81,26.79 L41.53,26.89 L41.53,26.89 L41.53,26.89 C41.5765793,27.0754786 41.4656613,27.2640054 41.2809075,27.3133814 C41.0961537,27.3627573 40.9059728,27.2547 40.8538115,27.0707132 C40.8016501,26.8867264 40.9068221,26.6949348 41.09,26.64 C41.1062771,26.6051398 41.1062771,26.5648602 41.09,26.53 L41.09,26.53 C41.0264872,26.7150154 40.8250154,26.8135127 40.64,26.75 C40.4549846,26.6864872 40.3564873,26.4850154 40.42,26.3 L40.42,26.3 L40.01,26.1 L40.01,26.16 C40.1314402,26.2327968 40.1970586,26.3715896 40.1762477,26.5116397 C40.1554369,26.6516897 40.0522968,26.7654058 39.9149365,26.7997459 C39.7775761,26.834086 39.6330567,26.7822847 39.5487883,26.6685045 C39.4645199,26.5547243 39.4571041,26.4013808 39.53,26.28 C39.4510391,26.20217 39.3926268,26.1059614 39.36,26 L39.36,25.52 C39.36,25.35 39.01,25.26 38.86,24.87 C38.71,24.48 38.52,24.51 38.64,23.87 C38.76,23.23 38.73,23.25 39.44,22.16 C40.15,21.07 40.89,19.35 41.21,19.09 C41.53,18.83 41.6,18.95 41.6,18.95 C41.7025649,18.8273354 41.8505237,18.7515517 42.01,18.74 C42.1509192,18.767162 42.2800845,18.8369811 42.38,18.94 C42.38,18.94 42.47,18.85 42.63,18.88 C42.79,18.91 42.86,18.8 43.23,18.81 C43.4755015,18.8197279 43.7167155,18.8774834 43.94,18.98 C44.11,19.05 44.15,19.19 44.37,19.26 C44.5246997,19.3019874 44.6816068,19.3353719 44.84,19.36 L47.25,13.74" id="Shape" fill="#51A9BC"></path>
            <path d="M48.64,11.92 L49.16,12.32 C49.5896532,12.6384557 50.0370398,12.9322618 50.5,13.2 C50.5993752,13.2508674 50.6721873,13.3418826 50.7,13.45 C50.7614728,13.6019073 50.8457774,13.743539 50.95,13.87 L51.33,14.29 L51.33,14.29 C51.3758552,14.4603006 51.3758552,14.6396994 51.33,14.81 C51.33,14.92 51.52,14.86 51.54,14.81 C51.56,14.76 51.54,14.81 51.61,14.81 C51.6838302,14.8394931 51.7661698,14.8394931 51.84,14.81 C51.92,14.81 51.94,14.86 52.02,14.87 C52.111038,14.8681801 52.1944901,14.8188675 52.24,14.74 C52.31,14.65 52.32,14.63 52.31,14.74 C52.2904877,14.8289424 52.2904877,14.9210576 52.31,15.01 C52.31,15.07 52.42,15.01 52.46,15.01 C52.5320596,14.9069098 52.5736455,14.7856176 52.58,14.66 C52.6015874,14.5208322 52.6015874,14.3791678 52.58,14.24 C52.58,14.14 52.44,13.94 52.4,13.81 C52.36,13.68 52.21,13.61 52.06,13.5 C51.855587,13.3893881 51.6671893,13.2514541 51.5,13.09 C51.27,12.85 50.89,12.5 50.57,12.22 C50.1426866,11.8411324 49.7417533,11.4335169 49.37,11 L49.2,10.81" id="Shape" fill="#74A5B9"></path>
            <path d="M50.42,10.69 C50.417453,10.541478 50.3973126,10.3937812 50.36,10.25 C50.2912594,9.97589397 50.3306486,9.68584663 50.47,9.44 C50.61,9.1 50.31,8.38 50.31,7.91 C50.3191285,7.55992848 50.411694,7.21709359 50.58,6.91 C50.58,6.8 50.42,6.64 50.42,6.62 C50.42,6.6 50.55,6.44 50.48,6.38 C50.41,6.32 50.12,6.11 50.12,6.11 C50.218802,5.87354807 50.3773071,5.66680224 50.58,5.51 C50.7454649,5.32163179 51.0188193,5.27193099 51.24,5.39 C51.5,5.48 51.51,5.14 51.51,5.03 C51.5218876,4.92996649 51.5637142,4.83585654 51.63,4.76 C51.6667073,4.71298273 51.6667073,4.64701727 51.63,4.6 C51.63,4.6 51.72,4.49 51.75,4.44 C51.78,4.39 51.75,4.36 51.75,4.25 C51.75,4.14 51.85,4.12 51.97,4.05 C52.09,3.98 51.97,3.76 51.85,3.63 C51.73,3.5 51.9,3.4 51.85,3.28 C51.8,3.16 51.77,3.08 51.76,2.94 C51.7495046,2.83693317 51.7495046,2.73306683 51.76,2.63 C51.8418744,2.63291862 51.9234978,2.61931472 52,2.59 C52.13,2.52 52,2.28 52,2.28 C52.17,2.21 52.2,1.96 52.2,1.96 C52.1430415,1.98701779 52.0769585,1.98701779 52.02,1.96 C52.1,1.78 51.86,1.66 51.86,1.66 L51.72,1.74 L51.52,1.55 C51.61,1.77 51.24,1.75 51.06,1.62 C50.8750165,1.51850032 50.6762771,1.44439412 50.47,1.4 C50.72,1 50,1 50,1 C50.27,1.33 49.72,1.42 49.72,1.42 L49.44,1.2 L49.53,1.47 C49.06,1.47 48.96,1.67 48.96,1.67 C49.1132256,1.59581284 49.2970945,1.63258664 49.41,1.76 C49.1983493,1.79301708 49.0118814,1.91732899 48.9,2.1 C48.7221798,2.65916774 48.6877925,3.25406765 48.8,3.83 C48.8543396,4.03555179 48.8812398,4.24739052 48.88,4.46 C48.8574675,4.53878466 48.880589,4.62356357 48.94,4.68 C49,4.68 48.88,4.83 48.88,4.83 C48.59,4.69 48.54,4.99 48.38,5.1 C48.2060407,5.22573228 48.0258086,5.34254938 47.84,5.45 C47.4486546,5.71977938 47.1097794,6.05865458 46.84,6.45 C46.5750337,6.82791662 46.3661993,7.2422171 46.22,7.68 C46.1681302,8.09416461 46.1918478,8.51430438 46.29,8.92 C46.37855,9.45858375 46.4153843,10.0044023 46.4,10.55 C46.3649353,10.8085985 46.304648,11.0631449 46.22,11.31 C46.135408,11.6541799 46.0851621,12.0059015 46.07,12.36 C45.9859975,12.8216597 45.9524669,13.2910878 45.97,13.76 C46.14,13.76 46.43,13.69 46.51,13.88 C46.59,14.07 46.41,14.53 46.36,14.74 C46.31,14.95 46.18,15.22 46.13,15.47 C46.08,15.72 46.34,15.65 46.48,15.75 C46.62,15.85 46.72,16 46.79,15.97 C46.8932303,15.9512384 46.9960731,16.0047166 47.04,16.1 C47.11,16.22 47.04,16.42 47.23,16.58 C47.42,16.74 47.29,16.84 47.29,17.02 C47.3233352,17.2411149 47.3872819,17.4565144 47.48,17.66 C47.55,17.86 47.48,18.05 47.39,18.44 C47.4077668,18.827244 47.48884,19.2089635 47.63,19.57 C47.6277833,19.7531476 47.58689,19.9337596 47.51,20.1 C47.5203623,20.2434984 47.550653,20.3848554 47.6,20.52 C47.6,20.64 47.29,20.77 46.8,21.24 C46.31,21.71 45.94,22.15 45.87,22.24 C45.8,22.33 45.59,22.49 45.46,22.63 C45.33,22.77 45.38,22.98 45.3,22.99 C45.2003123,22.973621 45.0983757,22.9770189 45,23 L44.53,23.32 C44.47,23.32 44.47,23.46 44.45,23.5 C44.43,23.54 44.07,23.65 43.97,23.74 C43.87,23.83 43.97,24.08 44.05,24.27 C44.2946755,24.6922004 44.5117951,25.1297799 44.7,25.58 C44.9731464,26.1839685 45.4051885,26.702419 45.95,27.08 C46.22,27.27 46.34,27.15 46.4,27.08 C46.46,27.01 46.22,26.64 46.08,26.29 C46.0018183,25.9376177 46.0018183,25.5723823 46.08,25.22 L46.08,24.61 C46.08,24.54 46.15,24.48 46.23,24.41 C46.31,24.34 46.29,24.26 46.35,24.12 C46.41,23.98 46.81,24.01 46.99,23.88 C47.17,23.75 47.27,23.43 47.39,23.24 C47.51,23.05 47.45,23.38 47.45,23.46 C47.45,23.54 47.45,24.06 47.51,24.34 C47.57,24.62 47.51,25.06 47.51,25.21 C47.5204708,25.338076 47.569254,25.4600341 47.65,25.56 C47.7303176,25.6591034 47.7303176,25.8008966 47.65,25.9 C47.57,25.98 47.65,26.05 47.58,26.21 C47.51,26.37 47.67,26.54 47.65,26.74 C47.63,26.94 47.52,27.13 47.52,27.31 C47.52,27.49 48.33,27.57 48.59,27.51 C48.8285272,27.4491382 49.0738331,27.418895 49.32,27.42 C49.8543123,27.4339096 50.388944,27.4105194 50.92,27.35 C51.32,27.28 51.49,27.17 51.53,26.96 C51.5412294,26.8734433 51.5166153,26.7860557 51.4618607,26.7180844 C51.4071061,26.6501132 51.3269629,26.6074573 51.24,26.6 C50.9785121,26.6274183 50.7142182,26.607088 50.46,26.54 C50.1669622,26.4443914 49.8852816,26.3169645 49.62,26.16 C49.54,26.1 49.55,26.07 49.55,25.96 C49.5655318,25.861039 49.5402744,25.7600094 49.48,25.68 C49.4,25.57 49.48,25.5 49.48,25.34 C49.48,25.18 49.14,24.89 49.04,24.77 C48.9958065,24.2295287 49.0159475,23.6857215 49.1,23.15 C49.1,22.5 49.16,21.8 49.1,21.7 C49.04,21.6 49.24,21.56 49.51,21.31 C49.78,21.06 50.51,20.49 50.78,20.31 C51.05,20.13 50.96,19.83 50.93,19.49 C50.9,19.15 50.87,18.58 50.84,17.97 C50.8089911,17.5845704 50.7283236,17.204761 50.6,16.84 C50.6,16.68 50.48,16.11 50.41,15.84 C50.34,15.57 50.21,15.26 50.17,15.1 C50.1413102,14.9480087 50.1413102,14.7919913 50.17,14.64 C50.1742433,14.3455992 50.1337826,14.0522593 50.05,13.77 C49.98,13.57 50.11,13.17 50.05,13.11 C49.99,13.05 50.05,12.92 50.05,12.83 C50.1027014,12.6265013 50.1394792,12.4192082 50.16,12.21 C50.1536,12.1334669 50.1536,12.0565331 50.16,11.98" id="Shape" fill="#51A9BC"></path>
            <path d="M22.75,4.8 L23,4.58 C22.9237773,4.56833195 22.8462227,4.56833195 22.77,4.58 L22.57,4.58 C22.6077786,4.65862494 22.6547754,4.73247708 22.71,4.8 M26,0.43 C26.2137042,0.418455933 26.4260202,0.470664784 26.61,0.58 C26.8055915,0.691262201 26.9705192,0.849317955 27.09,1.04 L27.27,1.34 C27.2927691,1.38381865 27.3325403,1.41635876 27.38,1.43 L27.92,1.63 C28.0010363,1.65549135 28.0645087,1.7189637 28.09,1.8 L28.09,2.04 C28.0155398,2.08696593 27.9276654,2.10805579 27.84,2.1 L27.84,2.1 L27.49,2.1 C27.4922122,2.1232809 27.4922122,2.1467191 27.49,2.17 C27.49,2.24 27.42,2.31 27.43,2.4 C27.44,2.49 27.43,2.56 27.49,2.66 C27.5075121,2.7793611 27.5075121,2.9006389 27.49,3.02 C27.49,3.16 27.42,3.38 27.4,3.45 C27.3696004,3.57189106 27.3462285,3.69542793 27.33,3.82 C27.3336371,3.9469394 27.3097571,4.0731622 27.26,4.19 C27.2078058,4.26431889 27.1206163,4.30601825 27.03,4.3 L26.85,4.3 L26.74,4.3 C26.689728,4.38302018 26.646253,4.46997031 26.61,4.56 C26.6589582,4.5976085 26.6941145,4.65034301 26.71,4.71 C26.7184124,4.75984868 26.7430139,4.80553718 26.78,4.84 C26.8424466,4.89840449 26.9093122,4.951897 26.98,5 C27.0344758,5.03405973 27.0848129,5.07432936 27.13,5.12 C27.1768991,5.16022525 27.2312694,5.19080852 27.29,5.21 C27.3726496,5.24560856 27.4399791,5.30939442 27.48,5.39 C27.5425437,5.57574502 27.589375,5.76641529 27.62,5.96 C27.6511723,6.11166811 27.6712257,6.26541041 27.68,6.42 C27.6578439,6.57588332 27.6578439,6.73411668 27.68,6.89 C27.68,7.07 27.78,7.3 27.8,7.36 C27.8256442,7.42062416 27.8424815,7.48460593 27.85,7.55 C27.8541532,7.63535467 27.871005,7.71961368 27.9,7.8 C27.9395452,7.91058916 27.9696528,8.024329 27.99,8.14 C28.0049335,8.21462197 28.0249808,8.28812869 28.05,8.36 C28.082252,8.43232852 28.0567398,8.51736903 27.99,8.56 C27.8425167,8.65153653 27.6847628,8.72537881 27.52,8.78 C27.52,9.01 27.52,9.4 27.58,9.56 C27.614029,9.72566106 27.6574321,9.88925742 27.71,10.05 C27.7411158,10.1612317 27.784727,10.2685822 27.84,10.37 C27.9115446,10.5116743 27.9717335,10.6588028 28.02,10.81 C28.0547521,10.9314454 28.0814765,11.0550457 28.1,11.18 C28.129235,11.3490678 28.1693178,11.5160795 28.22,11.68 C28.28,11.86 28.52,12.58 28.6,12.82 C28.68,13.06 28.79,13.3 28.84,13.42 C28.89,13.54 28.94,13.61 28.98,13.71 C29.02,13.81 29.11,13.71 29.15,13.76 C29.2336354,13.8792606 29.269334,14.0256249 29.25,14.17 L29.25,14.28 C29.2944031,14.3973248 29.347899,14.5110036 29.41,14.62 L29.5,14.8 L29.57,14.94 C29.5801988,14.9827332 29.5801988,15.0272668 29.57,15.07 C29.5741831,15.1032021 29.5741831,15.1367979 29.57,15.17 C29.5624774,15.2230681 29.5624774,15.2769319 29.57,15.33 L29.57,15.68 C29.57,15.78 29.57,15.86 29.5,15.92 L29.33,16.05 L29.2,16.15 C29.1763281,16.1761272 29.1446894,16.1937043 29.11,16.2 L28.89,16.27 L28.78,16.27 L28.78,16.27 C28.7688687,16.244495 28.7688687,16.215505 28.78,16.19 L28.68,16.19 L28.68,16.19 C28.661525,16.1628444 28.661525,16.1271556 28.68,16.1 C28.6975321,16.0602862 28.7251033,16.0258221 28.76,16 L28.76,16 L28.76,15.92 L28.88,15.92 C28.9092928,15.9292122 28.9407072,15.9292122 28.97,15.92 L29.07,15.8 L29.07,15.8 L29.07,15.8 C29.0416952,15.8142629 29.0083048,15.8142629 28.98,15.8 L28.98,15.8 C28.9134157,15.7680573 28.8628214,15.7102352 28.84,15.64 C28.807622,15.5629201 28.7841371,15.4824002 28.77,15.4 C28.7628946,15.3173176 28.7426399,15.2362988 28.71,15.16 C28.6677322,15.1107422 28.6308556,15.0571037 28.6,15 L28.51,14.79 C28.4951536,14.7343058 28.4951536,14.6756942 28.51,14.62 C28.5165574,14.5568364 28.5165574,14.4931636 28.51,14.43 L28.51,14.43 C28.51,14.43 28.51,14.43 28.51,14.38 L28.51,14.19 L28.51,14.05 L28.51,14.05 C28.51,14.05 28.44,13.93 28.39,13.87 L28.08,13.44 L27.76,12.98 C27.65,12.83 27.26,12.25 27.16,12.08 C27.06,11.91 27,11.82 26.99,11.79 C26.98,11.76 26.99,11.79 26.99,11.79 L26.99,11.79 C26.99,11.79 26.99,11.79 26.99,11.87 C26.9869549,11.93438 26.9661919,11.9966689 26.93,12.05 C26.8895535,12.0972325 26.8681615,12.1578434 26.87,12.22 C26.886114,12.3227051 26.886114,12.4272949 26.87,12.53 C26.8258716,12.5844753 26.7981279,12.6503666 26.79,12.72 C26.7979567,12.8098241 26.7979567,12.9001759 26.79,12.99 C26.79,13.12 26.74,13.32 26.73,13.38 C26.7119972,13.4589872 26.7119972,13.5410128 26.73,13.62 C26.7434694,13.6859863 26.7434694,13.7540137 26.73,13.82 C26.7177941,13.9095862 26.7177941,14.0004138 26.73,14.09 C26.7354801,14.1298123 26.7354801,14.1701877 26.73,14.21 C26.7245191,14.2464618 26.7245191,14.2835382 26.73,14.32 L26.73,14.41 C26.73,14.44 26.66,14.41 26.66,14.52 C26.654031,14.6332547 26.654031,14.7467453 26.66,14.86 C26.6834615,14.9721191 26.6834615,15.0878809 26.66,15.2 C26.6335622,15.3756082 26.61687,15.5525458 26.61,15.73 C26.6151723,15.8520053 26.6353234,15.9729121 26.67,16.09 C26.70764,16.2408123 26.7310756,16.3948179 26.74,16.55 L26.74,16.89 C26.7575131,16.9656665 26.7575131,17.0443335 26.74,17.12 C26.7183766,17.2087012 26.7183766,17.3012988 26.74,17.39 L26.74,17.99 C26.7478312,18.1198821 26.7478312,18.2501179 26.74,18.38 C26.7146622,18.502032 26.7146622,18.627968 26.74,18.75 C26.7932744,18.8670595 26.8270532,18.9920411 26.84,19.12 C26.8496729,19.2297874 26.8496729,19.3402126 26.84,19.45 C26.8314975,19.5431397 26.8314975,19.6368603 26.84,19.73 L26.84,20.29 C26.84,20.35 26.84,20.4 26.76,20.4 L26,20.4 L26,22.15 L26,23.63 C25.989263,23.8331916 25.989263,24.0368084 26,24.24 C26,24.33 26,24.53 26.07,24.66 C26.14,24.79 26.14,24.72 26.15,24.76 C26.1554213,24.8332331 26.1554213,24.9067669 26.15,24.98 C26.1435632,25.0230943 26.1435632,25.0669057 26.15,25.11 C26.1577537,25.1864706 26.1577537,25.2635294 26.15,25.34 C26.2029238,25.3306534 26.2570762,25.3306534 26.31,25.34 L26.39,25.34 C26.4521701,25.3943494 26.5002131,25.4629823 26.53,25.54 C26.5632246,25.6483059 26.589939,25.7585029 26.61,25.87 C26.6240255,25.9337809 26.6551361,25.9925453 26.7,26.04 C26.7306032,26.080784 26.7573831,26.1243013 26.78,26.17 C26.8288053,26.2360667 26.8944104,26.2878602 26.97,26.32 C27.0819205,26.3778667 27.1889411,26.4447546 27.29,26.52 C27.4736833,26.6623441 27.6977277,26.74286 27.93,26.75 L28,26.75 C28.0789476,26.7316485 28.1610524,26.7316485 28.24,26.75 C28.3441182,26.8220082 28.4130903,26.9345415 28.43,27.06 C28.46558,27.1430149 28.46558,27.2369851 28.43,27.32 C28.32,27.53 27.99,27.62 27.78,27.65 C27.6002416,27.6631884 27.4197584,27.6631884 27.24,27.65 C26.76,27.65 26.24,27.58 25.81,27.55 L24.81,27.5 C24.7118761,27.5050826 24.6154496,27.4729404 24.54,27.41 C24.509181,27.3611189 24.509181,27.2988811 24.54,27.25 L24.54,27.01 C24.5459075,26.9554542 24.5666601,26.9035729 24.6,26.86 L24.6,26.74 C24.5937764,26.6801614 24.5937764,26.6198386 24.6,26.56 C24.6207857,26.4401077 24.6543089,26.3227765 24.7,26.21 C24.7140354,26.1373382 24.7140354,26.0626618 24.7,25.99 C24.7125822,25.9018861 24.7549261,25.8207269 24.82,25.76 C24.8423774,25.7505542 24.8676226,25.7505542 24.89,25.76 L24.95,25.76 L24.95,25.76 C24.95,25.76 24.95,25.76 24.95,25.7 C24.9588916,25.6369788 24.9588916,25.5730212 24.95,25.51 C24.9457602,25.4801498 24.9457602,25.4498502 24.95,25.42 C24.9588972,25.3838731 24.9588972,25.3461269 24.95,25.31 C24.9432258,25.2837636 24.9432258,25.2562364 24.95,25.23 C24.9553573,25.1901794 24.9553573,25.1498206 24.95,25.11 C24.9294279,25.0621161 24.9294279,25.0078839 24.95,24.96 C24.9606842,24.9275228 24.9606842,24.8924772 24.95,24.86 C24.95,24.62 24.84,24.33 24.81,24.15 C24.7483563,23.7712963 24.6614964,23.3971308 24.55,23.03 C24.4395815,22.6794928 24.3724169,22.3168038 24.35,21.95 L24.35,20.95 C24.2420158,21.0047325 24.11899,21.0223076 24,21 C23.8889185,21.0610151 23.7877621,21.1385684 23.7,21.23 C23.57,21.34 23.12,21.73 22.81,21.94 C22.5,22.15 22.02,22.47 21.81,22.57 C21.5902502,22.6984993 21.3797385,22.8421818 21.18,23 C21.01,23.13 20.67,23.45 20.64,23.48 C20.61,23.51 20.64,23.54 20.64,23.58 C20.64,23.62 20.64,23.66 20.57,23.7 L20.41,23.82 C20.3689831,23.8442506 20.3318925,23.8745974 20.3,23.91 C20.2707504,23.9594528 20.2372933,24.0062928 20.2,24.05 C20.2627007,24.0626599 20.3272993,24.0626599 20.39,24.05 C20.44434,24.0430662 20.4955004,24.0771731 20.51,24.13 C20.5297533,24.1710822 20.5297533,24.2189178 20.51,24.26 C20.4741545,24.3082788 20.4407783,24.358343 20.41,24.41 C20.3745261,24.4677003 20.3221564,24.5130873 20.26,24.54 C20.1984418,24.5629694 20.1434896,24.600749 20.1,24.65 C20.0439373,24.7589406 20.0099531,24.8778852 20,25 C19.9858485,25.1019225 19.9624178,25.2023396 19.93,25.3 C19.9191765,25.3662274 19.9191765,25.4337726 19.93,25.5 L19.93,25.82 C19.9157139,25.9127867 19.9157139,26.0072133 19.93,26.1 C19.93,26.23 19.93,26.37 20.01,26.5 C20.0459714,26.5835257 20.0727944,26.6707002 20.09,26.76 C20.0914269,26.8485023 20.0592683,26.9342584 20,27 C19.95,27.06 19.9,27.07 19.74,27.08 L19.74,27.08 C19.5714695,27.0640289 19.4097519,27.0055353 19.27,26.91 C18.7804785,26.636752 18.4583228,26.1385344 18.41,25.58 L18.41,25.06 C18.4271295,24.945665 18.3812558,24.8309808 18.29,24.76 C18.1919295,24.6582784 18.1078558,24.5439382 18.04,24.42 C17.9586556,24.2457817 17.8917639,24.065174 17.84,23.88 C17.8019096,23.7263586 17.785086,23.5682164 17.79,23.41 C17.800461,23.2946855 17.854025,23.1875575 17.94,23.11 C17.9831842,23.0681911 18.0399859,23.0433404 18.1,23.04 L18.1,23.04 C18.1294552,23.0480854 18.1605448,23.0480854 18.19,23.04 C18.2357994,23.0061107 18.2863421,22.9791546 18.34,22.96 C18.4195562,22.9480824 18.5004438,22.9480824 18.58,22.96 L18.58,22.96 C18.6531101,22.9680912 18.7268899,22.9680912 18.8,22.96 L19,22.96 C19.0636878,22.9103849 19.1397986,22.8792487 19.22,22.87 L19.22,22.87 C19.2882887,22.8766518 19.3537184,22.9007575 19.41,22.94 L19.65,22.75 C19.6851309,22.7349919 19.7248691,22.7349919 19.76,22.75 C19.76,22.75 19.81,22.75 19.85,22.69 L20.52,22.05 C20.659629,21.8960319 20.7835742,21.7285384 20.89,21.55 C21.0100834,21.3526537 21.1545546,21.1712247 21.32,21.01 C21.5666885,20.7738604 21.8307646,20.5565826 22.11,20.36 C22.26,20.26 22.56,20.08 22.61,20.05 C22.66,20.02 22.61,20 22.61,19.97 C22.61,19.94 22.61,19.92 22.71,19.87 C22.7804563,19.8067859 22.8352344,19.7280424 22.87,19.64 C22.9050968,19.5665304 22.9319278,19.4893912 22.95,19.41 C22.965568,19.3715148 22.965568,19.3284852 22.95,19.29 C22.884824,19.1958664 22.9070642,19.066873 23,19 C22.9866489,18.9282688 22.9665599,18.8579572 22.94,18.79 C22.9211083,18.7452453 22.9211083,18.6947547 22.94,18.65 C22.961401,18.5748268 22.961401,18.4951732 22.94,18.42 C22.9181803,18.311082 22.9181803,18.198918 22.94,18.09 C22.9443946,17.9935718 22.9162162,17.8984695 22.86,17.82 C22.8072806,17.7275411 22.7732998,17.6255987 22.76,17.52 C22.7518767,17.4335237 22.7518767,17.3464763 22.76,17.26 C22.7427739,17.1803622 22.7086743,17.1053431 22.66,17.04 C22.6144155,16.9757009 22.5899529,16.8988183 22.59,16.82 C22.5855572,16.7346814 22.5687138,16.6504644 22.54,16.57 C22.54,16.46 22.46,16.29 22.45,16.18 C22.4335126,16.0982023 22.3955457,16.0222686 22.34,15.96 C22.2980511,15.8968189 22.270721,15.8250775 22.26,15.75 C22.2358352,15.6568649 22.2023321,15.5664065 22.16,15.48 C22.16,15.38 22.06,15.17 22.01,15.01 C21.9698695,14.8909108 21.9161838,14.7768288 21.85,14.67 C21.818168,14.6110294 21.7978083,14.546557 21.79,14.48 C21.778786,14.4237724 21.7585227,14.3697369 21.73,14.32 C21.7038242,14.2679559 21.6804574,14.2145459 21.66,14.16 L21.66,14.16 L21.66,14.16 L21.61,14.16 L21.61,14.16 C21.61,14.16 21.56,14.16 21.54,14.11 C21.5055014,14.0060854 21.4820388,13.8988276 21.47,13.79 C21.4643203,13.6934168 21.4643203,13.5965832 21.47,13.5 C21.476054,13.4621127 21.5032516,13.4310297 21.54,13.42 C21.54,13.42 21.54,13.42 21.54,13.34 C21.5293491,13.2436267 21.5293491,13.1463733 21.54,13.05 C21.5070701,13.0573341 21.4729299,13.0573341 21.44,13.05 L21.44,12.91 C21.44,12.84 21.55,12.6 21.58,12.5 C21.592778,12.4305831 21.592778,12.3594169 21.58,12.29 C21.5866539,12.2276585 21.6035475,12.1668419 21.63,12.11 C21.6434615,12.0339242 21.6434615,11.9560758 21.63,11.88 L21.63,11.44 L21.63,11.44 C21.3908881,11.4437625 21.1522793,11.416877 20.92,11.36 C20.6830021,11.3289662 20.4489046,11.2788024 20.22,11.21 C19.98,11.1 19.91,10.77 19.86,10.58 C19.8078474,10.3466713 19.7777152,10.1089616 19.77,9.87 C19.77,9.75 19.82,9.44 19.83,9.38 C19.844587,9.34132988 19.844587,9.29867012 19.83,9.26 C19.8209986,9.22050641 19.8209986,9.17949359 19.83,9.14 L19.83,8.88 C19.8292691,8.82271262 19.84678,8.76667774 19.88,8.72 C19.8943952,8.66424755 19.8943952,8.60575245 19.88,8.55 C19.88,8.48 19.88,8.26 19.93,8.1 C19.98,7.94 20.05,7.42 20.12,7.23 C20.2206062,6.97322548 20.3551343,6.73107481 20.52,6.51 C20.65,6.35 20.87,6.15 20.93,6.09 C20.9602241,6.06605854 20.984235,6.03518743 21,6 C21.0201789,5.93091785 21.0469695,5.86394151 21.08,5.8 C21.1089257,5.71645036 21.1701686,5.64800244 21.25,5.61 C21.370279,5.57270811 21.4944108,5.54922372 21.62,5.54 C21.7075626,5.53642047 21.7916745,5.50487852 21.86,5.45 C21.9308114,5.40253396 22.0042632,5.35913065 22.08,5.32 C22.147897,5.28448494 22.2088646,5.23706572 22.26,5.18 C22.3435521,5.08996243 22.4338108,5.00638956 22.53,4.93 L22.38,4.77 C22.3449,4.72616006 22.3449,4.66383994 22.38,4.62 C22.4174559,4.54519244 22.450838,4.46841362 22.48,4.39 C22.4878356,4.34392749 22.5239275,4.30783555 22.57,4.3 L22.86,4.3 C23.0144612,4.33952099 23.1602577,4.40733333 23.29,4.5 C23.3900678,4.45016943 23.4986277,4.41963697 23.61,4.41 C23.6661956,4.42033342 23.7238044,4.42033342 23.78,4.41 L24.17,4.27 C24.3,4.27 24.6,4.13 24.71,4.08 C24.82,4.03 24.87,4.02 24.92,3.93 C24.9749564,3.81097857 25.0023042,3.68107628 25,3.55 C25.0211918,3.41415484 25.0211918,3.27584516 25,3.14 C24.9226136,3.09880645 24.862368,3.03147314 24.83,2.95 C24.7708745,2.83804546 24.7335466,2.71588145 24.72,2.59 C24.67,2.59 24.65,2.59 24.61,2.46 C24.5394793,2.31679161 24.5018946,2.15961898 24.5,2 L24.5,1.45 C24.5359946,1.28038025 24.6191917,1.12438578 24.74,1 C24.91455,0.806014071 25.1344302,0.658282067 25.38,0.57 C25.5770423,0.487914399 25.7868042,0.4405488 26,0.43" id="Shape" fill="#932980"></path>
            <path d="M29.94,15.06 C29.94,14.99 29.85,14.75 29.85,14.75 C29.8114959,14.3375634 29.8114959,13.9224366 29.85,13.51 L29.85,13.27 C29.9280257,13.1382935 30.0476348,13.036274 30.19,12.98 C30.19,12.98 30.07,13.64 30.05,13.98 C30.03,14.32 29.95,14.98 29.95,14.98 L29.94,15.06 Z M29.81,10 C29.8943766,9.91655903 30.0121532,9.87607333 30.13,9.89 C30.13,10.03 29.81,10 29.81,10 L29.81,10 Z M29.91,9.73 C29.9718728,9.71076431 30.0381272,9.71076431 30.1,9.73 C30.0407097,9.76200379 29.9692903,9.76200379 29.91,9.73 L29.91,9.73 Z M29.59,10.2 C29.6447517,10.156335 29.7105049,10.1286494 29.78,10.12 C29.78,10.2 29.59,10.2 29.59,10.2 L29.59,10.2 Z M29.44,10.59 C29.5552948,10.5226974 29.6597994,10.4384194 29.75,10.34 C29.6924513,10.4680042 29.5772906,10.5608757 29.44,10.59 L29.44,10.59 Z M28.56,26.59 C28.56,26.59 28.31,26.92 28.76,27.17 C29.1833438,27.3324532 29.6387043,27.394081 30.09,27.35 L30.41,27.35 C30.41,27.35 32.27,27.77 32.31,27.02 C32.31,27.02 32.31,26.8 32.16,26.8 C32.16,26.8 32.05,26.68 31.54,26.67 L31.38,26.67 C31.1757745,26.5397295 30.9577865,26.4324123 30.73,26.35 L30.49,26.08 C30.49,26.08 30.35,26.19 30.6,25.4 L31.6,23.83 C31.7125191,23.6450076 31.8095176,23.4510107 31.89,23.25 C32.0731252,23.2677505 32.2567721,23.2218387 32.41,23.12 C32.688228,23.0216316 32.991772,23.0216316 33.27,23.12 C33.27,23.12 33.68,23.38 33.93,23.25 C33.93,23.25 34.27,23.25 34.06,22.93 C34.06,22.93 33.82,22.45 33.9,22.3 C33.9,22.3 34.26,22.08 34.27,21.97 C34.3223499,21.9555155 34.3776501,21.9555155 34.43,21.97 C34.43,21.97 34.6,22.02 34.67,21.97 C34.7716366,21.8806235 34.896407,21.8217042 35.03,21.8 C35.3210315,21.7351721 35.6007727,21.6273201 35.86,21.48 C35.86,21.48 35.99,21.41 35.81,21.26 C35.7453092,21.1220065 35.6611145,20.9940306 35.56,20.88 C35.3812248,20.4532994 35.1740954,20.0390405 34.94,19.64 C34.94,19.64 34.61,19.07 34.4,18.79 C34.2516396,18.5315567 34.0236066,18.3280812 33.75,18.21 C33.6567898,18.1034332 33.5565668,18.0032102 33.45,17.91 C33.4317692,17.841187 33.4317692,17.768813 33.45,17.7 C33.5159603,17.5371735 33.5564353,17.3651549 33.57,17.19 C33.6228101,16.7788589 33.6462029,16.3644724 33.64,15.95 C33.6827729,15.759232 33.7095326,15.5652239 33.72,15.37 C33.8950644,14.7901446 33.9727848,14.1852773 33.95,13.58 C33.937927,13.1412241 33.8978454,12.703667 33.83,12.27 L33.77,12 C33.77,12 34.06,11.62 33.93,11.52 C33.7396013,11.2717905 33.5658862,11.0112179 33.41,10.74 C33.36,10.59 33.32,10.49 33.18,10.49 C33.04,10.49 33.39,10.13 33.12,10.1 C33.12,10.1 33.12,9.85 33.5,9.69 C33.5975889,9.64421759 33.6977581,9.60414993 33.8,9.57 C33.92,9.57 34.14,9.57 34.01,9.19 L34.01,9.08 C34.01,9.05 34.13,8.9 33.9,8.9 C33.9056996,8.82311921 33.9512253,8.75483073 34.02,8.72 C34.02,8.72 34.17,8.67 34.02,8.57 L34.02,8.39 C34.02,8.39 34.37,8.27 34.02,8.04 C33.9214556,7.98741331 33.8438353,7.90273663 33.8,7.8 C33.8543074,7.34442272 33.6735173,6.89244742 33.32,6.6 C33.2652247,6.48496608 33.1827606,6.38532193 33.08,6.31 C32.7052585,6.02964051 32.2087426,5.97235022 31.78,6.16 C31.468776,6.17861178 31.1840408,6.34131757 31.01,6.6 C30.8202518,6.6559859 30.6636626,6.79072546 30.58,6.97 C30.58,6.97 30.34,7.08 30.34,7.68 C30.2843387,8.16120015 30.2676177,8.64610869 30.29,9.13 C30.2543994,9.28164486 30.2276873,9.43523979 30.21,9.59 C30.020326,9.5293906 29.8389321,9.44541193 29.67,9.34 C29.7982169,9.49145808 29.9748667,9.59391501 30.17,9.63 L30.17,9.68 C29.9264452,9.66902289 29.6952902,9.56944842 29.52,9.4 C29.6182995,9.53146414 29.7493118,9.63489486 29.9,9.7 C29.9,9.7 29.52,9.7 29.42,9.75 C29.5556374,9.72627927 29.6943626,9.72627927 29.83,9.75 C29.83,9.75 29.62,9.86 29.58,9.93 C29.5160268,9.96165512 29.4384816,9.94011478 29.4,9.88 C29.4,9.88 29.4,10.03 29.59,10 C29.6584925,9.90404801 29.7570208,9.83367059 29.87,9.8 C29.87,9.8 29.62,10.31 29.29,9.96 C29.3442429,10.0834116 29.478725,10.1506526 29.61,10.12 C29.4481483,10.2223773 29.3141619,10.3632348 29.22,10.53 L29.4,10.35 C29.4,10.35 29.57,10.18 29.68,10.29 C29.5370016,10.4653885 29.3556884,10.6056497 29.15,10.7 C29.3489494,10.688668 29.5417078,10.62671 29.71,10.52 C29.5900098,10.6382188 29.4421012,10.7242121 29.28,10.77 C29.510862,10.754914 29.7280521,10.6552202 29.89,10.49 C29.89,10.49 30.03,10.65 29.77,10.82 C29.6685331,10.8671017 29.5514669,10.8671017 29.45,10.82 C29.45,10.82 29.52,10.92 29.76,10.92 C29.76,10.92 29.68,11.13 29.55,11.17 C29.5988158,11.2121846 29.6711842,11.2121846 29.72,11.17 C29.6790149,11.2736907 29.7116488,11.3919883 29.8,11.46 C29.8,11.46 29.88,11.57 29.73,11.63 C29.7948006,11.6800292 29.8851994,11.6800292 29.95,11.63 L29.95,11.75 C29.5693708,12.0567324 29.2117453,12.3909618 28.88,12.75 C28.7421679,12.9451494 28.7085528,13.1953951 28.79,13.42 C28.786745,13.8965942 28.850708,14.3712667 28.98,14.83 C29.0591187,15.0698587 29.1094713,15.3182649 29.13,15.57 C29.1020613,15.7489159 29.1020613,15.9310841 29.13,16.11 C29.1165385,16.1860758 29.1165385,16.2639242 29.13,16.34 L29.13,16.45 C29.1091561,16.4839834 29.1037888,16.5252414 29.1152444,16.5634267 C29.1267,16.6016119 29.1538917,16.6331022 29.19,16.65 C29.19,16.65 29.32,16.7 29.37,16.65 L29.37,16.65 L29.37,16.65 C29.335501,16.6667086 29.313589,16.7016677 29.313589,16.74 C29.313589,16.7783323 29.335501,16.8132914 29.37,16.83 C29.37,16.83 29.48,16.92 29.56,16.83 C29.5660151,16.8898492 29.5660151,16.9501508 29.56,17.01 C29.56,17.01 29.47,17.31 29.64,17.36 C29.6729463,17.9102531 29.7397394,18.4579559 29.84,19 C29.7265988,19.2376371 29.6652314,19.4967438 29.66,19.76 C29.66,19.76 29.6,21.48 29.66,21.92 C29.66,21.92 29.19,22.04 29.32,22.24 C29.32,22.24 29.44,22.53 29.53,22.56 C29.62,22.59 29.48,22.77 29.53,22.82 C29.58,22.87 29.13,22.98 29.46,23.56 C29.5895077,23.7564256 29.7367938,23.9405332 29.9,24.11 C29.7201152,24.7507146 29.4141364,25.3490732 29,25.87 C29,25.87 28.78,25.98 28.77,26.02 C28.6222729,26.1615564 28.5360804,26.3554895 28.53,26.56 L28.56,26.59 Z" id="Shape" fill="#DFB43A"></path>
            <path d="M35.26,15.56 L35.26,15.56 L35.26,15.56 C35.26,15.56 35.31,15.62 35.31,15.56 C35.312149,15.5400577 35.312149,15.5199423 35.31,15.5 M31.75,15 L31.75,14.89 L32,15 L32.9,15.21 C33.1919225,15.2466194 33.4798212,15.3102249 33.76,15.4 C33.8935628,15.5008669 34.046901,15.5724248 34.21,15.61 C34.3714258,15.6472639 34.5351047,15.673987 34.7,15.69 C34.7550658,15.670951 34.8149342,15.670951 34.87,15.69 C34.9064825,15.6951969 34.9435175,15.6951969 34.98,15.69 L35.06,15.69 C35.14,15.69 35.19,15.81 35.27,15.83 C35.35,15.85 35.36,15.83 35.36,15.83 L35.36,15.83 L35.44,15.83 C35.4461554,15.8139017 35.4461554,15.7960983 35.44,15.78 C35.4414911,15.7633667 35.4414911,15.7466333 35.44,15.73 C35.4462746,15.6801969 35.4462746,15.6298031 35.44,15.58 C35.4277608,15.5350911 35.4110088,15.4915359 35.39,15.45 L35.39,15.45 C35.39,15.45 35.44,15.53 35.46,15.54 C35.48,15.55 35.46,15.54 35.46,15.6 C35.4745096,15.6549794 35.5060065,15.7039745 35.55,15.74 C35.5817455,15.7545505 35.6182545,15.7545505 35.65,15.74 C35.65,15.74 35.65,15.74 35.65,15.68 C35.6428853,15.6403164 35.6428853,15.5996836 35.65,15.56 C35.6593146,15.5239249 35.6593146,15.4860751 35.65,15.45 L35.65,15.45 C35.6817455,15.4645505 35.7182545,15.4645505 35.75,15.45 C35.8,15.45 35.83,15.45 35.81,15.39 C35.79,15.33 35.73,15.27 35.7,15.22 C35.6639155,15.1373725 35.616822,15.0600047 35.56,14.99 C35.5102708,14.9164173 35.4357337,14.8631764 35.35,14.84 C35.2221265,14.8285816 35.0951707,14.808536 34.97,14.78 C34.8675197,14.7612222 34.7624803,14.7612222 34.66,14.78 C34.53,14.78 34.3,14.83 34.16,14.78 C34.02,14.73 33.85,14.6 33.76,14.57 L33.08,14.3 C32.83,14.2 32.24,13.91 32.03,13.78" id="Shape" fill="#DFB43A"></path>
            <path d="M34.8,26.11 L34.73,26.11 L34.73,26.03 L34.81,26.03 L34.8,26.11 Z M34.63,26 L34.63,26 L34.63,25.93 L34.63,25.93 L34.63,26 Z M38.37,6.78 C38.4055322,6.67330872 38.4759925,6.58171028 38.57,6.52 C38.6933248,6.3899732 38.7645115,6.21912524 38.77,6.04 C38.8013265,6.16472979 38.8013265,6.29527021 38.77,6.42 C38.687262,6.53091397 38.6261939,6.65644294 38.59,6.79 L38.23,6.85 L38.5,6.4 C38.5086198,6.44290468 38.5086198,6.48709532 38.5,6.53 C38.5,6.6 38.4,6.69 38.41,6.77 L38.37,6.78 Z M38.63,6.77 C38.6561328,6.67448998 38.7080243,6.58800429 38.78,6.52 C38.86,6.4 38.91,6.33 38.88,6.01 C38.9147692,6.14106665 38.9147692,6.27893335 38.88,6.41 C38.88,6.5 38.71,6.68 38.69,6.75 L38.6,6.75 L38.63,6.77 Z M38.23,5.13 C38.2691607,5.0169983 38.33829,4.91676082 38.43,4.84 C38.5237758,4.77669659 38.6291212,4.73251948 38.74,4.71 C38.6984821,4.80508171 38.6330183,4.88777277 38.55,4.95 L38.31,5.08 L38.22,5.08 L38.23,5.13 Z M38.56,4.3 C38.56,4.3 38.76,4.01 38.87,3.99 C38.81,4.09 38.73,4.27 38.56,4.3 L38.56,4.3 Z M39,3.73 L39,3.73 C38.9886676,3.62299668 39.009561,3.51504757 39.06,3.42 C39.1202411,3.31972411 39.2022654,3.23428214 39.3,3.17 C39.24,3.46 39.07,3.47 39,3.76 L39,3.73 Z M39.32,3 C39.2694417,2.81336335 39.2694417,2.61663665 39.32,2.43 C39.3450208,2.30424594 39.4078168,2.18912005 39.5,2.1 C39.4478067,2.20932481 39.4204852,2.32885619 39.42,2.45 C39.4254465,2.62272338 39.4017826,2.79513159 39.35,2.96 L39.35,2.96 L39.32,3 Z M43.06,0.54 C42.98,0.36 42.79,0.33 42.74,0.24 C42.9055348,0.248625885 43.0407235,0.375365251 43.06,0.54 L43.06,0.54 Z M41.92,0 C41.7417565,0.00198730917 41.5641768,0.0220906691 41.39,0.06 C41.294101,0.0772292491 41.195899,0.0772292491 41.1,0.06 C40.9590899,0.0674421127 40.8234727,0.116125232 40.71,0.2 C40.6336905,0.264769124 40.553545,0.324878191 40.47,0.38 C40.3215698,0.482083379 40.1871004,0.603105828 40.07,0.74 C39.9574779,0.870113508 39.884601,1.02974858 39.86,1.2 C39.8699228,1.32490432 39.8344122,1.44919142 39.76,1.55 C39.5950104,1.7358952 39.4477066,1.93676397 39.32,2.15 C39.221858,2.4007386 39.221858,2.6792614 39.32,2.93 C39.1922489,3.04636371 39.0871445,3.18537278 39.01,3.34 C38.9648859,3.47978342 38.9648859,3.63021658 39.01,3.77 C39.01,3.86 38.8,3.88 38.66,4.08 C38.52,4.28 38.56,4.3 38.5,4.36 L38.28,4.36 C38.3464288,4.36796483 38.4135712,4.36796483 38.48,4.36 C38.4080038,4.43530131 38.3130289,4.48454752 38.21,4.5 C38.291939,4.50017384 38.3720506,4.47579206 38.44,4.43 L38.51,4.37 L38.51,4.37 C38.5880831,4.34829819 38.662307,4.31456003 38.73,4.27 C38.6970431,4.34801658 38.64127,4.41424707 38.57,4.46 L38.26,4.63 C38.1601574,4.69386023 38.0969496,4.80168524 38.09,4.92 C38.09,5.04 38.09,5.16 37.93,5.2 C38.03,5.2 38.07,5.2 38.09,5.09 C38.120697,4.96045075 38.1824764,4.84032417 38.27,4.74 C38.3479506,4.67229787 38.4468113,4.63345975 38.55,4.63 C38.4444817,4.66776624 38.3511733,4.73342769 38.28,4.82 C38.2143688,4.90504142 38.1698189,5.00442201 38.15,5.11 C38.0944123,5.13823445 38.0464039,5.1793845 38.01,5.23 C37.9698638,5.31473608 37.9118707,5.38978602 37.84,5.45 C37.96,5.39 37.98,5.29 38.05,5.23 C38.1705062,5.15783359 38.3097103,5.12303256 38.45,5.13 C38.6081508,5.13327926 38.7660787,5.11647843 38.92,5.08 C38.8405557,5.1297136 38.7522822,5.16366497 38.66,5.18 C38.5625051,5.20669579 38.4775316,5.2668854 38.42,5.35 C38.5318112,5.2352271 38.6910615,5.17967464 38.85,5.2 C38.7009591,5.30110992 38.580431,5.43885637 38.5,5.6 C38.45,5.74 38.42,6.02 38.16,6.16 C38.2756199,6.14334796 38.3817602,6.08673977 38.46,6 C38.4926327,5.92192111 38.5441814,5.8531895 38.61,5.8 C38.5837484,5.86504193 38.5536966,5.92848466 38.52,5.99 L37.84,6.93 L37.52,7 C37.43,7 37.44,7.07 37.42,7.16 C37.4,7.25 37.32,7.61 37.29,7.78 C37.261207,7.91621344 37.1993961,8.04326915 37.11,8.15 C37.02,8.27 36.89,8.51 36.72,8.75 C36.55,8.99 36.33,9.32 36.17,9.58 C36.0147513,9.83009769 35.8841391,10.094671 35.78,10.37 C35.73,10.53 35.64,10.78 35.58,10.9 C35.52,11.02 35.58,11.08 35.65,11.16 C35.7733578,11.2745142 35.9036007,11.3813802 36.04,11.48 C36.1889547,11.5620429 36.3516105,11.6162615 36.52,11.64 C36.5976872,11.6526883 36.6723085,11.6798233 36.74,11.72 L36.85,11.72 C36.77,11.9 36.28,13.15 36.25,13.21 C36.2156613,13.3040772 36.1480768,13.3823329 36.06,13.43 C35.8861517,13.5273742 35.7220641,13.641231 35.57,13.77 C35.4737311,13.870869 35.3701136,13.964459 35.26,14.05 C35.1965797,14.0878013 35.1392609,14.135005 35.09,14.19 L34.87,14.42 C34.8265382,14.4620559 34.8013899,14.5195377 34.8,14.58 C34.7913293,14.6262639 34.7913293,14.6737361 34.8,14.72 C34.7586802,14.7585837 34.7366882,14.8135636 34.74,14.87 L34.74,15.11 C34.74,15.15 34.74,15.22 34.81,15.22 C34.7905399,15.2681065 34.7905399,15.3218935 34.81,15.37 C34.8302799,15.4424315 34.8642228,15.5103171 34.91,15.57 C34.9206261,15.5965848 34.9463702,15.6140192 34.975,15.6140192 C35.0036298,15.6140192 35.0293739,15.5965848 35.04,15.57 C35.04,15.64 35.04,15.73 35.13,15.73 C35.22,15.73 35.23,15.73 35.26,15.66 C35.2814793,15.5941413 35.3154297,15.5330304 35.36,15.48 L35.63,15.27 C35.63,15.36 35.56,15.51 35.63,15.55 C35.6525713,15.5584334 35.6774287,15.5584334 35.7,15.55 C35.7192426,15.557784 35.7407574,15.557784 35.76,15.55 C35.8079031,15.4791648 35.8614078,15.4122839 35.92,15.35 C35.9677963,15.3067692 36.0083154,15.2561202 36.04,15.2 C36.0886662,15.1296461 36.1496461,15.0686662 36.22,15.02 C36.2939862,14.9758395 36.3558395,14.9139862 36.4,14.84 L36.62,14.51 C36.6644475,14.4325981 36.694913,14.3479717 36.71,14.26 C36.717362,14.187145 36.7450862,14.1178343 36.79,14.06 C36.8423527,14.0193463 36.8807892,13.9634387 36.9,13.9 C37.0301316,13.7061319 37.1703234,13.5192094 37.32,13.34 C37.5,13.19 37.63,12.21 37.71,12.07 C37.6043575,12.3140891 37.5141793,12.5645841 37.44,12.82 C37.38,13.08 37.29,13.47 37.22,13.69 C37.1742976,13.8206823 37.1375459,13.9543247 37.11,14.09 C37.0742181,14.2366515 37.0274185,14.3803931 36.97,14.52 C36.8679065,14.7770248 36.7843592,15.041034 36.72,15.31 L36.72,15.56 L37.3,15.72 C37.3,15.72 37.38,15.72 37.37,15.8 C37.36,15.88 37.37,15.95 37.37,15.97 C37.37,15.99 37.37,15.97 37.37,16.02 C37.5415497,16.0517552 37.7155425,16.0684853 37.89,16.07 L37.89,16.07 L37.89,17.28 C37.8820829,17.5987877 37.8177557,17.9136524 37.7,18.21 C37.58,18.47 37.55,18.57 37.5,18.69 C37.4141046,18.8713809 37.303006,19.0397121 37.17,19.19 C36.8143283,19.5941177 36.5210858,20.0491492 36.3,20.54 C36.16,20.91 35.91,21.54 35.71,22.17 C35.6,22.47 35.15,23.75 35.03,24 C34.9188559,24.2407001 34.76272,24.4579326 34.57,24.64 L34.57,24.64 C34.5447989,24.6274968 34.5152011,24.6274968 34.49,24.64 C34.49,24.69 34.43,24.71 34.49,24.75 C34.37,24.9 34.2,25.12 34.22,25.27 C34.2276088,25.4864921 34.3662019,25.6765626 34.57,25.75 L34.57,25.75 L34.57,25.82 L34.29,25.66 C34.2472668,25.6498012 34.2027332,25.6498012 34.16,25.66 C34.1376226,25.6505542 34.1123774,25.6505542 34.09,25.66 C34.0542734,25.7218802 34.0542734,25.7981198 34.09,25.86 C34.1688047,26.0949036 34.2289907,26.3356476 34.27,26.58 L34.27,27.09 C34.27,27.18 34.27,27.29 34.42,27.29 C34.57,27.29 35.42,27.29 35.71,27.36 C36,27.43 36.49,27.43 36.88,27.43 L36.98,27.43 C37.35,27.43 37.62,27.43 37.66,27.35 L37.8,27.11 C37.8188917,27.0652453 37.8188917,27.0147547 37.8,26.97 C37.8670056,26.909234 37.900528,26.8198411 37.89,26.73 C37.89,26.67 37.89,26.65 37.83,26.65 L37.83,26.65 L37.66,26.65 L37.59,26.65 L37.39,26.58 C37.3781914,26.5291152 37.3501036,26.4834724 37.31,26.45 L37.11,26.31 C37.0772044,26.3015322 37.0427956,26.3015322 37.01,26.31 L37.01,26.31 C37.0267625,26.2614049 37.0267625,26.2085951 37.01,26.16 L36.81,25.89 C36.7787102,25.8347443 36.7230398,25.7976307 36.66,25.79 C36.6557498,25.7133989 36.6277933,25.6400132 36.58,25.58 L36.41,25.32 C36.41,25.32 36.36,25.24 36.29,25.23 C36.282745,25.0489923 36.3134003,24.8684663 36.38,24.7 C36.5496094,24.1631177 36.7636841,23.6413104 37.02,23.14 C37.31,22.62 37.53,22.14 37.75,21.82 C37.97,21.5 38.19,21.08 38.3,20.89 L38.67,20.22 C38.7781368,20.0316642 38.9128552,19.8598982 39.07,19.71 C39.3204287,19.5292821 39.5370713,19.3058695 39.71,19.05 C39.8482792,18.8531397 39.9499069,18.6329462 40.01,18.4 C40.01,18.23 40.09,18.1 40.17,17.88 C40.25,17.66 40.46,17.07 40.6,16.64 L40.72,16.64 C40.8592336,16.633846 40.9983684,16.6542072 41.13,16.7 C41.2591089,16.7419359 41.3942693,16.76221 41.53,16.76 L41.61,16.76 C42.00875,17.1605329 42.3671416,17.5993114 42.68,18.07 C42.8266112,18.2922055 42.9473923,18.5304125 43.04,18.78 C43.1021967,18.946935 43.1392674,19.1221784 43.15,19.3 C43.1836916,19.737768 43.2505502,20.1723487 43.35,20.6 C43.4761326,21.1642138 43.6604523,21.7138217 43.9,22.24 C44.23,23.01 44.6,24.05 44.69,24.34 C44.7451487,24.4992468 44.7853227,24.6632908 44.81,24.83 C44.814879,24.9232696 44.814879,25.0167304 44.81,25.11 C44.81,25.11 44.74,25.11 44.74,25.2 L44.74,25.32 C44.6865625,25.4686775 44.6865625,25.6313225 44.74,25.78 C44.68,25.78 44.6,25.78 44.58,25.86 C44.5514743,25.9166095 44.5514743,25.9833905 44.58,26.04 C44.6702001,26.1877919 44.7503802,26.3414705 44.82,26.5 C44.9044613,26.7073598 44.9713629,26.9214451 45.02,27.14 C45.02,27.28 45.02,27.34 45.14,27.34 L45,27.34 L45.69,27.27 C45.93,27.27 46.39,27.18 46.61,27.17 C46.8953065,27.1563816 47.1793229,27.1229679 47.46,27.07 C47.6417048,27.062551 47.8224017,27.0391274 48,27 C48.1,27 48.14,26.95 48.2,26.82 C48.2471132,26.7259532 48.2775641,26.62445 48.29,26.52 L48.29,26.44 C48.29,26.43 48.29,26.44 48.29,26.44 C48.29,26.44 48.29,26.36 48.17,26.36 L48.17,26.36 C48.2074555,26.31495 48.228598,26.2585701 48.23,26.2 C48.247223,26.158378 48.247223,26.111622 48.23,26.07 C48.2107574,26.062216 48.1892426,26.062216 48.17,26.07 L48,26.07 C47.9198167,26.1033939 47.8358656,26.1269003 47.75,26.14 L47.7,26.14 L47.64,26.14 L47.48,26.04 C47.4505448,26.0319146 47.4194552,26.0319146 47.39,26.04 L47.32,26.04 C47.32,26.04 47.32,25.97 47.24,25.94 L47,25.59 C46.9676479,25.5785618 46.9323521,25.5785618 46.9,25.59 L46.9,25.59 C46.9183974,25.5486194 46.9183974,25.5013806 46.9,25.46 C46.9,25.41 46.74,25.28 46.68,25.24 L46.38,25 C46.3505448,24.9919146 46.3194552,24.9919146 46.29,25 L46.29,25 C46.1478962,24.821377 46.0332961,24.6225122 45.95,24.41 C45.7462403,23.888974 45.5791661,23.3543365 45.45,22.81 C45.28,22.12 45.1,21.08 45.04,20.68 C44.9614061,20.2730366 44.8544792,19.8720606 44.72,19.48 C44.6667757,19.2869344 44.6667757,19.0830656 44.72,18.89 C44.7505225,18.6041458 44.7505225,18.3158542 44.72,18.03 C44.6769576,17.7733578 44.5816546,17.528293 44.44,17.31 C44.3519719,17.1848283 44.2844583,17.0464253 44.24,16.9 C44.2009276,16.7439301 44.1438795,16.5929205 44.07,16.45 C44.14,16.45 44.14,16.45 44.07,16.34 C44.0154986,16.1968668 43.9720382,16.0497701 43.94,15.9 C43.9098857,15.7453428 43.8629397,15.5944449 43.8,15.45 C43.7568247,15.3692997 43.7296595,15.2810129 43.72,15.19 C43.7038177,15.0991506 43.6734466,15.0114118 43.63,14.93 C43.5831605,14.8305633 43.546313,14.7267203 43.52,14.62 C43.5020079,14.5405859 43.4751739,14.4634379 43.44,14.39 C43.44,14.28 43.21,13.91 42.93,13.39 C42.7372884,13.0137485 42.5060498,12.6585124 42.24,12.33 C42.267274,12.2873184 42.267274,12.2326816 42.24,12.19 C42.24,12.13 42.24,12.02 42.18,12.01 C42.12,12 42.18,12.01 42.18,11.92 C42.2173465,11.8514215 42.2173465,11.7685785 42.18,11.7 C42.1466154,11.6165483 42.1466154,11.5234517 42.18,11.44 C42.2040924,11.2775551 42.2040924,11.1124449 42.18,10.95 C42.1843222,10.6882524 42.2281497,10.4286585 42.31,10.18 C42.37,9.98 42.44,9.71 42.48,9.54 C42.4951467,9.42602566 42.5721304,9.32979602 42.68,9.29 C42.9884921,9.1529774 43.2195736,8.88521633 43.31,8.56 C43.3373841,8.32000277 43.2957562,8.07717319 43.19,7.86 C43.09,7.61 42.93,7.31 42.79,6.98 C42.6856279,6.74563774 42.5954647,6.50520251 42.52,6.26 L42.34,5.62 C42.2773571,5.38556055 42.2005493,5.15513731 42.11,4.93 C42.0667073,4.83818055 42.0667073,4.73181945 42.11,4.64 C42.11,4.56 42.17,4.44 42.22,4.3 C42.2785302,4.16095276 42.3487835,4.02713693 42.43,3.9 C42.4580667,3.8411846 42.5034219,3.79234052 42.56,3.76 L43.17,3.76 C43.2457006,3.75216963 43.3069737,3.69498137 43.32,3.62 C43.3343952,3.56424755 43.3343952,3.50575245 43.32,3.45 C43.3177084,3.40669696 43.3177084,3.36330304 43.32,3.32 C43.3106854,3.28392489 43.3106854,3.24607511 43.32,3.21 C43.3306842,3.17752281 43.3306842,3.14247719 43.32,3.11 C43.32,3.11 43.32,3.04 43.24,3.01 C43.27607,2.99106451 43.3069662,2.96360123 43.33,2.93 C43.3566667,2.89444444 43.3566667,2.84555556 43.33,2.81 C43.3041498,2.77447656 43.2870216,2.7333687 43.28,2.69 L43.45,2.62 C43.4881143,2.58111565 43.4881143,2.51888435 43.45,2.48 C43.4023126,2.40900623 43.3487943,2.34210826 43.29,2.28 C43.226585,2.20500043 43.1697104,2.12470697 43.12,2.04 C43.1022049,2.00549243 43.1022049,1.96450757 43.12,1.93 C43.12,1.93 43.12,1.87 43.17,1.82 C43.1872226,1.76123591 43.1872226,1.69876409 43.17,1.64 L43.12,1.46 C43.12,1.41 43.01,1.18 43,1.15 C42.99,1.12 43,1.15 43,1.03 C43.0207697,0.951348066 43.0207697,0.868651934 43,0.79 C42.988367,0.684029361 42.9542759,0.58175634 42.9,0.49 C42.8325437,0.412334538 42.741001,0.359521432 42.64,0.34 C42.5480253,0.312680162 42.4604611,0.272265905 42.38,0.22 C42.264893,0.128302882 42.1368362,0.0541647276 42,4.96269692e-16 L41.93,4.96269692e-16 L41.92,0 Z" id="Shape" fill="#D7742D"></path>
            <path d="M15.28,3 L15.19,3.22 C15.19,3.22 14.89,4.03 14.78,4.5 C14.8574439,3.97455485 15.026688,3.46682246 15.28,3 L15.28,3 Z M14.49,7.8 C14.2154281,7.73255778 13.950128,7.63181091 13.7,7.5 C13.9764711,6.80638637 14.3109918,6.13734509 14.7,5.5 C14.5688115,6.24596459 14.5085425,7.00267423 14.52,7.76 L14.49,7.8 Z M10.39,21.49 L10.39,21.31 L10.48,21.2 C10.5206571,21.2923917 10.5206571,21.3976083 10.48,21.49 L10.39,21.49 Z M10.48,22.19 L10.27,22.19 L10.27,22.09 L10.34,22.09 L10.48,22.19 Z M8.78,18.4 L8.78,18.4 C8.84153643,18.3786642 8.90846357,18.3786642 8.97,18.4 L9.22,18.4 L9.22,18.51 C9.07778281,18.4281848 8.90988643,18.4031789 8.75,18.44 L8.78,18.4 Z M9.64,18.66 L9.64,18.66 L9.73,18.66 C9.75,18.66 9.73,18.72 9.73,18.79 L9.44,18.58 L9.44,18.58 C9.50701665,18.6174308 9.58338819,18.6347879 9.66,18.63 L9.64,18.66 Z M5.3,18.55 C5.2932653,18.5170068 5.2932653,18.4829932 5.3,18.45 C5.4000882,18.3844154 5.50747939,18.3307198 5.62,18.29 L5.62,18.35 L5.31,18.57 L5.31,18.57 L5.3,18.55 Z M5.74,18.22 L5.74,18.22 C5.63830827,18.251118 5.54089093,18.2947879 5.45,18.35 C5.54704676,18.273289 5.6596678,18.2186848 5.78,18.19 L5.74,18.22 Z M3.95,26.94 C3.97665701,27.0707763 3.91061521,27.2028598 3.79,27.26 L3.79,27.16 C3.86096861,27.1199343 3.90052864,27.0408143 3.89,26.96 L3.89,26.96 L3.95,26.94 Z M3.35,27.1 L3.45,27.1 C3.49425659,27.1726963 3.57503952,27.2150111 3.66,27.21 L3.66,27.31 C3.52035454,27.326051 3.38522875,27.2545139 3.32,27.13 L3.35,27.1 Z M3.32,26.89 L3.41,26.94 C3.40511077,26.9664426 3.40511077,26.9935574 3.41,27.02 L3.31,27.02 C3.29599944,26.9675855 3.29599944,26.9124145 3.31,26.86 L3.32,26.89 Z M13.41,17.5 L10.74,19.95 C10.6334651,19.6792797 10.4533498,19.4437443 10.22,19.27 C10.0769272,19.1098583 9.92324714,18.9595191 9.76,18.82 C9.76,18.75 9.82,18.69 9.76,18.65 C9.7,18.61 9.64,18.59 9.63,18.59 L9.63,18.59 C9.54909061,18.5931501 9.46906002,18.5722725 9.4,18.53 L9.4,18.41 L9.5,18.41 C9.5,18.41 9.5,18.33 9.36,18.41 L9.36,18.29 C9.36,18.29 9.36,18.29 9.3,18.29 C9.24,18.29 9.3,18.29 9.22,18.29 C9.04715504,18.2820667 8.87431547,18.3057898 8.71,18.36 C8.58927951,18.0433895 8.34704181,17.7881493 8.03716987,17.6510544 C7.72729793,17.5139595 7.3754894,17.5063794 7.06,17.63 L7.06,17.52 C6.79386957,17.6186196 6.53632934,17.7390281 6.29,17.88 C6.16,17.75 6.04,17.7 6.08,18.01 C5.98482434,18.0730789 5.8945659,18.1432799 5.81,18.22 C5.62279349,18.2495113 5.45243442,18.3453383 5.33,18.49 C5.242988,18.5447182 5.159491,18.604836 5.08,18.67 L5.08,18.67 L5.27,18.52 C5.26768458,18.539933 5.26768458,18.560067 5.27,18.58 L5.27,18.58 C4.73796185,18.9648204 4.23031941,19.3822896 3.75,19.83 C3.75,19.83 1.17,22.83 0.97,23.83 C1.13536085,24.2572059 1.44728534,24.6116655 1.85,24.83 C1.85,24.83 1.25,25.56 3.14,26.83 C3.10011363,26.9363843 3.10011363,27.0536157 3.14,27.16 C3.22616179,27.4234635 3.50078517,27.576032 3.77,27.51 C3.89065129,27.4775425 3.99290965,27.3974041 4.05326576,27.2880087 C4.11362186,27.1786133 4.12688285,27.0493728 4.09,26.93 L4.25,26.86 C4.25,26.86 8.9,22.3 10.12,21.53 C10.1798596,21.4801643 10.2366312,21.4267322 10.29,21.37 L10.29,21.55 L10.29,21.86 C10.2506454,21.8914679 10.2284138,21.9396363 10.23,21.99 L10.23,22.18 C10.23,22.18 10.23,22.26 10.33,22.25 L10.44,22.25 C10.44,22.25 10.54,22.25 10.44,22.08 L10.44,21.9 L10.44,21.9 L10.44,21.61 C10.5171203,21.4879825 10.5389227,21.3389994 10.5,21.2 C10.731647,20.9208522 10.8431303,20.5612287 10.81,20.2 L13.38,17.83 L13.41,17.5 Z" id="Shape" fill="#CC2B44"></path>
            <path d="M13,19.23 C12.95415,19.474813 12.9207736,19.7217983 12.9,19.97 C12.9,19.97 12.67,20.27 12.85,20.39 C12.85,20.39 11.35,22.05 10.97,26.39 L11.06,26.48 C11.004727,26.6557568 11.004727,26.8442432 11.06,27.02 C11.11,27.26 11.97,27.25 11.97,27.25 C12.37,27.25 13.43,27.42 13.43,27.42 C15.29,27.61 15.14,27.05 15.14,27.05 C15.14,26.6 14.43,26.68 14.43,26.68 C14.0620201,26.5083085 13.7047075,26.314625 13.36,26.1 L13.13,25.7 C13.1487603,25.4858755 13.1179648,25.2703066 13.04,25.07 C13.32,25.02 13.27,24.23 13.27,24.23 C13.51,23.78 14.33,21.44 14.33,21.44 C14.7595958,20.9922783 15.0661773,20.4411205 15.22,19.84 C15.41,19.4 15.68,18.62 15.92,17.84 C16.4237045,18.4709859 16.8783662,19.139606 17.28,19.84 C17.3032917,19.9533354 17.3588563,20.057519 17.44,20.14 C17.44,20.14 17.44,20.56 17.6,20.59 C17.6,20.59 17.2,22.02 19.08,25.49 C19.2913375,25.7449237 19.4387576,26.0466207 19.51,26.37 C19.5128506,26.6385611 19.6042425,26.8986764 19.77,27.11 C20.2271664,27.0984799 20.664459,26.9207186 21,26.61 C21.3071697,26.4289144 21.6469476,26.3099921 22,26.26 C22,26.26 22.75,26.26 23.22,25.2 C23.22,25.2 23.22,24.59 22.42,25.15 C22.42,25.15 22.19,25.44 21.42,25.22 C21.4224087,25.2000725 21.4224087,25.1799275 21.42,25.16 L20.77,25 C20.94,24.49 20.32,24.25 20.32,24.25 C20.41,23.85 19.99,23.34 19.99,23.34 C19.83,22.92 19.19,20.34 19.19,20.34 C19.2395196,20.1634058 19.2395196,19.9765942 19.19,19.8 C19.38,19.45 18.98,18.8 18.98,18.8 C18.5499423,17.179335 17.9006117,15.624979 17.05,14.18 L17.05,14.18 C17.78,13.55 17.36,13.03 17.36,13.03 C17.3752621,12.8859692 17.3320247,12.7418448 17.24,12.63 C17.4250686,12.3769445 17.4558164,12.0425621 17.32,11.76 C17.4449548,11.3159108 17.5451095,10.8652146 17.62,10.41 C17.98,10.19 18.62,9.76 18.78,9.64 C18.94,9.52 19.19,9.51 19.19,9.33 C19.19,9.33 19.37,9.25 19.45,9.33 C19.4841641,9.36055728 19.5358359,9.36055728 19.57,9.33 L19.81,9.33 L19.81,9.26 C19.96,9.26 20.49,9.26 20.68,9.02 L20.89,9.02 C21.0622919,8.95201481 21.2043045,8.82420341 21.29,8.66 L21.59,8.56 C21.59,8.56 21.72,8.51 21.65,8.31 L21.86,8 C21.86,8 21.98,7.92 21.86,7.81 L21.62,7.81 C21.62,7.81 21.57,7.81 21.39,7.89 L20.94,8.09 L20,8.09 C20.0289284,8.05162217 20.0666537,8.02075603 20.11,8 C20.1574971,8.0555416 20.226919,8.08751923 20.3,8.08751923 C20.373081,8.08751923 20.4425029,8.0555416 20.49,8 L20.4,7.93 C20.3713397,7.87412944 20.3258706,7.82866035 20.27,7.8 C20.145134,7.74833112 20.004866,7.74833112 19.88,7.8 C19.6728687,7.76559403 19.4721524,7.88944026 19.41,8.09 L19.41,8.14 C19.2646644,8.21380211 19.1381111,8.3198332 19.04,8.45 C19.04,8.45 18.95,8.45 18.8,8.71 C18.8,8.71 18.63,8.63 18.49,8.93 C18.4049503,9.01041307 18.3110105,9.08086798 18.21,9.14 C18.3674182,8.97903777 18.4214771,8.74349558 18.35,8.53 C18.2507699,8.40919083 18.1698998,8.27440731 18.11,8.13 C18.0310032,7.85498642 17.9741548,7.57408874 17.94,7.29 C18.0502067,7.46344327 18.1091392,7.6645071 18.11,7.87 C18.1305391,7.63770955 18.0927279,7.40396785 18,7.19 C18.1599816,7.58013428 18.2643356,7.99081789 18.31,8.41 C18.3001314,7.85318042 18.1633252,7.30595542 17.91,6.81 C18.0777044,7.07090127 18.2089214,7.35352248 18.3,7.65 C18.243944,7.24138369 18.0741525,6.85675392 17.81,6.54 C17.6151529,6.07558259 17.5663211,5.56284846 17.67,5.07 L17.79,5.07 C17.79,5.07 18.49,5.24 18.45,4.73 C18.459777,4.67821168 18.4930208,4.63388666 18.54,4.61 C18.54,4.61 18.71,4.48 18.54,4.44 C18.54,4.44 18.72,4.36 18.64,4.22 C18.609776,4.16380621 18.609776,4.09619379 18.64,4.04 C18.64,4.04 18.92,4.04 18.9,3.87 C18.8072193,3.67963662 18.756083,3.47168249 18.75,3.26 C18.9888582,3.0711048 19.1405018,2.79309157 19.17,2.49 C19.2395434,2.23095589 19.1346297,1.95656619 18.91,1.81 C19.0323277,1.93590443 19.1126731,2.09659521 19.14,2.27 C19.085615,2.16609141 19.0107824,2.07425145 18.92,2 C18.9020073,1.94621219 18.8620232,1.90259322 18.81,1.88 C18.7172322,1.78564319 18.6090041,1.70785423 18.49,1.65 C18.330801,1.45908533 18.1062025,1.33430837 17.86,1.3 C17.5744823,1.08481636 17.2094653,1.00451263 16.86,1.08 C17.2064576,1.06886158 17.5502058,1.14448618 17.86,1.3 L17.71,1.3 C17.71,1.3 16.45,0.64 15.78,1.7 C15.4318424,2.03609973 15.2743,2.52373088 15.36,3 C15.26,3.41 15.13,3.9 14.99,4.3 C14.6815424,4.71839011 14.5072054,5.22048068 14.49,5.74 L14.49,5.74 C14.4668467,5.95604812 14.4668467,6.17395188 14.49,6.39 C13.8836914,7.03984507 13.3412005,7.74642263 12.87,8.5 C12.52,8.38 12.22,8.82 12.22,8.82 C11.6254657,8.92101074 11.0980317,9.26059153 10.76,9.76 C10.4538126,10.5167161 9.93225668,11.1669224 9.26,11.63 L9.87,12.15 C10.7083656,13.0663834 11.7306237,13.7955942 12.87,14.29 C12.8199928,14.9915191 12.9913767,15.6910454 13.36,16.29 C13.4807975,16.8614747 13.4321407,17.4557834 13.22,18 C13.22,18 13.13,18.48 13.04,19" id="Shape" fill="#CC2B44"></path>
        </g>
    </g>
</svg>