<svg id="Capa_1" data-name="Capa 1" xmlns="http://www.w3.org/2000/svg" viewBox="0 0 1310.27 319.47"><defs><style>.cls-1{fill:#9696a1;}</style></defs><title>Footer_QroTravelSVG</title><path class="cls-1" d="M975.66,134.71l-9.12-1.5a1,1,0,0,0-.33,2l9.12,1.5h.16a1,1,0,0,0,.16-2Z" transform="translate(0 0)"/><path class="cls-1" d="M957.13,133.21l-9.12,1.5a1,1,0,0,0,.16,2h.16l9.12-1.5a1,1,0,1,0-.33-2Z" transform="translate(0 0)"/><path class="cls-1" d="M961.83,140.14a1,1,0,0,0-1,1v12.57a1,1,0,1,0,2,0V141.14A1,1,0,0,0,961.83,140.14Z" transform="translate(0 0)"/><path class="cls-1" d="M974.82,143.89H968a.37.37,0,0,1-.37-.37v-1a1,1,0,1,0-2,0v1a2.37,2.37,0,0,0,2.37,2.37h6.85a1,1,0,0,0,0-2Z" transform="translate(0 0)"/><path class="cls-1" d="M957.06,141.51a1,1,0,0,0-1,1v1a.37.37,0,0,1-.37.37h-6.85a1,1,0,0,0,0,2h6.85a2.37,2.37,0,0,0,2.37-2.37v-1A1,1,0,0,0,957.06,141.51Z" transform="translate(0 0)"/><path class="cls-1" d="M974.82,151.9H968a.37.37,0,0,1-.37-.37v-1a1,1,0,0,0-2,0v1A2.37,2.37,0,0,0,968,153.9h6.85a1,1,0,0,0,0-2Z" transform="translate(0 0)"/><path class="cls-1" d="M957.06,149.52a1,1,0,0,0-1,1v1a.37.37,0,0,1-.37.37h-6.85a1,1,0,0,0,0,2h6.85a2.37,2.37,0,0,0,2.37-2.37v-1A1,1,0,0,0,957.06,149.52Z" transform="translate(0 0)"/><path class="cls-1" d="M589.67,270.06a14.4,14.4,0,0,0-14.38,14.39v34a1,1,0,0,0,2,0v-5.1H582v5.1a1,1,0,0,0,2,0v-5.1h4.69v5.1a1,1,0,0,0,2,0v-5.1h4.69v5.1a1,1,0,0,0,2,0v-5.1h4.69v5.1a1,1,0,0,0,2,0v-34A14.4,14.4,0,0,0,589.67,270.06Zm-12.38,18H582v8.58h-4.69Zm6.69,0h4.69v8.58H584Zm6.69,0h4.69v8.58h-4.69Zm6.69,0h4.69v8.58h-4.69Zm4.69-2h-4.69v-1.29a21.66,21.66,0,0,0,4.69.67Zm-6.69,0h-4.69v-4.84a14.93,14.93,0,0,0,4.69,2.9Zm-6.69,0H584v-1.94a14.92,14.92,0,0,0,4.69-2.9ZM582,286h-4.69v-.62a21.66,21.66,0,0,0,4.69-.67Zm-4.69,25.35V298.6H582v12.77Zm6.69,0V298.6h4.69v12.77Zm6.69,0V298.6h4.69v12.77Zm6.69,0V298.6h4.69v12.77Zm-6.69-33.2V275.8a1,1,0,0,0-2,0v2.37c-.62.94-3.69,4.89-11.33,5.23a12.37,12.37,0,0,1,24.66,0C594.36,283.06,591.29,279.11,590.67,278.17Z" transform="translate(0 0)"/><path class="cls-1" d="M522.55,180l7,4.13a1,1,0,0,0,1,0l7-4.13a1,1,0,0,0,.49-.86V166.37a1,1,0,0,0-.42-.82l-3.13-2.2a1,1,0,0,0-.8-.14,1,1,0,0,0-.66.49s-.66,1.1-3,1.1-3-1.06-3-1.08a1,1,0,0,0-1.47-.37l-3.13,2.2a1,1,0,0,0-.42.82v12.82A1,1,0,0,0,522.55,180Zm1.51-13.16,2-1.38a6.93,6.93,0,0,0,8.06,0l2,1.38v11.73l-6,3.54-6-3.54Z" transform="translate(0 0)"/><path class="cls-1" d="M550.91,191.77H509.18a1,1,0,0,0-1,1v14.72a1,1,0,0,0,1,1h41.74a1,1,0,0,0,1-1V192.77A1,1,0,0,0,550.91,191.77Zm-1,14.72H510.18V193.77h39.74Z" transform="translate(0 0)"/><path class="cls-1" d="M484.8,287h0v-2.58a14.38,14.38,0,1,0-28.77,0v34a1,1,0,0,0,2,0v-5.1h4.69v5.1a1,1,0,0,0,2,0v-5.1h4.69v5.1a1,1,0,0,0,2,0v-5.1h4.69v5.1a1,1,0,0,0,2,0v-5.1h4.69v5.1a1,1,0,0,0,2,0v-6.1h0V297.61h0V287Zm-22.08-2.29V286H458v-.62A21.66,21.66,0,0,0,462.72,284.73ZM482.8,286h-4.69v-1.29a21.66,21.66,0,0,0,4.69.67Zm-6.69,0h-4.69v-4.84a14.93,14.93,0,0,0,4.69,2.9Zm-6.69,0h-4.69v-1.94a14.92,14.92,0,0,0,4.69-2.9ZM458,288h4.69v8.58H458Zm6.69,0h4.69v8.58h-4.69Zm6.69,0h4.69v8.58h-4.69Zm6.69,0h4.69v8.58h-4.69Zm-7.69-16a12.4,12.4,0,0,1,12.33,11.35c-7.65-.34-10.71-4.3-11.33-5.23V275.8a1,1,0,0,0-2,0v2.37c-.62.94-3.69,4.89-11.33,5.23A12.4,12.4,0,0,1,470.42,272.06ZM458,311.37V298.6h4.69v12.77Zm6.69,0V298.6h4.69v12.77Zm6.69,0V298.6h4.69v12.77Zm6.69,0V298.6h4.69v12.77Z" transform="translate(0 0)"/><path class="cls-1" d="M177.46,146.28h11.86a3.79,3.79,0,0,0,7.32,0h7.57a8.5,8.5,0,0,0,3.56-16.21,11.05,11.05,0,0,0-22.06-.75,5.38,5.38,0,0,0-1.65,0A6.12,6.12,0,0,0,172.41,131a8.49,8.49,0,0,0,5,15.33Zm-3.55-13.93a1,1,0,0,0,.45-.77,4.12,4.12,0,0,1,8.1-.78,1,1,0,0,0,1.32.68,3.36,3.36,0,0,1,2.5.06,1,1,0,0,0,1.39-1c0-.09,0-.18,0-.27a9.05,9.05,0,0,1,18.11,0c0,.14,0,.27,0,.4a1,1,0,0,0,.66,1,6.5,6.5,0,0,1-2.21,12.61h-8.44a1,1,0,0,0-1,1,1.79,1.79,0,0,1-3.59,0,1,1,0,0,0-1-1H177.46a6.49,6.49,0,0,1-3.55-11.93Z" transform="translate(0 0)"/><path class="cls-1" d="M485.68,83.41h37.87a8,8,0,1,0,0-15.92l-.85,0h-.18a4.48,4.48,0,0,0-5.18-3.43,15.43,15.43,0,0,0,.08-1.57,15.59,15.59,0,0,0-31.06-2l-.67,0a11.44,11.44,0,1,0,0,22.88Zm0-20.88a9.49,9.49,0,0,1,1.42.11,1,1,0,0,0,.78-.21,1,1,0,0,0,.37-.72,13.59,13.59,0,1,1,26.83,3.79,1,1,0,0,0,1.58,1,2.45,2.45,0,0,1,1.49-.5,2.48,2.48,0,0,1,2.48,2.48,1,1,0,0,0,.31.73c.36.35.7.33,1.84.29l.78,0a6,6,0,1,1,0,11.92H485.68a9.44,9.44,0,1,1,0-18.88Z" transform="translate(0 0)"/><path class="cls-1" d="M819.22,148.46H834.4a5.54,5.54,0,0,0,5.24,1.59,5.48,5.48,0,0,0,10.23-1.64,16.55,16.55,0,1,0-14-27.19h-.32a4.88,4.88,0,0,0-4.88,4.88v0a8.11,8.11,0,0,0-6.69,4.44,9.47,9.47,0,0,0-4.76-1.27,9.57,9.57,0,0,0,0,19.15Zm0-17.15a7.48,7.48,0,0,1,4.61,1.57,1,1,0,0,0,1.56-.49,6.13,6.13,0,0,1,5.86-4.28l.5,0a1,1,0,0,0,.85-.37,1,1,0,0,0,.19-.91,2.78,2.78,0,0,1-.11-.78,2.88,2.88,0,0,1,2.88-2.88,2.81,2.81,0,0,1,.55.05,1,1,0,0,0,1-.36,14.54,14.54,0,1,1,11.84,23.56,1,1,0,0,0-1,1,3.48,3.48,0,0,1-6.8,1,1,1,0,0,0-1.35-.61,3.53,3.53,0,0,1-4.15-1,1,1,0,0,0-.79-.39H819.22a7.57,7.57,0,0,1,0-15.15Z" transform="translate(0 0)"/><path class="cls-1" d="M405.21,258.05a1,1,0,0,0,0-2H382.56V254.2l19.72-24.29a1,1,0,0,0-.32-1.52L344.2,198.82l3.36-5.57a1,1,0,0,0-1.71-1L343,196.93l-2.85-4.72a1,1,0,0,0-1.71,1l3.34,5.52-57.85,29.61a1,1,0,0,0-.32,1.52l19.72,24.38v1.77H280.68a1,1,0,0,0,0,2h5.46v14.7h-5.46a1,1,0,0,0,0,2H405.21a1,1,0,0,0,0-2h-5.46v-14.7Zm-24.65,1-.62-1h.62Zm-33.26-3H328v-12.2H347.3Zm2-12.2h8.59v12.2H349.3Zm9.59-2H327a1,1,0,0,0-1,1v13.2H309.62L323,233.84H363l13.42,22.21H359.89v-13.2A1,1,0,0,0,358.89,241.86ZM326,272.75h-6.16l-9.4-14.7H326Zm-20.67-14.7h.74l-.74,1.22Zm38.61-55.69L352.79,217l-8.84-4.53Zm-2,10.1-8.67,4.44,8.67-14.35Zm1,1.73,11.81,6,7,11.6H324.25l7.06-11.68Zm34.87,40.34-12.51-20.7h15.25v16.42Zm-13.72-22.7-6-9.87,19.27,9.87Zm-42.19,0H308.48l19.45-10Zm-16.58,2H320.7l-12.51,20.7-2.86-4.47Zm73.9,22.21,1.33-2.08v2.08Zm3.33-5v-.18l14.53-22.71L400,229.6Zm12.74-23.8-12.74,19.91V232.84a1,1,0,0,0-.07-.35l0-.09a1,1,0,0,0-.16-.23l0,0a1,1,0,0,0-.24-.17l-25.84-13.23L346.08,202ZM340,201.94l-10.09,16.69-26,13.32a1,1,0,0,0-.24.17l0,0a1,1,0,0,0-.16.23l0,.09a1,1,0,0,0-.07.35v14.11l-12.65-19.77Zm-54,27.66,3-1.51,14.44,22.57v.44Zm19.39,24.18,1.45,2.27h-1.45Zm-17.19,4.27h15.19v4.53l-6.15,10.17h-9Zm15.19,8.4v6.3h-3.81Zm2,6.3v-9.61l2.91-4.81,9.23,14.42ZM328,258.05H347.3v14.7H328Zm21.29,0h8.59v14.7H349.3Zm10.59,0h15.69l-9.4,14.7h-6.28Zm17.89.28,2.79,4.61v9.81h-12Zm4.79,14.42v-6.5l3.93,6.5Zm15.19,0h-8.93l-6.27-10.37v-4.33h15.19Z" transform="translate(0 0)"/><path class="cls-1" d="M405.21,277.76H280.68a1,1,0,0,0,0,2h30.09V296.3a1,1,0,0,0,2,0V279.76h3V296.3a1,1,0,1,0,2,0V279.76h50.33V296.3a1,1,0,0,0,2,0V279.76h3V296.3a1,1,0,0,0,2,0V279.76h30.09a1,1,0,0,0,0-2Z" transform="translate(0 0)"/><path class="cls-1" d="M46.76,253.91h-.49a8.28,8.28,0,0,0-1.72-4.13l.35-.35A1,1,0,0,0,43.49,248l-.35.35A8.28,8.28,0,0,0,39,246.65v-.49a1,1,0,0,0-2,0v.49a8.28,8.28,0,0,0-4.13,1.72l-.35-.35a1,1,0,1,0-1.41,1.41l.35.35a8.27,8.27,0,0,0-1.72,4.13h-.49a1,1,0,1,0,0,2h.49A8.28,8.28,0,0,0,31.47,260l-.35.35a1,1,0,0,0,1.41,1.41l.35-.35A8.28,8.28,0,0,0,37,263.17v.49a1,1,0,0,0,2,0v-.49a8.28,8.28,0,0,0,4.13-1.72l.35.35a1,1,0,0,0,1.41-1.41l-.35-.35a8.28,8.28,0,0,0,1.72-4.13h.49a1,1,0,0,0,0-2Zm-3.22-.64a1,1,0,0,0-2,.13A9.73,9.73,0,0,1,39,260.19v-5.28a1,1,0,0,0-2,0v5.28a9.58,9.58,0,0,1-2.54-6.8,1,1,0,0,0-.93-1.06,1,1,0,0,0-1.06.93A12.11,12.11,0,0,0,34.31,260a6.32,6.32,0,1,1,10-5.12h0A6.31,6.31,0,0,1,41.71,260,12.11,12.11,0,0,0,43.55,253.27Z" transform="translate(0 0)"/><path class="cls-1" d="M855.89,289.79l-.13-.3a3.92,3.92,0,0,0,.1-.87,4,4,0,0,0-3.71-4,3.62,3.62,0,0,0-6.32-.35,2.65,2.65,0,0,0-1.56.56,4.1,4.1,0,0,0-1.17-.17,4.17,4.17,0,0,0-3.47,6.48,5.47,5.47,0,0,0,1.21,8.93,4,4,0,0,0,7,2.15h0v10.8a1,1,0,0,0,2,0V302.24a4,4,0,0,0,2.33-1.64,6.15,6.15,0,0,0,3.67-10.81Zm-4,8.82h-.2a1,1,0,0,0-1,.6,2,2,0,0,1-2.77,1,1,1,0,0,0-1.37.43,2,2,0,0,1-3.76-.88c0-.06,0-.12,0-.17a1,1,0,0,0-.67-1,3.47,3.47,0,0,1-.56-6.3,1,1,0,0,0,.14-1.65,2.17,2.17,0,0,1,2.34-3.62,1,1,0,0,0,1.28-.34.66.66,0,0,1,.55-.29.68.68,0,0,1,.2,0,1,1,0,0,0,1.25-.63,1.62,1.62,0,0,1,3.12.18,1,1,0,0,0,1.12.78l.28,0a2,2,0,0,1,1.88,2.62,1,1,0,0,0,.06.78,6.26,6.26,0,0,1,.3.7,1,1,0,0,0,.32.44,4.15,4.15,0,0,1-2.56,7.43Z" transform="translate(0 0)"/><path class="cls-1" d="M921.8,269.29a6.12,6.12,0,0,0-2.14-4.66l-.13-.3a3.91,3.91,0,0,0,.1-.86,4,4,0,0,0-3.71-4,3.62,3.62,0,0,0-6.32-.35,2.66,2.66,0,0,0-1.56.56,4.1,4.1,0,0,0-1.17-.17,4.17,4.17,0,0,0-3.47,6.48,5.47,5.47,0,0,0,1.21,8.93,4,4,0,0,0,7,2.15h0v10.8a1,1,0,1,0,2,0V277.08a4,4,0,0,0,2.33-1.64A6.16,6.16,0,0,0,921.8,269.29Zm-6.24,4.15h-.12a1,1,0,0,0-1,.6,2,2,0,0,1-2.77,1,1,1,0,0,0-1.37.43,2,2,0,0,1-3.76-.88c0-.06,0-.12,0-.17a1,1,0,0,0-.67-1,3.47,3.47,0,0,1-.56-6.3,1,1,0,0,0,.14-1.65,2.17,2.17,0,0,1,2.35-3.62,1,1,0,0,0,1.28-.34.66.66,0,0,1,.55-.29.7.7,0,0,1,.2,0,1,1,0,0,0,1.25-.63,1.62,1.62,0,0,1,3.12.18,1,1,0,0,0,1.12.78l.28,0a2,2,0,0,1,1.88,2.62,1,1,0,0,0,.06.78,6.09,6.09,0,0,1,.3.69,1,1,0,0,0,.32.44,4.15,4.15,0,0,1-2.64,7.42Z" transform="translate(0 0)"/><path class="cls-1" d="M1073.58,293.18a1,1,0,0,0,1-1v-8.47a3.4,3.4,0,0,0,1.76-1.26,5.11,5.11,0,0,0,3-8.93l-.06-.14a3.33,3.33,0,0,0,.07-.67,3.38,3.38,0,0,0-3-3.36,3.09,3.09,0,0,0-5.28-.29,2.32,2.32,0,0,0-1.17.42,3.49,3.49,0,0,0-.9-.12,3.53,3.53,0,0,0-3,5.34,4.56,4.56,0,0,0,1,7.28,3.36,3.36,0,0,0,5.61,2v8.16A1,1,0,0,0,1073.58,293.18Zm-3.26-10.27h-.07a1.38,1.38,0,0,1-1.31-1.37s0-.08,0-.12a1,1,0,0,0-.67-1,2.56,2.56,0,0,1-.41-4.66,1,1,0,0,0,.14-1.65,1.53,1.53,0,0,1,1.65-2.55,1,1,0,0,0,1.28-.33.33.33,0,0,1,.27-.15l.1,0a1,1,0,0,0,1.25-.63,1.09,1.09,0,0,1,2.1.12,1,1,0,0,0,1.13.78,1.4,1.4,0,0,1,1.56,1.36,1.38,1.38,0,0,1-.07.44,1,1,0,0,0,.06.78,5,5,0,0,1,.23.54,1,1,0,0,0,.32.44,3.11,3.11,0,0,1-1.91,5.55h-.15a1,1,0,0,0-1,.6,1.42,1.42,0,0,1-1.92.66,1,1,0,0,0-1.38.43,1.38,1.38,0,0,1-.46.52A1.36,1.36,0,0,1,1070.31,282.92Z" transform="translate(0 0)"/><path class="cls-1" d="M661.09,246.8a4.83,4.83,0,0,0-3.92-7.65,4.74,4.74,0,0,0-1.46.23,3.11,3.11,0,0,0-2-.7,4.16,4.16,0,0,0-7.38.42,4.61,4.61,0,0,0-4.41,4.6,4.54,4.54,0,0,0,.13,1.06q-.1.23-.2.46a7.22,7.22,0,0,0,4.37,12.72,4.6,4.6,0,0,0,2.9,2v13.2a1,1,0,0,0,2,0V260l.33-.07a4.6,4.6,0,0,0,8.2-2.49,6.39,6.39,0,0,0,1.38-10.61Zm-2.71,9a1,1,0,0,0-.67,1c0,.08,0,.15,0,.23a2.6,2.6,0,0,1-4.93,1.16,1,1,0,0,0-.59-.51,1,1,0,0,0-.3,0,1,1,0,0,0-.48.12,2.6,2.6,0,0,1-3.63-1.25,1,1,0,0,0-1-.6h-.25a5.22,5.22,0,0,1-3.22-9.33,1,1,0,0,0,.32-.44,7.63,7.63,0,0,1,.38-.86,1,1,0,0,0,.06-.78,2.59,2.59,0,0,1,2.46-3.44l.37,0a1,1,0,0,0,1.12-.78,2.17,2.17,0,0,1,4.16-.24,1,1,0,0,0,1.25.63,1,1,0,0,1,1.14.39,1,1,0,0,0,1.28.33,2.8,2.8,0,0,1,1.27-.31,2.83,2.83,0,0,1,1.78,5,1,1,0,0,0,.14,1.65,4.4,4.4,0,0,1-.71,8Z" transform="translate(0 0)"/><path class="cls-1" d="M781.9,223a4.52,4.52,0,0,0,4.11,4.5,3,3,0,0,0,1.44,1.05v7.14a1,1,0,1,0,2,0V229a3,3,0,0,0,4.79-2,4,4,0,0,0,.93-6.35,3.16,3.16,0,0,0-2.77-4.69,3.12,3.12,0,0,0-.74.09,2.12,2.12,0,0,0-.95-.34A2.79,2.79,0,0,0,786,216a3,3,0,0,0-2.6,3.57l0,0A4.48,4.48,0,0,0,781.9,223Zm3-2a1,1,0,0,0,.32-.44,3.5,3.5,0,0,1,.19-.43,1,1,0,0,0,.06-.78,1,1,0,0,1-.06-.33,1,1,0,0,1,1.18-1,1,1,0,0,0,1.12-.78.79.79,0,0,1,1.52-.09,1,1,0,0,0,1.29.62.14.14,0,0,1,.11.06,1,1,0,0,0,1.28.33,1.16,1.16,0,0,1,1.25,1.94,1,1,0,0,0,.13,1.65,2,2,0,0,1-.33,3.72,1.11,1.11,0,0,0-.66,1.12,1,1,0,0,1-2,.46,1,1,0,0,0-.59-.51,1,1,0,0,0-.3,0,1,1,0,0,0-.48.12,1.06,1.06,0,0,1-1.44-.5,1,1,0,0,0-1-.6h-.13a2.51,2.51,0,0,1-1.55-4.5Z" transform="translate(0 0)"/><path class="cls-1" d="M1166.8,297.13a1,1,0,0,0,1-1V281.25a3.84,3.84,0,0,1,4.54,1.86,5,5,0,0,0,5-4.71,7,7,0,0,0,1.5-11.79,5.29,5.29,0,0,0-4.22-8.47,5.21,5.21,0,0,0-1.66.27,3.25,3.25,0,0,0-2.23-.8,4.54,4.54,0,0,0-8.12.46,5,5,0,0,0-4.9,5,5,5,0,0,0,.15,1.2c-.08.18-.17.38-.25.58a8,8,0,0,0,4.87,14.06,5,5,0,0,0,3.3,2.31v14.88A1,1,0,0,0,1166.8,297.13ZM1164,277.54a1,1,0,0,0-1-.6h-.29a6,6,0,0,1-3.68-10.67,1,1,0,0,0,.32-.44,8.87,8.87,0,0,1,.43-1,1,1,0,0,0,.06-.78,3,3,0,0,1,2.87-4,3.18,3.18,0,0,1,.43,0,1,1,0,0,0,1.11-.78,2.55,2.55,0,0,1,4.9-.28,1,1,0,0,0,1.25.63,1.18,1.18,0,0,1,.37-.07,1.25,1.25,0,0,1,1,.55,1,1,0,0,0,1.28.33,3.25,3.25,0,0,1,1.48-.36,3.29,3.29,0,0,1,2.07,5.84,1,1,0,0,0,.14,1.65,5,5,0,0,1-.81,9.16,1,1,0,0,0-.67,1c0,.09,0,.17,0,.26a3,3,0,0,1-5.75,1.35,1,1,0,0,0-.59-.51,1,1,0,0,0-.3,0,1,1,0,0,0-.48.12,3,3,0,0,1-4.23-1.46Z" transform="translate(0 0)"/><path class="cls-1" d="M436.18,202.08a3.62,3.62,0,0,0-3.62-3.62,3.56,3.56,0,0,0-.93.12,2.37,2.37,0,0,0-1.22-.44,3.16,3.16,0,0,0-5.43.29,3.47,3.47,0,0,0-3.13,3.45,3.43,3.43,0,0,0,.07.69l-.07.16a5.25,5.25,0,0,0,3.08,9.19,3.48,3.48,0,0,0,1.84,1.32v8.8a1,1,0,0,0,2,0v-8.53a3.43,3.43,0,0,0,2.38,1,3.47,3.47,0,0,0,3.44-3,4.69,4.69,0,0,0,1.06-7.51A3.61,3.61,0,0,0,436.18,202.08Zm-2.9,7.79a1,1,0,0,0-.67,1s0,.08,0,.13a1.46,1.46,0,0,1-2.77.65,1,1,0,0,0-.6-.51,1,1,0,0,0-.3,0,1,1,0,0,0-.48.12,1.51,1.51,0,0,1-2-.71,1,1,0,0,0-1-.6h-.15a3.25,3.25,0,0,1-2-5.82,1,1,0,0,0,.32-.44,4.82,4.82,0,0,1,.24-.55,1,1,0,0,0,.06-.78,1.46,1.46,0,0,1,1.38-1.93l.21,0a1,1,0,0,0,1.11-.78,1.17,1.17,0,0,1,2.24-.13,1,1,0,0,0,1.25.63l.11,0a.37.37,0,0,1,.31.17,1,1,0,0,0,1.28.33,1.59,1.59,0,0,1,.73-.18,1.62,1.62,0,0,1,1,2.88,1,1,0,0,0,.14,1.65,2.69,2.69,0,0,1-.43,4.89Z" transform="translate(0 0)"/><path class="cls-1" d="M622.3,108.94a10,10,0,0,0,1.74-.15l14.58-2.57a1,1,0,0,0-.35-2l-14.58,2.57a8,8,0,0,1-4.2-.38l-10.08-3.76a1,1,0,0,0-.7,1.87l10.08,3.76A10,10,0,0,0,622.3,108.94Z" transform="translate(0 0)"/><path class="cls-1" d="M584.69,105.09l.17,0,9.15-1.61,22.31,8.36a15.22,15.22,0,0,0,8,.73l73.46-13a14.82,14.82,0,0,0,6.69-3.44c2.38-2.1,3.49-4.41,3.12-6.52-.8-4.55-8.21-6.78-12.62-6l-26.78,4.72L635.29,62.87a1,1,0,0,0-.79-.19l-7.09,1.25a1,1,0,0,0-.68,1.5l16.45,27.34-20.92,3.69L605.34,84.7a1,1,0,0,0-.74-.16l-6.92,1.22a1,1,0,0,0-.68,1.5L601.07,94h0l3.34,5.55-19.9,3.51a1,1,0,0,0,.17,2Zm18.85-10.82,3.58-.63a1,1,0,1,0-.35-2l-4.33.76-3-5,5.08-.9,14.92,10.37-12.93,2.28Zm18.66,4.22h0l30.72-5.42a1,1,0,1,0-.35-2l-7.29,1.29-16.1-26.75,5.22-.92,32.85,25.49h0a1,1,0,0,0,.17.08,1,1,0,0,0,.19.08h.12a1,1,0,0,0,.27,0h0l9.41-1.66,4.9,1.83a12.29,12.29,0,0,0,6.42.59l8.48-1.49a1,1,0,0,0-.35-2l-8.48,1.49a10.27,10.27,0,0,1-5.37-.49l-1.71-.64,13.92-2.46C698.74,85,705,86.89,705.58,90c.24,1.37-.66,3.07-2.47,4.67a12.91,12.91,0,0,1-5.72,3l-73.46,13A13.2,13.2,0,0,1,617,110l-19.14-7.17Z" transform="translate(0 0)"/><path class="cls-1" d="M635.37,68.68a1,1,0,0,0-1.71,1l12.06,20a1,1,0,0,0,1.71-1Z" transform="translate(0 0)"/><path class="cls-1" d="M130.11,209.24a1,1,0,0,0,.87.5h5.28a1,1,0,0,0,.87-.5l2.64-4.58a1,1,0,0,0,0-1l-2.64-4.58a1,1,0,0,0-.87-.5H131a1,1,0,0,0-.87.5l-2.64,4.58a1,1,0,0,0,0,1Zm1.44-8.65h4.13l2.06,3.58-2.06,3.58h-4.13l-2.06-3.58Z" transform="translate(0 0)"/><path class="cls-1" d="M1134.49,69.3a7.53,7.53,0,1,0-7.53-7.53A7.54,7.54,0,0,0,1134.49,69.3Zm0-13.07a5.53,5.53,0,1,1-5.53,5.53A5.54,5.54,0,0,1,1134.49,56.23Z" transform="translate(0 0)"/><path class="cls-1" d="M102.35,285.92l-4.92-2.51a10.91,10.91,0,0,0-4-1.12v-7.61a3.43,3.43,0,0,0,2.38,1,3.47,3.47,0,0,0,3.44-3,4.69,4.69,0,0,0,1.06-7.51,3.62,3.62,0,0,0-4-5.37,2.37,2.37,0,0,0-1.22-.44,3.16,3.16,0,0,0-5.43.29,3.46,3.46,0,0,0-3.06,4.14l-.07.16a5.25,5.25,0,0,0,3.08,9.19,3.48,3.48,0,0,0,1.84,1.32v7.88a10.88,10.88,0,0,0-4,1.12l-4.92,2.51a1,1,0,1,0,.91,1.78l4.92-2.51a9.16,9.16,0,0,1,8.19,0l4.92,2.51a1,1,0,1,0,.91-1.78ZM91.09,271.7a1,1,0,0,0-1-.6H90a3.25,3.25,0,0,1-2-5.82,1,1,0,0,0,.32-.45,4.89,4.89,0,0,1,.24-.55,1,1,0,0,0,.06-.77,1.48,1.48,0,0,1-.08-.47,1.5,1.5,0,0,1,1.68-1.45,1,1,0,0,0,1.11-.78,1.17,1.17,0,0,1,2.24-.13,1,1,0,0,0,1.25.63l.11,0a.37.37,0,0,1,.31.17,1,1,0,0,0,1.28.33,1.58,1.58,0,0,1,.73-.17,1.62,1.62,0,0,1,1,2.87,1,1,0,0,0,.14,1.65,2.69,2.69,0,0,1-.43,4.89,1,1,0,0,0-.67,1s0,.08,0,.13a1.46,1.46,0,0,1-2.77.65,1,1,0,0,0-.6-.51,1,1,0,0,0-.3,0,1,1,0,0,0-.48.12A1.5,1.5,0,0,1,91.09,271.7Z" transform="translate(0 0)"/><path class="cls-1" d="M1299.27,281.11h-1.67V256.83h0v-8h0v-7.94a1,1,0,0,0-1-1h-18a1,1,0,0,0-1,1v14.94h-28.18v-7a1,1,0,0,0-.29-.71l-16.46-16.46a1,1,0,0,0-1.41,0l-16.47,16.46a1,1,0,0,0-.29.71v5.47l-7.94-7.94a1,1,0,0,0-1.41,0l-16.46,16.46a1,1,0,0,0-.29.71v25.07a1,1,0,1,0,2,0V264l10.75-10.75,20.18,20.18v3.9a1,1,0,1,0,2,0V263.56a1,1,0,0,0-.29-.71l-6.52-6.52v-7.06L1232,233.8l15.46,15.46v24.08l-3.55,2.11a1,1,0,0,0-.49.86v12a1,1,0,0,0,2,0V276.89l11.31-6.71v18.45a1,1,0,1,0,2,0V270.18l11.31,6.71v11.46a1,1,0,0,0,2,0v-12a1,1,0,0,0-.49-.86l-13.31-7.9-.08,0-.09,0a1,1,0,0,0-.34-.07h0a1,1,0,0,0-.34.07l-.09,0-.08,0-7.76,4.61V257.82h46.18v24.29a1,1,0,0,0,1,1h2.67a9,9,0,0,1,9,9V294a1,1,0,1,0,2,0v-1.86A11,11,0,0,0,1299.27,281.11Zm-78-17.14v6.61l-18.77-18.77,3.31-3.31,8.94,8.94h0Zm58.29-22.09h16v5.94h-16Zm0,13.94v-6h16v6Z" transform="translate(0 0)"/><path class="cls-1" d="M1194.72,301.69H920.8a1,1,0,0,0,0,2h273.92a1,1,0,0,0,0-2Z" transform="translate(0 0)"/><path class="cls-1" d="M943.59,309.79H920.8a1,1,0,0,0,0,2h22.79a1,1,0,0,0,0-2Z" transform="translate(0 0)"/><path class="cls-1" d="M984.22,309.79H961.43a1,1,0,0,0,0,2h22.79a1,1,0,0,0,0-2Z" transform="translate(0 0)"/><path class="cls-1" d="M1024.85,309.79h-22.79a1,1,0,0,0,0,2h22.79a1,1,0,0,0,0-2Z" transform="translate(0 0)"/><path class="cls-1" d="M1065.48,309.79h-22.79a1,1,0,0,0,0,2h22.79a1,1,0,0,0,0-2Z" transform="translate(0 0)"/><path class="cls-1" d="M1106.11,309.79h-22.79a1,1,0,0,0,0,2h22.79a1,1,0,0,0,0-2Z" transform="translate(0 0)"/><path class="cls-1" d="M1146.74,309.79H1124a1,1,0,0,0,0,2h22.79a1,1,0,0,0,0-2Z" transform="translate(0 0)"/><path class="cls-1" d="M1187.37,309.79h-22.79a1,1,0,0,0,0,2h22.79a1,1,0,0,0,0-2Z" transform="translate(0 0)"/><path class="cls-1" d="M392.83,301.69H118.91a1,1,0,1,0,0,2H392.83a1,1,0,0,0,0-2Z" transform="translate(0 0)"/><path class="cls-1" d="M148,309.79H125.19a1,1,0,1,0,0,2H148a1,1,0,0,0,0-2Z" transform="translate(0 0)"/><path class="cls-1" d="M188.61,309.79H165.82a1,1,0,1,0,0,2h22.79a1,1,0,0,0,0-2Z" transform="translate(0 0)"/><path class="cls-1" d="M229.24,309.79H206.46a1,1,0,0,0,0,2h22.79a1,1,0,1,0,0-2Z" transform="translate(0 0)"/><path class="cls-1" d="M269.87,309.79H247.09a1,1,0,1,0,0,2h22.79a1,1,0,0,0,0-2Z" transform="translate(0 0)"/><path class="cls-1" d="M310.51,309.79H287.72a1,1,0,0,0,0,2h22.79a1,1,0,0,0,0-2Z" transform="translate(0 0)"/><path class="cls-1" d="M351.14,309.79H328.35a1,1,0,1,0,0,2h22.79a1,1,0,0,0,0-2Z" transform="translate(0 0)"/><path class="cls-1" d="M391.77,309.79H369a1,1,0,0,0,0,2h22.79a1,1,0,0,0,0-2Z" transform="translate(0 0)"/><path class="cls-1" d="M213.61,32.62c0,9.51,5,16.74,23.67,43.63l.82,1.19,2,7.28v6.22a1,1,0,0,0,1,1h10.23a1,1,0,0,0,1-1V84.72l2-7.28.83-1.19c18.65-26.89,23.67-34.12,23.67-43.63,0-.2,0-.39,0-.59s0-.09,0-.14,0,0,0-.06A32.66,32.66,0,0,0,246.26,0h-.17a32.65,32.65,0,0,0-32.46,31.79.93.93,0,0,0,0,.11c0,.08,0,.16,0,.25S213.61,32.46,213.61,32.62Zm2.46,4.4a6.55,6.55,0,0,0,8.9-.6c1.09,11.48,6.34,24.72,15.72,39.6h-1.14l-.63-.9C223.61,53,217.63,44.42,216.06,37Zm34.45,46.57h-3.35V78H252Zm-8.69,0L240.33,78h4.85v5.57h-3.35Zm-5.91-46.91c.36,10.62,2.76,23.68,8.85,39.34h-1.72c-9.47-14.78-14.83-27.89-16-39.16a6.65,6.65,0,0,0,8.91-.18ZM246.17,2.59c2,2.94,7.91,12.88,8.16,30.37a8.26,8.26,0,0,1-16.32.09C238.25,15.5,244.12,5.53,246.17,2.59Zm0,71.51C240.81,60,238.56,48,238.1,38.1a10.32,10.32,0,0,0,16.15,0C253.78,48,251.54,60,246.17,74.1Zm1.4,1.91c6.09-15.65,8.49-28.71,8.85-39.33a6.65,6.65,0,0,0,8.91.16c-1.21,11.28-6.57,24.38-16,39.17Zm18-44v0a4.61,4.61,0,0,1-9.1.91C256.3,17.66,251.91,8,249.16,3.45A31,31,0,0,1,263.7,20.29a35.14,35.14,0,0,1,1.9,11.46.94.94,0,0,0,0,.15S265.57,31.95,265.57,32Zm-29.69.86a4.61,4.61,0,0,1-9.11-.84v0s0-.05,0-.08a.94.94,0,0,0,0-.11,35.17,35.17,0,0,1,1.89-11.46A31.09,31.09,0,0,1,243.18,3.46C240.43,8,236.06,17.64,235.88,32.83Zm6.18,52.76h1.12v4.35h-1.12Zm3.12,0h2v4.35h-2Zm5.1,4.35h-1.12V85.59h1.12Zm3.14-14.83-.63.9h-1.14C261,61.14,266.29,47.9,267.38,36.42a6.55,6.55,0,0,0,8.9.59C274.72,44.41,268.74,53,253.43,75.11ZM276.72,32a4.57,4.57,0,0,1-9.13.16,37.23,37.23,0,0,0-2-12.51,32.58,32.58,0,0,0-14-17.13A30.66,30.66,0,0,1,276.72,32ZM240.79,2.49a32.58,32.58,0,0,0-14,17.13,37.2,37.2,0,0,0-2,12.44,4.57,4.57,0,0,1-9.13,0A30.66,30.66,0,0,1,240.79,2.49Z" transform="translate(0 0)"/><path class="cls-1" d="M706.12,304a5.46,5.46,0,1,0,5.46,5.46A5.46,5.46,0,0,0,706.12,304Zm0,8.91a3.46,3.46,0,1,1,3.46-3.46A3.46,3.46,0,0,1,706.12,312.93Z" transform="translate(0 0)"/><path class="cls-1" d="M791.54,304a5.46,5.46,0,1,0,5.46,5.46A5.46,5.46,0,0,0,791.54,304Zm0,8.91a3.46,3.46,0,1,1,3.46-3.46A3.46,3.46,0,0,1,791.54,312.93Z" transform="translate(0 0)"/><path class="cls-1" d="M822.39,253.09H805v-5.78h3.18a1,1,0,0,0,0-2H683.05a1,1,0,0,0,0,2h3.18v5.78H676.08a1,1,0,0,0,0,2h2.23v54.39a1,1,0,0,0,1,1h16.86a10,10,0,0,0,19.9,0h65.53a10,10,0,0,0,19.9,0h18.57a1,1,0,0,0,.87-1.49l-8-14.17v-3.45h0v-3.47h0V255.09h9.43a1,1,0,0,0,0-2Zm-19.35,0H797.5l3.22-5.78H803Zm-7.84,0H792l3.22-5.78h3.22Zm-5.51,0h-3.22l3.22-5.78h3.22Zm-5.51,0H781l3.22-5.78h3.22Zm-5.51,0h-3.22l3.22-5.78h3.22Zm-5.51,0H770l3.22-5.78h3.22Zm-5.51,0h-3.22l3.22-5.78h3.22Zm-5.51,0h-3.22l3.22-5.78h3.22Zm-5.51,0h-3.22l3.22-5.78h3.22Zm-5.51,0h-3.22l3.22-5.78h3.22Zm-5.51,0h-3.22l3.22-5.78h3.22Zm-5.51,0h-3.22l3.22-5.78h3.22Zm-5.51,0H731.4l3.22-5.78h3.22Zm-5.51,0H725.9l3.22-5.78h3.22Zm-5.51,0h-3.22l3.22-5.78h3.22Zm-5.51,0h-3.22l3.22-5.78h3.22Zm-5.51,0h-3.22l3.22-5.78h3.22Zm-5.51,0h-3.22l3.22-5.78h3.22Zm-5.51,0h-3.22l3.22-5.78h3.22Zm-5.51,0h-3.22l3.22-5.78h3.22Zm-7.84-5.78h5.55l-3.22,5.78h-2.33Zm12.17,39.57H684.05v-17a8.17,8.17,0,1,1,16.35,0Zm-17.35,2H811v1.48H680.31v-1.48Zm38.71-2H705.42v-17a8.17,8.17,0,1,1,16.35,0Zm21.37,0H726.78v-17a8.17,8.17,0,1,1,16.35,0Zm21.36,0H748.15v-17a8.17,8.17,0,1,1,16.35,0Zm21.37,0H769.51v-17a8.17,8.17,0,1,1,16.35,0Zm21.37-3.11-3.29-2.5,1.05-1a1,1,0,0,0-1.41-1.42l-3.73,3.72a1,1,0,1,0,1.41,1.42l1.25-1.24,4.72,3.59v.59H790.88v-17a8.17,8.17,0,1,1,16.35,0ZM737.86,296.4H680.31v-4H811v4Zm-57.55,2h46.1v10.08H716.07a10,10,0,0,0-19.9,0H680.31Zm25.81,19.08a8,8,0,1,1,8-8A8,8,0,0,1,706.12,317.47Zm22.29-19.08h8.45v10.08h-8.45Zm63.14,19.08a8,8,0,1,1,8-8A8,8,0,0,1,791.54,317.47Zm19.42-9h-9.47a10,10,0,0,0-19.9,0H738.86V298.4H811Zm2,0v-9.58l5.39,9.58Zm-2-21.6h-1.74v-17a10.17,10.17,0,1,0-20.35,0v17h-1v-17a10.17,10.17,0,1,0-20.35,0v17h-1v-17a10.17,10.17,0,1,0-20.35,0v17h-1v-17a10.17,10.17,0,1,0-20.35,0v17h-1v-17a10.17,10.17,0,1,0-20.35,0v17h-1v-17a10.17,10.17,0,1,0-20.35,0v17h-1.74V255.09H811Z" transform="translate(0 0)"/><path class="cls-1" d="M927.68,242.6v31.33a1,1,0,1,0,2,0v-3.79L939.85,260v5.17l-8.08,8.08a1,1,0,1,0,1.41,1.41l6.67-6.67v6a1,1,0,1,0,2,0V239.65a18.53,18.53,0,0,1,18.51-18.51c7.51,0,13.22,4.33,16.21,11.66a34.5,34.5,0,0,1,2.3,13v4.72h0v8h0v8h0v19.21H955.23a1,1,0,0,0,0,2h37.4a1,1,0,0,0,0-2H980.86v-10.9a1,1,0,0,0,.3-.2l9.86-9.86v5.17l-3.28,3.28a1,1,0,1,0,1.41,1.41l1.86-1.86v4.13a1,1,0,1,0,2,0V236.3a21,21,0,0,1,42.06,0V252h-21.44a1,1,0,0,0,0,2h21.44v19.93a1,1,0,0,0,1,1,1,1,0,0,0,.18,0,1,1,0,0,0,.18,0,1,1,0,0,0,.71-.29l10.1-10.1v5.17l-3.52,3.52a1,1,0,1,0,1.41,1.41l2.1-2.1v1.4a1,1,0,1,0,2,0V232.4a23.5,23.5,0,0,1,.8-6.09c.18-.68.39-1.35.63-2a23.59,23.59,0,0,1,44.24,0c.24.65.45,1.32.63,2a23.5,23.5,0,0,1,.8,6.09v41.52a1,1,0,1,0,2,0V269.4l10.17-10.17v5.17l-8.8,8.8a1,1,0,0,0-.08,1.3.93.93,0,0,0,.08.12,1,1,0,0,0,1.41,0l.76-.76,6.63-6.63v6.68a1,1,0,0,0,1,1H1132a1,1,0,0,0,0-2h-21.44V226.31h152.3a1,1,0,0,0,0-2h-25.08V209.13a1,1,0,0,0-1-1h-32.52a1,1,0,0,0-1,1v15.18h-5.13V209.13a1,1,0,0,0-1-1h-47.63a1,1,0,0,0-1,1v15.18h-5.13V209.13a1,1,0,0,0-1-1h-31.82v-4.37h152.3a1,1,0,0,0,0-2h-12.92v-6.82h3.55a1,1,0,0,0,0-2h-3.55v-8h3.55a1,1,0,0,0,0-2h-3.93l-2.86-5.68h6.79a1,1,0,0,0,0-2h-7.8l-6.57-13,14.77-6.44,0,0a1,1,0,0,0,.28-.2l0-.05a1,1,0,0,0,.1-.12,1,1,0,0,0,.05-.12l0-.07a1,1,0,0,0,.06-.32s0,0,0-.07a1,1,0,0,0-.06-.3s0,0,0,0v0l-10-19.94a1,1,0,0,0-.89-.55H1105L1104.57,80a26.15,26.15,0,0,1,18.48-3.61,1,1,0,0,0,.18,0h0a29.69,29.69,0,0,1,10.26,4.09A30.29,30.29,0,0,0,1145.86,85a1,1,0,0,0,.28.06l.1,0a28.3,28.3,0,0,0,3.09.18,29.76,29.76,0,0,0,16.05-4.75,1,1,0,0,0,.41-.81V43.86a1,1,0,0,0-1.59-.81,27.3,27.3,0,0,1-29.64,0,30.69,30.69,0,0,0-10.94-4.28,1,1,0,0,0-.38-.08h0A29.81,29.81,0,0,0,1103,42.86h-10.65a1,1,0,0,0,0,2h7.54l-1.4,89.08h-50.07a1,1,0,0,0-.89.55l-10,19.94v0s0,0,0,0a1,1,0,0,0-.06.3s0,0,0,.07a1,1,0,0,0,.06.32l0,.07a1,1,0,0,0,.05.12,1,1,0,0,0,.1.12l0,.05a1,1,0,0,0,.28.2l0,0,14.77,6.44-6.57,13h-7.8a1,1,0,0,0,0,2h6.79L1042.3,183h-3.93a1,1,0,0,0,0,2h3.55v5.93l-59,6.46V186.19l3.27.87a1,1,0,0,0,.26,0,1,1,0,0,0,1-1.28L985.43,179l10.51-7.95a1,1,0,0,0,.4-.8V117c0-3.61-3.34-7.14-7.46-10.11l-.17-.12a77.55,77.55,0,0,0-13.84-7.5,52.29,52.29,0,0,0,6.63-9.68c2.79-6,2.77-21.15,0-27.76a14.3,14.3,0,0,0-3.35-11.16,13.86,13.86,0,0,0-3.23-2.58c.16-.27.33-.52.49-.8a21,21,0,0,0,1.64-16.81,1,1,0,0,0-1.12-.62,19.27,19.27,0,0,0-6,2.51,25.26,25.26,0,0,0-7.48-12.83,1,1,0,0,0-1.28,0,25.26,25.26,0,0,0-7.48,12.83,19.28,19.28,0,0,0-6-2.51,1,1,0,0,0-1.12.62,21,21,0,0,0,1.64,16.81c.15.28.32.53.48.8a13.87,13.87,0,0,0-3.24,2.59,14.32,14.32,0,0,0-3.35,11.2c-2.74,6.63-2.75,21.71,0,27.71a52.27,52.27,0,0,0,6.63,9.68,75.91,75.91,0,0,0-14.39,7.9l-.13.09a27.78,27.78,0,0,0-4.12,3.68l0,0a1,1,0,0,0-.27.34,9.11,9.11,0,0,0-2.52,5.69h0v53.26a1,1,0,0,0,.4.8l10.5,7.94-2,6.82a1,1,0,0,0,1,1.28,1,1,0,0,0,.26,0l3.27-.87V202l-99.42,10.87a1,1,0,0,0-.89,1V229h0v15.2L787.8,194.45a6,6,0,0,0-8.36.06l-5.95,5.79-.61-4a1,1,0,0,0-1-.85H770l-.71-4.77a1,1,0,0,0-1-.85h-1.85l-.72-4.77a1,1,0,0,0-1-.85h-1.85l-.71-4.77a1,1,0,0,0-1-.85h-1.85l-.71-4.77a1,1,0,0,0-1-.85h-1.85l-.72-4.77a1,1,0,0,0-1-.85h-1.85l-.71-4.77a1,1,0,0,0-1-.85H748.7l-.72-4.77a1,1,0,0,0-1-.85h-1.85l-.71-4.77a1,1,0,0,0-1-.85H725.62V133.78a1,1,0,0,0-1-1H694.88a1,1,0,0,0-1,1v16.68H676.63a1,1,0,0,0-1,.85l-.71,4.77h-1.86a1,1,0,0,0-1,.85l-.71,4.77h-1.85a1,1,0,0,0-1,.85l-.71,4.77H666a1,1,0,0,0-1,.85l-.71,4.77H662.4a1,1,0,0,0-1,.85l-.71,4.77h-1.85a1,1,0,0,0-1,.85l-.71,4.77h-1.85a1,1,0,0,0-1,.85l-.71,4.77h-1.85a1,1,0,0,0-1,.85l-.72,4.77h-1.85a1,1,0,0,0-1,.85l-.49,3.3-2.57-1.82a6,6,0,0,0-7,.05l-58.23,42.36a24.31,24.31,0,0,1-4.54-12.47,5.92,5.92,0,0,0,.81.06,5.84,5.84,0,0,0,.52-11.66v-1.22l1.52-2.62a1,1,0,0,0-.87-1.5h-6.41V189.54h1.21a1,1,0,0,0,.93-.63l1.62-4.13a1,1,0,0,0-.93-1.37h-4.27L567,180.61a1,1,0,0,0-.88-.53h-1.58v-6.36a1,1,0,0,0-1-1H562.2a3.07,3.07,0,0,0,.21-1.1,3.1,3.1,0,1,0-6,1.1h-1.28a1,1,0,0,0-1,1v6.35a9.08,9.08,0,0,1-9-9.07v-7a1,1,0,0,0-.42-.82l-14.14-9.94a1,1,0,0,0-1.15,0l-14.14,9.94a1,1,0,0,0-.42.82v7a9.08,9.08,0,0,1-9,9.07v-6.35a1,1,0,0,0-1-1h-1.28a3.1,3.1,0,1,0-5.78,0H496.6a1,1,0,0,0-1,1v6.36H494a1,1,0,0,0-.88.53l-1.49,2.79h-4.27a1,1,0,0,0-.93,1.37l1.62,4.13a1,1,0,0,0,.93.63h1.22v7.62l-7.28-14.75a1,1,0,0,0-.29-.35l-6.2-4.71a1,1,0,0,0-.78-.19,1,1,0,0,0-.67.44l-5.72,8.93-7.91-3.73-9.27-12.44a1,1,0,0,0-.35-.3l-7.09-3.54-20.44-54.18a1,1,0,0,0-.37-.47l-6.45-4.46a1,1,0,0,0-1.3.13l-3.51,3.71-8.45-15.76-3.44-16a1,1,0,0,0-.55-.69l-10.39-5a1,1,0,0,0-.43-.1h-6.61L369.87,63.08a1,1,0,0,0-1.1-.12l-7.22,3.73-4.25-2.24a1,1,0,0,0-.82,0l-9.68,3.69-3.27-4.8a1,1,0,0,0-1.22-.35l-14.38,6.2a1,1,0,0,0-.52.52l-9.74,22.64-6.51,2.09a1,1,0,0,0-.55.44l-8.49,14.31-7.83,2.61a1,1,0,0,0-.58.5l-25.53,50.34L267,159.67a1,1,0,0,0-1.72-.24l-7.81,10-18.79,10.84-10.49-3.34a1,1,0,0,0-.93.17l-8,6.4V171.74a6.21,6.21,0,1,0-12.42,0v2.92l-1.65-.36a1,1,0,1,0-.43,2l2.08.46v1.89l-1.65-.36a1,1,0,1,0-.43,2l2.08.46v1.89l-1.65-.36a1,1,0,1,0-.43,2l2.08.46v1.89l-1.65-.36a1,1,0,1,0-.43,2l2.08.46v1.89l-1.65-.36a1,1,0,1,0-.43,2l2.08.46v1.89l-1.65-.36a1,1,0,1,0-.43,2l2.08.46v1.89l-1.65-.36a1,1,0,1,0-.43,2l2.08.46v18.8h-4V196.63a6.21,6.21,0,0,0-12.42,0V198l-2.11.46a1,1,0,0,0,.21,2l.22,0,1.68-.37V202l-2.11.46a1,1,0,0,0,.21,2l.22,0,1.68-.37v1.89l-2.11.46a1,1,0,0,0,.21,2l.22,0,1.68-.37v1.89l-2.11.46a1,1,0,0,0,.21,2l.22,0,1.68-.37v1.89l-2.11.46a1,1,0,0,0,.21,2l.22,0,1.68-.37v1.89l-2.11.46a1,1,0,0,0,.21,2l.22,0,1.68-.37v1.89l-2.11.46a1,1,0,0,0,.21,2l.22,0,1.68-.37v1.64a6.22,6.22,0,0,0,6.21,6.21h10.18v19l-4,1.18a9,9,0,0,1-8.83-2.16l-22.67-21.95V207.18a1,1,0,0,0-1-1h-9.2V193.47a1,1,0,0,0-1-1h-2.89V183a1,1,0,0,0-1-1h-3.66V171.36a20.21,20.21,0,0,0-19.2-20.15v-8.12h3.84a1,1,0,0,0,0-2h-3.84v-3.48a1,1,0,0,0-2,0v3.48h-3.84a1,1,0,0,0,0,2h3.84v8.12a20.2,20.2,0,0,0-17.2,11.45V151.2a1,1,0,0,0-.33-.74l-1.82-1.63V132.65a1,1,0,0,0-.07-.35l0-.07,0-.06-8.69-15.91v-8.82h3.84a1,1,0,0,0,0-2h-3.84V102a1,1,0,0,0-2,0v3.48H97.41a1,1,0,1,0,0,2h3.84v8.82l-8.69,15.91,0,.06,0,.07a1,1,0,0,0-.07.35v16.17l-1.82,1.63a1,1,0,0,0-.33.74V182H89.14a1,1,0,0,0-1,1v15.84H87a1,1,0,0,0-1,1v18.38H84.84a1,1,0,0,0-1,1v6.16L56.57,236.7a9.06,9.06,0,0,1-8.75-1l-5.73-4.17a11,11,0,0,0-12.76-.13l-6.51,4.54a4.93,4.93,0,0,0-4.46-3.24,4.46,4.46,0,0,0-7.94-.45,3.08,3.08,0,0,0-2.17.78,5.09,5.09,0,0,0-1.62-.26A5.18,5.18,0,0,0,2.47,241a6.89,6.89,0,0,0,1.47,11.52,4.93,4.93,0,0,0,8.84,2.67,5,5,0,0,0,.48.11v23.46a1,1,0,0,0,2,0V255.31a4.93,4.93,0,0,0,3.21-2.24,7.79,7.79,0,0,0,4.75-13.75q-.11-.28-.24-.55a4.91,4.91,0,0,0,.11-.63L30.47,233a9,9,0,0,1,10.44.11l5.73,4.17a11.06,11.06,0,0,0,10.69,1.26l26.5-11v18a1,1,0,0,0,1,1h40.49l-8.93,16.66a1,1,0,0,0,1.76.95l9.43-17.61h12l9.44,17.61a1,1,0,1,0,1.76-.95l-8.93-16.66h28.44a1,1,0,0,0,1-1V230.47l21.28,20.6a11,11,0,0,0,10.79,2.64l5.72-1.71a9,9,0,0,1,7.44,1.06l23.88,15.37a11.59,11.59,0,0,0-1.72,1.19l-.78-.78a1,1,0,1,0-1.41,1.41l.78.78a11.49,11.49,0,0,0-2.66,6.42h-1.11a1,1,0,0,0,0,2h1.11a11.49,11.49,0,0,0,2.66,6.42l-.78.78a1,1,0,1,0,1.41,1.41l.78-.78a11.49,11.49,0,0,0,6.42,2.66v1.11a1,1,0,0,0,2,0V290a11.49,11.49,0,0,0,6.42-2.66l.78.78a1,1,0,0,0,1.41-1.41l-.78-.78a11.49,11.49,0,0,0,2.66-6.42h1.11a1,1,0,0,0,0-2h-1.11A11.49,11.49,0,0,0,255,271l.78-.78a1,1,0,0,0-1.41-1.41l-.78.78a11.49,11.49,0,0,0-6.42-2.66v-1.11a1,1,0,0,0-2,0V267a11.47,11.47,0,0,0-2.52.5l-23.41-15.07v-5.65l1.21.27.22,0a1,1,0,0,0,.21-2l-1.64-.36V242.8l1.21.27.22,0a1,1,0,0,0,.21-2l-1.64-.36v-1.89l1.21.27.22,0a1,1,0,0,0,.21-2l-1.64-.36V231l1.21.27.22,0a1,1,0,0,0,.21-2l-1.64-.36V227l1.21.27.22,0a1,1,0,0,0,.21-2l-1.64-.36v-1.89l1.21.27.22,0a1,1,0,0,0,.21-2l-1.64-.36v-5.69h10.18a6.22,6.22,0,0,0,6.21-6.21v-3.57l2.11-.46a1,1,0,1,0-.43-2l-1.68.37v-1.89l2.11-.46a1,1,0,1,0-.43-2l-1.68.37v-1.89l2.11-.46a1,1,0,1,0-.43-2l-1.68.37v-1.89l2.11-.46a1,1,0,1,0-.43-2l-1.68.37v-2.44a6.21,6.21,0,0,0-12.42,0v13.67h-4V186.06l8.87-7.05,10.4,3.31a1,1,0,0,0,.8-.09l19.34-11.16a1,1,0,0,0,.29-.25l6.86-8.79,1.34,3.34a1,1,0,0,0,.88.63,1,1,0,0,0,.94-.55l26.34-51.95,3.82-1.27,6.44,5.2-2.58,2.9a1,1,0,0,0,1.49,1.33l16.23-18.22L329.3,102a1,1,0,0,0,.67-.44l17.29-26.28a1,1,0,0,0,.16-.55V70l9.35-3.56,3.54,1.86L340.46,123a1,1,0,1,0,1.88.68l20-55.17L369.1,65l12.51,10.39,6.73,10.65v6.59a1,1,0,0,0,2,0V85.79a1,1,0,0,0-.15-.53l-6-9.5h4.93l9.74,4.65L402.22,96a1,1,0,0,0,.1.26l9.11,17,1.16,4.84h0v0l1.18,4.91s0,0,0,0v0L415,128s0,0,0,0v0l.55,2.29v15l-20.45-7.21-8.34-15.28a1,1,0,0,0-1.17-.48l-12.3,3.81a1,1,0,0,0-.56.44l-11.18,18.75h-22.9a1,1,0,0,0-.57.18l-52.44,36.07a1,1,0,0,0,1.13,1.65l52.18-35.9h21.4l-14.76,24.75a1,1,0,1,0,1.72,1L374.22,128l11.16-3.46,8.14,14.9a1,1,0,0,0,.55.46l21.88,7.72,11.78,14.08h0l3.28,3.92a1,1,0,0,0,1.53-1.28l-2.41-2.88a34.35,34.35,0,0,0,8.46-5.38l4.33,11.49a1,1,0,0,0,.49.54l7.22,3.61,9.28,12.45a1,1,0,0,0,.38.31l8.93,4.21a1,1,0,0,0,1.27-.36l5.61-8.76,5.15,3.91,9,18.18v9H483.8a1,1,0,0,0-.87,1.5l1.52,2.62v1.22a5.84,5.84,0,0,0,.52,11.66,5.92,5.92,0,0,0,.81-.06,24.49,24.49,0,0,1-22,22.57c0-.11,0-.22,0-.33a6.76,6.76,0,0,0-13.46-.86,1,1,0,0,0,0,.22h0c0,.21,0,.42,0,.63a6.74,6.74,0,0,0,2,4.76H441.9a1,1,0,0,0-1,1,8.45,8.45,0,0,0,2.71,5.78v57a1,1,0,0,0,2,0V262h4.1v56.49a1,1,0,0,0,2,0V262h36.78v56.49a1,1,0,0,0,2,0v-18.1h12.18v18.1a1,1,0,0,0,2,0V261.15h3.51v57.32a1,1,0,0,0,2,0v-18.1h39.74v18.1a1,1,0,0,0,2,0V261.15h3.51v32.31h0v5.9h0v19.09a1,1,0,0,0,2,0v-18.1H569.6v18.1a1,1,0,0,0,2,0V262h36.78v56.49a1,1,0,0,0,2,0V262h4.1v56.49a1,1,0,0,0,2,0v-57a8.45,8.45,0,0,0,2.71-5.78,1,1,0,0,0-1-1H607.85a6.74,6.74,0,0,0,2-4.76c0-.21,0-.42,0-.62h0a1,1,0,0,0,0-.23,6.76,6.76,0,0,0-13.46.86c0,.11,0,.22,0,.33a24.37,24.37,0,0,1-16.24-8.52l58.18-42.32a4,4,0,0,1,4.71,0l3.39,2.4,0,.11a1,1,0,0,0,.84,1.14,1,1,0,0,0,.7-.17l21.07,14.88a6,6,0,0,0,6.59.25l23.19-13.89a4.06,4.06,0,0,1,3.11-.44l25.73,6.83a4,4,0,0,1,2.35,1.7l4.53,7a6,6,0,0,0,9.45.87l7.5-7.9a4.05,4.05,0,0,1,5.49-.34,6,6,0,0,0,8-.34l15.91-15.49a4,4,0,0,1,5.59,0l54,51v27a1,1,0,1,0,2,0v-4.55l10.17-10.17v5.17l-8.84,8.84a1,1,0,1,0,1.41,1.41l7.43-7.43v5.17l-.84.84a1,1,0,0,0,1.27,1.51,1,1,0,0,0,.57.2,1,1,0,0,0,1-1V244.7a13.46,13.46,0,0,1,26.92,0v35.88a1,1,0,1,0,2,0v-6.33a1,1,0,0,0,.23.38,1,1,0,0,0,1.41,0l8.52-8.52v5.17l-1.94,1.94a1,1,0,1,0,1.41,1.41l.52-.52v11.09a1,1,0,1,0,2,0V242.6a16,16,0,1,1,32,0Zm277.54-32.47h30.52v14.18h-30.52Zm-9.13,14.18h-7.53V210.13h7.53Zm-9.53,0H1179V210.13h7.53Zm-9.53,0h-7.52V210.13H1177Zm-9.52,0H1160V210.13h7.53Zm-17.05-14.18H1158v14.18h-7.53ZM24,245.27a5.8,5.8,0,0,1-5.8,5.8h-.28a1,1,0,0,0-1,.6,2.93,2.93,0,0,1-4.09,1.41,1,1,0,0,0-.78-.08,1,1,0,0,0-.6.51,2.93,2.93,0,0,1-5.56-1.3c0-.08,0-.17,0-.25a1,1,0,0,0-.67-1A4.89,4.89,0,0,1,4.49,242a1,1,0,0,0,.14-1.65,3.18,3.18,0,0,1,3.43-5.31,1,1,0,0,0,1.28-.33,1.19,1.19,0,0,1,1-.53,1.15,1.15,0,0,1,.35.07,1,1,0,0,0,1.26-.63,2.46,2.46,0,0,1,4.73.27,1,1,0,0,0,1.12.78,2.83,2.83,0,0,1,.41,0A2.93,2.93,0,0,1,21,238.53a1,1,0,0,0,.06.78,8.54,8.54,0,0,1,.41,1,1,1,0,0,0,.32.44A5.76,5.76,0,0,1,24,245.27ZM155.27,184v8.42h-5L137,184h18.22ZM149,214.2H118.28V194.47H149Zm-2.43-21.73H120.71l12.91-8.24ZM134.62,182v-3.5h1.64a1,1,0,0,0,0-2h-1.64v-1.45a1,1,0,0,0-2,0v1.45H131a1,1,0,0,0,0,2h1.64V182H114.21v-9.68h36.4V182Zm-2.22-28.88h0a18.21,18.21,0,0,1,18.15,17.2h-36.3A18.21,18.21,0,0,1,132.41,153.16Zm-20.2-1.52v18.72h-9v-20.1h7.43Zm-17.77-18h15.62v14.61H94.44Zm7.81-15,7.12,13H95.13Zm-10,33,1.53-1.38h7.43v20.1h-9ZM90.14,184h5.53v14.84H90.14ZM88,200.83h9.83v17.38H88Zm-2.15,19.38H100v24.31H85.84Zm20.25-26.74v51.06H102V219.21a1,1,0,0,0-1-1H99.82V199.83a1,1,0,0,0-1-1H97.67V183a1,1,0,0,0-1-1H92.29v-9.63h9V183a1,1,0,0,0,2,0V172.36h9V183a1,1,0,0,0,1,1h17L117,192.47h-9.91A1,1,0,0,0,106.09,193.47Zm2,1h8.2v50.06h-8.2Zm31.16,50.06H128V230.87a5.62,5.62,0,0,1,11.25,0Zm2,0V230.87a7.62,7.62,0,0,0-15.25,0v13.65h-7.72V216.2H149v28.32ZM151,215.2h0V194.47h8.2v50.06H151Zm18.39,29.32h-8.2V208.18h8.2Zm86.37,33.93a9.56,9.56,0,0,1-5.9,8.82,16.48,16.48,0,0,0,3.88-11.16,1,1,0,0,0-1.06-.93,1,1,0,0,0-.93,1.06c0,.07.35,6.69-4.54,10.8v-8.59a1,1,0,0,0-2,0v8.59c-4.86-4.1-4.54-10.73-4.54-10.8a1,1,0,0,0-.94-1.06,1,1,0,0,0-1.06.93,16.48,16.48,0,0,0,3.88,11.16,9.55,9.55,0,1,1,13.2-8.82Zm-31.51-73.53a1,1,0,0,0,1-1V189.27a4.21,4.21,0,0,1,8.42,0v2.88l-2.11.46a1,1,0,0,0,.21,2l.22,0,1.68-.37v1.89l-2.11.46a1,1,0,0,0,.21,2l.22,0,1.68-.37V200l-2.11.46a1,1,0,0,0,.21,2l.22,0,1.68-.37V204l-2.11.46a1,1,0,0,0,.21,2l.22,0,1.68-.37v3.13a4.21,4.21,0,0,1-4.21,4.21H218.25a1,1,0,0,0-1,1v6.25l-2.14-.47a1,1,0,1,0-.43,2l2.57.57v1.89l-2.14-.47a1,1,0,1,0-.43,2l2.57.57v1.89L215.1,228a1,1,0,1,0-.43,2l2.57.57v5.83l-2.14-.47a1,1,0,1,0-.43,2l2.57.57v1.89l-2.14-.47a1,1,0,1,0-.43,2l2.57.57v1.89l-2.14-.47a1,1,0,1,0-.43,2l2.57.57v4.83a11,11,0,0,0-8.42-1.11V230.58a1,1,0,0,0-1-1H196.65a4.21,4.21,0,0,1-4.21-4.21v-2.08l2.11-.46a1,1,0,1,0-.43-2l-1.68.37v-1.89l2.11-.46a1,1,0,0,0-.43-2l-1.68.37v-1.89l2.11-.46a1,1,0,0,0-.43-2l-1.68.37v-1.89l2.11-.46a1,1,0,0,0-.43-2l-1.68.37v-1.89l2.11-.46a1,1,0,1,0-.43-2l-1.68.37v-1.89l2.11-.46a1,1,0,0,0-.43-2l-1.68.37v-1.89l2.11-.46a1,1,0,0,0-.43-2l-1.68.37v-1a4.21,4.21,0,0,1,8.42,0v23.53a1,1,0,0,0,1,1h6a1,1,0,0,0,1-1V200.8l1.7.37.22,0a1,1,0,0,0,.21-2l-2.13-.47v-1.89l1.7.37.22,0a1,1,0,0,0,.21-2l-2.13-.47v-1.89l1.7.37.22,0a1,1,0,0,0,.21-2l-2.13-.47V189l1.7.37.22,0a1,1,0,0,0,.21-2l-2.13-.47V185l1.7.37.22,0a1,1,0,0,0,.21-2l-2.13-.47v-1.89l1.7.37.22,0a1,1,0,0,0,.21-2l-2.13-.47v-1.89l1.7.37.22,0a1,1,0,0,0,.21-2l-2.13-.47v-3.36a4.21,4.21,0,1,1,8.42,0v32.19a1,1,0,0,0,1,1ZM342.34,65.1l3.08,4.52v2.87l-7-5.68Zm-35.44,50.85-5.52-4.46,1.72-.57a1,1,0,0,0,.54-.44l.82-1.39,5,4Zm3.86-4.34-5.27-4.26,2-3.3,5.84,4.72Zm3.86-4.34-6.14-5,2-3.3,6.71,5.43Zm5.41-5.73a1,1,0,0,0-.58.32l-1,1.08-7-5.67.65-1.09,2.89-.93,7.32,5.91Zm8.49-1.42-3.55.59-7.68-6.21,1.41-.45a1,1,0,0,0,.61-.56l.72-1.66,9.1,7.36Zm1.72-2.61-9.39-7.59,1.56-3.63,9.93,8Zm3.2-4.87-10.21-8.26,1.56-3.63,10.75,8.69Zm3.21-4.87-11-8.92,1.56-3.63,11.57,9.36Zm3.2-4.87L328,73.32l1.08-2.51,1.21-.52L342,79.72Zm3.2-4.87-10.69-8.65,3.94-1.7,8.85,7.15Zm71.72,40.69a32,32,0,0,0,8.47-3.27l1,2.68a30.16,30.16,0,0,1-8.76,3.58ZM425,120l1,2.66a30.27,30.27,0,0,1-9.29,4l-.72-3A32.11,32.11,0,0,0,425,120Zm2.71,7.19a30.29,30.29,0,0,1-10.17,4.44v-1.43a1,1,0,0,0,0-.23l-.34-1.41a32.17,32.17,0,0,0,9.55-4Zm1.7,4.52a30.18,30.18,0,0,1-11.88,5.1v-3.14a32.15,32.15,0,0,0,10.9-4.56Zm1.7,4.51A30.46,30.46,0,0,1,417.52,142v-3.13a32,32,0,0,0,12.6-5.2Zm-13.58,10.16V144a32.34,32.34,0,0,0,14.31-5.82l1,2.54a30.48,30.48,0,0,1-14.75,6.3ZM417,109.54l5.48,3.8.08.22a30,30,0,0,1-8.22,3.22l-.85-3.55Zm16.56,33.17.94,2.5a30.84,30.84,0,0,1-12.69,6.31l-2.24-2.67A32.56,32.56,0,0,0,433.54,142.71Zm1.69,4.47.94,2.49a31.57,31.57,0,0,1-10.8,6.13l-2.14-2.56A32.83,32.83,0,0,0,435.22,147.17Zm-6.43,12.71-2-2.45a33.54,33.54,0,0,0,10.17-5.79l.93,2.45A32.42,32.42,0,0,1,428.79,159.88Zm139.09,50.84h-3.39V189.54h3.39Zm-11.73,0V189.54h6.35v21.18Zm-50.19,0V189.54h48.19v21.18Zm-8.35,0V189.54h6.35v21.18Zm72.81-23.18h-3.14v-2.13h4Zm-12.19-15.91a1.1,1.1,0,1,1,1.1,1.1h0A1.1,1.1,0,0,1,558.21,171.63Zm-2.07,3.1h6.35v1.68h-3.17a1,1,0,0,0,0,2h3.17v1.68h-6.35Zm-56.47-3.1a1.1,1.1,0,1,1,1.1,1.1h0A1.1,1.1,0,0,1,499.67,171.63Zm-2.07,6.78h3.17a1,1,0,0,0,0-2H497.6v-1.68h6.34v5.36H497.6Zm-3,3.68h11.21A11.09,11.09,0,0,0,516.91,171v-6.46L530,155.31l13.14,9.24V171a11.09,11.09,0,0,0,11.08,11.08h11.21l.71,1.32H554.26a1,1,0,0,0,0,2h11v2.13H494.82v-2.13h11a1,1,0,0,0,0-2H493.91Zm-4.94,5.46-.84-2.13h4v2.13Zm2.53,2h3.39v21.18h-3.39Zm-1,23.18h83.34l-.78,1.35a1,1,0,0,0-.13.5v1.67a5.85,5.85,0,0,0-2.41,1.29c-.46.36-3.31,2.77-3.31,8.39a30.8,30.8,0,0,0,19.86,28.76h-22l-.85-22.21h1.32a1,1,0,0,0,0-2h-1.19v-1.35h1.19a1,1,0,0,0,0-2h-1.19v-2.72h1.19a1,1,0,0,0,0-2h-1.19V217.1h1.19a1,1,0,0,0,0-2H493.82a1,1,0,0,0,0,2H495v5.28h-1.19a1,1,0,0,0,0,2H495v2.72h-1.19a1,1,0,0,0,0,2H495v1.35h-1.19a1,1,0,1,0,0,2h1.32l-.85,22.21h-22a30.8,30.8,0,0,0,19.86-28.76c0-5.61-2.84-8-3.31-8.39a5.85,5.85,0,0,0-2.41-1.29v-1.67a1,1,0,0,0-.13-.5l-.78-1.35Zm60.69,43.11a21.86,21.86,0,0,0-43.72,0h-3.51a25.37,25.37,0,0,1,50.74,0ZM497,229.11h5.66v1.35H497Zm0-4.72h5.66v2.72H497Zm0-7.28h5.66v5.28H497Zm58.41,0v5.28h-1.16a1,1,0,0,0,0,2h1.16v.51H504.67v-.51h1.16a1,1,0,0,0,0-2h-1.16V217.1Zm7.66,0v5.28h-5.66V217.1Zm0,10h-5.66V225.9h0v-1.51h5.66Zm0,3.35h-5.66v-1.35h5.66Zm-8.61,13.34a27.36,27.36,0,0,0-48.84,0l-.88-11.34h1.08a1,1,0,0,0,0-2h-1.16v-1.35h1.16a1,1,0,0,0,0-2h-1.16v-.21h50.75v.21h-1.16a1,1,0,0,0,0,2h1.16v1.35h-1.16a1,1,0,0,0,0,2h1.08Zm-57.32-11.34h5.6l1.19,15.46a27.28,27.28,0,0,0-1.27,8.24v36.32h-7.81Zm60.28,27.7h0v-3.32h0v-.67a27.28,27.28,0,0,0-1.27-8.24l1.19-15.46h5.59l2.29,60h-7.81ZM452.27,249.91a4.82,4.82,0,0,1,0-.52h0a4.76,4.76,0,1,1,9.33,1.7,1,1,0,0,0,.19.88,1,1,0,0,0,.82.37,26.48,26.48,0,0,0,25.19-26,1,1,0,0,0-1.39-.94,3.81,3.81,0,0,1-1.49.3,3.85,3.85,0,0,1,0-7.69h.24a3.79,3.79,0,0,1,2.34,1l.09.08s2.52,1.84,2.52,6.8a28.79,28.79,0,0,1-28.72,28.76H457A4.76,4.76,0,0,1,452.27,249.91ZM450.71,260H445a5.87,5.87,0,0,1-1.91-3.32h51.17l-.13,3.32Zm39.78,2H494l-1.16,30.48h-1a1,1,0,0,0-1,1v4.91h-.36Zm2.36,36.39v-3.91h9.82v3.91Zm11.82-39.23v-1.32h3.51v1.32Zm5.51,39.23V256.15a19.87,19.87,0,1,1,39.74,0v42.22Zm41.74-39.23v-1.32h3.51v1.32Zm5.51,35.32h9.81v3.91h-9.81Zm12.18,3.91h-.36v-4.91a1,1,0,0,0-1-1h-1L566.07,262h3.53ZM617,256.67a5.83,5.83,0,0,1-1.91,3.32H566l-.13-3.32H617Zm-19.61-4.34a1,1,0,0,0,.82-.37,1,1,0,0,0,.2-.88,4.74,4.74,0,0,1,4.61-5.93,4.75,4.75,0,0,1,4.73,4.23h0a4.82,4.82,0,0,1,0,.52,4.76,4.76,0,0,1-4.75,4.76h-4.43a28.79,28.79,0,0,1-28.72-28.76c0-4.88,2.42-6.73,2.52-6.8l.09-.08a3.79,3.79,0,0,1,2.34-1h.24a3.85,3.85,0,1,1-1.49,7.39,1,1,0,0,0-1.39.94,26.32,26.32,0,0,0,5.54,15.71l0,.05.05.05A26.39,26.39,0,0,0,597.43,252.33ZM768,195.41H721.24v-3.62h46.24Zm-68.2-39.33h-1v-3.62h4.12v3.62Zm-7.17-3.62h4.13v3.62h-4.12Zm27.68-2h-3.83V142.7a2.29,2.29,0,1,1,3.83,0Zm-5.18,2v3.62H711v-3.62h4.12Zm-3.49-2h-3.83V142.7a2.29,2.29,0,1,1,3.83,0Zm-4.83,2H709v3.62h-4.12v-3.62Zm-3.84-2h-3.83V142.7a2.29,2.29,0,1,1,3.83,0Zm12.16,22.47H704.91v-3.62h10.25Zm0,5.62H704.91v-3.62h10.25Zm0,5.62H704.91v-3.62h10.25Zm-10.25,2h10.25v3.62H704.91Zm10.25-18.85H704.91V163.7h10.25Zm-10.25,24.47h10.25v3.62H704.91Zm10.25-30.09H704.91v-3.62h10.25Zm2-9.24h4.12v3.62h-4.12Zm47.31,37.33H721.24v-3.62h42.68Zm-3.56-5.62H721.24v-3.62h39.13Zm-3.56-5.62H721.24v-3.62h35.57Zm-3.56-5.62H721.24v-3.62h32Zm-3.56-5.62h-29V163.7h28.45Zm-3.56-5.62H721.24v-3.62h24.89Zm-3.56-5.62h-1.46v-3.62h.92Zm-3.46,0h-4.12v-3.62h4.12Zm-6.12,0h-4.12v-3.62h4.12Zm-6.12-3.62v3.62h-4.12v-3.62h4.12Zm-31.52-17.68h27.73v15.68h-1.28V142.7a6.2,6.2,0,0,0-3.51-5.61,1,1,0,0,0-.8,0,6.2,6.2,0,0,0-3.52,5.61v7.77h-.84V142.7a6.2,6.2,0,0,0-3.51-5.61,1,1,0,0,0-.8,0,6.2,6.2,0,0,0-3.51,5.61v7.77H705V142.7a6.2,6.2,0,0,0-3.51-5.61,1,1,0,0,0-.8,0,6.2,6.2,0,0,0-3.52,5.61v7.77h-1.28Zm-5.22,21.3h-4.12v-3.62h4.12Zm-6.12,0h-4.12v-3.62h4.12Zm-7-3.62h.92v3.62H677Zm-3.56,5.62h24.89v3.62H673.39Zm-3.56,5.62h28.45v3.62h-29Zm-3.56,5.62h32v3.62H666.27Zm-3.56,5.62h35.57v3.62H662.72Zm-3.56,5.62h39.13v3.62H659.16Zm-3.56,5.62h42.68v3.62H655.6Zm-3.56,5.62h46.24v3.62H652Zm45.11,10.58-23.19,13.89a4,4,0,0,1-4.41-.17l-21.59-15.25.52-3.44h49.8v4.44A6,6,0,0,0,697.7,202.37Zm3.13-.85V158.08h2.08v43.79l-.56-.15A6,6,0,0,0,700.83,201.52Zm4.08-4.12h10.25v7.71l-10.25-2.72Zm12.25-1V158.08h2.08V206.2l-2.08-.55ZM763.53,210a4,4,0,0,1-5.38.23,6.06,6.06,0,0,0-8.21.52l-7.5,7.9a4,4,0,0,1-6.32-.58l-4.53-7a6,6,0,0,0-3.52-2.55l-6.84-1.81v-9.32H771l.69,4.61Zm182-6.55-24.07,24.07a17.93,17.93,0,0,0-3.44-1.73l21.7-21.7Zm-22.43,25.26,25.6-25.6,5.8-.63-28.84,28.84A18.14,18.14,0,0,0,923.11,228.71Zm34.58-26.59,5.8-.63-34.93,34.93a17.91,17.91,0,0,0-1.71-3.46Zm-17.85,47L929.68,259.3v-5.17L939.85,244Zm0-9.48v1.48L929.68,251.3v-5.17l10.58-10.58A20.51,20.51,0,0,0,939.85,239.65ZM929.68,267.3v-5.17L939.85,252v5.17Zm11.92-35.92L929.68,243.3v-.71a17.93,17.93,0,0,0-.46-4l37.46-37.46,5.8-.63-20.4,20.4A20.62,20.62,0,0,0,941.61,231.38Zm39.26,19.56L991,240.77v5.17l-10.17,10.17Zm0,8L991,248.77v5.17l-10.17,10.17ZM991,236.3v1.64l-10.17,10.17V245.8c0-.95,0-1.87-.08-2.78l10.58-10.58A23.07,23.07,0,0,0,991,236.3Zm-10.17,35.8v-5.17L991,256.77v5.17ZM1037.09,253v-2.3l10.17-10.17v5.17l-10.17,10.17Zm0,5.7,10.17-10.17v5.17l-10.17,10.17Zm10.17-21-10.17,10.17V242.7l10.17-10.17Zm-10.17,34.16v-5.17l10.17-10.17v5.17Zm48.23-61.73a25.47,25.47,0,0,0-25,0,25.66,25.66,0,0,0-11.73,14.18c-.22.66-.41,1.32-.58,2a25.4,25.4,0,0,0-.58,3.23l-10.33,10.33V236.3a22.89,22.89,0,0,0-2.28-10q-.5-1-1.09-2a23,23,0,0,0-41.36,4.32l-11.81,11.81a30.36,30.36,0,0,0-3.77-11.81,18.4,18.4,0,0,0-16.42-9.47,20.52,20.52,0,0,0-4.1.41l19.4-19.4,2.56-.28,59.34-6.49,4.16-.46.2,0,2-.22,11.56-1.26,2-.22,22.55-2.47,2-.22,24.65-2.7,1.85-.2v6.8l-.51.51-1.34,1.34-.66.66-6.82,6.82-2,2-8.58,8.58h0q-1-.76-2-1.43Q1086,210.5,1085.32,210.13ZM1057.48,185H1080v1.77l-22.55,2.47Zm2.45-7.68h21.4l-1.12,5.68H1057.9Zm-5.2-14.54H1063l-.76,2.12h-8.58ZM1107.88,151h23.92v2.9h-24.15Zm.78-9.81h23.14v2.74h-9.58a1,1,0,0,0,0,2h9.58V149H1108Zm51.37-5.23h22.73l.26,3.23h-23Zm23.14,5.23.62,7.81H1160v-3.07h9.58a1,1,0,0,0,0-2H1160v-2.74Zm1,12.71H1160V151h23.92Zm52.93,8.86,1.07,2.12h-8.67l-.76-2.12ZM1233.84,183h-22.31l-1.12-5.68h21.4Zm.42,10H1211.7v-8h22.56Zm-24.56,8.82h-24.65v-6.82h24.65Zm-111.49,27.82,3.26-3.26,1.78-1.78.22-.22,1.78-1.78,3.28-3.28v5.17l-1.89,1.89-8.27,8.27V232.4A25.72,25.72,0,0,0,1098.21,229.57Zm.16,7.84,10.17-10.17v5.17l-10.17,10.17Zm0,8,10.17-10.17v5.17l-10.17,10.16Zm0,8,10.17-10.16v5.17l-10.17,10.17ZM1082,185h14.15L1082,186.51Zm1.33-7.68h23.85l-.45,5.68h-24.51Zm-18.25-14.54h19.07l-.42,2.12h-19.41Zm43-6.86h23.73v4.86h-21.69Zm25.73-4.9H1158v2.9H1133.8Zm0-5.07H1158V149H1133.8Zm92.82,16.83.76,2.12H1208l-.42-2.12ZM1208,175.28h-23.61l-.67-8.43h22.62Zm1.51,7.68H1185l-.45-5.68h23.84Zm-100.72,0,.45-5.68h22.58V183Zm1.27-16.11h21.76v8.43h-22.43Zm.33-4.12h21.43v2.12h-21.6Zm72,12.54H1160v-8.43h21.67Zm-48.57-8.43H1158v8.43H1133.8Zm47.57-4.12.17,2.12H1160v-2.12ZM1158,164.86H1133.8v-2.12H1158Zm-24.23,12.43H1158V183H1133.8Zm26.23,0h22.49L1183,183H1160Zm45.48-14.54.42,2.12h-22.38l-.17-2.12Zm-23.79-2H1160v-4.86h23.73ZM1158,155.88v4.86H1133.8v-4.86Zm-49.84,9h-22.38l.42-2.12h22.13Zm-22.77,2H1108l-.67,8.43h-23.61Zm25.12,26V185h21.27v8h-21.27ZM1133.8,185H1158v8H1133.8Zm26.23,0h23v8h-23Zm25,8v-8h24.65v8Zm25-17.65-1.66-8.43h19.73l3,8.43Zm-1-14.54,4.79-4.86h21.22l-8,4.86Zm-2.81,0h-22.35l2-4.86H1211ZM1158,143.91H1133.8v-2.74H1158Zm-52.12,12,2,4.86h-22.35l-4.79-4.86Zm-27.91,0,4.79,4.86h-18l-8-4.86Zm5.39,11-1.66,8.43h-21.08l3-8.43Zm6.77,46.79,3.58-3.58,1.93-1.93,4.37-4.37,2-2,4.65-4.66,1.85-1.85v5.17l-1.33,1.33-.52.52-1.48,1.48-4.37,4.37-2,2-3.1,3.1-2,2-1.08,1.08A25.78,25.78,0,0,0,1090.14,213.64Zm5.58,2.42,5.93-5.93,2-2,4.37-4.37.15-.15.36-.36h0v5.17l-1.71,1.71-1.58,1.58-2,2-7.48,7.48,0-.09a25.58,25.58,0,0,0-1.87-3.17Zm1.32,8.25q-.2-.58-.42-1.16l6.62-6.62,2-2,3.28-3.28v5.17l-3.28,3.28-2,2-2.61,2.61-2,2-.82.82c-.06-.28-.12-.55-.19-.82C1097.46,225.63,1097.27,225,1097,224.31Zm1.32,42.27v-5.17l10.17-10.17v5.17Zm43-42.27h-7.52V210.13h7.52Zm-9.52,0h-7.53V210.13h7.53Zm-9.53,0h-7.53V210.13h7.53Zm-9.53-14.18v14.18h-2.24V210.13Zm-2.24-9.29v-5.9h21.27v6.82h-21.27Zm23.27-5.9H1158v6.82H1133.8Zm26.23,0h23v6.82h-23Zm51.67,0H1216l-3.27,6.82h-1Zm6.53,0h3.53l-3.27,6.82H1215Zm5.74,0h3.53l-3.27,6.82h-3.53Zm5.74,0h3.53l-3.27,6.82h-3.53Zm5.74,0H1239l-3.27,6.82h-3.53Zm5.74,0h3.53l-3.27,6.82h-3.53Zm6.7,6.82h-4.23l3.27-6.82h1Zm0-8.82h-11.65v-8h11.65Zm-.62-10H1236l-2-5.68h10.49Zm-14.06-7.68-3-8.43h9l4.24,8.43Zm4.29-14.54h-6.61l8-4.86h9.75Zm5.29-24.8,9,17.94h-12.5l-6.4-17.94Zm-12,0,6.4,17.94h-23l-3.53-17.94Zm-22.14,0,3.53,17.94h-26l-.23-2.9h19.16a1,1,0,0,0,0-2h-19.31l-.62-7.81h9.76a1,1,0,0,0,0-2H1185l-.26-3.23ZM1158,139.17H1133.8v-3.23H1158Zm-26.23,0h-23l.26-3.23h22.73Zm-25,0h-9.92a1,1,0,0,0,0,2h9.76L1106,149h-19.32a1,1,0,0,0,0,2h19.16l-.23,2.9h-26l3.53-17.94h23.91Zm57-93.53V79.15a27.06,27.06,0,0,1-16.65,4V49.33A30.13,30.13,0,0,0,1163.79,45.64Zm-18.65,3.45V82.94a29.09,29.09,0,0,1-10.58-4.11,31.36,31.36,0,0,0-10.32-4.2V40.86a29.54,29.54,0,0,1,9.27,3.85A30.5,30.5,0,0,0,1145.14,49.09Zm-22.9-8.61V74.3a29.22,29.22,0,0,0-17.69,3.4l-.27-33.32A27,27,0,0,1,1122.24,40.49Zm-20.37,4.37h.42l.72,89.08h-2.53Zm-24.28,109h-23l6.4-17.94h20.1ZM1049,135.94h9.87l-6.4,17.94H1040Zm-5.86,19.94h9.75l8,4.86h-6.61Zm9.49,11h8.87l-3,8.43h-10.11Zm-5.25,10.43h10.4l-2,5.68h-11.23Zm-3.48,7.68h11.56v4.45l-11.56,1.26Zm-74.08-4.32-.72-10.86a116.11,116.11,0,0,1,12,1.35l2.21,7.73h0l1.66,5.81Zm-36-47.43c-2.13,1.58-3.58,2.76-4.54,3.6V122.09Zm-4.54,6.35a44.21,44.21,0,0,1,5.32-4.44l2.34,5.73a93.56,93.56,0,0,0-7.66,8.34Zm9.33,6.37a4.38,4.38,0,0,0,.74-2.51v-2.12l1.38-1.28V162.1s0,0,0,0v3.75l-2.1-1.59Zm4.1,17.08a104.57,104.57,0,0,1,12.32-1.38l-.41,6.19c-4.9.37-9.76,1-11.91,1.3Zm14.33-1.47c3.14-.12,6.31-.12,9.44,0l1.57,23.57H955.54Zm37.23-23.35h-8.07v-3.63h8.07Zm-10.07,1v4.24a4.39,4.39,0,0,0,.74,2.51v18.35l-2.12,1.61v-3.71s0,0,0,0V136a5,5,0,0,0,1.38-3v6.15Zm-15.71,22.44A104.8,104.8,0,0,1,980.89,163v6.09c-3.4-.57-7.63-1-11.91-1.29Zm25.77,8.14-9.5,7.18-2-6.82V168.4l6.75-5.1a1,1,0,0,0-1.21-1.6L987,162.78V148l.77.73a1,1,0,0,0,1.37-1.46l-1.93-1.82a2.41,2.41,0,0,1-1-2v-3.24h8.07Zm0-52.76v15.55h-8.07v-6.91a2,2,0,1,0-3.95,0v6.84a3,3,0,0,1-1.08,2.31l-1.76,1.51a1,1,0,1,0,1.3,1.52l.11-.1v23.22a112.49,112.49,0,0,0-19-1.54,114.18,114.18,0,0,0-19.1,1.56V138.22c18.22-16,41.48-27.62,45.28-29.46C991.64,111.38,994.34,114.27,994.34,117Zm-8.15-9.55a247.19,247.19,0,0,0-24.37,14L959,119.91c7.77-4.18,15.76-7.93,26.93-12.64ZM950,46.32a19.48,19.48,0,0,1-1.79-14.27,19.26,19.26,0,0,1,5.09,2.46,26.37,26.37,0,0,0-.3,4A25.93,25.93,0,0,0,954.14,46c.2.66.42,1.3.65,1.9a26.19,26.19,0,0,0,3.56,6.33,19.44,19.44,0,0,1-6.65-5.42,19.2,19.2,0,0,1-1.16-1.67C950.36,46.9,950.18,46.62,950,46.32Zm5.49-12.7q.14-.67.31-1.31l4.59,2.46a1,1,0,1,0,.95-1.76l-4.92-2.63a24.47,24.47,0,0,1,5.41-8.69,24.25,24.25,0,0,1,6.33,11.93c.08.36.14.74.19,1.12s.11.79.15,1.2a24,24,0,0,1,.14,2.53c0,.08,0,.16,0,.24L964.38,41l-.89.47a1,1,0,0,0-.41,1.35,1,1,0,0,0,.26.3,1,1,0,0,0,1.09.11L968.52,41a23.65,23.65,0,0,1-1,4.67c-.22.67-.45,1.31-.71,1.92a24.89,24.89,0,0,1-3.18,5.51c-.47.61-.9,1.11-1.27,1.52l0,0-.51.54-.5-.53,0,0c-.37-.4-.8-.9-1.27-1.51a24.75,24.75,0,0,1-3-5.08l2.85,1.53.51.27a1,1,0,0,0,.47.12h0a1,1,0,0,0,.87-.53h0a1,1,0,0,0-.08-1.06,1,1,0,0,0-.33-.29L961,48l-.73-.39-.21-.11-3.37-1.81-.71-.38a23.31,23.31,0,0,1-.85-9.34c0-.4.09-.8.15-1.19S955.43,34,955.51,33.62Zm19.94-1.56a19.47,19.47,0,0,1-1.79,14.27c-.17.3-.34.58-.52.86A19.09,19.09,0,0,1,972,48.85a19.52,19.52,0,0,1-6.63,5.4,26.19,26.19,0,0,0,3.55-6.31c.24-.6.45-1.24.65-1.9a26,26,0,0,0,1.09-6.65c0-.07,0-.14,0-.21,0-.24,0-.47,0-.72a26.36,26.36,0,0,0-.3-3.95A19.46,19.46,0,0,1,975.45,32.05ZM979,69.93c-2.43-4.12-6.74-7.74-10.38-10.29,7.2,2.86,10,6.76,10.65,7.74C979.22,68.17,979.13,69,979,69.93ZM961.84,57.75a64,64,0,0,1,6.2,3.94H955.66A64.43,64.43,0,0,1,961.84,57.75ZM953,63.69h17.61c.74.61,1.48,1.25,2.2,1.92h-22C951.56,64.94,952.3,64.3,953,63.69ZM944.66,70c-.12-.91-.21-1.77-.27-2.56.62-1,3.43-4.92,10.72-7.79C951.45,62.17,947.1,65.82,944.66,70Zm4.23-2.36h25.93a17.14,17.14,0,0,1,3.64,5.85,39.16,39.16,0,0,1-4.23,12.1,44.33,44.33,0,0,0-2.31,4.84c-1.94,4.52-3.22,7.08-7.1,7.08h-5.95c-3.88,0-5.16-2.56-7.1-7.08a44.39,44.39,0,0,0-2.31-4.84,39.12,39.12,0,0,1-4.22-12.06A17.22,17.22,0,0,1,948.88,67.61Zm7.24,31.44a8.33,8.33,0,0,0,2.73.43h5.95a8.31,8.31,0,0,0,2.75-.43l2.26,8.3-1.77.59a19.64,19.64,0,0,1-12.41,0l-1.77-.59Zm15.59,7.66-.17-.62,5.26-3.77c1,.48,2.13,1,3.25,1.6Zm3-5.34L971,104l-.06-.21c.5-.55,1.44-1.59,2.59-2.94Zm5-12.62c-1.92,4.15-7,10.13-9.37,12.77l-.94-3.43c2.07-1.54,3.21-4.17,4.38-6.9A42.58,42.58,0,0,1,976,86.56c3.33-5.76,4.67-12.59,5.2-17.59C982,75.83,981.55,84.69,979.68,88.75Zm-3-36.73c2.27,2.51,3.22,5.83,2.82,9.87a1.09,1.09,0,0,0,0,.11h0s0,0,0,0,0,.9,0,2.33c-2.08-2.29-6.3-5.73-14-7.9a21.26,21.26,0,0,0,8.39-6.7A11.94,11.94,0,0,1,976.67,52ZM947,52a11.94,11.94,0,0,1,2.88-2.27,21.27,21.27,0,0,0,8.39,6.7c-7.75,2.17-12,5.63-14.06,7.93,0-1.23,0-2,0-2.28V62a1,1,0,0,0,0-.13v0C943.77,57.83,944.72,54.52,947,52Zm-3,36.73c-1.87-4-2.36-12.85-1.49-19.7.54,5,1.89,11.78,5.2,17.51a42.63,42.63,0,0,1,2.21,4.62c1.17,2.74,2.31,5.37,4.39,6.91l-.93,3.42C951,98.88,945.93,92.9,944,88.75Zm8.75,15.07-.06.21L949,101.37l1.18-.49C951.31,102.22,952.25,103.27,952.75,103.81Zm-5.88-1.5,5.26,3.77-.17.62-8.34-2.8C944.75,103.33,945.85,102.79,946.87,102.31Zm-5.67,2.9L955,109.83a21.66,21.66,0,0,0,13.68,0l13.8-4.63,1.35.78a292.41,292.41,0,0,0-26.94,12.79l-20-10.89C938.25,106.94,939.72,106,941.21,105.21Zm-6.15,4,24.87,13.52c-4,2.7-8.2,5.67-12.26,8.87l-15.6-19.77A26.15,26.15,0,0,1,935.06,109.18Zm-4.31,4.18,15.36,19.46c-1.65,1.34-3.29,2.71-4.88,4.12l-.2.18q-1.25,1.11-2.47,2.25l-9.2-22.53A6.52,6.52,0,0,1,930.75,113.36Zm-1.4,56.41V152.46a85.33,85.33,0,0,1,8.07-9.2v.17a2.44,2.44,0,0,1-1,2.07l-1.89,1.78a1,1,0,1,0,1.37,1.46l.77-.73v14.79l-1.44-1.09a1,1,0,0,0-1.21,1.6l6.75,5.1v1.72l-1.95,6.81Zm9.35,14.91,1.63-5.71a1,1,0,0,0,.05-.18l2.18-7.63c1.73-.24,6.81-.93,12-1.33l-.72,10.81Zm4.08,1,10.91-2.91-.22,3.28a1,1,0,0,0,1,1.07H969.2a1,1,0,0,0,1-1.07l-.22-3.28,10.91,2.91v11.92l-38.11,4.17Zm-90.15,59v3.68l-10.17,10.17v-5.17l10.24-10.24A15.55,15.55,0,0,0,852.63,244.7Zm-10.17-7.32,25.43-25.43,5.81-.63-31.24,31.24Zm0-2.83v-5.17l16.45-16.45,5.8-.63Zm0-8v-5.17l7.47-7.47,5.8-.63Zm0-11.82,4.29-.47-4.29,4.29Zm0,51.81v-5.17l10.17-10.17v5.17Zm11.11-27.1-11.11,11.11v-5.17L876.87,211l5.8-.63-19.85,19.85A15.51,15.51,0,0,0,853.57,239.44Zm12.95-10.12L885.85,210l5.8-.63L871.4,229.6a15.29,15.29,0,0,0-4.88-.29ZM894.83,209l5.8-.63L877,232.05a15.42,15.42,0,0,0-3.38-1.79Zm9-1,5.81-.64-28.7,28.7a15.56,15.56,0,0,0-2.4-2.77Zm-10.1,47.26-10.17,10.17v-5.17l10.17-10.17Zm-9.94,17.93a1,1,0,0,0-.23.38v-5.32l10.17-10.17v5.17Zm9.94-30.62v4.68l-10.17,10.17V244.7a15.34,15.34,0,0,0-1.6-6.82L912.79,207l23.76-2.6-20.69,20.69a17.92,17.92,0,0,0-22.16,17.48Z" transform="translate(0 0)"/></svg>