<?xml version="1.0" encoding="utf-8"?>
<!-- Generator: Adobe Illustrator 16.0.0, SVG Export Plug-In . SVG Version: 6.00 Build 0)  -->
<!DOCTYPE svg PUBLIC "-//W3C//DTD SVG 1.1//EN" "http://www.w3.org/Graphics/SVG/1.1/DTD/svg11.dtd">
<svg version="1.1" id="Layer_1" xmlns="http://www.w3.org/2000/svg" xmlns:xlink="http://www.w3.org/1999/xlink" x="0px" y="0px"
	 width="218.519px" height="29.101px" viewBox="0 0 218.519 29.101" enable-background="new 0 0 218.519 29.101"
	 xml:space="preserve">
<g>
	<path fill="#28A1D4" d="M5.844,9.186h1.878l2.395,8.522h0.047l2.653-8.522h1.667l2.653,8.546h0.047l2.418-8.546h1.737
		l-3.381,11.269h-1.55l-2.794-8.756h-0.047l-2.817,8.756h-1.55L5.844,9.186z"/>
	<path fill="#28A1D4" d="M22.468,9.186h1.878l2.395,8.522h0.047l2.653-8.522h1.667l2.653,8.546h0.047l2.418-8.546h1.738
		l-3.381,11.269h-1.549l-2.794-8.756h-0.047l-2.818,8.756h-1.549L22.468,9.186z"/>
	<path fill="#28A1D4" d="M39.091,9.186h1.878l2.395,8.522h0.047l2.653-8.522h1.667l2.653,8.546h0.047l2.418-8.546h1.737
		l-3.381,11.269h-1.549l-2.794-8.756h-0.047l-2.817,8.756h-1.55L39.091,9.186z"/>
	<path fill="#A6CE39" d="M55.175,19.233c0-0.797,0.634-1.408,1.433-1.408c0.798,0,1.432,0.611,1.432,1.408
		c0,0.799-0.634,1.434-1.432,1.434C55.809,20.667,55.175,20.032,55.175,19.233z"/>
	<path fill="#EE3E82" d="M67.807,19.563c-0.493,0.516-1.55,1.174-2.817,1.174c-3.076,0-4.86-2.418-4.86-5.87
		c0-3.428,2.465-5.963,5.682-5.963c2.23,0,3.498,0.728,3.709,0.869V25.55h-1.714V19.563z M67.807,18.083v-7.301
		c-0.211-0.094-0.822-0.399-2.019-0.399c-2.56,0-3.827,2.16-3.827,4.438c0,2.372,0.916,4.366,3.357,4.366
		C66.585,19.187,67.642,18.294,67.807,18.083z"/>
	<path fill="#EE3E82" d="M72.996,17.216v-8.03h1.714v7.7c0,1.408,0.493,2.301,2.02,2.301c1.714,0,3.005-1.736,3.24-2.066V9.186
		h1.714v8.897c0,0.963,0.118,1.926,0.211,2.371h-1.737c-0.047-0.281-0.141-1.104-0.165-1.666c-0.517,0.705-1.714,1.949-3.663,1.949
		C73.935,20.737,72.996,19.163,72.996,17.216z"/>
	<path fill="#EE3E82" d="M84.548,14.75c0-3.311,2.066-5.846,5.071-5.846c2.794,0,4.438,1.996,4.438,5.071
		c0,0.258-0.023,0.517-0.047,0.798h-7.63c0.047,2.396,1.009,4.483,3.545,4.483c1.574,0,2.63-0.703,3.123-1.008l0.704,1.338
		c-0.563,0.375-1.831,1.15-3.874,1.15C86.333,20.737,84.548,18.083,84.548,14.75z M92.296,13.412
		c-0.047-1.597-0.775-3.029-2.724-3.029c-1.808,0-2.794,1.268-3.099,3.029H92.296z"/>
	<path fill="#EE3E82" d="M97.039,9.186h1.714v1.761c0.446-0.751,1.432-2.042,3.005-2.042c0.681,0,1.033,0.164,1.174,0.234
		l-0.423,1.644c-0.118-0.07-0.399-0.188-0.986-0.188c-1.69,0-2.629,1.949-2.771,2.301v7.559h-1.714V9.186z"/>
	<path fill="#EE3E82" d="M104.036,14.75c0-3.311,2.066-5.846,5.071-5.846c2.795,0,4.438,1.996,4.438,5.071
		c0,0.258-0.023,0.517-0.047,0.798h-7.631c0.047,2.396,1.01,4.483,3.546,4.483c1.573,0,2.63-0.703,3.123-1.008l0.705,1.338
		c-0.564,0.375-1.832,1.15-3.875,1.15C105.82,20.737,104.036,18.083,104.036,14.75z M111.784,13.412
		c-0.047-1.597-0.774-3.029-2.723-3.029c-1.808,0-2.794,1.268-3.099,3.029H111.784z"/>
	<path fill="#EE3E82" d="M117.043,17.755v-7.208h-1.854V9.186h1.854V5.969h1.715v3.217h2.84v1.362h-2.84v7.043
		c0,1.127,0.328,1.666,1.314,1.666c0.705,0,1.338-0.352,1.525-0.492l0.635,1.291c-0.328,0.211-1.15,0.682-2.371,0.682
		C117.983,20.737,117.043,19.634,117.043,17.755z"/>
	<path fill="#EE3E82" d="M124.042,17.708c0-2.981,3.287-3.874,6.01-3.874h0.492v-1.056c0-1.667-0.703-2.348-2.254-2.348
		c-1.031,0-1.924,0.329-2.934,1.221l-0.916-1.197c1.104-1.034,2.395-1.55,3.969-1.55c2.465,0,3.85,1.174,3.85,3.733v5.259
		c0,1.127,0.117,2.02,0.258,2.559h-1.713c-0.07-0.305-0.143-1.008-0.166-1.361c-0.75,0.939-1.994,1.645-3.379,1.645
		C125.379,20.737,124.042,19.54,124.042,17.708z M130.543,17.638v-2.536h-0.492c-2.418,0-4.18,0.657-4.18,2.559
		c0,1.174,0.986,1.596,1.668,1.596C128.807,19.257,129.817,18.601,130.543,17.638z"/>
	<path fill="#EE3E82" d="M136.016,9.186h1.713v1.761c0.447-0.751,1.432-2.042,3.006-2.042c0.682,0,1.033,0.164,1.174,0.234
		l-0.422,1.644c-0.119-0.07-0.4-0.188-0.988-0.188c-1.689,0-2.629,1.949-2.77,2.301v7.559h-1.713V9.186z"/>
	<path fill="#EE3E82" d="M143.129,14.844c0-2.63,1.338-5.94,5.143-5.94c3.803,0,5.377,3.264,5.377,5.893
		c0,2.63-1.504,5.94-5.307,5.94C144.538,20.737,143.129,17.474,143.129,14.844z M151.817,14.844c0-2.418-1.221-4.461-3.568-4.461
		c-2.35,0-3.287,1.996-3.287,4.414c0,2.419,1.057,4.46,3.404,4.46S151.817,17.263,151.817,14.844z"/>
	<path fill="#A6CE39" d="M155.502,19.233c0-0.797,0.635-1.408,1.434-1.408s1.432,0.611,1.432,1.408c0,0.799-0.633,1.434-1.432,1.434
		S155.502,20.032,155.502,19.233z"/>
	<path fill="#F68B1F" d="M161.959,17.755v-7.208h-1.854V9.186h1.854V5.969h1.715v3.217h2.84v1.362h-2.84v7.043
		c0,1.127,0.328,1.666,1.314,1.666c0.705,0,1.338-0.352,1.525-0.492l0.635,1.291c-0.328,0.211-1.15,0.682-2.371,0.682
		C162.899,20.737,161.959,19.634,161.959,17.755z"/>
	<path fill="#F68B1F" d="M169.614,9.186h1.715v1.761c0.445-0.751,1.432-2.042,3.006-2.042c0.68,0,1.033,0.164,1.174,0.234
		l-0.424,1.644c-0.117-0.07-0.398-0.188-0.986-0.188c-1.689,0-2.629,1.949-2.77,2.301v7.559h-1.715V9.186z"/>
	<path fill="#F68B1F" d="M176.823,17.708c0-2.981,3.287-3.874,6.01-3.874h0.494v-1.056c0-1.667-0.705-2.348-2.254-2.348
		c-1.033,0-1.926,0.329-2.936,1.221l-0.916-1.197c1.104-1.034,2.396-1.55,3.969-1.55c2.465,0,3.85,1.174,3.85,3.733v5.259
		c0,1.127,0.117,2.02,0.26,2.559h-1.715c-0.07-0.305-0.141-1.008-0.164-1.361c-0.752,0.939-1.996,1.645-3.381,1.645
		C178.161,20.737,176.823,19.54,176.823,17.708z M183.327,17.638v-2.536h-0.494c-2.418,0-4.178,0.657-4.178,2.559
		c0,1.174,0.984,1.596,1.666,1.596C181.588,19.257,182.598,18.601,183.327,17.638z"/>
	<path fill="#F68B1F" d="M187.129,9.186h1.879l3.217,9.015h0.047l3.146-9.015h1.76l-4.154,11.269h-1.598L187.129,9.186z"/>
	<path fill="#F68B1F" d="M198.424,14.75c0-3.311,2.066-5.846,5.07-5.846c2.795,0,4.438,1.996,4.438,5.071
		c0,0.258-0.023,0.517-0.047,0.798h-7.631c0.049,2.396,1.01,4.483,3.547,4.483c1.572,0,2.629-0.703,3.121-1.008l0.705,1.338
		c-0.564,0.375-1.832,1.15-3.875,1.15C200.208,20.737,198.424,18.083,198.424,14.75z M206.172,13.412
		c-0.047-1.597-0.775-3.029-2.725-3.029c-1.807,0-2.793,1.268-3.1,3.029H206.172z"/>
	<path fill="#F68B1F" d="M210.961,3.55h1.715v16.904h-1.715V3.55z"/>
</g>
</svg>
