<svg width="1772" height="398" viewBox="0 0 1772 398" fill="none" xmlns="http://www.w3.org/2000/svg">
<path d="M1470.03 118.224H1491.65V134.419C1496.83 128.807 1501.52 124.723 1505.73 122.166C1512.94 117.833 1521.12 115.667 1530.26 115.667C1540.63 115.667 1548.97 117.904 1555.28 122.379C1558.84 124.936 1562.08 128.701 1565 133.673C1569.85 127.564 1575.56 123.054 1582.12 120.142C1588.68 117.158 1596.05 115.667 1604.22 115.667C1621.71 115.667 1633.61 121.207 1639.93 132.288C1643.33 138.254 1645.03 146.281 1645.03 156.367V232.333H1622.32V153.064C1622.32 145.464 1620.13 140.243 1615.76 137.402C1611.47 134.561 1606.21 133.14 1599.97 133.14C1591.39 133.14 1583.98 135.662 1577.75 140.705C1571.6 145.748 1568.52 154.165 1568.52 165.956V232.333H1546.29V157.858C1546.29 150.116 1545.24 144.469 1543.14 140.918C1539.82 135.591 1533.62 132.927 1524.56 132.927C1516.3 132.927 1508.77 135.733 1501.97 141.344C1495.25 146.955 1491.89 157.113 1491.89 171.816V232.333H1470.03V118.224Z" fill="#8CC63F"/>
<path fill-rule="evenodd" clip-rule="evenodd" d="M1683.93 118.07H1650.14L1693.32 176.173L1647.95 237.139H1681.19L1709.37 196.621L1738.42 237.139H1771.86L1726.51 176.188L1769.99 118.716L1737.87 118.039L1710.72 155.962L1683.93 118.07Z" fill="#EC008C"/>
<path d="M1584.77 260.525H1591.87V272.069H1598.54V277.744H1591.87V304.731C1591.87 306.173 1592.37 307.138 1593.35 307.627C1593.9 307.91 1594.81 308.052 1596.08 308.052C1596.42 308.052 1596.79 308.052 1597.18 308.052C1597.57 308.026 1598.02 307.987 1598.54 307.936V313.418C1597.73 313.65 1596.89 313.817 1596.01 313.92C1595.15 314.023 1594.21 314.075 1593.2 314.075C1589.92 314.075 1587.7 313.251 1586.53 311.604C1585.36 309.931 1584.77 307.769 1584.77 305.118V277.744H1579.12V272.069H1584.77V260.525Z" fill="#212121"/>
<path d="M1606.19 272.069H1612.86V279.211C1613.41 277.821 1614.75 276.136 1616.88 274.154C1619.01 272.146 1621.47 271.142 1624.25 271.142C1624.38 271.142 1624.6 271.155 1624.91 271.181C1625.23 271.207 1625.76 271.258 1626.51 271.335V278.671C1626.1 278.594 1625.71 278.542 1625.34 278.516C1625 278.491 1624.63 278.478 1624.21 278.478C1620.68 278.478 1617.96 279.61 1616.06 281.875C1614.16 284.115 1613.21 286.701 1613.21 289.636V313.418H1606.19V272.069Z" fill="#212121"/>
<path d="M1638.38 302.415C1638.38 304.423 1639.12 306.006 1640.6 307.164C1642.08 308.322 1643.84 308.901 1645.87 308.901C1648.34 308.901 1650.73 308.335 1653.04 307.202C1656.94 305.323 1658.89 302.248 1658.89 297.975V292.377C1658.03 292.917 1656.93 293.368 1655.58 293.728C1654.22 294.088 1652.9 294.346 1651.6 294.5L1647.35 295.041C1644.8 295.375 1642.89 295.903 1641.61 296.624C1639.46 297.833 1638.38 299.764 1638.38 302.415ZM1655.38 288.362C1656.99 288.156 1658.07 287.486 1658.62 286.354C1658.93 285.736 1659.09 284.848 1659.09 283.69C1659.09 281.322 1658.23 279.61 1656.51 278.555C1654.82 277.474 1652.39 276.933 1649.22 276.933C1645.55 276.933 1642.95 277.912 1641.42 279.868C1640.56 280.949 1640 282.557 1639.74 284.694H1633.19C1633.32 279.597 1634.98 276.058 1638.18 274.076C1641.41 272.069 1645.14 271.065 1649.38 271.065C1654.29 271.065 1658.28 271.992 1661.35 273.845C1664.39 275.698 1665.91 278.581 1665.91 282.493V306.314C1665.91 307.035 1666.05 307.614 1666.34 308.052C1666.65 308.489 1667.29 308.708 1668.25 308.708C1668.56 308.708 1668.91 308.695 1669.3 308.67C1669.69 308.618 1670.11 308.554 1670.55 308.476V313.611C1669.46 313.92 1668.63 314.113 1668.06 314.19C1667.48 314.268 1666.7 314.306 1665.72 314.306C1663.3 314.306 1661.54 313.457 1660.45 311.758C1659.88 310.857 1659.48 309.583 1659.24 307.936C1657.81 309.789 1655.76 311.398 1653.08 312.762C1650.4 314.126 1647.45 314.808 1644.23 314.808C1640.35 314.808 1637.18 313.65 1634.71 311.333C1632.27 308.991 1631.05 306.07 1631.05 302.569C1631.05 298.734 1632.25 295.761 1634.67 293.651C1637.09 291.54 1640.26 290.24 1644.19 289.751L1655.38 288.362Z" fill="#212121"/>
<path d="M1681.29 272.069L1692.44 305.735L1704.1 272.069H1711.78L1696.03 313.418H1688.54L1673.14 272.069H1681.29Z" fill="#212121"/>
<path d="M1735.58 271.142C1738.55 271.142 1741.42 271.837 1744.2 273.227C1746.98 274.591 1749.1 276.367 1750.56 278.555C1751.96 280.64 1752.9 283.072 1753.37 285.852C1753.78 287.757 1753.99 290.794 1753.99 294.964H1723.38C1723.51 299.159 1724.51 302.531 1726.38 305.079C1728.25 307.601 1731.15 308.863 1735.08 308.863C1738.74 308.863 1741.67 307.666 1743.85 305.272C1745.1 303.882 1745.98 302.273 1746.5 300.446H1753.41C1753.22 301.965 1752.61 303.663 1751.57 305.542C1750.56 307.395 1749.41 308.914 1748.14 310.098C1746.01 312.157 1743.37 313.547 1740.22 314.268C1738.53 314.68 1736.62 314.885 1734.49 314.885C1729.29 314.885 1724.88 313.019 1721.27 309.287C1717.66 305.529 1715.85 300.279 1715.85 293.535C1715.85 286.894 1717.67 281.502 1721.31 277.358C1724.95 273.214 1729.71 271.142 1735.58 271.142ZM1746.78 289.443C1746.49 286.431 1745.83 284.025 1744.79 282.223C1742.86 278.877 1739.65 277.204 1735.15 277.204C1731.93 277.204 1729.23 278.362 1727.04 280.679C1724.86 282.969 1723.7 285.891 1723.57 289.443H1746.78Z" fill="#212121"/>
<path d="M1763.24 256.703H1770.26V313.418H1763.24V256.703Z" fill="#212121"/>
<path d="M52.3434 392.489H216.569L244.539 339.707L270.997 392.489H438.541L326.527 193.952L433.951 5.51181H269.334L246.033 51.5089L223.336 5.51181H56.9335L163.759 196.066L52.3434 392.489Z" fill="white"/>
<path fill-rule="evenodd" clip-rule="evenodd" d="M43.7589 397.489L158.019 196.052L48.3983 0.51181H226.444L246.091 40.3286L266.262 0.51181H442.557L332.275 193.965L447.103 397.489H267.91L244.415 350.618L219.578 397.489H43.7589ZM244.539 339.707L270.997 392.489H438.541L326.527 193.952L433.951 5.51181H269.334L246.033 51.5089L223.336 5.51181H56.9335L163.759 196.066L52.3434 392.489H216.569L244.539 339.707Z" fill="#212121"/>
<mask id="mask0" mask-type="alpha" maskUnits="userSpaceOnUse" x="82" y="16" width="327" height="361">
<path fill-rule="evenodd" clip-rule="evenodd" d="M82.4279 376.17H205.522L244.139 300.876L283.044 376.17H408.488L304.705 193.204L408.488 16.7015H283.044L245.242 87.9792L205.522 16.7015H82.4279L184.465 194.766L82.4279 376.17Z" fill="white"/>
</mask>
<g mask="url(#mask0)">
<rect width="29.1749" height="29.5457" transform="matrix(0.867969 -0.496626 -0.503389 -0.864064 286.2 395.708)" fill="#92278F"/>
<rect width="91.1996" height="91.2477" transform="matrix(0.86797 -0.496625 0.50339 0.864064 9.13488 37.7496)" fill="#D7DF21"/>
<rect width="91.1995" height="91.2477" transform="matrix(0.86797 -0.496625 0.50339 0.864064 163.843 129.338)" fill="#EC008C"/>
<rect width="91.1995" height="91.2477" transform="matrix(0.86797 -0.496625 0.50339 0.864064 88.4397 -7.16602)" fill="#8CC63F"/>
<rect width="109.563" height="74.3505" transform="matrix(0.86796 -0.496642 0.503372 0.864074 41.7836 319.531)" fill="#EC008C"/>
<rect width="91.1996" height="91.2478" transform="matrix(0.86797 -0.496625 0.50339 0.864064 243.148 83.9013)" fill="#FCB040"/>
<rect width="91.1404" height="157.368" transform="matrix(0.86795 -0.496659 0.503355 0.864084 289.227 -18.6713)" fill="#D7DF21"/>
<rect width="273.903" height="91.2317" transform="matrix(0.867901 -0.496743 0.50327 0.864133 38.8173 96.0833)" fill="#FFDE16"/>
<rect width="91.1996" height="91.2478" transform="matrix(0.86797 -0.496625 0.50339 0.864064 288.934 162.6)" fill="#F7941E"/>
<rect width="91.0807" height="282.305" transform="matrix(0.867897 -0.49675 0.503262 0.864137 209.629 207.989)" fill="#CE047B"/>
<rect width="111.247" height="65.272" transform="matrix(0.867951 -0.496656 0.503358 0.864082 76.5548 382)" fill="#CE047B"/>
<rect width="91.0874" height="263.296" transform="matrix(0.867904 -0.496738 0.503275 0.86413 84.5378 174.73)" fill="#F7941E"/>
</g>
<ellipse cx="1555.8" cy="304.117" rx="9.39648" ry="9.30234" fill="#EC008C"/>
<path fill-rule="evenodd" clip-rule="evenodd" d="M52.6383 205.18C47.8703 202.209 44.6369 197.276 43.4602 189.597H128.559L128.63 185.017C128.784 175.056 128.445 167.172 127.539 161.518L127.538 161.509C125.981 151.905 122.558 143.345 117.212 135.92C111.306 127.548 103.75 121.342 94.5809 117.413C85.5726 113.554 75.5516 111.671 64.5967 111.671C46.0412 111.671 30.5371 117.311 18.5171 128.852L18.5112 128.858L18.5054 128.863C6.40326 140.565 0.677979 157.125 0.677979 177.799C0.677979 199.804 7.03065 216.71 20.736 227.287C33.7546 237.333 48.8192 242.351 65.7443 242.351C85.9707 242.351 102.317 236.479 114.119 224.216C121.413 216.79 125.979 209.003 126.988 200.855L127.635 195.637H86.0702L84.7558 198.149C83.2065 201.11 81.5383 203.195 79.839 204.596L79.83 204.603L79.8211 204.61C76.6379 207.26 72.3174 208.774 66.433 208.774C60.8155 208.774 56.3029 207.511 52.6762 205.203L52.6573 205.191L52.6383 205.18ZM78.9089 150.685L78.9379 150.711L78.9672 150.736C81.6071 152.997 83.5442 156.167 84.5598 160.538H44.9107C46.1222 156.45 47.9636 153.229 50.3278 150.738C53.4416 147.533 57.9773 145.669 64.5967 145.669C70.5426 145.669 75.2015 147.402 78.9089 150.685Z" fill="#212121"/>
<path fill-rule="evenodd" clip-rule="evenodd" d="M423.062 234.139L423.074 234.148L423.086 234.156C430.626 239.375 439.891 241.826 450.568 241.826C467.375 241.826 481.399 236.073 492.228 224.472C499.929 216.28 504.764 205.669 506.979 192.899C509.359 207.635 515.521 219.277 525.901 227.287C538.92 237.333 553.984 242.351 570.909 242.351C591.136 242.351 607.483 236.478 619.285 224.215C626.579 216.789 631.144 209.003 632.153 200.855L632.8 195.637H591.235L589.921 198.149C588.371 201.11 586.703 203.195 585.004 204.596L584.995 204.603L584.986 204.61C581.803 207.26 577.482 208.774 571.598 208.774C565.98 208.774 561.468 207.511 557.841 205.203L557.822 205.191L557.803 205.18C553.035 202.209 549.802 197.276 548.625 189.597H633.724L633.794 185.017C633.949 175.056 633.61 167.172 632.704 161.518L632.703 161.509C631.146 151.906 627.723 143.346 622.378 135.921C616.472 127.549 608.915 121.342 599.746 117.413C590.737 113.554 580.717 111.671 569.762 111.671C551.206 111.671 535.702 117.311 523.682 128.852L523.676 128.858L523.67 128.863C515.125 137.126 509.759 147.811 507.343 160.656C505.281 147.429 500.179 136.548 491.735 128.348C480.729 117.588 467.177 112.197 451.371 112.197C440.499 112.197 430.872 114.986 422.712 120.728L422.688 120.745L422.665 120.761C421.373 121.694 420.113 122.718 418.885 123.828V114.719H378.156V283.651H419.918V231.663C420.948 232.565 421.996 233.391 423.062 234.139ZM459.342 155.703L459.352 155.718L459.362 155.734C463.264 161.709 465.265 168.627 465.265 176.644C465.265 186.698 463.006 194.209 458.957 199.623L458.947 199.637L458.936 199.651C455.201 204.726 449.789 207.407 441.96 207.407C436.528 207.407 432.062 206.059 428.356 203.518C422.359 199.323 418.77 191.743 418.77 179.271C418.77 171.249 419.87 164.979 421.845 160.268C423.757 155.84 426.339 152.784 429.482 150.798C432.646 148.798 436.723 147.666 441.96 147.666C450.619 147.666 456.036 150.551 459.342 155.703ZM584.074 150.685L584.103 150.711L584.132 150.736C586.772 152.997 588.709 156.167 589.725 160.538H550.076C551.287 156.45 553.129 153.229 555.493 150.738C558.607 147.533 563.142 145.669 569.762 145.669C575.708 145.669 580.366 147.402 584.074 150.685Z" fill="#212121"/>
<path d="M707.44 111.987C708.046 111.987 708.689 112.012 709.32 112.096C709.945 112.108 710.871 112.146 712.03 112.202L716.5 112.418V152.688L711.321 152.161C709.322 151.957 707.579 151.825 706.086 151.76C704.512 151.692 703.287 151.66 702.39 151.66C690.098 151.66 683.306 155.276 679.967 161.07C678.049 164.423 676.79 170.236 676.79 179.166V238.568H634.455V114.719H675.068V125.31C677.009 123.138 678.89 121.351 680.714 119.984C687.852 114.52 696.896 111.987 707.44 111.987Z" fill="#212121"/>
<path d="M719.792 102.918H762.357V73.4188H719.792V102.918Z" fill="#212121"/>
<path d="M762.357 114.719H719.792V238.568H762.357V114.719Z" fill="#212121"/>
<path fill-rule="evenodd" clip-rule="evenodd" d="M819.79 205.18C815.022 202.209 811.788 197.276 810.612 189.597H895.71L895.781 185.017C895.935 175.056 895.596 167.172 894.691 161.518L894.689 161.509C893.132 151.906 889.709 143.346 884.364 135.921C878.458 127.549 870.902 121.342 861.732 117.413C852.724 113.554 842.703 111.671 831.748 111.671C813.193 111.671 797.688 117.311 785.669 128.852L785.663 128.858L785.657 128.863C773.555 140.565 767.829 157.125 767.829 177.799C767.829 199.804 774.182 216.71 787.887 227.287C800.906 237.333 815.971 242.351 832.896 242.351C853.123 242.351 869.469 236.478 881.271 224.215C888.565 216.789 893.131 209.003 894.14 200.855L894.786 195.637H853.222L851.907 198.149C850.358 201.11 848.69 203.195 846.99 204.596L846.981 204.603L846.973 204.61C843.789 207.26 839.469 208.774 833.584 208.774C827.967 208.774 823.454 207.511 819.828 205.203L819.809 205.191L819.79 205.18ZM846.06 150.685L846.089 150.711L846.119 150.736C848.758 152.997 850.696 156.167 851.711 160.538H812.062C813.274 156.45 815.115 153.229 817.479 150.738C820.593 147.533 825.129 145.669 831.748 145.669C837.694 145.669 842.353 147.402 846.06 150.685Z" fill="#212121"/>
<path d="M981.363 238.568H1024.27V156.782C1024.27 141.595 1019.88 129.656 1010.03 122.292C1000.83 115.296 989.196 111.987 975.502 111.987C964.466 111.987 954.934 114.462 947.231 119.752L947.225 119.756L947.219 119.76C945.7 120.811 944.185 122.065 942.671 123.51V114.929H901.713V238.568H943.704V171.914C943.704 165.267 944.716 160.187 946.472 156.447C948.168 152.917 950.473 150.447 953.36 148.813C956.291 147.154 960.116 146.195 965.058 146.195C973.029 146.195 977.17 148.705 979.288 152.583C980.511 154.822 981.363 158.549 981.363 164.243V238.568Z" fill="#212121"/>
<path d="M1112.88 161.113L1113.46 165.111H1156.3L1155.72 159.945C1153.79 142.809 1147.43 129.883 1135.83 122.414C1124.91 115.338 1111.12 111.987 1094.81 111.987C1075.38 111.987 1059.57 117.784 1048.02 129.829C1036.48 141.862 1031.01 158.454 1031.01 178.955C1031.01 197.268 1036.01 212.607 1046.37 224.548C1057.06 236.855 1073.41 242.562 1094.35 242.562C1115.59 242.562 1132.3 235.583 1143.62 221.117C1150.53 212.374 1154.53 202.915 1155.38 192.792L1155.81 187.756H1113.11L1112.64 191.884C1112.03 197.207 1110.35 201.188 1107.86 204.126C1105.92 206.401 1102.16 208.143 1095.15 208.143C1090.47 208.143 1086.88 207.113 1084.13 205.331C1081.39 203.556 1079.13 200.806 1077.47 196.754L1077.47 196.737L1077.46 196.72C1075.64 192.385 1074.6 186.301 1074.6 178.22C1074.6 169.703 1075.65 163.285 1077.48 158.722C1079.23 154.403 1081.59 151.469 1084.43 149.583C1087.27 147.694 1090.95 146.615 1095.73 146.615C1102.44 146.615 1106.55 148.567 1109.08 151.711C1111.12 154.499 1112.38 157.61 1112.88 161.113Z" fill="#212121"/>
<path d="M1162.37 102.918H1204.93V73.4188H1162.37V102.918Z" fill="#212121"/>
<path d="M1204.93 114.719H1162.37V238.568H1204.93V114.719Z" fill="#212121"/>
<path fill-rule="evenodd" clip-rule="evenodd" d="M1281.72 236.012C1285.27 234.114 1288.59 231.984 1291.69 229.619C1292.16 231.615 1292.86 233.658 1293.76 235.74L1294.97 238.568H1338.36V226.439L1335.51 225.23C1333.89 224.54 1333.03 223.816 1332.58 223.229C1332.59 223.242 1332.36 222.915 1332.11 221.895C1331.88 220.935 1331.69 219.606 1331.58 217.848C1331.43 212.72 1331.35 208.376 1331.35 204.807V152.263C1331.35 144.785 1329.91 138.154 1326.77 132.596C1323.59 126.989 1318.83 122.758 1312.71 119.894C1301.35 114.581 1288.48 111.987 1274.21 111.987C1252.57 111.987 1236.04 117.155 1226.09 128.761L1226.08 128.776L1226.07 128.791C1219.89 136.128 1216.55 145.351 1215.81 156.151L1215.47 161.118H1256.02L1256.69 157.253C1257.35 153.46 1258.59 150.836 1260.15 149.055C1262.06 146.997 1265.9 145.354 1273.06 145.354C1279.67 145.354 1283.97 146.252 1286.49 147.557L1286.54 147.584L1286.59 147.609C1287.6 148.099 1288.2 148.702 1288.6 149.415C1289.02 150.174 1289.36 151.332 1289.36 153.104C1289.36 154.022 1289.11 154.642 1288.67 155.185C1288.16 155.803 1287.18 156.57 1285.34 157.289L1285.31 157.299L1285.29 157.309C1283.32 158.104 1279.54 158.928 1273.55 159.623L1262.43 160.883L1262.42 160.884L1262.41 160.885C1249.56 162.382 1239.32 164.922 1232.06 168.756L1232.05 168.759L1232.04 168.763C1225.45 172.27 1220.31 176.969 1216.85 182.913C1213.41 188.844 1211.78 195.746 1211.78 203.441C1211.78 215.452 1215.91 225.28 1224.52 232.261L1224.54 232.277L1224.56 232.293C1232.97 238.959 1243.43 242.141 1255.61 242.141C1265.17 242.141 1273.9 240.136 1281.7 236.025L1281.71 236.019L1281.72 236.012ZM1289.25 185.53V189.308C1289.03 198.459 1286.25 203.525 1282.12 206.145L1282.11 206.152L1282.09 206.16C1276.97 209.453 1271.39 211.085 1265.26 211.085C1261.68 211.085 1258.91 210.205 1256.7 208.641C1255.19 207.482 1254 205.391 1254 201.234C1254 199.052 1254.47 197.401 1255.24 196.109C1256.01 194.821 1257.23 193.63 1259.13 192.602L1259.13 192.6C1261.38 191.385 1265.65 190.115 1272.44 189.01L1272.46 189.006L1279.83 187.742C1283.6 187.094 1286.75 186.379 1289.16 185.562C1291.57 184.746 1289.2 185.549 1289.2 185.549L1289.25 185.53Z" fill="#212121"/>
<path d="M1378.89 196.755L1378.37 192.695H1336.37V197.346C1336.37 210.533 1341.68 221.54 1352.08 230.041L1352.09 230.054L1352.11 230.066C1362.74 238.613 1378.56 242.456 1398.68 242.456C1418.38 242.456 1433.88 238.834 1444.28 230.743L1444.28 230.741C1454.63 222.671 1459.96 212.058 1459.96 199.238C1459.96 189.312 1456.19 180.874 1448.77 174.242L1448.75 174.224L1448.73 174.205C1441.39 167.799 1430.76 163.322 1417.35 160.434L1417.32 160.427L1417.29 160.421C1407.56 158.464 1399.91 156.806 1394.32 155.444C1388.52 154.031 1385.43 153.048 1384.39 152.527L1384.35 152.509L1384.32 152.491C1383.34 152.02 1382.86 151.538 1382.61 151.149C1382.37 150.769 1382.15 150.191 1382.15 149.215C1382.15 148.48 1382.43 147.375 1384.56 145.92C1386.41 144.699 1390.3 143.673 1397.19 143.673C1405.23 143.673 1409.69 145.575 1411.99 148.152C1413.13 149.506 1414.06 151.597 1414.44 154.804L1414.93 158.911H1457.02L1456.49 153.784C1454.93 138.707 1448.69 127.325 1437.21 120.717C1426.47 114.425 1412.87 111.461 1396.73 111.461C1379.59 111.461 1365.59 115.441 1355.36 124.018C1345.4 132.362 1340.16 142.682 1340.16 154.785C1340.16 164.83 1343.47 173.136 1350.58 178.962C1357.28 184.521 1368.16 188.741 1382.48 192.001L1382.5 192.006L1382.52 192.011C1392.33 194.141 1400 195.945 1405.58 197.425C1408.38 198.166 1410.6 198.813 1412.28 199.367C1414.04 199.95 1414.94 200.346 1415.27 200.532C1416.95 201.494 1417.51 202.556 1417.51 204.177C1417.51 205.036 1417.29 205.599 1416.96 206.055C1416.6 206.559 1415.88 207.202 1414.5 207.837L1414.48 207.844L1414.46 207.852C1411.59 209.194 1407.28 210.035 1401.21 210.035C1390.5 210.035 1384.68 208.012 1382.02 205.398L1382.02 205.391L1382.01 205.385C1380.82 204.225 1379.53 201.689 1378.89 196.755Z" fill="#212121"/>
<path fill-rule="evenodd" clip-rule="evenodd" d="M459.572 156.037L459.582 156.052L459.592 156.068C463.494 162.043 465.496 168.961 465.496 176.977C465.496 187.032 463.236 194.543 459.187 199.957L459.177 199.971L459.166 199.985C455.432 205.06 450.019 207.741 442.19 207.741C436.758 207.741 432.292 206.393 428.586 203.852C422.589 199.657 419 192.076 419 179.605C419 171.583 420.1 165.313 422.075 160.601C423.987 156.174 426.569 153.118 429.712 151.131C432.876 149.132 436.953 148 442.19 148C450.85 148 456.266 150.885 459.572 156.037Z" fill="#F7941E"/>
<path fill-rule="evenodd" clip-rule="evenodd" d="M1289.25 185.334V189.112C1289.03 198.263 1286.25 203.329 1282.12 205.949L1282.11 205.956L1282.09 205.964C1276.97 209.257 1271.39 210.89 1265.25 210.89C1261.68 210.89 1258.91 210.009 1256.7 208.445C1255.19 207.286 1254 205.195 1254 201.038C1254 198.856 1254.47 197.205 1255.24 195.913C1256.01 194.625 1257.23 193.434 1259.13 192.406L1259.13 192.404C1261.38 191.189 1265.65 189.919 1272.44 188.814L1272.46 188.81L1279.83 187.546C1283.6 186.898 1286.75 186.183 1289.16 185.367C1291.56 184.55 1289.2 185.353 1289.2 185.353L1289.25 185.334Z" fill="#EC008C"/>
<path d="M845.998 151.016L846.027 151.041L846.057 151.066C848.696 153.328 850.633 156.497 851.649 160.868H812C813.211 156.781 815.053 153.56 817.417 151.069C820.531 147.864 825.067 146 831.686 146C837.632 146 842.291 147.732 845.998 151.016Z" fill="#00AEEF"/>
<path d="M583.998 151.016L584.027 151.041L584.057 151.066C586.696 153.328 588.633 156.497 589.649 160.868H550C551.211 156.781 553.053 153.56 555.417 151.069C558.531 147.864 563.067 146 569.686 146C575.632 146 580.291 147.732 583.998 151.016Z" fill="#8CC63F"/>
<path d="M78.9981 151.016L79.0271 151.041L79.0565 151.066C81.6964 153.328 83.6334 156.497 84.649 160.868H45C46.2114 156.781 48.0529 153.56 50.4169 151.069C53.5307 147.864 58.0665 146 64.6859 146C70.6319 146 75.2907 147.732 78.9981 151.016Z" fill="#EC008C"/>
</svg>
